<?xml version="1.0" standalone="no"?>
<!DOCTYPE svg PUBLIC "-//W3C//DTD SVG 1.1//EN" "http://www.w3.org/Graphics/SVG/1.1/DTD/svg11.dtd" >
<svg xmlns="http://www.w3.org/2000/svg">
<metadata></metadata>
<defs>
<font id="formatamedium" horiz-adv-x="1236" >
<font-face units-per-em="2048" ascent="1638" descent="-410" />
<missing-glyph horiz-adv-x="598" />
<glyph unicode="&#xfb01;" horiz-adv-x="1323" d="M6 860q4 35 7 59.5t5 48t4.5 49t4.5 60.5l12 13l135 -5l-2 123q0 16 -1 35t1 37q0 29 6 71t26.5 87t61.5 87t113 70q49 20 101 25.5t106 5.5q45 0 74.5 -1t70.5 -5l10 -14q-4 -41 -6 -69t-4 -51.5t-4 -49t-4 -62.5l-14 -8q-35 4 -44.5 4h-19.5q-14 0 -31.5 -2t-34 -11 t-32 -27.5t-25.5 -49.5q-4 -10 -5 -20.5t-2 -25.5t-2 -39t-1 -62v-48q23 0 41 -1t38.5 -1t45.5 1t59 1l11 -12q-4 -37 -7.5 -62.5t-5.5 -49t-3 -48t-3 -57.5l-14 -14q-25 2 -42.5 3t-33.5 2t-35.5 2t-50.5 1q-4 -201 1 -413t19 -423l-12 -14h-97h-79t-77 -2t-93 -4l-12 14 q2 53 4 94t3 88.5t2 112t1 164.5q0 92 1 148.5t1 94.5v68.5v73.5l-156 -4zM827 1042l13 13q59 10 99 16t76 12.5t77 13.5t102 19l12 -16q-2 -102 -4 -205.5t-2 -253.5q0 -141 2 -242.5t4 -174t5 -123t8 -87.5l-15 -12h-101t-81 -1t-79 -3t-93 -4l-12 14q4 102 8 221t4 287 q0 117 -2 198t-5 140t-7.5 102t-8.5 86zM834 1548l12 13q55 6 91 11t69.5 9t72.5 9t101 14l12 -13q-2 -49 -3 -80.5t-2 -59.5t-1 -59.5v-78.5l-10 -15q-49 -6 -85 -10t-71 -9t-74 -11t-96 -17l-12 13l2 116q0 41 -1 78t-5 90z" />
<glyph unicode="&#xfb02;" horiz-adv-x="1323" d="M6 860q4 35 7 59.5t5 48t4.5 49t4.5 60.5l12 13l133 -5l-2 123v35t2 37q0 29 6 71t26.5 87t61.5 87t113 70q49 20 101 25.5t106 5.5q45 0 74.5 -1t70.5 -5l10 -14q-4 -41 -6 -69t-4 -51.5t-4 -49t-4 -62.5l-14 -8q-35 4 -44.5 4h-19.5q-14 0 -31.5 -2t-34 -11t-32 -27.5 t-25.5 -49.5q-4 -10 -5 -20.5t-2 -25.5t-2 -39t-1 -62v-48q23 0 41 -1t37.5 -1t45.5 1t60 1l11 -12q-4 -37 -7.5 -62.5t-5.5 -49t-3 -48t-3 -57.5l-14 -14q-25 2 -42.5 3t-33.5 2t-35.5 2t-50.5 1q-4 -201 1 -413t19 -423l-12 -14h-97h-79t-77 -2t-93 -4l-12 14q2 53 4 94 t3 88.5t2 112t1 164.5q0 92 1 148.5t1 94.5v68.5v73.5l-156 -4zM825 1565l11 14q55 8 93 13t73.5 10.5t77.5 12.5t106 17l12 -12q-4 -125 -7 -249t-3 -271q0 -100 1 -199.5t3 -200.5q0 -106 1 -194t3 -169t5 -159t7 -164l-12 -12h-88t-73 -1t-78 -3t-103 -4l-12 14 q2 39 4 85t4 108.5t3 145.5t1 194q0 178 -1 352t-7 350q-2 57 -4 102.5t-5 82t-6.5 69.5t-5.5 68z" />
<glyph horiz-adv-x="0" />
<glyph unicode="&#xd;" horiz-adv-x="598" />
<glyph unicode=" "  horiz-adv-x="598" />
<glyph unicode="&#x09;" horiz-adv-x="598" />
<glyph unicode="&#xa0;" horiz-adv-x="598" />
<glyph unicode="!" horiz-adv-x="598" d="M147 1534l13 14l358 31l17 -10q-18 -252 -27.5 -413t-15 -269.5t-7.5 -189.5t-4 -173l-12 -16l-250 -12l-10 14q-6 158 -12.5 313.5t-14.5 311.5q-4 72 -8 123t-8 95t-8 86t-11 95zM166 8v287l14 14q51 0 86 -1t69 0t71.5 2t93.5 3l14 -10v-291l-10 -12l-326 -6z" />
<glyph unicode="&#x22;" horiz-adv-x="811" d="M66 1413q0 53 37.5 87t97.5 34q43 0 66.5 -18.5t31.5 -28.5q16 -23 18 -47.5t0 -46.5l-96 -531h-55l-96 506q-2 12 -3 23.5t-1 21.5zM492 1413q0 53 37.5 87t97.5 34q29 0 48 -8t31.5 -18.5t18.5 -20.5t8 -12q10 -18 11 -39t-1 -43l-96 -531h-55l-96 506q-2 12 -3 23.5 t-1 21.5z" />
<glyph unicode="#" horiz-adv-x="1366" d="M86 438v203h279l24 195h-258v204h285l55 408h213l-57 -408h200l56 408h207l-56 -408h242v-204h-268l-29 -195h252v-203h-277l-63 -440h-207l64 440h-203l-62 -440h-209l62 440h-250zM569 641h205l27 195h-203z" />
<glyph unicode="$" horiz-adv-x="1067" d="M78 76l18 243l21 9q35 -25 58.5 -41.5t47 -26.5t50 -18.5t65.5 -18.5l88 363q-55 37 -94 63.5t-66.5 48t-47 40t-36.5 40.5q-49 59 -64.5 117.5t-15.5 112.5q0 68 24 139.5t77 130.5t138 98t210 39h36.5t37.5 -2l22 125l15 12l141 -2l10 -12l-37 -139q27 -4 45.5 -8.5 t35.5 -9.5t36.5 -12t48.5 -17l14 -15l-30 -237l-21 -6q-33 18 -54.5 30.5t-39.5 20.5t-38.5 14t-51.5 12l-86 -335q47 -29 80 -50.5t69 -48.5q29 -20 65 -49t66.5 -71t52 -98t21.5 -132q0 -49 -13 -101.5t-43 -101.5t-76 -91t-114 -73q-82 -35 -159.5 -41t-153.5 -4 l-29 -135l-12 -12h-141l-8 12l39 152q-35 8 -57.5 14t-42 13.5t-40 16.5t-49.5 25zM414 1047q0 -53 30.5 -83t59.5 -49l69 269q-33 -2 -65.5 -8.5t-61.5 -40.5q-33 -39 -32 -88zM485 209q88 4 128 49t40 98t-32.5 89t-61.5 59z" />
<glyph unicode="%" horiz-adv-x="1878" d="M45 922q0 72 8 148.5t43 146.5q31 63 74 101t88 57.5t87 24.5t69 5q86 0 146.5 -25.5t99 -66.5t60 -91.5t32 -100.5t12.5 -96t2 -75q0 -66 -7 -148.5t-44 -158.5t-111 -127t-205 -51q-86 0 -144 24.5t-98 63.5t-62.5 89t-33 101.5t-13.5 98.5t-3 80zM285 936 q0 -170 32.5 -240.5t92.5 -70.5q25 0 46 12t37.5 48t25.5 102.5t7 175.5q0 47 -4 97t-15 91t-34.5 67.5t-62.5 26.5q-29 0 -50.5 -15.5t-35.5 -39.5q-14 -27 -22.5 -67t-11.5 -77.5t-4 -69.5t-1 -40zM537 14q76 164 147.5 328t142.5 330q74 174 145.5 348t141.5 352l14 14 q41 0 67 1.5t46.5 1.5t41 1t50.5 1l8 -19q-41 -92 -93 -206.5t-119.5 -273.5t-156.5 -373t-204 -505l-14 -14h-56.5h-41t-45 -1t-64.5 -1zM1112 440q0 70 8 147t43 146q31 63 74 101t88 57.5t87 25t69 5.5q86 0 146.5 -26t99 -67t60 -91t32 -100t12.5 -96t2 -75 q0 -66 -8 -150t-44 -157.5t-110 -124.5t-205 -51q-86 0 -144 24.5t-98 63.5t-62.5 88t-33 100t-13.5 98.5t-3 81.5zM1352 453q0 -170 32.5 -240t92.5 -70q25 0 46 12.5t37.5 48.5t25.5 101t7 174q0 47 -4 97.5t-15 91.5t-34.5 67.5t-62.5 26.5q-29 0 -50.5 -15.5 t-35.5 -39.5q-14 -27 -22.5 -67t-11.5 -78t-4 -69.5t-1 -39.5z" />
<glyph unicode="&#x26;" horiz-adv-x="1366" d="M49 365q0 84 28.5 148.5t74 115.5t100.5 90t108 74q-16 20 -38.5 52t-44 72.5t-36 89t-14.5 103.5q0 74 30 139.5t84 114.5t131 77.5t171 28.5q104 0 175 -30.5t115 -77.5t63.5 -102.5t19.5 -104.5q0 -74 -29 -135.5t-68.5 -109.5t-80.5 -80.5t-66 -51.5l201 -258 q31 43 54.5 80t43 74t35.5 78t35 94l20 2l170 -211l4 -19q-43 -84 -93 -157.5t-112 -141.5q20 -27 57.5 -72.5t74 -91.5t64.5 -81t32 -37l-17 -31h-90t-90 -2t-88 -4t-88 -6l-18 12l-76 103q-23 -16 -56.5 -40t-81.5 -44.5t-109.5 -35t-139.5 -14.5q-119 0 -203 32t-149 99 q-39 41 -71 107t-32 152zM393 397q0 -29 11.5 -56.5t33 -50t53 -36.5t72.5 -14q66 0 106 21.5t68 43.5l-215 275q-43 -31 -86 -73t-43 -110zM528 1149q0 -18 4.5 -33.5t14.5 -35t27 -44t44 -61.5q18 14 40 32.5t40.5 41t29.5 49t11 57.5q0 53 -34.5 77.5t-67.5 24.5 q-45 0 -77 -31.5t-32 -76.5z" />
<glyph unicode="'" horiz-adv-x="425" d="M88 1391.5v21.5q0 33 12.5 55.5t33 37t43 21.5t44.5 7q45 0 69.5 -19.5t31.5 -27.5q16 -23 17 -47.5t-1 -46.5l-96 -531h-56l-96 506q-2 12 -2 23.5z" />
<glyph unicode="(" horiz-adv-x="724" d="M113 565q0 174 43 330t103 283t127 224t114 154l16 9l191 2l10 -19q-27 -47 -59.5 -112.5t-77.5 -178.5q-72 -186 -113 -361t-41 -355q0 -129 20.5 -249t57.5 -237.5t88 -235.5t110 -241l-12 -18l-188 -6l-15 12q-53 76 -118.5 175t-123 224t-95 274.5t-37.5 325.5z" />
<glyph unicode=")" horiz-adv-x="724" d="M8 -428q39 70 89 178.5t95.5 240.5t76 281.5t30.5 305.5q0 141 -25.5 274t-66.5 255t-90 230.5t-94 204.5l12 19l188 6l17 -13q53 -76 117.5 -175t122 -224t95 -275.5t37.5 -326.5q0 -248 -98 -499t-287 -490l-18 -8l-191 -2z" />
<glyph unicode="*" horiz-adv-x="937" d="M59 1274q18 31 31.5 50t24 37.5t20.5 38t27 48.5l16 2q33 -27 54.5 -43t43 -31.5t48 -35t71.5 -50.5l-43 264l13 13l204 4l11 -12l-37 -263l211 162l16 -2q14 -29 25.5 -49.5t22.5 -38.5t23.5 -37.5t30.5 -50.5l-2 -14l-249 -113l251 -94l7 -15l-99 -180l-16 -4l-225 168 l51 -266l-12 -12l-211 -7l-11 11l33 264q-37 -29 -59.5 -45.5t-43 -32.5t-44 -34.5t-60.5 -49.5l-14 2l-107 176l5 15l249 106l-249 105z" />
<glyph unicode="+" horiz-adv-x="1366" d="M86 492v208h494v494h211v-494h489v-208h-489v-492h-211v492h-494z" />
<glyph unicode="," horiz-adv-x="512" d="M-8 -229q25 88 41 147t28.5 113.5t22.5 114t25 147.5l12 12q63 0 104 1t77 3t73 3t90 5l8 -14q-35 -74 -58.5 -129t-47 -110.5t-50 -123t-65.5 -165.5l-14 -11l-238 -8z" />
<glyph unicode="-" horiz-adv-x="768" d="M70 461l12 235l14 13q72 0 145.5 -1t147.5 -1q90 0 157.5 1t141.5 3l10 -11l-14 -237l-12 -12q-76 0 -151 1t-150 1h-75t-67.5 -1t-69.5 -2t-79 -1z" />
<glyph unicode="." horiz-adv-x="512" d="M80 293l10 16l328 6l10 -12l4 -289l-10 -12l-328 -8l-10 14z" />
<glyph unicode="/" horiz-adv-x="980" d="M-35 -281q104 236 189.5 428.5t156 354.5t129 299t110.5 262t98 244.5t93 244.5l17 15h239l9 -17q-135 -309 -232.5 -536.5t-170.5 -395t-124 -289.5t-92 -222.5t-77 -190.5t-77 -197l-14 -14l-242 -4z" />
<glyph unicode="0" horiz-adv-x="1193" d="M72 674q0 90 6 157.5t15 116.5t18.5 82t17.5 53q39 109 101.5 174.5t129 100.5t131 46t111.5 11q125 0 213 -37t145.5 -95t89 -134t48 -152.5t19.5 -149.5t5 -128q0 -41 -1 -115t-15 -159t-45 -172t-90 -150q-78 -86 -178.5 -118t-194.5 -32q-262 0 -394 168t-132 533z M422 694q0 -43 2 -95t7 -103.5t13.5 -97.5t20.5 -79q29 -76 69.5 -98t67.5 -22q12 0 30.5 4t38 18.5t38 41t30.5 71.5q16 59 24.5 153t8.5 250q0 63 -4 141t-20.5 147t-50 116t-93.5 47q-43 0 -77.5 -26.5t-57.5 -85t-35 -153t-12 -229.5z" />
<glyph unicode="1" horiz-adv-x="1193" d="M238 1130l14 207l14 15l510 67l12 -12q-4 -209 -7 -415t-3 -414q0 -117 1 -197t3 -142.5t4 -114.5t7 -110l-13 -14h-97h-79t-76 -2t-90 -4l-10 14q4 209 8 404.5t4 396.5v165t-2 165l-188 -21z" />
<glyph unicode="2" horiz-adv-x="1193" d="M41 20q59 70 139 168.5t201 249.5q70 86 121 156t83.5 128t48 108.5t15.5 97.5q0 29 -12 66.5t-40 70.5t-74 55.5t-113 22.5q-59 0 -106.5 -12.5t-86.5 -32t-68.5 -42t-54.5 -42.5l-18 12l14 272l10 15q47 20 91.5 38.5t90.5 32t98 21.5t116 8q33 0 87 -4t114.5 -22.5 t122 -55.5t110.5 -104q43 -57 62.5 -127t19.5 -135q0 -74 -21.5 -140.5t-59.5 -130t-89 -127t-109 -131.5l-143 -170l467 13l10 -15l-10 -248l-15 -16h-991z" />
<glyph unicode="3" horiz-adv-x="1193" d="M96 1133l13 237l12 16h866l10 -16q-6 -12 -25.5 -48t-42 -77t-43 -78t-28.5 -51q-25 -43 -42 -76.5t-32.5 -62.5t-30 -56.5t-30.5 -58.5q33 -6 69.5 -17t73.5 -31.5t72 -54.5t66 -85q29 -47 39 -98.5t10 -104.5q0 -98 -34 -188t-105.5 -160t-183.5 -111t-267 -41 q-76 0 -133.5 8.5t-100.5 19.5t-72.5 23.5t-47.5 20.5l-11 16l17 246l16 8q59 -39 122.5 -69.5t166.5 -30.5q131 0 203 72q35 35 48 80t13 73q0 37 -11 78t-41 76t-80 57.5t-130 22.5q-35 0 -58.5 -5t-52.5 -16l-20 23q57 111 92 177.5t58.5 111.5t42 80.5t40.5 84.5 l-418 -8z" />
<glyph unicode="4" horiz-adv-x="1193" d="M70 311l6 187q76 154 132 265t96 192t67.5 138.5t49 102.5t40 86t41.5 88l16 14l422 7l14 -13q-4 -160 -7 -269.5t-4 -198.5t0 -175t1 -200l148 4l10 -13l-12 -217l-13 -14l-133 2l8 -283l-14 -14h-91h-73t-70.5 -2t-85.5 -4l-12 14l8 289h-534zM360 535l258 4l9 342 l10 276q-23 -53 -38 -91t-29.5 -71.5t-30 -68.5t-37.5 -84z" />
<glyph unicode="5" horiz-adv-x="1193" d="M125 51q4 41 6 70t4 55.5t4 55t4 69.5l19 8q63 -41 135 -63.5t149 -22.5q123 0 197 65.5t74 168.5q0 47 -17.5 90t-53.5 74.5t-88 50t-122 18.5q-94 0 -154.5 -21.5t-109.5 -43.5l-18 10q10 139 17 232.5t12 170t9.5 152.5t8.5 180l14 16h780l11 -10l-19 -246l-14 -12 l-496 12l-16 -194q37 4 64.5 7t58.5 3q115 0 206 -33.5t155.5 -95t98 -147.5t33.5 -189q0 -74 -25.5 -163t-93 -165.5t-184.5 -128t-297 -51.5q-53 0 -96 4.5t-83 12.5t-79 19t-84 26z" />
<glyph unicode="6" horiz-adv-x="1193" d="M82 653q0 170 38 310.5t117.5 241t205.5 155.5t302 55q82 0 142.5 -11t126.5 -26l10 -16l-14 -242l-23 -12q-35 18 -89 40.5t-142 22.5q-63 0 -100.5 -11t-55.5 -21q-51 -27 -82 -65t-49 -80t-28.5 -86t-16.5 -85q18 14 44 30.5t59.5 31t77.5 25t102 10.5q86 0 162.5 -31 t135 -90.5t92 -146.5t33.5 -199q0 -119 -38.5 -209t-106 -149.5t-161 -90.5t-201.5 -31q-135 0 -227.5 39t-152 101.5t-92 140.5t-48 153.5t-18.5 141t-3 104.5zM430 520q0 -59 4 -111.5t27 -93.5q25 -51 68.5 -80.5t97.5 -29.5q12 0 41.5 5t60.5 26.5t54.5 65.5t23.5 124 q0 47 -13.5 89t-39 74t-61.5 50t-79 18q-55 0 -90 -20.5t-56.5 -46t-29.5 -47t-8 -23.5z" />
<glyph unicode="7" horiz-adv-x="1193" d="M102 1130l23 242l12 14q160 0 273.5 -1t216 0t211 2.5t258.5 3.5l12 -19q-59 -164 -117.5 -332t-111 -323.5t-96.5 -291.5t-70 -239q-12 -43 -23.5 -86t-21.5 -86l-15 -14h-105h-86t-86 -2t-102 -4l-12 16q12 31 45 114t76 192.5t92 234.5t93 238.5t80 203.5t50 133 l-583 -8z" />
<glyph unicode="8" horiz-adv-x="1193" d="M84 401q0 88 23.5 148.5t56.5 99.5t69.5 61.5t61.5 34.5q-23 12 -55.5 32t-61 53.5t-49 82t-20.5 119.5q0 88 36.5 159t102 120t157 75.5t199.5 26.5q141 0 233.5 -37t145.5 -93t73.5 -122.5t20.5 -124.5q0 -113 -69 -198q-31 -37 -60.5 -54.5t-60.5 -33.5q45 -18 85 -43 t77 -80q41 -61 52 -125t11 -105q0 -37 -8 -83t-29.5 -93t-60.5 -93t-101 -81q-68 -41 -153.5 -57.5t-167.5 -16.5q-102 0 -194.5 26t-162 78t-110.5 133t-41 191zM434 412q0 -37 9.5 -74t30 -65.5t52 -47t76.5 -18.5q59 0 108.5 49t47.5 160q0 61 -17.5 100t-42 61.5 t-51 31.5t-47.5 9q-66 0 -116 -54t-50 -152zM438 1020q0 -49 16.5 -83t40 -54.5t51 -29.5t50.5 -9q66 0 111 51t41 141q-4 49 -20.5 81t-39 50.5t-48.5 25.5t-46 7t-47 -8t-51.5 -29.5t-41 -56.5t-16.5 -86z" />
<glyph unicode="9" horiz-adv-x="1193" d="M63 942q0 100 33 186t96.5 149.5t157.5 99.5t217 36q82 0 160 -18q100 -25 174 -82.5t121 -142.5t69.5 -195.5t22.5 -241.5q0 -381 -173 -571.5t-488 -190.5q-78 0 -140.5 10.5t-132.5 26.5l-10 15l14 243l23 10q33 -16 88 -38.5t143 -22.5q41 0 81 7t75 26 q51 27 83 64.5t51.5 79.5t28.5 86t15 85q-18 -14 -44 -30.5t-59.5 -31t-78.5 -24.5t-103 -10q-78 0 -154.5 27.5t-136 86t-96.5 148.5t-37 213zM387 963q0 -111 57.5 -172.5t135.5 -61.5q49 0 82.5 17.5t56 40t34 45t13.5 34.5v24.5t-2 38t-3 39t-3 29.5q-16 92 -72.5 140.5 t-122.5 48.5q-16 0 -36.5 -4t-43 -16.5t-43 -34t-34.5 -58.5q-18 -49 -19 -110z" />
<glyph unicode=":" horiz-adv-x="598" d="M162 293l10 16l328 6l12 -12l4 -289l-10 -12l-328 -8l-10 14zM164 780v287l10 14l330 9l10 -13l2 -291l-10 -10l-332 -8z" />
<glyph unicode=";" horiz-adv-x="598" d="M45 -229q27 88 43 147t28.5 113.5t23 115t22.5 146.5l12 12q63 0 104 1t77 3t73 3t90 5l10 -14q-35 -74 -58.5 -127t-47 -109.5t-50 -124t-65.5 -167.5l-16 -11l-238 -8zM168 778v289l10 12l328 11l12 -13v-291l-10 -12l-330 -8z" />
<glyph unicode="&#x3c;" horiz-adv-x="1366" d="M0 614v213l1366 625v-231l-1083 -500l1083 -498v-229z" />
<glyph unicode="=" horiz-adv-x="1366" d="M0 299v211h1366v-211h-1366zM0 684v211h1366v-211h-1366z" />
<glyph unicode="&#x3e;" horiz-adv-x="1366" d="M0 -6v229l1081 498l-1081 500v231l1366 -625v-213z" />
<glyph unicode="?" horiz-adv-x="937" d="M41 1239l10 256l12 16q84 27 161 47.5t184 20.5q92 0 150 -14.5t97 -32.5q74 -35 118 -84t66.5 -101.5t30 -99.5t7.5 -76q0 -59 -12.5 -111t-33 -98.5t-44 -86t-46.5 -72.5l-73 -111q-25 -35 -40.5 -56.5t-24.5 -41t-15 -41t-15 -53.5l-12 -19h-86t-64.5 -1t-62.5 -3 t-80 -4l-10 14q6 37 11 64t15.5 51.5t27 53t44.5 69.5l72 102q35 53 69.5 121t34.5 160q0 57 -18 97t-48 66.5t-69 39t-82 12.5q-92 0 -151.5 -31.5t-104.5 -64.5zM229 293l13 16l327 6l11 -12l4 -289l-11 -12l-327 -8l-10 14z" />
<glyph unicode="@" horiz-adv-x="1835" d="M141 483q0 199 73 376t200 310.5t297 211t366 77.5q158 0 273.5 -49t192.5 -130t114 -187.5t37 -223.5q0 -143 -41 -275t-107.5 -232.5t-153.5 -161t-180 -60.5q-61 0 -99 27t-54 53q-12 23 -16.5 40t-6.5 38q-57 -72 -123.5 -114t-152.5 -42q-51 0 -100.5 18.5 t-88.5 59.5t-63.5 105.5t-24.5 154.5q0 111 34 216.5t93.5 187.5t139 132t172.5 50q57 0 96 -16.5t64.5 -39t41 -48t25.5 -43.5l25 104h161l-67 -315q-8 -37 -17.5 -84.5t-18.5 -95.5t-15.5 -93t-6.5 -76q0 -37 16.5 -54t35.5 -17q39 0 88 46t93 124t74.5 181t30.5 218 q0 133 -44 223t-113.5 144.5t-154.5 77t-167 22.5q-156 0 -298 -66.5t-250.5 -180t-173 -267.5t-64.5 -326q0 -170 60 -284.5t154.5 -185t209 -100.5t221.5 -30q201 0 371.5 84t304.5 215l82 -104q-72 -68 -154 -128.5t-175 -105.5t-199.5 -71.5t-225.5 -26.5 q-82 0 -172 16.5t-178 52t-168 92t-140.5 138.5t-96.5 190.5t-36 247.5zM670 487q0 -51 13 -86.5t34.5 -59.5t48.5 -34t51 -10q51 0 100.5 35t87 92t61.5 133t24 158q2 49 -11.5 86t-36 61.5t-51 35.5t-55.5 11q-61 0 -111.5 -41t-84 -103.5t-52 -137t-18.5 -140.5z" />
<glyph unicode="A" horiz-adv-x="1366" d="M4 14q76 215 132.5 381t100.5 294t76.5 228.5t60 185.5t53.5 165t52 166l15 12h136t100 1t96.5 2t123.5 3l15 -12q29 -113 52 -201t45.5 -173t49.5 -178t60.5 -213t78.5 -279.5t107 -379.5l-10 -16h-104.5h-80.5t-76.5 -2t-95.5 -4l-14 12l-88 379h-443l-100 -373 l-14 -12h-320zM518 633h311l-75 319l-62 267l-71 -240z" />
<glyph unicode="B" horiz-adv-x="1323" d="M129 1434l12 12l287 4q27 0 61.5 1t70.5 2t71 1h61q152 0 253.5 -23.5t166.5 -93.5q49 -55 65.5 -117.5t16.5 -111.5q0 -76 -33 -143q-41 -82 -96 -117t-109 -57q33 -6 66 -13.5t61 -23.5q88 -43 130 -127t42 -183q0 -86 -35.5 -180t-136.5 -166q-57 -41 -127.5 -61.5 t-147.5 -29.5t-155 -9t-149 2h-357l-14 8q6 436 6 871v177.5t-2 131t-4 116t-4 130.5zM489 229q33 -1 68 -1t71 1q74 2 122 19q57 20 92 63t35 113q0 49 -18.5 94t-63.5 74q-45 27 -117 31q-36 2 -83 2t-106 -2v-394zM489 866q61 0 132 3t110 20q8 4 26.5 15t35 31.5 t30 49.5t13.5 70q0 49 -17.5 82.5t-47.5 53t-67.5 28t-78.5 8.5q-27 0 -65 -1t-71 -1v-359z" />
<glyph unicode="C" d="M86 709q0 135 37 271t122 246.5t221 180.5t335 70q135 0 229 -27t150 -49l8 -10l-19 -283l-18 -4q-18 14 -45 31.5t-61.5 32t-79.5 24.5t-103 10q-125 0 -202.5 -51t-120.5 -126t-57.5 -159t-14.5 -149q0 -109 29.5 -196t82 -146.5t125 -91t160.5 -31.5q63 0 114.5 12 t91.5 30.5t68.5 38t47.5 34.5l14 -9l-14 -305l-10 -12q-49 -20 -135.5 -46t-215.5 -26q-188 0 -326.5 60.5t-230.5 162t-137 235.5t-45 282z" />
<glyph unicode="D" horiz-adv-x="1449" d="M121 1434l12 12l217 2q72 4 141.5 6t141.5 2q88 0 178 -5t175 -30.5t158 -79t126 -147.5q39 -70 66.5 -178.5t27.5 -253.5q0 -35 -3 -81t-10.5 -98.5t-20.5 -106.5t-34 -105q-55 -137 -147 -212t-197.5 -111t-212 -43t-192.5 -7h-81t-81 2h-242l-12 8q2 63 3 119.5l2 113 t1 119v138.5q0 213 -1 358t-4 248.5t-6 179.5t-5 150zM492 852q0 -147 1 -291.5t5 -296.5q41 0 87 1t92 8.5t88 22.5t77 44q18 14 42.5 45t48 80t39 119.5t15.5 167.5q0 164 -40 252t-97 129t-120.5 48t-111.5 7q-31 0 -62.5 -1t-61.5 -3q-2 -84 -2 -166v-166z" />
<glyph unicode="E" horiz-adv-x="1150" d="M127 1434l12 12h899l11 -8l-15 -238l-10 -12q-92 2 -153.5 3t-116 2t-112.5 1h-144v-326l495 9l11 -13l-13 -231l-14 -12h-479l4 -359h163.5t124 2t121 5t152.5 7l12 -14l-14 -250l-17 -12h-901l-10 8q2 80 4 148.5t3 137t2 144.5t1 172q0 205 -1 332t-3 211t-5 145.5 t-7 135.5z" />
<glyph unicode="F" horiz-adv-x="1067" d="M121 1436l12 12q111 0 196 -1t155.5 -1t132 1t123 1t130 1t152.5 3l12 -10l-22 -254l-13 -14l-501 6v-342l467 16l10 -12l-17 -240l-14 -12h-448q2 -102 4 -172t4 -130.5t5 -124t9 -151.5l-10 -12h-112t-82 -1t-76.5 -2t-94.5 -3l-10 10q4 178 6 353t2 354 q0 135 -1 237.5t-4 185.5t-7 154.5t-8 147.5z" />
<glyph unicode="G" horiz-adv-x="1449" d="M86 705q0 104 24.5 218.5t79.5 213.5q61 102 137 168.5t161 104.5t175.5 52.5t178.5 14.5q160 0 265 -33t171 -62l10 -12q-6 -47 -10 -78.5t-7 -61.5t-6 -62.5t-8 -80.5l-16 -6q-72 47 -149.5 86t-194.5 39q-96 0 -176 -32.5t-137.5 -96t-88 -157t-30.5 -213.5 q0 -57 14.5 -136t54 -150t113.5 -121t193 -50q43 0 77.5 6t75.5 16q2 70 2 119t-2 94t-6 96.5t-10 127.5l10 12l348 6l11 -12q-2 -78 -3.5 -155t-1.5 -154v-48q0 -72 2.5 -141.5t4.5 -140.5l-11 -17q-53 -18 -106 -34.5t-110.5 -28.5t-122 -19.5t-144.5 -7.5 q-96 0 -162.5 11.5t-111.5 23.5q-31 8 -72 22.5t-88 41t-96.5 65.5t-94.5 98q-70 90 -106.5 209t-36.5 265z" />
<glyph unicode="H" horiz-adv-x="1492" d="M119 1434l12 12h111t79.5 1t76.5 2t100 3l10 -12l-4 -541q53 0 108.5 -1t108.5 -1q70 0 137.5 1t134.5 3q0 90 -1 152.5t-3 118t-4 116t-8 146.5l10 12h105.5t79 1t76.5 2t102 3l10 -12q0 -59 -1 -108.5t-2 -95.5t-1 -93v-101q0 -260 5 -515t17 -515l-10 -12h-110h-82.5 t-78.5 -2t-98 -4l-10 12q4 109 6 182.5t2 139v136.5t-2 175q-61 2 -122.5 3t-122.5 1q-59 0 -119 -1t-127 -5q0 -111 1 -186.5t3 -141t5 -134.5t7 -163l-10 -12h-113h-83t-76.5 -2t-94.5 -4l-10 12q2 63 3 117.5t2 107t2 107.5t1 125q0 190 -2 335.5t-5 260.5t-7 205t-8 170 z" />
<glyph unicode="I" horiz-adv-x="641" d="M123 1434l8 12q55 0 95 -1q20 0 40 -0.5t39 0.5q39 1 85 2t112 5l10 -12q-4 -213 -7 -424t-3 -424q0 -111 1 -189.5t2 -141t4 -121t7 -128.5l-12 -12h-106.5t-82.5 -1t-78.5 -2t-97.5 -3l-10 12q2 80 5 146.5t4 132t2 138.5t1 163q0 131 -1 229t-1 174t-2 134.5t-4 108.5 t-5 98t-5 104z" />
<glyph unicode="J" horiz-adv-x="724" d="M-4 10v252l12 12q20 -6 35.5 -10t38.5 -4q59 0 91 25.5t47.5 70.5t17.5 105.5t2 132.5q0 111 -1 215t-4.5 206.5t-6.5 206t-7 212.5l10 12h105.5t79.5 1t76.5 2t99.5 3l10 -12v-729v-86q2 -39 3 -77t1 -77q0 -51 -2 -106.5t-15.5 -109.5t-41 -102.5t-78.5 -85t-131 -58 t-195 -21.5q-35 0 -66.5 2t-70.5 6z" />
<glyph unicode="K" horiz-adv-x="1323" d="M121 1434l10 12h104h77t76 2t101 4l11 -12l-11 -629q53 72 92.5 128t82.5 120.5t96 151.5t137 223l16 12h113h84t82 2t106 4l7 -20q-59 -66 -104.5 -119t-94.5 -116.5t-111.5 -151t-156.5 -222.5q45 -80 107.5 -181t133 -207.5t144 -212t145.5 -193.5l-8 -23l-416 -14 l-14 10q-29 53 -54.5 100.5t-57.5 102.5t-76 128t-111 181q-29 47 -47.5 75.5t-32.5 50.5t-27.5 41t-31.5 48q0 -133 1 -222t3 -163t5 -149.5t7 -182.5l-10 -12h-94t-77 -1t-81 -2t-103 -3l-10 12q2 76 3 137.5t2 121t2 124t1 143.5q0 197 -1 331t-4 233.5t-7 176.5t-8 161z " />
<glyph unicode="L" horiz-adv-x="1067" d="M125 1434l12 12q53 0 92 -1q20 0 39 -0.5t38 0.5q38 1 84 2t112 5l12 -12q-4 -123 -7 -219.5t-5 -181.5t-3 -165.5t-1 -170v-196t2 -243.5h41q47 0 171 3t292 14l10 -11l-17 -258l-10 -12h-162.5h-131t-116 -1t-119 -1t-139 -1t-176.5 -3l-10 12q0 244 1 485.5t1 485.5 v151.5t-2 106.5t-4 92t-4 107z" />
<glyph unicode="M" horiz-adv-x="1878" d="M102 6q10 164 19.5 291t15.5 234.5t11.5 205t9.5 200.5t8 223t10 274l12 12h141.5t104.5 1t103.5 2t136.5 3l10 -12l102 -393l58 -232l90 -366l96 356l82 297l94 332l13 12h140t102 1t100.5 2t132.5 3l12 -12v-77t2 -65.5t4 -77.5t6 -116q4 -98 8.5 -193.5t8.5 -193.5 q6 -178 15 -353.5t19 -351.5l-10 -12h-102h-81t-78 -2t-93 -4l-10 12v492l-4 313v367l-115 -430l-82 -299l-119 -437l-12 -12h-90h-69t-65.5 -2t-80.5 -4l-13 12l-137 529l-78 290l-90 363l-8 -387l-12 -398l-6 -391l-13 -12h-76.5h-62.5t-65.5 -2t-83.5 -4z" />
<glyph unicode="N" horiz-adv-x="1492" d="M125 1434l10 12q55 0 93 -1q19 0 37 -0.5t35 0.5q34 1 73 2t100 5l14 -10q18 -31 37 -58.5t43.5 -65.5t61.5 -93.5t94 -143.5l186 -272q39 -59 62.5 -94t41 -62.5t33 -53.5t37.5 -62l-8 337l-8 283l-14 277l10 12h81h64.5t63.5 2t82 4l12 -12q-2 -174 -3 -343t-1 -343 v-178.5t1 -174.5t2 -184t1 -207l-10 -10h-71t-58.5 -1t-61 -2t-80.5 -3l-14 10l-182 266l-205 301q-53 76 -88 128.5t-62.5 96.5t-54 88t-63.5 103l12 -274l6 -252l21 -449l-11 -12h-77.5t-64.5 -1t-68.5 -2t-88.5 -3l-10 12q2 150 4 299.5t2 300.5q0 102 -1 199.5t-3 198 t-5 206t-7 224.5z" />
<glyph unicode="O" horiz-adv-x="1536" d="M86 715q0 104 18 209q6 33 20.5 89t48.5 122.5t91.5 134t151.5 121.5q84 47 177 66.5t189 19.5q109 0 211.5 -26t180.5 -79q69 -45 122 -115q18 -25 45 -64.5t51.5 -103t41 -152.5t16.5 -210q0 -66 -9 -146.5t-36 -165.5t-75 -165t-124 -144q-92 -76 -205.5 -106.5 t-232.5 -30.5q-39 0 -96.5 5.5t-122 22.5t-131 50t-123.5 88q-72 68 -114 146.5t-63.5 157.5t-26.5 151t-5 125zM469 745q0 -70 7 -158.5t38 -168.5t91.5 -134.5t166.5 -54.5q88 0 146.5 39t92 110t45.5 168q11 84 11 181v31q-2 39 -6 91t-17 112q-10 45 -25 87.5t-46 77.5 q-37 45 -88 70t-111 25q-29 0 -68.5 -8.5t-80.5 -32.5q-72 -47 -114 -148.5t-42 -286.5z" />
<glyph unicode="P" d="M125 1434l12 12l260 4l181 4q57 0 117.5 -1t118.5 -8t112.5 -21.5t101.5 -41.5q63 -37 101 -88t57.5 -104t26 -103.5t6.5 -82.5q0 -109 -32 -193t-75 -137q-55 -68 -127 -105t-153.5 -53t-169 -18t-173.5 -2v-132.5t1.5 -104.5t2.5 -106.5t5 -140.5l-11 -12h-102h-77 t-73.5 -2t-95.5 -4l-12 12q4 188 8 373.5t4 374.5q0 88 -1 167.5t-3 160.5t-5 166t-5 186zM489 748q92 0 152.5 6t101.5 28q41 23 62.5 53.5t32 61.5t12.5 56.5t2 35.5q0 45 -10.5 83t-37 67.5t-70.5 46t-111 18.5h-67t-67 -2v-454z" />
<glyph unicode="Q" horiz-adv-x="1536" d="M88 707q0 188 50 331.5t140.5 240.5t218.5 147.5t281 50.5q137 0 259 -40t204 -116q59 -55 99 -125t65 -146.5t36 -155.5t11 -153q0 -123 -23.5 -239.5t-85.5 -220.5q-31 -53 -61.5 -89t-61 -62t-61.5 -43t-59 -32q66 -25 110.5 -42t87.5 -31.5t92.5 -29.5t125.5 -40 l6 -16l-107 -250l-18 -4q-123 57 -211 100t-153.5 73.5t-113 52t-86 39t-75.5 34t-82 34.5l-14 2q-72 10 -147 32t-159 75q-94 61 -148 151.5t-81 182.5t-33 171t-6 118zM473 741q0 -106 14.5 -205.5t63.5 -177.5q41 -66 99.5 -95.5t123.5 -29.5q96 0 154.5 44.5t89.5 114 t41 154.5t10 165v23q0 108 -17 203q-18 105 -61 169q-31 45 -81 79t-142 34q-104 0 -177 -71t-102 -212q-10 -49 -13 -97t-3 -98z" />
<glyph unicode="R" horiz-adv-x="1280" d="M123 1436l10 12h250l143 2q60 1 110 1h48q68 -1 121 -6t95 -16.5t83 -31.5q63 -33 101 -81t58.5 -100.5t27 -101.5t6.5 -82q0 -98 -31 -164.5t-74 -110.5t-91 -71t-83 -41q18 -35 35.5 -62.5t34 -56t36 -60.5t44.5 -71q55 -88 89.5 -142t60.5 -91t47.5 -66.5t49.5 -66.5 l-12 -25q-47 0 -96 -1t-96 -3t-94.5 -4t-94.5 -6l-16 10q-49 100 -83 168t-64.5 126t-65.5 119.5t-86 149.5l-101 -4q0 -92 1 -155.5t3.5 -121t6.5 -120t10 -150.5l-12 -12h-104.5h-77.5t-74.5 -2t-94.5 -4l-12 12q2 63 4 115.5t3 103.5t1 106.5v127.5q0 209 -1 358.5 t-4 261t-6 195.5t-5 162zM489 801q78 2 134.5 8t99.5 33q57 35 73.5 86t16.5 94q0 68 -25.5 104.5t-62.5 53t-78 19.5t-72 3h-43t-43 -2v-399z" />
<glyph unicode="S" horiz-adv-x="1150" d="M92 61l14 289l21 6q23 -18 53.5 -39.5t73.5 -42t98.5 -34t124.5 -13.5q68 0 114 15.5t75.5 40t43 55.5t13.5 59q0 41 -19.5 72t-53.5 56.5t-79 47t-98 43.5l-67 31q-43 20 -96.5 50t-100.5 75t-79 110.5t-32 157.5q0 82 27 161t88 140.5t159.5 98.5t243.5 37 q74 0 130.5 -7.5t100.5 -17.5t80 -23.5t68 -27.5l11 -15l-17 -268l-18 -8q-57 39 -132 77t-192 38q-51 0 -88 -13.5t-60.5 -35t-34.5 -46t-11 -49.5q0 -35 16 -60.5t50 -48t82 -44t114 -47.5l53 -21q37 -16 77 -36.5t81 -51.5q82 -63 117.5 -150t35.5 -176 q0 -131 -58 -240.5t-187 -172.5q-47 -23 -97.5 -35t-96.5 -18.5t-85 -8.5t-61 -2q-117 0 -202 19.5t-120 31.5q-16 4 -33.5 11.5t-34.5 13.5z" />
<glyph unicode="T" horiz-adv-x="1067" d="M6 1184l14 252l15 12h1014l10 -6l-15 -256l-12 -10l-317 8q-2 -49 -3 -87t-2 -73t-0.5 -69.5t0.5 -77.5q0 -217 2.5 -431.5t10.5 -431.5l-12 -12h-106.5t-81.5 -1t-77.5 -3t-97.5 -4l-12 12q4 127 7 226.5t4 184.5t2 165t2 168q0 44 0.5 92t-0.5 100q-1 104 -1 238 l-334 -9z" />
<glyph unicode="U" horiz-adv-x="1409" d="M113 1434l12 12q51 0 90 -1q20 0 39 -0.5t38 0.5q38 1 83 2t110 5l11 -12q-4 -154 -5.5 -278t-1.5 -249v-162.5t5 -162.5q4 -98 14 -155.5t33 -98.5q35 -53 90 -81t119 -28q51 0 98 17.5t82 56.5q20 25 32.5 56.5t18.5 76.5t8 105.5t2 140.5q0 190 -6 377.5t-14 378.5 l12 12q43 0 76 -1q16 0 32.5 -0.5t32.5 0.5q32 1 71.5 2t94.5 5l10 -12l-6 -609v-208q-2 -98 -5 -171t-15 -130.5t-36 -103.5t-64 -89q-57 -59 -124 -92t-130.5 -48.5t-116.5 -17.5t-80 -2q-102 0 -184 17.5t-144.5 47t-107.5 68.5t-74 80q-27 37 -43 78t-26.5 91 t-14.5 113.5t-6 147.5v152q0 119 -1 197.5t-2 147.5t-3 141.5t-4 183.5z" />
<glyph unicode="V" horiz-adv-x="1193" d="M-27 1436l11 12h100t79 2t81 5t106 7l12 -10q16 -74 27.5 -129t24 -106.5t26 -107.5t31.5 -136l43 -185l109 -483l88 379l65 268q20 86 34.5 143.5t26 107.5t21.5 102.5t25 128.5l12 12h79t67.5 1t73.5 2t97 3l11 -10q-70 -238 -120 -410t-87 -300t-63.5 -221t-47 -173 t-39 -156t-41.5 -168l-12 -14h-133h-98t-91.5 -2t-113.5 -4l-12 12l-62 252q-27 100 -61.5 231.5t-77.5 282t-91 318t-100 346.5z" />
<glyph unicode="W" horiz-adv-x="1921" d="M-18 1434l10 14q55 2 93 3t74 2t79 4t108 7l12 -10l68 -405l53 -299q16 -92 26.5 -155t18.5 -114t14.5 -100t16.5 -117l51 283l80 420l82 471l12 12l406 10l12 -14l51 -316l60 -344q14 -90 25.5 -152.5t19.5 -118.5t16 -117.5t21 -147.5l65 352l60 313q16 88 27 150.5 t20.5 118t18.5 113t22 137.5l12 12h86t66.5 1t67.5 2t91 3l10 -12q-55 -225 -95 -392t-69.5 -295t-51 -224.5t-40 -180.5t-35 -164t-34.5 -172l-10 -12h-139.5h-108.5t-105.5 -2t-128.5 -4l-10 12l-43 281l-51 319q-14 82 -22.5 138.5t-15.5 105.5l-14.5 101.5t-15.5 127.5 l-74 -438l-67 -375l-43 -254l-14 -12q-76 0 -128 1q-26 0 -52 0.5t-50 -0.5q-49 -1 -102 -3t-131 -4l-13 12q-29 147 -50 264t-41.5 219.5t-40 198.5t-43 206t-52.5 240t-65 300z" />
<glyph unicode="X" d="M23 8q70 117 120 200t85.5 143.5t61 105.5t49 86t48.5 85t57 103q-29 51 -45 81t-27.5 50.5t-22.5 39t-25 44.5q-68 117 -139.5 235.5t-147.5 248.5l6 18q63 0 106.5 1t83 3t84.5 4t113 6l12 -10q37 -82 60.5 -132t43 -93t43 -90l60.5 -121q20 49 38 88t38 83t46 102.5 t65 146.5l16 12q49 0 86 -1q18 -1 37 -1l37 1q37 1 79 2t103 5l8 -16q-49 -80 -82 -133.5t-55.5 -91t-39.5 -68.5t-38 -66q-47 -84 -96 -166t-96 -163q76 -139 132 -237.5t103 -177.5t91 -150.5t96 -153.5l-9 -19l-387 -18l-14 12q-33 72 -55.5 122t-44 96t-47 98.5 t-62.5 130.5l-211 -441l-14 -12h-103.5t-77 -1t-71.5 -2t-88 -3z" />
<glyph unicode="Y" d="M-23 1430l7 16q63 0 108 1t85 3t85 4t111 6l14 -10q23 -49 40 -87t32.5 -68.5t28 -57.5t26.5 -53q8 -14 28.5 -54t44 -85.5t45 -86t30.5 -57.5q33 63 60.5 118.5t57 115t63.5 131t79 168.5l12 12h81t67.5 1t73.5 2t97 3l9 -14l-453 -824v-166.5t2 -132t4 -133t6 -170.5 l-12 -12h-94t-77 -1t-83 -2t-109 -3l-10 12q4 90 7 156.5t4.5 125t2.5 118t1 135.5v65q-23 41 -44.5 80t-44.5 80q-14 23 -42.5 74t-66.5 116.5t-80 137t-81 137t-69.5 119t-45.5 80.5z" />
<glyph unicode="Z" horiz-adv-x="1150" d="M33 12q31 61 122 251t238 497l115 246l86 178l-506 -8l-12 12l18 246l12 12h979l11 -10l-564 -1172q82 0 141.5 1t117 2t124 3t164.5 6l13 -14l-19 -250l-14 -12h-1014z" />
<glyph unicode="[" horiz-adv-x="681" d="M154 1548l12 15l504 6l12 -15l-8 -174l-12 -14l-191 6q-2 -78 -4 -142.5t-3 -131t-2 -143t-1 -177.5q0 -117 1 -248t2 -265t3 -265t4 -250l201 4l10 -12l-10 -172l-15 -12q-76 0 -130 1t-105 0t-108.5 -2t-139.5 -3l-12 14q2 61 3 112.5t1 108.5t1 127t1 168v231.5v317.5 q0 115 -1 214t-2 203.5t-4 223.5t-7 274z" />
<glyph unicode="\" horiz-adv-x="980" d="M-25 1548l9 19q59 0 120.5 -1t120.5 -1l15 -13q23 -61 48 -126.5t56 -145.5t72 -178t95 -227.5t124 -291t162 -368.5q8 -18 25.5 -57t40 -89.5t47 -105.5t46 -104t38 -87t22.5 -53l-10 -18q-43 0 -70 1t-50.5 2t-50 1h-69.5l-18 14q-86 223 -176.5 442.5t-186.5 440.5 q-47 109 -93 215.5t-93 216.5q-57 133 -91 214t-56.5 132.5t-39 87t-37.5 80.5z" />
<glyph unicode="]" horiz-adv-x="681" d="M0 -432l8 174l12 14l195 -4q2 74 3 138.5t2 132t2 145.5t1 180q0 248 -3 515t-7 507l-201 -4l-12 12l10 172l15 13h139h109.5t107.5 1t131 3l12 -15q-2 -66 -3 -119t-2 -110t-2 -123.5t-1 -159v-217.5v-297q0 -117 1 -222t2 -216t4 -234.5t7 -279.5l-12 -14l-504 -4z" />
<glyph unicode="^" horiz-adv-x="1492" d="M262 662l400 784h186l383 -784h-242l-237 503l-250 -503h-240z" />
<glyph unicode="_" horiz-adv-x="1024" d="M-20 -154h1064v-102h-1064v102z" />
<glyph unicode="`" horiz-adv-x="598" d="M70 1563l8 16h315l13 -8q14 -51 25 -88t23.5 -73t29 -77t42.5 -102l-10 -14h-221l-14 8q-33 55 -56.5 94t-45 75t-47.5 74.5t-62 94.5z" />
<glyph unicode="a" horiz-adv-x="1150" d="M55 336q0 35 8.5 72.5t25.5 74.5t47 72t73 61q45 29 92 48.5t103.5 34t126 25.5t161.5 24q0 23 -5 47t-21 41q-20 20 -48 29t-86 9q-51 0 -101 -9t-94 -21.5t-82 -26.5t-65 -24l-16 8l10 223l13 16q43 12 87 24.5t91 22t102 15.5t121 6q98 0 164.5 -14.5t111 -36t69 -47 t40.5 -49.5q20 -33 30.5 -66t15.5 -73t5 -91v-121l-2 -151v-122t2 -97t4 -98.5t9 -127.5l-11 -14h-86h-71.5t-73.5 -2t-94 -4l-13 14v76q-16 -12 -40.5 -31.5t-59.5 -36t-81 -29t-103 -12.5q-76 0 -141.5 26t-113.5 73t-76 113.5t-28 148.5zM395 356q0 -66 40 -95.5 t95 -29.5q51 0 92.5 17.5t73.5 36.5v247q-53 -6 -106 -16t-96 -28.5t-71 -49t-28 -82.5z" />
<glyph unicode="b" d="M102 1567l13 14l340 53l16 -12l-12 -594q43 27 102.5 54.5t161.5 27.5q104 0 186 -39t139.5 -107.5t87 -160.5t29.5 -199q0 -33 -4 -81t-20.5 -105.5t-48 -119.5t-86.5 -120q-59 -61 -129 -98t-154 -55.5t-186.5 -23.5t-225.5 -5h-41l-135 -2l-14 14q0 143 1 277.5t2 252 t1 214v161.5q0 154 -1 251.5t-4 165t-7 119.5t-11 118zM467 223q53 2 113.5 9.5t111.5 41.5q41 29 81 100.5t40 182.5q0 141 -55.5 225t-157.5 84q-41 0 -71.5 -12t-61.5 -29v-602z" />
<glyph unicode="c" horiz-adv-x="980" d="M72 537q0 78 22.5 177t85 187t175 148.5t292.5 60.5q90 0 154.5 -15.5t132.5 -37.5l10 -13q-6 -41 -10 -68.5t-6 -54t-5 -54t-5 -68.5l-21 -6q-47 31 -90 52t-111 21q-74 0 -125 -29.5t-81.5 -75.5t-44 -103.5t-13.5 -112.5q0 -47 11.5 -101.5t42 -102.5t85 -80 t140.5 -32q78 0 125 20.5t88 45.5l16 -10l-8 -246l-12 -12q-66 -18 -124.5 -31.5t-140.5 -13.5q-172 0 -285.5 53t-179 135t-92 180.5t-26.5 186.5z" />
<glyph unicode="d" d="M74 485q0 160 47 284t155 208q57 45 122 69.5t130.5 35t129.5 11.5h41q41 0 79 -1v146t-1 107.5t-4 100.5t-7 123l10 12l338 53l14 -12q-4 -102 -6 -199.5t-5 -216.5t-4 -267t-1 -351q0 -100 1 -177t3 -142.5t4 -126t6 -130.5l-10 -12h-97t-75 -1t-71.5 -2t-90.5 -3 l-10 12l4 80q-18 -16 -42.5 -35.5t-56.5 -36t-74 -28t-97 -11.5q-51 0 -126 17.5t-142 73.5q-92 76 -128 187.5t-36 231.5zM434 518q0 -16 3 -63t21.5 -99.5t59.5 -92.5t115 -40q43 0 75.5 15.5t63.5 33.5q2 92 4 156t2 122v126v170q-23 4 -38 5t-31 1q-86 0 -139.5 -29.5 t-84 -78t-41 -107.5t-10.5 -119z" />
<glyph unicode="e" horiz-adv-x="1150" d="M74 545q0 133 38 237.5t108.5 177t168.5 111.5t219 39q35 0 71 -4t75 -14q27 -6 66.5 -20.5t82.5 -48.5t83 -91.5t67 -147.5q23 -78 27 -153.5t5 -151.5l-12 -14l-661 -12q6 -31 14 -62t31 -63q76 -113 256 -113q113 0 186.5 28.5t132.5 59.5l15 -6l-15 -231l-12 -17 q-41 -16 -77 -29.5t-76 -23.5t-88 -15.5t-111 -5.5q-55 0 -131 8.5t-153 39t-146.5 90t-114.5 163.5q-25 53 -37 125t-12 144zM412 670l342 8q0 35 -4.5 70.5t-26.5 70.5q-16 29 -48 50.5t-83 21.5q-23 0 -43.5 -5t-38.5 -18q-29 -18 -47.5 -42.5t-28.5 -51t-15 -53.5 t-7 -51z" />
<glyph unicode="f" horiz-adv-x="724" d="M6 860l21 217l12 10l133 -2l-2 123q0 39 2 84t13.5 91.5t37 90.5t72.5 78q61 47 138 60.5t155 13.5q70 0 143 -6l10 -14l-18 -232l-14 -8q-16 2 -30.5 4t-31.5 2q-49 0 -76.5 -19.5t-41 -53t-15.5 -76.5t-2 -90l-2 -48h186l11 -12l-19 -217l-14 -14l-162 8v-230.5 t2 -183.5t6 -185t12 -237l-12 -12h-99t-79 -1t-77 -3t-91 -4l-12 14q4 137 7 231.5t4 182.5t1 186.5v243.5l-156 -4z" />
<glyph unicode="g" horiz-adv-x="1110" d="M53 -193q0 49 16.5 89.5t40 72t51 55t50.5 42.5l-86 61v18q18 31 33.5 58.5t31 56.5t32 61.5t38.5 73.5q-39 23 -70.5 45.5t-66.5 69.5q-29 39 -44.5 88t-15.5 111q0 57 14.5 103t35 80t43 57.5t39.5 35.5q49 41 109.5 62.5t122.5 30.5t123 10q21 1 41 1q40 0 77 -2 l94 -2h84h69.5t75.5 2.5t101 4.5l12 -11l-14 -204l-13 -11l-141 8q20 -29 37.5 -66.5t17.5 -111.5t-25.5 -129t-65.5 -93t-86 -62.5t-85 -38.5q-74 -25 -127 -27q-26 -1 -52 -1t-50 1l-33 -72q31 -10 51.5 -17t42 -12t47 -10.5t62.5 -11.5l49 -8q49 -12 111.5 -29.5 t118 -54.5t92 -97.5t36.5 -156.5q0 -74 -32.5 -144.5t-100 -123.5t-170 -86t-244.5 -33q-31 0 -72.5 2t-88.5 10.5t-96.5 25.5t-92.5 48q-57 41 -92 100.5t-35 130.5zM354 -164q0 -27 10.5 -54.5t34 -51t62.5 -38t96 -14.5q100 0 143 39t43 86q0 33 -12 51.5t-29 28.5 q-10 8 -17 13.5t-27.5 11.5t-58.5 15t-105 28l-80 20q-18 -23 -39 -53.5t-21 -81.5zM395 727q0 -10 2 -42t17 -64q12 -31 30.5 -48.5t37 -25.5t33.5 -10t22 -2q10 0 31.5 5t43 23.5t39 54.5t17.5 97v8q0 63 -32 116q-34 56 -104 56q-57 0 -97 -45t-40 -123z" />
<glyph unicode="h" d="M98 1567l11 12l350 55l12 -14l-6 -631q31 18 67.5 40t80.5 39t94.5 29.5t105.5 12.5q68 0 129.5 -23.5t106.5 -87.5q23 -33 35 -70.5t18 -84.5t8 -105.5t2 -132.5v-153q2 -80 3 -135.5t2 -101.5t3 -92t6 -110l-12 -12h-98t-74 -1t-73 -3t-93 -4l-10 14q0 51 1 100.5 t1 100.5v90t-1 129t-2 127t-3 84q-4 31 -8 65.5t-17.5 64.5t-37 49.5t-66.5 19.5q-53 0 -91 -20.5t-67 -41.5q0 -135 1 -228t3 -173t5 -163t10 -198l-13 -12h-102t-77 -1t-74 -3t-95 -4l-10 14q2 76 3 138.5t2 123t2 124t1 138.5q0 248 -6 498q-2 98 -3 167t-4 126 t-8.5 113.5t-11.5 130.5z" />
<glyph unicode="i" horiz-adv-x="598" d="M102 1042l13 13l352 61l14 -16l-4 -262t-2 -263q0 -106 1 -185t4 -142.5t6 -118.5t8 -115l-15 -14h-104h-80t-76 -2t-94 -4l-12 14q2 63 4 120.5t4 117t3 127t1 151.5q0 109 -1 181.5t-4 128t-7 102.5t-11 106zM109 1548l12 15l334 41l12 -13l-6 -278l-10 -15 q-55 -6 -93.5 -11t-72 -10t-70.5 -11t-88 -15l-14 13q2 29 2 59.5v58.5q0 37 -1 74t-5 92z" />
<glyph unicode="j" horiz-adv-x="598" d="M-66 -293l11 17q63 12 100 36.5t56.5 61.5t25.5 86t6 110q0 23 -1 74t-2 108.5t-2 109.5t-1 79q0 66 -2 146.5t-5 166.5t-8.5 173.5t-11.5 166.5l13 13q61 8 102 15t77 13.5t73.5 13.5t95.5 19l16 -18q-2 -119 -4 -232.5t-2 -230.5q0 -201 6 -399l2 -144q1 -41 1 -78v-36 q-1 -52 -9 -100t-25.5 -91t-48.5 -86q-45 -59 -101 -98t-111.5 -62.5t-104.5 -36t-78 -18.5l-14 8zM111 1546l14 15l332 41l12 -15v-280l-12 -11q-49 -6 -84 -10l-70 -8t-75 -9t-97 -14l-14 11z" />
<glyph unicode="k" horiz-adv-x="1150" d="M98 1567l13 14l356 53l16 -12q-4 -117 -6 -198t-4 -161.5t-3 -176t-1 -238.5v-227q35 53 59.5 91t52 83t65.5 108.5t97 167.5l21 14l334 5l10 -21q-55 -70 -89 -114t-63.5 -84t-62.5 -85t-86 -116q57 -104 95 -173t75 -132.5t82 -139t117 -198.5l-15 -19l-368 -14l-19 12 q-39 82 -66.5 138.5t-58.5 115.5t-71.5 136t-108.5 200l2 -236l12 -346l-12 -14h-98t-74 -1t-72 -2t-88 -3l-14 14q2 250 2 498t-4 498q-2 100 -4 172.5t-5 134t-6.5 122t-9.5 134.5z" />
<glyph unicode="l" horiz-adv-x="598" d="M100 1567l9 12l350 55l14 -14q-4 -84 -5 -145.5t-3 -118t-2 -113.5v-131q0 -244 2 -412t5 -290.5t6 -215t7 -180.5l-12 -14h-97h-79t-76 -2t-90 -4l-12 14q2 76 5 139.5t4 127t2 130t1 150.5v181t-2 182q-2 125 -3 206.5t-4 148t-7 133.5t-13 161z" />
<glyph unicode="m" horiz-adv-x="1835" d="M98 1042l13 15q53 8 92 14t75.5 12.5t78.5 13.5t102 19l18 -18v-115q72 49 143.5 88t174.5 39q61 0 103 -14.5t69.5 -35t44 -43t26.5 -40.5q31 20 68 43.5t81 44t97 33t117 12.5q12 0 42 -2t66.5 -12.5t75.5 -35t70 -67.5q45 -65 51 -155q4 -67 4 -143v-52v-154v-144 t2 -108.5t4 -100.5t6 -122l-12 -12h-92t-75 -1t-77 -2t-98 -3l-12 12q0 23 1 84.5t2 131t2 132t1 88.5q0 29 1 58.5t1 58.5q0 66 -5 119t-19.5 90t-41 57.5t-69.5 20.5q-47 0 -81 -17.5t-61 -33.5l3 -207v-76q0 -92 1 -154.5t3 -114.5t5 -104.5t7 -126.5l-12 -12h-91t-74 -1 t-77 -3t-98 -4l-13 14q2 61 3 107.5t2.5 97.5t1.5 122v181q0 66 -3.5 124t-15.5 102t-38.5 70t-74.5 26q-39 0 -73.5 -17.5t-67.5 -40.5q0 -133 1 -225t3 -173t5 -165t10 -203l-13 -12h-107t-81 -1t-73 -2t-85 -3l-10 12q0 88 1 176t1 176q0 152 -2 254.5t-6 177t-9.5 132 t-11.5 118.5z" />
<glyph unicode="n" d="M100 1042l13 15q57 8 96 13t74.5 11t75.5 14.5t100 20.5l20 -14l-4 -113q72 41 153 81t175 40q27 0 61.5 -4t69.5 -17.5t66.5 -38t56.5 -63.5q18 -31 29.5 -65.5t16.5 -78.5t7 -100.5t2 -130.5v-159q2 -76 3 -128.5t2 -98.5t3 -95t6 -117l-14 -12h-102t-76 -1l-70 -2 t-86 -3l-12 12q0 53 1 105.5t1 105.5v90.5t-1 127t-2 125t-3 83.5q-2 27 -7 61.5t-17.5 63.5t-37 49.5t-67.5 20.5q-49 0 -87 -20.5t-71 -43.5q0 -137 1 -229t3 -171t5 -161t8 -201l-13 -12h-101t-76 -1t-72.5 -2t-92.5 -3l-12 12q2 98 3 196.5t1 196.5q0 125 -2 216.5 t-6 163t-9.5 133t-11.5 128.5z" />
<glyph unicode="o" d="M72 541q0 285 144 426t413 141q41 0 111.5 -6t138.5 -33q72 -29 121 -73t80.5 -95t49 -106.5t25.5 -103.5t9 -87t1 -59q0 -115 -24.5 -218.5t-88 -181t-170 -124t-268.5 -46.5q-111 0 -186.5 18.5t-126.5 47.5t-82 61.5t-51 63.5q-57 84 -76.5 180t-19.5 195zM430 543 q0 -74 6 -126t17.5 -87t25 -56.5t25.5 -33.5q18 -16 46 -31.5t68 -15.5q63 0 101.5 31.5t59 81.5t26.5 114t6 127q0 84 -11.5 162.5t-47.5 124.5q-20 25 -54 44t-77 19q-49 0 -88 -25.5t-62 -66.5q-16 -27 -24.5 -62.5t-11.5 -72.5t-4 -71t-1 -56z" />
<glyph unicode="p" d="M94 1040l12 15q55 6 94.5 12t75 12t75.5 14.5t95 20.5l17 -18l-4 -82q20 14 46.5 31.5t60.5 32t76 23.5t95 9q86 0 164 -36t136.5 -103.5t93 -163.5t34.5 -219q0 -53 -9 -110.5t-28.5 -114t-53.5 -111.5t-83 -100q-61 -59 -129.5 -91t-137.5 -47.5t-134.5 -18.5 t-120.5 -3l14 -488l-12 -10h-99h-77t-75 -2t-93 -4l-12 10q2 86 4 159t3 143.5t2 145t1 167.5q0 147 -1 256.5t-2 191.5t-4 144.5t-6 117t-7.5 105.5t-10.5 112zM467 219q53 2 111.5 9.5t107.5 41.5q61 43 91 118t30 165q0 53 -13.5 121.5t-60.5 122.5q-39 43 -80 52t-63 9 q-39 0 -63.5 -10t-59.5 -31v-598z" />
<glyph unicode="q" d="M72 498q0 57 10 124.5t35.5 134t69.5 127t112 103.5q63 39 130 60.5t157 30.5t216 10q42 1 90 1q97 0 218 -2l14 -12q-2 -68 -4 -126t-3 -119.5t-2 -131t-1 -157.5q0 -262 3 -518t16 -519l-11 -10h-98h-74t-72.5 -2t-95.5 -4l-12 10q2 94 3 156.5t2 118t1 119v159.5 q-43 -27 -99 -51.5t-151 -24.5q-115 0 -200.5 42t-142 114t-84 166t-27.5 201zM432 541q0 -20 3 -72.5t23.5 -108t64.5 -97.5t126 -42q41 0 67.5 11.5t57.5 29.5l-6 588q-16 2 -30.5 2h-28.5q-86 0 -140.5 -30.5t-84 -78t-41 -101.5t-11.5 -101z" />
<glyph unicode="r" horiz-adv-x="768" d="M111 1042l12 13q55 8 94 14t75 12t75 14.5t96 20.5l16 -16l-6 -189q49 115 114.5 157t129.5 42q10 0 21.5 -1t21.5 -1l12 -14l-57 -334l-19 -8q-23 12 -40 20t-44 8q-53 0 -80.5 -22.5t-41 -56t-15.5 -73.5t-2 -75q0 -53 2 -120.5t5 -139.5t6 -144.5t8 -134.5l-11 -14 h-102h-77t-73.5 -2t-95.5 -4l-12 12q6 254 6 506q0 106 -1 181t-3 133.5t-6 108.5t-8 107z" />
<glyph unicode="s" horiz-adv-x="980" d="M76 63q2 39 4 65t4 49.5t3 50t3 67.5l19 8q23 -18 39 -30.5t42 -26.5q57 -29 116 -43.5t102 -14.5q86 0 123.5 34t37.5 73q0 27 -15 47t-36.5 34.5t-47.5 25t-46 16.5l-78 28q-37 14 -83 35t-87 57.5t-68.5 92t-27.5 137.5q0 61 17.5 106.5t37.5 73.5q39 57 94.5 90 t111.5 48.5t110.5 19.5t91.5 4q100 0 170.5 -15.5t142.5 -35.5l10 -12l-20 -224l-19 -6q-39 25 -100 55.5t-156 30.5q-47 0 -75.5 -11t-44 -25.5t-19.5 -31t-4 -24.5q0 -43 36 -64.5t89 -39.5l100 -37q43 -16 90.5 -38t87 -57.5t66.5 -92t27 -140.5v-21.5t-2 -23.5 q-14 -111 -71.5 -174.5t-133.5 -96t-157 -42t-138 -9.5q-55 0 -101.5 6.5t-85 15.5t-75.5 21.5t-74 26.5z" />
<glyph unicode="t" horiz-adv-x="724" d="M8 858l19 219l12 10l111 -4l-3 256l9 15q55 14 92 23t70.5 18.5t69.5 19.5t89 27l15 -12l-8 -345h206l12 -12l-20 -219l-12 -12l-186 8l-3 -289q0 -31 -1 -65v-34.5v-34.5q1 -34 2 -63.5t2 -50.5q2 -12 6 -28.5t16 -31.5t34.5 -25.5t61.5 -10.5q27 0 47.5 5t46.5 14 l17 -9l-21 -211l-14 -14q-53 -10 -104.5 -17.5t-110.5 -7.5q-121 0 -186.5 35t-96 90.5t-36 125t-5.5 141.5q0 41 1 78.5t3 76.5l7 326l-130 -4z" />
<glyph unicode="u" d="M109 1067l14 12l338 17l14 -17l-4 -413q-2 -39 -2 -78v-78q0 -45 2 -94t16.5 -89t44 -67t84.5 -27q41 0 77 19.5t77 48.5q2 61 2 95v79v73.5t-2 147.5t-4 185.5t-8 185.5l14 12l334 17l14 -17q-6 -289 -6 -577q0 -100 1 -169t2 -122t4 -98t7 -101l-12 -12h-86t-71.5 -1 t-74.5 -2t-96 -3l-14 12l2 92q-55 -43 -124.5 -83t-178.5 -40q-78 0 -147.5 26t-120.5 83q-29 33 -45.5 68.5t-24.5 82t-10 107.5t-2 145v144q0 78 -1 131t-2 99t-4 93t-7 113z" />
<glyph unicode="v" horiz-adv-x="1024" d="M-12 1059l8 16q57 0 98 1t79 4t79 7.5t102 10.5l15 -13q10 -51 18 -86.5t17.5 -73.5t21.5 -85t31 -119l39 -158l51 -221l104 403q14 59 24.5 98.5t17.5 73t15.5 68.5t18.5 86l14 14l287 7l10 -15q-23 -63 -48 -141t-53 -160t-54.5 -159.5t-46.5 -139.5 q-33 -96 -66 -201.5t-82 -259.5l-12 -16h-95h-77t-75 -2t-87 -4l-14 14q-12 41 -22.5 80t-26 88t-37 117.5t-55 171t-83 248t-116.5 346.5z" />
<glyph unicode="w" horiz-adv-x="1662" d="M-12 1055l12 16l332 25l12 -11l70 -340l49 -221l39 -202l39 188l49 225l67 336l15 14l393 7l12 -15l72 -354l45 -213l35 -182l39 188l57 248l59 307l15 14l266 7l12 -17q-16 -63 -33.5 -126.5t-35.5 -127.5q-31 -111 -53.5 -190.5t-40 -143t-32 -116t-28.5 -105.5 t-29.5 -112.5t-35.5 -139.5l-13 -14h-106h-86t-84 -2t-101 -4l-14 14l-86 445l-31 151l-30 156l-52 -248l-57 -248l-53 -250l-12 -14h-120h-88t-80 -2t-93 -4l-15 12q-14 63 -27.5 118.5t-27.5 115t-33.5 131t-46.5 168t-61.5 222.5t-83.5 294z" />
<glyph unicode="x" horiz-adv-x="1067" d="M12 12q66 94 109 156.5t79 117t72.5 113t92.5 144.5q-82 127 -131.5 203.5t-83 127t-59 88t-60.5 87.5l12 16q66 2 109 5t81.5 6t78.5 6t100 8l14 -13q8 -16 22.5 -46t32 -63.5t33.5 -66.5t29 -57q6 -12 12 -23.5t12 -23.5q20 37 34.5 64.5t28 55t31 63.5t41.5 89l17 14 h295l8 -18q-29 -43 -69 -102.5t-84 -126t-88 -134t-81 -122.5q12 -20 21.5 -36t20 -32t23.5 -36.5t32 -51.5q14 -23 50 -77t76 -116.5t75.5 -119t50.5 -80.5l-9 -19q-53 -2 -93 -4t-80 -3t-85 -4t-110 -9l-19 10q-23 47 -39 80t-32.5 64.5t-36 67.5t-47.5 89 q-23 -39 -36 -62.5t-34 -66.5q-23 -41 -42 -82t-40 -80l-16 -12l-310 -2z" />
<glyph unicode="y" horiz-adv-x="1024" d="M-23 1063l11 14q63 2 105 3t79 3t78 5.5t100 7.5l17 -13l82 -311l59 -217l39 -145l45 153l53 176q18 59 30.5 99.5t22 74t18.5 69.5t21 89l17 14l284 7l9 -17q-23 -59 -45.5 -119.5t-45.5 -121.5q-68 -178 -119 -315.5t-89.5 -248t-69.5 -202t-56.5 -179.5t-50 -180 t-53.5 -203l-14 -12q-39 0 -78 1t-78 1q-41 0 -82 -1t-80 -3l-10 16q35 76 57.5 126.5t42 96.5t41 98t52.5 132q-47 147 -104.5 310t-112 314.5t-101.5 277.5t-74 200z" />
<glyph unicode="z" horiz-adv-x="980" d="M39 14q68 133 118 231.5t87 171t64.5 128t51 103.5t46 96.5t51.5 107.5l-365 -4l-10 12l20 213l11 14h811l10 -18q-47 -94 -102.5 -202.5t-108.5 -213.5q-39 -78 -65.5 -133t-49 -102t-42 -91t-44.5 -98l396 15l12 -11l-21 -225l-16 -8h-846z" />
<glyph unicode="{" horiz-adv-x="724" d="M72 502v119q37 10 67.5 27.5t57.5 70.5q18 41 22 91t4 140v189q0 74 3 126t12.5 92t25 69.5t41.5 56.5q27 27 56.5 43t76.5 25.5t117 13.5t174 4v-131q-43 -10 -92 -29.5t-84 -75.5q-25 -37 -31 -91t-6 -148v-66v-90t-2 -90q-4 -78 -19.5 -128t-41 -81t-59.5 -48.5 t-75 -29.5q41 -12 75 -29.5t59.5 -48t41 -81t19.5 -128.5q2 -45 2 -90v-90v-65q0 -94 6 -148.5t31 -91.5q35 -55 84 -74.5t92 -29.5v-131q-104 0 -174 4t-117 13t-76.5 25.5t-56.5 43.5t-42 56.5t-24.5 69t-12.5 92t-3 126.5v188q0 90 -4 140t-22 91q-27 53 -57.5 71 t-67.5 28z" />
<glyph unicode="|" horiz-adv-x="468" d="M129 -512v2048h211v-2048h-211z" />
<glyph unicode="}" horiz-adv-x="724" d="M-4 -315q43 10 92 29.5t84 74.5q25 37 31 91t6 149v65v90t2 90q2 78 18.5 128.5t42 81t59.5 48t75 29.5q-41 12 -75 29.5t-59.5 48.5t-42 81t-18.5 128q-2 45 -2 90v90v66q0 94 -6 148t-31 91q-35 55 -84 74.5t-92 30.5v131q104 0 174 -4t117 -13.5t76.5 -26t56.5 -42.5 q27 -27 42 -56.5t24.5 -69.5t12.5 -92.5t3 -125.5v-189q0 -90 4 -140t22 -91q27 -53 57.5 -70.5t67.5 -27.5v-119q-37 -10 -67.5 -27.5t-57.5 -71.5q-18 -41 -22 -91t-4 -140v-188q0 -74 -3 -126.5t-12.5 -92t-25 -69.5t-41.5 -56q-27 -27 -56.5 -43.5t-76.5 -25.5t-117 -13 t-174 -4v131z" />
<glyph unicode="~" horiz-adv-x="1492" d="M231 604q12 16 35 47t59.5 60.5t87 52t115.5 22.5q57 0 105.5 -17t114.5 -48l69 -33q33 -14 72 -28.5t78 -14.5q63 0 112 40t88 87l95 -182q-18 -20 -47 -49t-67 -54.5t-85 -44t-102 -18.5q-53 0 -101.5 18.5t-109.5 46.5l-60 29q-43 20 -80 33.5t-78 13.5q-31 0 -54 -7 t-44.5 -23.5t-46.5 -43t-57 -65.5z" />
<glyph unicode="&#xa1;" horiz-adv-x="598" d="M63 6q16 262 32 524.5t20 518.5l14 18l248 10l12 -14q10 -258 21.5 -520t40.5 -504l-13 -14l-360 -31zM84 1270v293l10 10l326 6l10 -14v-285l-14 -14h-86t-69 -1t-71.5 -2t-93.5 -3z" />
<glyph unicode="&#xa2;" horiz-adv-x="1024" d="M72 514q0 147 42 258t113.5 184.5t169 110.5t207.5 37h31.5t38.5 -2q6 25 9 41t6 29.5t5 27.5t6 39l15 12h43h30.5t27.5 1t34 1l10 -14q-8 -23 -13 -40t-10.5 -34.5t-9.5 -36t-10 -43.5q35 -4 52.5 -8t56.5 -14l10 -14q-6 -41 -10 -71t-7.5 -56.5t-6.5 -57t-7 -76.5 l-18 -8q-47 23 -70.5 31t-62.5 16l-148 -598q10 -4 22.5 -6t33.5 -2q86 0 141 27.5t90 50.5l20 -12q-4 -39 -6 -65.5t-4 -51.5t-3 -51.5t-1 -65.5l-14 -16q-66 -29 -135.5 -42t-141.5 -13h-24.5t-36.5 2q-6 -27 -11.5 -45.5t-8.5 -36t-7 -35t-8 -41.5l-12 -12q-23 0 -39.5 1 t-30.5 1t-29.5 -1t-38.5 -1l-10 12q18 59 30.5 100t23.5 74q-102 27 -167 84t-102 129t-51 150.5t-14 150.5zM399 528q0 -51 8.5 -89t20.5 -65.5t24.5 -45t20.5 -27.5l135 535q-12 0 -31.5 -4.5t-42 -14.5t-46 -30.5t-44.5 -57.5q-23 -41 -34 -97.5t-11 -103.5z" />
<glyph unicode="&#xa3;" horiz-adv-x="1067" d="M39 616l8 177l14 12l113 -4q-2 39 -4 80t-2 75q0 16 1 45t7 65t17.5 74t33.5 72q43 72 108.5 111t132.5 57.5t124 21.5t84 3q96 0 167.5 -14.5t149.5 -34.5l8 -15l-16 -217l-18 -10q-47 18 -95.5 32.5t-121.5 14.5q-90 0 -140.5 -28.5t-73 -71.5t-26.5 -94.5t-4 -96.5 v-63l368 4l13 -12l-15 -181l-12 -12l-356 4q-2 -66 -4 -110.5t-7.5 -84.5t-11.5 -83t-18 -105h141.5t114.5 1t117.5 2t152.5 3l10 -10l-10 -207l-12 -16h-883l-14 20q14 45 30.5 97.5t30 121t23.5 157.5t14 210l-129 -2z" />
<glyph unicode="&#xa4;" horiz-adv-x="1366" d="M49 221l164 160q-20 33 -38.5 64.5t-32 67.5t-20.5 80t-7 103q0 57 7 101.5t20.5 79t30.5 66.5t38 65l-158 159l156 156l160 -158q33 18 64.5 36t68.5 31t82 21.5t104 8.5q55 0 98 -8.5t79 -21.5t67 -30.5t63 -36.5l160 158l160 -158l-162 -157q18 -31 35.5 -63t31 -66.5 t21.5 -78.5t8 -100q0 -66 -9 -114.5t-24.5 -86.5t-33 -67t-31.5 -53l162 -162l-160 -158l-160 162q-31 -18 -62.5 -35.5t-67.5 -30t-79 -20.5t-100 -8q-63 0 -112.5 10t-88.5 24.5t-66.5 32t-47.5 29.5l-162 -160zM324 692q0 -80 29.5 -146.5t78.5 -113.5t113.5 -73.5 t136.5 -26.5q74 0 139.5 26.5t113.5 74.5t76.5 114.5t28.5 146.5q0 84 -29.5 150.5t-80.5 114t-114.5 73t-131.5 25.5q-72 0 -136.5 -24.5t-114.5 -72t-79.5 -115t-29.5 -153.5z" />
<glyph unicode="&#xa5;" horiz-adv-x="1193" d="M0 1368l6 14q61 2 102.5 3t78 2.5t78.5 3.5t104 6l12 -8q27 -57 56.5 -123t70.5 -148q6 -14 24.5 -50t40 -77t40 -77.5t24.5 -51.5q35 68 71.5 145.5t70.5 148.5t60.5 129t39.5 87l12 12h86t65.5 1t63.5 2.5t82 3.5l8 -15q-29 -53 -65.5 -120.5t-73.5 -138t-74 -138.5 t-65 -123h59q23 0 33 1t37 3l12 -12q-2 -31 -3 -51.5t-2 -39t-2 -39t-3 -48.5l-13 -13h-31.5t-59.5 1t-70.5 1h-63.5q-4 -8 -18.5 -35.5t-18.5 -35.5v-86h103h67q35 0 56.5 1t46.5 3l12 -12q-2 -31 -3 -51.5t-2 -39t-2 -38t-3 -50.5l-13 -12q-20 0 -32.5 1t-23.5 1h-22.5 h-29.5h-152q0 -49 1 -87t2 -71.5t3 -65.5t4 -69l-12 -10h-93t-73 -1t-73.5 -2t-96.5 -3l-10 10q4 76 6 149.5t4 149.5h-108h-90t-70 -2l-12 16q2 27 4 45.5t4 36t3 39t1 52.5l12 12h50t77 -1t78 -1h53v80q-16 29 -22 40t-21 37q-61 0 -98 -1t-60.5 -1h-38h-30.5l-12 15 q2 27 4 45t4 35.5t3 39t1 52.5l12 14h21.5h32t32 -1t21.5 -1q-31 57 -54.5 98t-52 92.5t-70.5 125t-112 196.5z" />
<glyph unicode="&#xa6;" horiz-adv-x="468" d="M129 389h211v-780h-211v780zM129 631v780h211v-780h-211z" />
<glyph unicode="&#xa7;" horiz-adv-x="1110" d="M59 590q0 35 10.5 88t41.5 106q33 53 66.5 81t68.5 50q-18 18 -37 39t-33 46.5t-22.5 59.5t-8.5 81q0 70 29 132t82 109q43 37 93 57.5t96.5 30t84 11.5t60.5 2q109 0 188.5 -17.5t159.5 -40.5l12 -14l-20 -219l-19 -10q-41 16 -116.5 41.5t-163.5 25.5 q-57 0 -105.5 -25.5t-48.5 -76.5q0 -47 44 -73.5t106 -53.5q23 -10 44 -20.5t44 -20.5l63 -31q41 -18 88 -42.5t87 -63.5t67 -93.5t27 -132.5q0 -72 -27 -133q-29 -72 -68 -111.5t-86 -80.5q20 -23 41 -46.5t36 -51t24.5 -62.5t9.5 -80q0 -76 -31 -142.5t-92 -115.5 t-152.5 -77.5t-214.5 -28.5q-106 0 -184 19.5t-160 47.5l-10 17l17 225l18 10q63 -29 136 -55.5t165 -26.5q70 0 123 30t53 83q0 47 -41 74.5t-131 68.5l-76 35q-57 27 -117.5 57.5t-109.5 73.5t-80 102.5t-31 141.5zM326 655q0 -29 10 -49t31.5 -38.5t54.5 -37t78 -41.5 l178 -86q25 18 59.5 53.5t34.5 90.5q0 61 -50 96t-151 82l-57 25l-96 47q-35 -29 -63.5 -60.5t-28.5 -81.5z" />
<glyph unicode="&#xa8;" horiz-adv-x="598" d="M-82 1495l10 12l289 15l10 -13v-276l-12 -12l-281 -17l-10 13zM377 1495l10 12l285 17l10 -11v-282l-10 -12l-279 -17l-12 12z" />
<glyph unicode="&#xa9;" horiz-adv-x="1705" d="M125 723q0 154 57.5 287t155.5 231t231 154.5t287 56.5q152 0 285 -55.5t231 -153.5t154.5 -232t56.5 -290q0 -109 -31.5 -212t-85.5 -190q-43 -68 -106.5 -127t-142 -103t-171 -69.5t-194.5 -25.5q-141 0 -272 53t-232.5 149.5t-162 230.5t-60.5 296zM190 721 q0 -135 51.5 -255t140.5 -210t211 -143.5t263 -53.5q131 0 251 48.5t210 136.5t144.5 210t56.5 267q0 135 -48.5 256t-136.5 212t-210 144t-265 53q-139 0 -261 -51t-212 -141t-142.5 -211t-52.5 -262zM373 725q0 104 35.5 195.5t101 159t157 106.5t203.5 39 q82 0 145.5 -18.5t111 -46t80 -59.5t57.5 -57l-146 -139q-16 16 -38.5 38t-52.5 40t-69.5 30.5t-89.5 12.5q-66 0 -119 -22.5t-92 -62.5t-59 -95t-20 -119q0 -70 23.5 -125t63.5 -94t94 -59.5t113 -20.5q51 0 91.5 12.5t69 29.5t50 36.5t35.5 36.5l146 -135 q-20 -23 -52 -52.5t-79.5 -58.5t-112 -48.5t-150.5 -19.5q-117 0 -210 39t-156.5 106.5t-97 158t-33.5 192.5z" />
<glyph unicode="&#xaa;" horiz-adv-x="768" d="M43 952q0 78 37 127t95 79t131 44.5t147 22.5q0 12 -2 24.5t-11.5 22.5t-28 17t-53.5 7q-45 0 -94 -10t-90 -26q-4 -2 -9 -3.5t-13 -5.5t-19 -8l-14 8q0 8 1 28.5t2 45.5t2 46.5t1 29.5l10 10q39 14 104.5 30.5t161.5 16.5q109 0 167.5 -28.5t85 -74.5t29.5 -104.5 t1 -117.5l-2 -99q0 -57 1 -110.5t5 -126.5q0 -6 2 -27.5t2 -24.5l-10 -10h-55h-56q-6 0 -20 -1t-30.5 -2t-31 -1h-20.5l-10 10v41q-23 -16 -66 -39.5t-112 -23.5q-111 0 -174.5 67.5t-63.5 165.5zM272 969q0 -39 23.5 -57.5t58.5 -18.5q29 0 54.5 10t48.5 23v151 q-100 -10 -142.5 -35.5t-42.5 -72.5z" />
<glyph unicode="&#xab;" horiz-adv-x="1067" d="M63 565v21q37 66 64 112.5t49.5 88.5t44 83t49.5 95l15 12l243 6l11 -18q-14 -25 -46 -84.5t-66 -122t-60.5 -114.5t-32.5 -62q25 -47 41 -80t36.5 -70t50.5 -88t77 -133l-11 -23l-237 -10l-17 10q-16 33 -27 56.5t-25.5 49t-36 60.5t-54.5 92zM465 569v23 q47 82 76.5 135t50 93t37 72t37.5 71l14 10l256 10l10 -16q-6 -12 -24.5 -46t-39 -71t-39 -71t-26.5 -48q-18 -35 -30.5 -55.5t-20.5 -35.5t-14.5 -28.5t-14.5 -31.5q8 -14 14.5 -28.5t14.5 -29.5q16 -33 38.5 -73.5t46 -83.5t46.5 -83t41 -73l-8 -21l-238 -10l-16 8 q-18 39 -45 88.5t-56.5 101.5t-58.5 102t-51 91z" />
<glyph unicode="&#xac;" horiz-adv-x="1366" d="M0 496v211h1155h211v-707h-211v496h-1155z" />
<glyph unicode="&#xad;" horiz-adv-x="768" d="M70 461l12 235l14 13q72 0 145.5 -1t147.5 -1q90 0 157.5 1t141.5 3l10 -11l-14 -237l-12 -12q-76 0 -151 1t-150 1h-75t-67.5 -1t-69.5 -2t-79 -1z" />
<glyph unicode="&#xae;" horiz-adv-x="1705" d="M125 723q0 158 58.5 291t157.5 230t231.5 152.5t279.5 55.5q160 0 294 -58.5t231.5 -158.5t151.5 -233t54 -283q0 -152 -57.5 -284t-155.5 -230.5t-231 -154.5t-287 -56q-143 0 -274.5 53t-231.5 149.5t-160.5 230.5t-60.5 296zM190 723q0 -139 52.5 -261t142.5 -211 t211 -140.5t258 -51.5q141 0 262 52.5t210 141.5t140.5 210t51.5 258q0 135 -49.5 257t-138.5 212t-211 143t-263 53t-262 -52t-211 -142t-141.5 -211t-51.5 -258zM528 266v928h318q72 -2 122 -4t95 -19q86 -29 122 -93t36 -128q0 -61 -22.5 -101t-53.5 -64.5t-59.5 -37 t-41.5 -16.5q20 -10 39 -21.5t33 -31t25.5 -50t19.5 -79.5q14 -86 27.5 -153.5t48.5 -129.5h-223q-23 43 -32 94.5t-17 106.5q-10 63 -18.5 102t-28 60.5t-54.5 29t-94 9.5h-47v-402h-195zM723 823h117q27 0 59.5 1t60 12.5t47 35t19.5 66.5q0 20 -11 49t-46 45 q-12 4 -21.5 7t-26 4t-42 1h-68.5h-88v-221z" />
<glyph unicode="&#xaf;" horiz-adv-x="598" d="M-63 1272q6 61 8 95t6 83l12 12q109 -2 214.5 -2h213.5q92 0 149.5 1t110.5 3l11 -12q-4 -31 -5.5 -50.5t-3.5 -37.5t-3 -38.5t-3 -51.5l-12 -14q-41 0 -69.5 1t-74 1h-118h-199.5h-98.5t-128.5 -2z" />
<glyph unicode="&#xb0;" horiz-adv-x="724" d="M10 1194q0 74 28 137.5t76 111.5t111.5 75.5t136.5 27.5q74 0 137.5 -27.5t111.5 -75.5t76 -111.5t28 -137.5t-28 -137.5t-76 -111.5t-111.5 -75.5t-137.5 -27.5t-137 27.5t-111 75.5t-76 111.5t-28 137.5zM217 1194q0 -59 43 -102t102 -43t102.5 43t43.5 102t-43 102 t-103 43q-59 0 -102 -43t-43 -102z" />
<glyph unicode="&#xb1;" horiz-adv-x="1366" d="M84 0v211h1196v-211h-1196zM84 766v211h496v461h211v-461h489v-211h-489v-463h-211v463h-496z" />
<glyph unicode="&#xb2;" horiz-adv-x="811" d="M25 504q18 20 30.5 33.5t25.5 29t31.5 36t47.5 54.5q137 158 209.5 254.5t72.5 167.5q0 20 -8 45t-26.5 45.5t-48 34t-74.5 13.5q-43 0 -78 -9.5t-61.5 -24t-46 -28.5t-31.5 -22l-21 12q2 27 3 47t2 39.5t2 42t1 51.5l11 14q53 23 118.5 44.5t159.5 21.5 q88 0 153.5 -24.5t109.5 -64.5t65.5 -94.5t21.5 -111.5q0 -70 -25.5 -123t-60.5 -98q-12 -16 -23.5 -30.5t-32 -37t-53 -58.5t-87.5 -95q53 0 89 1t68.5 2t66.5 2t83 3l10 -14q-2 -29 -3 -48.5t-1 -36t-1 -35t-1 -44.5l-12 -17h-77h-117.5t-139.5 -1t-141.5 -1h-121h-79.5z " />
<glyph unicode="&#xb3;" horiz-adv-x="811" d="M61 1214q2 25 3.5 41.5t1.5 33t1 35.5t1 48l12 12h131h173t170 1t122 4l10 -19q-14 -29 -44 -80t-60.5 -103t-54 -92t-27.5 -46q63 -10 106 -37t68.5 -63t36 -78t10.5 -80q0 -49 -12.5 -89t-29.5 -69t-36.5 -50.5t-36.5 -33.5q-37 -29 -77 -45.5t-78.5 -25.5t-73.5 -11 t-62 -2q-106 0 -163.5 19.5t-79.5 29.5l-9 12q2 31 3.5 50.5t2.5 35t2 33t3 45.5l18 10q29 -18 78 -41.5t123 -23.5q92 0 134 43t42 96q0 63 -47 101t-127 38q-29 0 -47.5 -4t-38.5 -10l-19 23q14 23 37 55.5t46.5 70t48 78.5t43.5 80q-51 0 -85 -1t-63 -1t-61.5 -1 t-83.5 -3z" />
<glyph unicode="&#xb4;" horiz-adv-x="598" d="M66 1225q23 53 39 91t29 73.5t25.5 76.5t30.5 101l11 10l323 4l6 -14q-25 -37 -53 -81t-58 -90t-57.5 -91t-52.5 -84l-14 -9h-221z" />
<glyph unicode="&#xb6;" horiz-adv-x="1366" d="M174 1022q0 113 34 179.5t58 94.5q43 55 92.5 85t98.5 44.5t94 17.5t82 3h491v-135h-71v-1653h-146v1653h-268v-1653h-145v969q-57 14 -116 36.5t-114 88.5q-47 55 -68.5 125.5t-21.5 144.5z" />
<glyph unicode="&#xb7;" horiz-adv-x="512" d="M80 719l10 14l328 6l10 -12l4 -289l-10 -10l-328 -10l-10 14z" />
<glyph unicode="&#xb8;" horiz-adv-x="598" d="M113 -369l135 289l10 8h221l6 -12q-14 -43 -24 -73.5t-19.5 -60.5t-19.5 -64.5t-25 -86.5l-12 -10h-266z" />
<glyph unicode="&#xb9;" horiz-adv-x="811" d="M168 1212q2 25 3 40.5t1 29.5t1 29.5t3 40.5l12 12q59 6 102.5 12t80.5 10.5t71.5 9.5t79.5 11l15 -10q-4 -66 -6.5 -195t-2.5 -321q0 -88 1 -146.5t2 -100.5t3.5 -74t4.5 -64l-15 -13h-61.5h-48t-50 -1t-65.5 -3l-10 13q2 72 4 160.5t3 184t1 191.5v184q-35 -4 -58.5 -6 t-58.5 -6z" />
<glyph unicode="&#xba;" horiz-adv-x="811" d="M47 1081q0 109 29.5 181.5t80 115.5t117 61.5t142.5 18.5q98 0 163.5 -28.5t106.5 -79t58.5 -118t17.5 -145.5q2 -170 -83 -270t-276 -100q-35 0 -99 7t-122 44q-76 49 -105.5 135t-29.5 178zM287 1090q0 -39 3 -79t15 -72t36 -52.5t65 -20.5q72 0 95 65t23 161 q0 33 -3 70.5t-14 70.5t-34.5 55.5t-64.5 22.5q-45 0 -70 -23.5t-36 -57.5t-13 -72t-2 -68z" />
<glyph unicode="&#xbb;" horiz-adv-x="1067" d="M121 197q18 33 49 88t62.5 113.5t58 108.5t37.5 73q-12 31 -24.5 55t-33 62t-53.5 97.5t-88 157.5l8 21l238 10l14 -8q16 -31 29.5 -56.5t35 -64.5t56.5 -100.5t92 -161.5v-23q-49 -86 -81 -143t-53.5 -97t-36.5 -70l-30 -60l-14 -11l-256 -10zM528 197q10 18 39 70 t60.5 112.5t61.5 117t42 83.5q-23 45 -51.5 99t-57 105.5t-53 95.5t-41.5 70l11 23l237 10l15 -10q23 -43 44 -83t44 -81q6 -12 24.5 -42t38 -63.5t37.5 -64.5t25 -43v-21q-23 -39 -51.5 -90t-57.5 -103t-55.5 -101.5t-42.5 -83.5l-15 -13l-243 -6z" />
<glyph unicode="&#xbc;" horiz-adv-x="1878" d="M168 1212q2 25 3 41.5t1 29.5t1 28.5t3 40.5l12 12q59 6 102.5 12t80.5 10.5t71.5 9.5t79.5 11l15 -10q-4 -63 -6.5 -193.5t-2.5 -322.5q0 -88 1 -146.5t2 -100.5t3.5 -74t4.5 -64l-15 -13h-61.5h-48t-50 -1t-65.5 -3l-10 13q2 72 4 160.5t3 184t1 191.5v184 q-35 -4 -58.5 -6t-58.5 -6zM500 14q51 111 84.5 184.5t63.5 141.5t62.5 142.5t80.5 189.5q49 117 84.5 201.5t61.5 148t44 110t33.5 84t30 74.5t32.5 82l17 12q41 0 66.5 1t45 1t40 1.5t50.5 1.5l9 -19q-80 -168 -161 -356.5t-159 -374.5q-43 -102 -78 -187t-64.5 -161 t-57 -143.5t-54.5 -133.5l-14 -14h-54.5h-41t-45 -1t-64.5 -1zM1110 205q2 37 3 58.5t1 64.5l23 41q76 141 121 225t72.5 136t44 85t34.5 76l16 12h80h59.5t61.5 1t84 3l14 -12q-4 -135 -7 -268t1 -269q39 0 51.5 1t38.5 1l11 -12q-2 -27 -3 -43t-1 -29.5t-1.5 -30 t-3.5 -42.5l-12 -13h-80q2 -59 2 -96t2 -80l-12 -12h-58.5h-45t-46 -1t-59.5 -3l-12 12q2 43 3 83t5 100l-375 -3zM1327 358l170 2l4 213q0 4 1 27t2 48.5t2 46t1 22.5q-6 -10 -17 -32.5t-24.5 -49.5t-26 -51.5t-18.5 -38.5z" />
<glyph unicode="&#xbd;" horiz-adv-x="1878" d="M168 1212q2 25 3 40.5t1 29.5t1 29.5t3 40.5l12 12q59 6 102.5 12t80.5 10.5t71.5 9.5t79.5 11l15 -12q-4 -63 -6.5 -192.5t-2.5 -321.5q0 -88 1 -146.5t2 -100.5t3.5 -74t4.5 -64l-15 -13h-61.5h-48t-50 -1t-65.5 -3l-10 13q2 72 4 160.5t3 184t1 191.5v184 q-35 -4 -58.5 -6t-58.5 -6zM440 14q33 74 59.5 130.5t48 103.5t41 91t40 93t45 106.5t57.5 133.5q49 117 85 201.5t61.5 148t45 109t35 84t29.5 75.5t31 82l16 12q41 0 66.5 1t45 1t40 1.5t51.5 1.5l10 -19q-82 -168 -162.5 -356.5t-158.5 -374.5q-43 -102 -78 -187 t-65.5 -161t-57.5 -143.5t-53 -133.5l-15 -14h-54h-40.5t-45 -1t-64.5 -1zM1092 23q18 20 30.5 33.5t25.5 28.5t31.5 35.5t47.5 55.5q137 158 209.5 253t72.5 167q0 20 -8 45t-26.5 45.5t-48 33.5t-74.5 13q-43 0 -78 -9t-61.5 -23.5t-46 -29t-31.5 -22.5l-21 13q2 27 3 47 t2 39.5t2 42t1 51.5l11 14q51 23 117.5 44.5t160.5 21.5q88 0 153.5 -25t109.5 -64.5t65.5 -94t21.5 -111.5q0 -70 -25.5 -122t-60.5 -99q-12 -16 -23.5 -30t-32 -36.5t-53 -58t-87.5 -95.5q53 0 89 1t68.5 2t66.5 2.5t83 3.5l10 -15q-2 -29 -3 -48t-1 -35.5t-1 -35 t-1 -45.5l-12 -16h-77h-117.5t-139.5 -1t-141.5 -1h-121h-79.5z" />
<glyph unicode="&#xbe;" horiz-adv-x="1878" d="M61 1214q2 25 3.5 41.5t1.5 33t1 35.5t1 48l12 12h131h173t170 1t122 4l10 -19q-14 -29 -44 -80t-60.5 -103t-54 -92t-27.5 -46q63 -10 106 -37t68.5 -63t36 -78t10.5 -80q0 -49 -12.5 -89t-29.5 -69t-36.5 -50.5t-36.5 -33.5q-37 -29 -77 -45.5t-78.5 -25.5t-73.5 -11 t-62 -2q-106 0 -163.5 19.5t-79.5 29.5l-9 12q2 31 3.5 50.5t2.5 35t2 33t3 45.5l18 10q29 -18 78 -41.5t123 -23.5q92 0 134 43t42 96q0 63 -47 101t-127 38q-29 0 -47.5 -4t-38.5 -10l-19 23q14 23 37 55.5t46.5 70t48 78.5t43.5 80q-51 0 -85 -1t-63 -1t-61.5 -1 t-83.5 -3zM561 14q51 111 85 184.5t63.5 141.5t62.5 142.5t80 189.5q49 117 85 201.5t61.5 148t45 109t35 84t29.5 75.5t31 82l16 12q41 0 66.5 1t45 1t40 1.5t51.5 1.5l8 -19q-80 -168 -161 -356.5t-158 -374.5q-43 -102 -78 -187t-65 -161t-56.5 -143.5t-52.5 -133.5 l-15 -14h-56.5h-40.5t-45 -1t-65 -1zM1110 205q2 37 3 58.5t1 64.5l23 41q76 143 121 226t72.5 135t44 85t34.5 76l16 12h80h59.5t61.5 1t84 3l14 -12q-4 -135 -7 -268t1 -269q39 0 51.5 1t38.5 1l11 -12q-2 -27 -3 -43t-1 -29.5t-1.5 -30t-3.5 -42.5l-12 -13h-80 q2 -59 2 -96t2 -80l-12 -12h-58.5h-45t-46 -1t-59.5 -3l-12 12q2 43 3 83t5 100l-375 -3zM1329 358l168 2l4 213q0 4 1 27t2 48.5t2 46t1 22.5q-6 -10 -17 -32.5t-24.5 -49.5t-26 -51.5t-18.5 -38.5z" />
<glyph unicode="&#xbf;" horiz-adv-x="937" d="M61 399q0 61 13.5 114.5t33 99.5t43 85t46.5 72l73 109q25 35 39.5 56t23.5 40.5t16 41t16 56.5l12 17q51 0 85 1t64.5 2t63.5 2t80 5l10 -15q-4 -35 -9 -61.5t-15.5 -52t-29 -55t-44.5 -68.5l-72 -103q-35 -53 -69.5 -120.5t-34.5 -157.5q0 -66 21.5 -108t53 -66.5 t68.5 -34.5t67 -10q96 0 158 32.5t105 65.5l18 -12l-10 -258l-13 -17q-43 -14 -82.5 -25t-79.5 -20.5t-84 -14.5t-100 -5q-72 0 -132 10t-111 33q-66 31 -109 76t-68.5 94t-36 99t-10.5 93zM354 1559l11 12l327 8l10 -12l7 -287l-11 -14l-329 -6l-11 10z" />
<glyph unicode="&#xc0;" horiz-adv-x="1366" d="M4 14q76 215 132.5 381t100.5 294t76.5 228.5t60 185.5t53.5 165t52 166l15 12h136t100 1t96.5 2t123.5 3l15 -12q29 -113 52 -201t45.5 -173t49.5 -178t60.5 -213t78.5 -279.5t107 -379.5l-10 -16h-104.5h-80.5t-76.5 -2t-95.5 -4l-14 12l-88 379h-443l-100 -373 l-14 -12h-320zM371 1843l8 15h340l12 -9q12 -47 21.5 -80.5t19.5 -66.5t23.5 -69t33.5 -89l-8 -12l-209 -2l-14 10zM518 633h311l-75 319l-60 267h-4l-69 -240z" />
<glyph unicode="&#xc1;" horiz-adv-x="1366" d="M4 14q76 215 132.5 381t100.5 294t76.5 228.5t60 185.5t53.5 165t52 166l15 12h136t100 1t96.5 2t123.5 3l15 -12q29 -113 52 -201t45.5 -173t49.5 -178t60.5 -213t78.5 -279.5t107 -379.5l-10 -16h-104.5h-80.5t-76.5 -2t-95.5 -4l-14 12l-88 379h-443l-100 -373 l-14 -12h-320zM518 633h311l-75 319l-60 267h-4l-69 -240zM543 1542q25 57 39 95t25 70t21.5 63.5t22.5 76.5l11 11h339l5 -13q-27 -35 -51.5 -66.5l-52.5 -67.5t-59.5 -78t-72.5 -95l-12 -8h-207z" />
<glyph unicode="&#xc2;" horiz-adv-x="1366" d="M4 14q76 215 132.5 381t100.5 294t76.5 228.5t60 185.5t53.5 165t52 166l15 12h136t100 1t96.5 2t123.5 3l15 -12q29 -113 52 -201t45.5 -173t49.5 -178t60.5 -213t78.5 -279.5t107 -379.5l-10 -16h-104.5h-80.5t-76.5 -2t-95.5 -4l-14 12l-88 379h-443l-100 -373 l-14 -12h-320zM307 1544q31 49 52.5 83t39 64.5t36 65.5t42.5 88l15 13h380l11 -11q20 -41 37.5 -74.5t36 -66.5t41 -70t53.5 -86l-9 -16l-276 -6l-12 12l-86 166q-23 -39 -44.5 -73t-54.5 -91l-12 -12h-242zM518 633h311l-75 319l-60 267h-4l-69 -240z" />
<glyph unicode="&#xc3;" horiz-adv-x="1366" d="M4 14q76 215 132.5 381t100.5 294t76.5 228.5t60 185.5t53.5 165t52 166l15 12h136t100 1t96.5 2t123.5 3l15 -12q29 -113 52 -201t45.5 -173t49.5 -178t60.5 -213t78.5 -279.5t107 -379.5l-10 -16h-104.5h-80.5t-76.5 -2t-95.5 -4l-14 12l-88 379h-443l-100 -373 l-14 -12h-320zM324 1552l2 217l8 15q35 27 71.5 48t108.5 21q31 0 55.5 -5t53.5 -15l79 -27q35 -12 67 -21t67 -9q55 0 99 31.5t79 60.5l14 -6v-230l-8 -16q-35 -29 -80 -54.5t-113 -25.5q-35 0 -60.5 8t-55.5 19l-62 22q-35 10 -69.5 20.5t-69.5 10.5q-53 0 -96 -22.5 t-78 -45.5zM518 633h311l-75 319l-60 267h-4l-69 -240z" />
<glyph unicode="&#xc4;" horiz-adv-x="1366" d="M4 14q76 215 132.5 381t100.5 294t76.5 228.5t60 185.5t53.5 165t52 166l15 12h136t100 1t96.5 2t123.5 3l15 -12q29 -113 52 -201t45.5 -173t49.5 -178t60.5 -213t78.5 -279.5t107 -379.5l-10 -16h-104.5h-80.5t-76.5 -2t-95.5 -4l-14 12l-88 379h-443l-100 -373 l-14 -12h-320zM309 1556v261l13 14l290 4l11 -12l-5 -260l-12 -15l-287 -4zM518 633h311l-75 319l-60 267h-4l-69 -240zM811 1552v263l10 14l287 6l12 -12l-4 -264l-10 -13l-283 -6z" />
<glyph unicode="&#xc5;" horiz-adv-x="1366" d="M4 14q76 215 132.5 381t100.5 294t76.5 228.5t60 185.5t53.5 165t52 166l15 12h136t100 1t96.5 2t123.5 3l15 -12q29 -113 52 -201t45.5 -173t49.5 -178t60.5 -213t78.5 -279.5t107 -379.5l-10 -16h-104.5h-80.5t-76.5 -2t-95.5 -4l-14 12l-88 379h-443l-100 -373 l-14 -12h-320zM455 1729q0 45 15 90t47 80.5t82 58t122 22.5q74 0 122 -22.5t77.5 -56t42 -74.5t14.5 -80q4 -121 -72 -186.5t-198 -65.5q-61 0 -108.5 18.5t-79.5 50t-48 74.5t-16 91zM518 633h311l-75 319l-60 267h-4l-69 -240zM633 1737q0 -66 26.5 -95.5t55.5 -29.5 q33 0 57.5 32.5t20.5 102.5q-2 43 -12.5 65.5t-24 32.5t-25.5 12.5t-16 2.5q-10 0 -24.5 -5.5t-27 -18.5t-21.5 -36.5t-9 -62.5z" />
<glyph unicode="&#xc6;" horiz-adv-x="1878" d="M4 10q31 74 74 180.5t91 225.5t96 238.5t89 217.5q41 102 70 173t52.5 132.5t46 123l52.5 143.5l17 8q86 0 189.5 -1t209 -2t202.5 -2t169 -1h113.5t96.5 1t94 2t108 3l10 -12l-15 -250l-12 -12l-516 4l-4 -320h148.5t112.5 2t102.5 3t117.5 5l13 -12l-15 -233l-14 -13 q-80 2 -134.5 3t-102.5 1t-100 -1t-130 -1l4 -356q106 2 175 3t125 3t111.5 4t137.5 6l12 -12l-14 -252l-14 -12h-881l-12 10q2 66 4 111t3 86t2 85t1 107h-381q-23 -61 -37 -103t-26.5 -82t-28 -86t-35.5 -116l-14 -12l-355 -6zM598 649h293q2 94 4 155.5t3 116t1 114 v147.5h-102z" />
<glyph unicode="&#xc7;" d="M86 707q0 145 40 284t126 247t221 173.5t326 65.5q141 0 236 -27t145 -47l10 -12q-4 -51 -7 -84t-5 -60.5t-4.5 -58.5t-4.5 -78l-16 -6l-38.5 27.5t-60.5 34t-83 27.5t-107 11q-117 0 -192.5 -45t-121.5 -115.5t-64.5 -156.5t-18.5 -168q0 -111 29.5 -199t83 -147.5 t126 -91t158.5 -31.5q66 0 119 14.5t94 33.5t69 38.5t40 30.5l14 -11q-4 -53 -5 -85.5t-3 -63.5t-3 -64.5t-3 -89.5l-10 -14q-49 -20 -134.5 -45t-220.5 -25q-164 0 -299 50.5t-232 145.5t-150.5 232.5t-53.5 309.5zM512 -369q25 51 41 86t30.5 65t29 61.5t34.5 74.5l12 10 q41 0 68 -1t48.5 -1h45h60.5l6 -12q-14 -43 -24.5 -72.5t-19.5 -58.5t-20.5 -64.5t-25.5 -87.5l-13 -12q-88 2 -148.5 1t-117.5 -1z" />
<glyph unicode="&#xc8;" horiz-adv-x="1150" d="M127 1434l12 12h899l11 -8l-15 -238l-10 -12q-92 2 -153.5 3t-116 2t-112.5 1h-144v-326l495 9l11 -13l-13 -231l-14 -12h-479l4 -359h163.5t124 2t121 5t152.5 7l12 -14l-14 -250l-17 -12h-901l-10 8q2 80 4 148.5t3 137t2 144.5t1 172q0 205 -1 332t-3 211t-5 145.5 t-7 135.5zM264 1843l8 15h340l13 -9q12 -47 21 -80.5t19.5 -66.5t23.5 -69t34 -89l-8 -12l-209 -2l-14 10z" />
<glyph unicode="&#xc9;" horiz-adv-x="1150" d="M127 1434l12 12h899l11 -8l-15 -238l-10 -12q-92 2 -153.5 3t-116 2t-112.5 1h-144v-326l495 9l11 -13l-13 -231l-14 -12h-479l4 -359h163.5t124 2t121 5t152.5 7l12 -14l-14 -250l-17 -12h-901l-10 8q2 80 4 148.5t3 137t2 144.5t1 172q0 205 -1 332t-3 211t-5 145.5 t-7 135.5zM436 1542q25 57 39 95t25.5 70t21.5 63.5t23 76.5l10 11h340l4 -13q-27 -35 -51.5 -66.5t-52 -67.5t-59 -78t-72.5 -95l-13 -8h-207z" />
<glyph unicode="&#xca;" horiz-adv-x="1150" d="M127 1434l12 12h899l11 -8l-15 -238l-10 -12q-92 2 -153.5 3t-116 2t-112.5 1h-144v-326l495 9l11 -13l-13 -231l-14 -12h-479l4 -359h163.5t124 2t121 5t152.5 7l12 -14l-14 -250l-17 -12h-901l-10 8q2 80 4 148.5t3 137t2 144.5t1 172q0 205 -1 332t-3 211t-5 145.5 t-7 135.5zM201 1544q31 49 52 83t38.5 64.5t36 65.5t43.5 88l14 13h381l10 -11q20 -41 37.5 -74.5t36 -66.5t41 -70t53.5 -86l-8 -16l-277 -6l-12 12l-86 166q-23 -39 -44 -73t-54 -91l-12 -12h-242z" />
<glyph unicode="&#xcb;" horiz-adv-x="1150" d="M127 1434l12 12h899l11 -8l-15 -238l-10 -12q-92 2 -153.5 3t-116 2t-112.5 1h-144v-326l495 9l11 -13l-13 -231l-14 -12h-479l4 -359h163.5t124 2t121 5t152.5 7l12 -14l-14 -250l-17 -12h-901l-10 8q2 80 4 148.5t3 137t2 144.5t1 172q0 205 -1 332t-3 211t-5 145.5 t-7 135.5zM176 1556v261l12 14l291 4l10 -12l-4 -260l-12 -15l-287 -4zM678 1552v263l10 14l287 6l12 -12l-4 -264l-10 -13l-283 -6z" />
<glyph unicode="&#xcc;" horiz-adv-x="641" d="M8 1843l8 15h340l13 -9q12 -47 21 -80.5t19.5 -66.5t23.5 -69t34 -89l-8 -12l-209 -2l-14 10zM123 1434l8 12q55 0 95 -1t79 0t85 2t112 5l10 -12q-4 -213 -7 -424t-3 -424q0 -111 1 -189.5t2 -141t4 -121t7 -128.5l-12 -12h-106.5t-82.5 -1t-78.5 -2t-97.5 -3l-10 12 q2 80 5 146.5t4 132t2 138.5t1 163q0 131 -1 229t-1 174t-2 134.5t-4 108.5t-5 98t-5 104z" />
<glyph unicode="&#xcd;" horiz-adv-x="641" d="M123 1434l8 12q55 0 95 -1t79 0t85 2t112 5l10 -12q-4 -213 -7 -424t-3 -424q0 -111 1 -189.5t2 -141t4 -121t7 -128.5l-12 -12h-106.5t-82.5 -1t-78.5 -2t-97.5 -3l-10 12q2 80 5 146.5t4 132t2 138.5t1 163q0 131 -1 229t-1 174t-2 134.5t-4 108.5t-5 98t-5 104z M180 1542q25 57 39 95t25.5 70t21.5 63.5t23 76.5l10 11h340l4 -13q-27 -35 -51.5 -66.5t-52 -67.5t-59 -78t-72.5 -95l-13 -8h-207z" />
<glyph unicode="&#xce;" horiz-adv-x="641" d="M-55 1544q31 49 52 83t38.5 64.5t36 65.5t43.5 88l14 13h381l10 -11q20 -41 37.5 -74.5t36 -66.5t41 -70t53.5 -86l-8 -16l-277 -6l-12 12l-86 166q-23 -39 -44 -73t-54 -91l-12 -12h-242zM123 1434l8 12q55 0 95 -1t79 0t85 2t112 5l10 -12q-4 -213 -7 -424t-3 -424 q0 -111 1 -189.5t2 -141t4 -121t7 -128.5l-12 -12h-106.5t-82.5 -1t-78.5 -2t-97.5 -3l-10 12q2 80 5 146.5t4 132t2 138.5t1 163q0 131 -1 229t-1 174t-2 134.5t-4 108.5t-5 98t-5 104z" />
<glyph unicode="&#xcf;" horiz-adv-x="641" d="M-80 1556v261l12 14l291 4l10 -12l-4 -260l-12 -15l-287 -4zM123 1434l8 12q55 0 95 -1t79 0t85 2t112 5l10 -12q-4 -213 -7 -424t-3 -424q0 -111 1 -189.5t2 -141t4 -121t7 -128.5l-12 -12h-106.5t-82.5 -1t-78.5 -2t-97.5 -3l-10 12q2 80 5 146.5t4 132t2 138.5t1 163 q0 131 -1 229t-1 174t-2 134.5t-4 108.5t-5 98t-5 104zM422 1552v263l10 14l287 6l12 -12l-4 -264l-10 -13l-283 -6z" />
<glyph unicode="&#xd0;" horiz-adv-x="1449" d="M0 662q0 27 1 45t1 35.5t-1 39t-1 54.5l14 12q23 0 37.5 -1t27.5 -1t26.5 1t31.5 1q0 117 -2 261t-12 325l12 12l215 4q102 4 174 5t138 1q100 0 191 -6t171 -41q86 -35 153.5 -101.5t110.5 -148.5q47 -90 61.5 -190.5t14.5 -206.5q0 -88 -10.5 -173t-38.5 -169 q-41 -115 -101.5 -189.5t-129 -119.5t-141.5 -66.5t-136 -32.5q-39 -6 -75 -9t-82 -5t-108.5 -2h-154.5l-242 -2l-12 12q2 100 3 176t2 146.5t1 147.5v181q-20 0 -34.5 -1t-26.5 -1t-27.5 -1t-36.5 -3zM494 1186q0 -72 1 -135.5t1 -94.5v-102q55 0 90 1t63.5 2t61 2t84.5 3 l12 -12q-2 -29 -3 -48.5t-2 -36.5t-2 -36.5t-1 -50.5l-13 -14h-290q0 -100 1 -199.5t3 -200.5q51 0 102 2t98.5 11.5t91.5 31t80 62.5q33 35 55.5 83t36 100t18.5 104.5t5 97.5q0 35 -4 80t-14.5 91t-27.5 90t-46 77q-33 37 -70 56t-73.5 28.5t-67.5 10.5t-51 1 q-39 0 -72 -1t-67 -3z" />
<glyph unicode="&#xd1;" horiz-adv-x="1492" d="M125 1434l10 12q55 0 93 -1t72 0t73 2t100 5l14 -10q18 -31 37 -58.5t43.5 -65.5t61.5 -93.5t94 -143.5l186 -272q39 -59 62.5 -94t41 -62.5t32 -53.5t34.5 -62l4 4l-8 333l-8 283l-14 277l10 12h81h64.5t63.5 2t82 4l12 -12q-2 -174 -3 -343t-1 -343v-178.5t1 -174.5 t2 -184t1 -207l-10 -10h-71t-58.5 -1t-61 -2t-80.5 -3l-14 10l-182 266l-205 301q-53 76 -88 128.5t-62.5 96.5t-53 88t-60.5 103l-4 -4l12 -270l6 -252l21 -449l-11 -12h-77.5t-64.5 -1t-68.5 -2t-88.5 -3l-10 12q2 150 4 299.5t2 300.5q0 102 -1 199.5t-3 198t-5 206 t-7 224.5zM389 1552l2 217l8 15q35 27 72 48t109 21q31 0 55 -5t53 -15l80 -27q35 -12 66.5 -21t66.5 -9q55 0 99 31.5t79 60.5l15 -6v-230l-9 -16q-35 -29 -79.5 -54.5t-112.5 -25.5q-35 0 -60.5 8t-56.5 19l-61 22q-35 10 -70 20.5t-70 10.5q-53 0 -96 -22.5t-78 -45.5z " />
<glyph unicode="&#xd2;" horiz-adv-x="1536" d="M86 715q0 104 18 209q6 33 20.5 89t48.5 122.5t91.5 134t151.5 121.5q84 47 177 66.5t189 19.5q109 0 211.5 -26t180.5 -79q69 -45 122 -115q18 -25 45 -64.5t51.5 -103t41 -152.5t16.5 -210q0 -66 -9 -146.5t-36 -165.5t-75 -165t-124 -144q-92 -76 -205.5 -106.5 t-232.5 -30.5q-39 0 -96.5 5.5t-122 22.5t-131 50t-123.5 88q-72 68 -114 146.5t-63.5 157.5t-26.5 151t-5 125zM457 1843l8 15h340l12 -9q12 -47 21.5 -80.5t19.5 -66.5t23.5 -69t33.5 -89l-8 -12l-209 -2l-14 10zM469 745q0 -70 7 -158.5t38 -168.5t91.5 -134.5 t166.5 -54.5q88 0 146.5 39t92 110t46 168t10.5 212q-2 39 -6 91t-17 112q-10 45 -25 87.5t-46 77.5q-37 45 -88 70t-111 25q-29 0 -68.5 -8.5t-80.5 -32.5q-72 -47 -114 -148.5t-42 -286.5z" />
<glyph unicode="&#xd3;" horiz-adv-x="1536" d="M86 715q0 104 18 209q6 33 20.5 89t48.5 122.5t91.5 134t151.5 121.5q84 47 177 66.5t189 19.5q109 0 211.5 -26t180.5 -79q69 -45 122 -115q18 -25 45 -64.5t51.5 -103t41 -152.5t16.5 -210q0 -66 -9 -146.5t-36 -165.5t-75 -165t-124 -144q-92 -76 -205.5 -106.5 t-232.5 -30.5q-39 0 -96.5 5.5t-122 22.5t-131 50t-123.5 88q-72 68 -114 146.5t-63.5 157.5t-26.5 151t-5 125zM469 745q0 -70 7 -158.5t38 -168.5t91.5 -134.5t166.5 -54.5q88 0 146.5 39t92 110t46 168t10.5 212q-2 39 -6 91t-17 112q-10 45 -25 87.5t-46 77.5 q-37 45 -88 70t-111 25q-29 0 -68.5 -8.5t-80.5 -32.5q-72 -47 -114 -148.5t-42 -286.5zM629 1542q25 57 39 95t25.5 70t21.5 63.5t22 76.5l11 11h339l5 -13q-27 -35 -51.5 -66.5t-52 -67.5t-59.5 -78t-73 -95l-12 -8h-207z" />
<glyph unicode="&#xd4;" horiz-adv-x="1536" d="M86 715q0 104 18 209q6 33 20.5 89t48.5 122.5t91.5 134t151.5 121.5q84 47 177 66.5t189 19.5q109 0 211.5 -26t180.5 -79q69 -45 122 -115q18 -25 45 -64.5t51.5 -103t41 -152.5t16.5 -210q0 -66 -9 -146.5t-36 -165.5t-75 -165t-124 -144q-92 -76 -205.5 -106.5 t-232.5 -30.5q-39 0 -96.5 5.5t-122 22.5t-131 50t-123.5 88q-72 68 -114 146.5t-63.5 157.5t-26.5 151t-5 125zM393 1544q31 49 52.5 83t39 64.5t36 65.5t42.5 88l15 13h380l11 -11q20 -41 37.5 -74.5t36 -66.5t41 -70t53.5 -86l-9 -16l-276 -6l-12 12l-86 166 q-23 -39 -44.5 -73t-54.5 -91l-12 -12h-242zM469 745q0 -70 7 -158.5t38 -168.5t91.5 -134.5t166.5 -54.5q88 0 146.5 39t92 110t46 168t10.5 212q-2 39 -6 91t-17 112q-10 45 -25 87.5t-46 77.5q-37 45 -88 70t-111 25q-29 0 -68.5 -8.5t-80.5 -32.5q-72 -47 -114 -148.5 t-42 -286.5z" />
<glyph unicode="&#xd5;" horiz-adv-x="1536" d="M86 715q0 104 18 209q6 33 20.5 89t48.5 122.5t91.5 134t151.5 121.5q84 47 177 66.5t189 19.5q109 0 211.5 -26t180.5 -79q69 -45 122 -115q18 -25 45 -64.5t51.5 -103t41 -152.5t16.5 -210q0 -66 -9 -146.5t-36 -165.5t-75 -165t-124 -144q-92 -76 -205.5 -106.5 t-232.5 -30.5q-39 0 -96.5 5.5t-122 22.5t-131 50t-123.5 88q-72 68 -114 146.5t-63.5 157.5t-26.5 151t-5 125zM410 1552l2 217l8 15q35 27 71.5 48t108.5 21q31 0 55.5 -5t53.5 -15l79 -27q35 -12 67 -21t67 -9q55 0 99 31.5t79 60.5l14 -6v-230l-8 -16q-35 -29 -80 -54.5 t-113 -25.5q-35 0 -60.5 8t-55.5 19l-62 22q-35 10 -69.5 20.5t-69.5 10.5q-53 0 -96 -22.5t-78 -45.5zM469 745q0 -70 7 -158.5t38 -168.5t91.5 -134.5t166.5 -54.5q88 0 146.5 39t92 110t46 168t10.5 212q-2 39 -6 91t-17 112q-10 45 -25 87.5t-46 77.5q-37 45 -88 70 t-111 25q-29 0 -68.5 -8.5t-80.5 -32.5q-72 -47 -114 -148.5t-42 -286.5z" />
<glyph unicode="&#xd6;" horiz-adv-x="1536" d="M86 715q0 104 18 209q6 33 20.5 89t48.5 122.5t91.5 134t151.5 121.5q84 47 177 66.5t189 19.5q109 0 211.5 -26t180.5 -79q69 -45 122 -115q18 -25 45 -64.5t51.5 -103t41 -152.5t16.5 -210q0 -66 -9 -146.5t-36 -165.5t-75 -165t-124 -144q-92 -76 -205.5 -106.5 t-232.5 -30.5q-39 0 -96.5 5.5t-122 22.5t-131 50t-123.5 88q-72 68 -114 146.5t-63.5 157.5t-26.5 151t-5 125zM377 1556v261l12 14l291 4l10 -12l-4 -260l-12 -15l-287 -4zM469 745q0 -70 7 -158.5t38 -168.5t91.5 -134.5t166.5 -54.5q88 0 146.5 39t92 110t46 168 t10.5 212q-2 39 -6 91t-17 112q-10 45 -25 87.5t-46 77.5q-37 45 -88 70t-111 25q-29 0 -68.5 -8.5t-80.5 -32.5q-72 -47 -114 -148.5t-42 -286.5zM879 1552v263l10 14l287 6l12 -12l-4 -264l-10 -13l-283 -6z" />
<glyph unicode="&#xd7;" horiz-adv-x="1366" d="M139 205l391 393l-391 393l152 152l391 -393l393 393l152 -152l-393 -393l393 -393l-152 -152l-393 393l-391 -393z" />
<glyph unicode="&#xd8;" horiz-adv-x="1536" d="M2 88v16q47 49 95 95.5t83 79.5q-14 27 -31.5 60.5t-32 83.5t-23.5 119.5t-9 166.5q0 111 15.5 198.5t41 158.5t62.5 126t80 100q68 68 142.5 106t143 55t122.5 20.5t79 3.5q100 0 173 -14.5t124 -35t86 -43t57 -41.5q8 8 30 32t45.5 50.5t45 50t29.5 33.5l14 2l127 -118 v-15q-10 -8 -32.5 -30.5l-49 -49l-50 -50t-34.5 -31.5q16 -29 36 -68t37 -93.5t28.5 -126t11.5 -163.5q0 -29 -1 -59.5t-3 -59.5q-4 -41 -12.5 -93t-23.5 -109.5t-42 -117t-66 -114.5q-31 -43 -73.5 -86t-106 -79t-148.5 -58.5t-198 -22.5q-14 0 -53 2t-90 9.5t-108.5 22.5 t-108.5 44q-41 23 -69 44.5t-52 43.5q-20 -23 -55 -60.5t-95 -105.5h-16zM457 737q0 -43 3 -82t7 -86l532 549q-33 47 -87 82t-144 35q-61 0 -109.5 -20.5t-76.5 -47.5q-39 -37 -63.5 -89t-38 -110.5t-18.5 -119t-5 -111.5zM516 373q12 -18 30.5 -43t47.5 -47.5t72 -39 t102 -16.5q94 0 150.5 42t87 97.5t41 112t14.5 86.5q4 43 7 86t3 88q0 53 -4 97.5t-8 95.5z" />
<glyph unicode="&#xd9;" horiz-adv-x="1409" d="M113 1434l12 12q51 0 90 -1t77 0t83 2t110 5l11 -12q-4 -154 -5.5 -278t-1.5 -249v-162.5t5 -162.5q4 -98 14 -155.5t33 -98.5q35 -53 90 -81t119 -28q51 0 98 17.5t82 56.5q20 25 32.5 56.5t18.5 76.5t8 105.5t2 140.5q0 190 -6 377.5t-14 378.5l12 12q43 0 76 -1 t65.5 0t71.5 2t94 5l10 -12l-6 -609v-208q-2 -98 -5 -171t-15 -130.5t-36 -103.5t-64 -89q-57 -59 -124 -92t-130.5 -48.5t-116.5 -17.5t-80 -2q-102 0 -184 17.5t-144.5 47t-107.5 68.5t-74 80q-27 37 -43 78t-26.5 91t-14.5 113.5t-6 147.5v152q0 119 -1 197.5t-2 147.5 t-3 141.5t-4 183.5zM393 1843l8 15h340l13 -9q12 -47 21 -80.5t19.5 -66.5t23.5 -69t34 -89l-8 -12l-209 -2l-14 10z" />
<glyph unicode="&#xda;" horiz-adv-x="1409" d="M113 1434l12 12q51 0 90 -1t77 0t83 2t110 5l11 -12q-4 -154 -5.5 -278t-1.5 -249v-162.5t5 -162.5q4 -98 14 -155.5t33 -98.5q35 -53 90 -81t119 -28q51 0 98 17.5t82 56.5q20 25 32.5 56.5t18.5 76.5t8 105.5t2 140.5q0 190 -6 377.5t-14 378.5l12 12q43 0 76 -1 t65.5 0t71.5 2t94 5l10 -12l-6 -609v-208q-2 -98 -5 -171t-15 -130.5t-36 -103.5t-64 -89q-57 -59 -124 -92t-130.5 -48.5t-116.5 -17.5t-80 -2q-102 0 -184 17.5t-144.5 47t-107.5 68.5t-74 80q-27 37 -43 78t-26.5 91t-14.5 113.5t-6 147.5v152q0 119 -1 197.5t-2 147.5 t-3 141.5t-4 183.5zM565 1542q25 57 39 95t25.5 70t22 63.5t22.5 76.5l10 11h340l4 -13q-27 -35 -51.5 -66.5t-52 -67.5t-59 -78t-72.5 -95l-13 -8h-207z" />
<glyph unicode="&#xdb;" horiz-adv-x="1409" d="M113 1434l12 12q51 0 90 -1t77 0t83 2t110 5l11 -12q-4 -154 -5.5 -278t-1.5 -249v-162.5t5 -162.5q4 -98 14 -155.5t33 -98.5q35 -53 90 -81t119 -28q51 0 98 17.5t82 56.5q20 25 32.5 56.5t18.5 76.5t8 105.5t2 140.5q0 190 -6 377.5t-14 378.5l12 12q43 0 76 -1 t65.5 0t71.5 2t94 5l10 -12l-6 -609v-208q-2 -98 -5 -171t-15 -130.5t-36 -103.5t-64 -89q-57 -59 -124 -92t-130.5 -48.5t-116.5 -17.5t-80 -2q-102 0 -184 17.5t-144.5 47t-107.5 68.5t-74 80q-27 37 -43 78t-26.5 91t-14.5 113.5t-6 147.5v152q0 119 -1 197.5t-2 147.5 t-3 141.5t-4 183.5zM330 1544q31 49 52 83t38.5 64.5t36 65.5t43.5 88l14 13h381l10 -11q20 -41 38 -74.5t36 -66.5t40.5 -70t53.5 -86l-8 -16l-277 -6l-12 12l-86 166q-23 -39 -44 -73t-54 -91l-12 -12h-242z" />
<glyph unicode="&#xdc;" horiz-adv-x="1409" d="M113 1434l12 12q51 0 90 -1t77 0t83 2t110 5l11 -12q-4 -154 -5.5 -278t-1.5 -249v-162.5t5 -162.5q4 -98 14 -155.5t33 -98.5q35 -53 90 -81t119 -28q51 0 98 17.5t82 56.5q20 25 32.5 56.5t18.5 76.5t8 105.5t2 140.5q0 190 -6 377.5t-14 378.5l12 12q43 0 76 -1 t65.5 0t71.5 2t94 5l10 -12l-6 -609v-208q-2 -98 -5 -171t-15 -130.5t-36 -103.5t-64 -89q-57 -59 -124 -92t-130.5 -48.5t-116.5 -17.5t-80 -2q-102 0 -184 17.5t-144.5 47t-107.5 68.5t-74 80q-27 37 -43 78t-26.5 91t-14.5 113.5t-6 147.5v152q0 119 -1 197.5t-2 147.5 t-3 141.5t-4 183.5zM330 1556v261l12 14l291 4l10 -12l-4 -260l-12 -15l-287 -4zM831 1552v263l11 14l286 6l13 -12l-4 -264l-11 -13l-282 -6z" />
<glyph unicode="&#xdd;" d="M-23 1430l7 16q63 0 108 1t85 3t85 4t111 6l14 -10q23 -49 40 -87t32.5 -68.5t28 -57.5t26.5 -53q8 -14 28.5 -54t44 -85.5t45 -86t30.5 -57.5q33 63 60.5 118.5t57 115t63.5 131t79 168.5l12 12h81t67.5 1t73.5 2t97 3l9 -14l-453 -824v-166.5t2 -132t4 -133t6 -170.5 l-12 -12h-94t-77 -1t-83 -2t-109 -3l-10 12q4 90 7 156.5t4.5 125t2.5 118t1 135.5v65q-23 41 -44.5 80t-44.5 80q-14 23 -42.5 74t-66.5 116.5t-80 137t-81 137t-69.5 119t-45.5 80.5zM479 1542q25 57 39 95t25.5 70t21.5 63.5t23 76.5l10 11h340l4 -13 q-27 -35 -51.5 -66.5t-52 -67.5t-59 -78t-72.5 -95l-13 -8h-207z" />
<glyph unicode="&#xde;" d="M121 1434l10 12h105.5t79 1t76.5 2t100 3l8 -10v-35.5v-35t-1 -48.5t-1 -74l80 2q125 0 214 -4t171 -37q90 -37 142 -91t77.5 -112.5t32 -114.5t6.5 -93q0 -115 -42 -218.5t-132 -174.5q-57 -45 -126 -69t-141.5 -34t-144.5 -11t-137 1q2 -72 3 -152t3 -129l-10 -12 h-105.5h-79.5t-75.5 -2t-94.5 -4l-10 12q2 59 4 120.5t3 131.5t2 150.5t1 179.5q0 209 -1 344t-4 226t-6 152.5t-7 123.5zM492 723q0 -31 1 -66.5t1 -67.5v-44h41q41 0 96 4t104 26.5t84 71.5t35 139q0 84 -31.5 129.5t-83 64.5t-116 20t-129.5 -1v-44.5t-1 -69.5t-1 -71 v-48v-43z" />
<glyph unicode="&#xdf;" horiz-adv-x="1280" d="M121 6q2 127 3 218t2 173t1 169v208l-4 240q0 94 5 190t38 172q31 68 84 114t118.5 75.5t141.5 42t152 12.5q80 0 135 -9t92 -21.5t59.5 -27t34.5 -22.5q43 -31 68.5 -67.5t39 -72.5t18.5 -69t5 -55q0 -82 -31.5 -142.5t-72.5 -123.5l-35 -49q-16 -20 -29.5 -40 t-13.5 -42q0 -23 18.5 -50.5t69.5 -80.5l59 -60q23 -23 50.5 -54.5t51 -71.5t40 -90t16.5 -112q0 -72 -29.5 -138t-88 -119.5t-143.5 -85t-194 -31.5q-51 0 -91 6t-83 16l-16 15v213l20 12q23 -12 47.5 -22.5t59.5 -10.5q41 0 71.5 13.5t51 33t31 44t10.5 46.5 q0 27 -12.5 53.5t-31 52t-41 49t-42.5 44.5l-54 57q-35 35 -69.5 79t-34.5 95q0 41 19.5 73t41.5 60l46 56q39 53 66.5 104t27.5 129q0 53 -13.5 91t-36 61.5t-50 34t-54.5 10.5q-37 0 -62.5 -13.5t-44 -34t-29.5 -42t-15 -35.5q-8 -25 -14.5 -77t-6.5 -136q0 -266 3 -525 t9 -526l-14 -12h-102t-76 -1t-72 -2t-88 -3z" />
<glyph unicode="&#xe0;" horiz-adv-x="1150" d="M55 336q0 35 8.5 72.5t25.5 74.5t47 72t73 61q45 29 92 48.5t103.5 34t126 25.5t161.5 24q0 23 -5 47t-21 41q-20 20 -48 29t-86 9q-51 0 -101 -9t-94 -21.5t-82 -26.5t-65 -24l-16 8l10 223l13 16q43 12 87 24.5t91 22t102 15.5t121 6q98 0 164.5 -14.5t111 -36t69 -47 t40.5 -49.5q20 -33 30.5 -66t15.5 -73t5 -91v-121l-2 -151v-122t2 -97t4 -98.5t9 -127.5l-11 -14h-86h-71.5t-73.5 -2t-94 -4l-13 14v76q-16 -12 -40.5 -31.5t-59.5 -36t-81 -29t-103 -12.5q-76 0 -141.5 26t-113.5 73t-76 113.5t-28 148.5zM267 1563l8 16h315l13 -8 q14 -51 25 -88t23.5 -73t29 -77t42.5 -102l-10 -14h-221l-14 8q-33 55 -56.5 94t-45 75t-47.5 74.5t-62 94.5zM395 356q0 -66 40 -95.5t95 -29.5q51 0 92.5 17.5t73.5 36.5v247q-53 -6 -106 -16t-96 -28.5t-71 -49t-28 -82.5z" />
<glyph unicode="&#xe1;" horiz-adv-x="1150" d="M55 336q0 35 8.5 72.5t25.5 74.5t47 72t73 61q45 29 92 48.5t103.5 34t126 25.5t161.5 24q0 23 -5 47t-21 41q-20 20 -48 29t-86 9q-51 0 -101 -9t-94 -21.5t-82 -26.5t-65 -24l-16 8l10 223l13 16q43 12 87 24.5t91 22t102 15.5t121 6q98 0 164.5 -14.5t111 -36t69 -47 t40.5 -49.5q20 -33 30.5 -66t15.5 -73t5 -91v-121l-2 -151v-122t2 -97t4 -98.5t9 -127.5l-11 -14h-86h-71.5t-73.5 -2t-94 -4l-13 14v76q-16 -12 -40.5 -31.5t-59.5 -36t-81 -29t-103 -12.5q-76 0 -141.5 26t-113.5 73t-76 113.5t-28 148.5zM395 356q0 -66 40 -95.5 t95 -29.5q51 0 92.5 17.5t73.5 36.5v247q-53 -6 -106 -16t-96 -28.5t-71 -49t-28 -82.5zM431 1225q23 53 39 91t29 73.5t25.5 76.5t30.5 101l11 10l323 4l6 -14q-25 -37 -53 -81t-58 -90t-57.5 -91t-52.5 -84l-14 -9h-221z" />
<glyph unicode="&#xe2;" horiz-adv-x="1150" d="M55 336q0 35 8.5 72.5t25.5 74.5t47 72t73 61q45 29 92 48.5t103.5 34t126 25.5t161.5 24q0 23 -5 47t-21 41q-20 20 -48 29t-86 9q-51 0 -101 -9t-94 -21.5t-82 -26.5t-65 -24l-16 8l10 223l13 16q43 12 87 24.5t91 22t102 15.5t121 6q98 0 164.5 -14.5t111 -36t69 -47 t40.5 -49.5q20 -33 30.5 -66t15.5 -73t5 -91v-121l-2 -151v-122t2 -97t4 -98.5t9 -127.5l-11 -14h-86h-71.5t-73.5 -2t-94 -4l-13 14v76q-16 -12 -40.5 -31.5t-59.5 -36t-81 -29t-103 -12.5q-76 0 -141.5 26t-113.5 73t-76 113.5t-28 148.5zM228 1229l55 105t39.5 78t34 73 t38.5 86l13 10h373l12 -10q25 -55 41 -93t32.5 -73t35 -74t49.5 -98l-7 -12l-276 -9l-12 11l-86 215l-91 -211l-12 -10h-233zM395 356q0 -66 40 -95.5t95 -29.5q51 0 92.5 17.5t73.5 36.5v247q-53 -6 -106 -16t-96 -28.5t-71 -49t-28 -82.5z" />
<glyph unicode="&#xe3;" horiz-adv-x="1150" d="M55 336q0 35 8.5 72.5t25.5 74.5t47 72t73 61q45 29 92 48.5t103.5 34t126 25.5t161.5 24q0 23 -5 47t-21 41q-20 20 -48 29t-86 9q-51 0 -101 -9t-94 -21.5t-82 -26.5t-65 -24l-16 8l10 223l13 16q43 12 87 24.5t91 22t102 15.5t121 6q98 0 164.5 -14.5t111 -36t69 -47 t40.5 -49.5q20 -33 30.5 -66t15.5 -73t5 -91v-121l-2 -151v-122t2 -97t4 -98.5t9 -127.5l-11 -14h-86h-71.5t-73.5 -2t-94 -4l-13 14v76q-16 -12 -40.5 -31.5t-59.5 -36t-81 -29t-103 -12.5q-76 0 -141.5 26t-113.5 73t-76 113.5t-28 148.5zM217 1239l2 215l8 16 q35 27 72 48.5t108 21.5q31 0 55.5 -5t53.5 -15l80 -29q35 -10 66.5 -20.5t66.5 -10.5q55 0 99 32t79 60l14 -6v-229l-8 -17q-35 -29 -80 -54t-112 -25q-35 0 -60.5 8t-56.5 18l-62 23q-35 12 -69.5 22.5t-69.5 10.5q-53 0 -96 -24t-78 -46zM395 356q0 -66 40 -95.5 t95 -29.5q51 0 92.5 17.5t73.5 36.5v247q-53 -6 -106 -16t-96 -28.5t-71 -49t-28 -82.5z" />
<glyph unicode="&#xe4;" horiz-adv-x="1150" d="M55 336q0 35 8.5 72.5t25.5 74.5t47 72t73 61q45 29 92 48.5t103.5 34t126 25.5t161.5 24q0 23 -5 47t-21 41q-20 20 -48 29t-86 9q-51 0 -101 -9t-94 -21.5t-82 -26.5t-65 -24l-16 8l10 223l13 16q43 12 87 24.5t91 22t102 15.5t121 6q98 0 164.5 -14.5t111 -36t69 -47 t40.5 -49.5q20 -33 30.5 -66t15.5 -73t5 -91v-121l-2 -151v-122t2 -97t4 -98.5t9 -127.5l-11 -14h-86h-71.5t-73.5 -2t-94 -4l-13 14v76q-16 -12 -40.5 -31.5t-59.5 -36t-81 -29t-103 -12.5q-76 0 -141.5 26t-113.5 73t-76 113.5t-28 148.5zM199 1495l10 12l289 15l10 -13 v-276l-12 -12l-281 -17l-10 13zM395 356q0 -66 40 -95.5t95 -29.5q51 0 92.5 17.5t73.5 36.5v247q-53 -6 -106 -16t-96 -28.5t-71 -49t-28 -82.5zM658 1495l10 12l285 17l10 -11v-282l-10 -12l-279 -17l-12 12z" />
<glyph unicode="&#xe5;" horiz-adv-x="1150" d="M55 336q0 35 8.5 72.5t25.5 74.5t47 72t73 61q45 29 92 48.5t103.5 34t126 25.5t161.5 24q0 23 -5 47t-21 41q-20 20 -48 29t-86 9q-51 0 -101 -9t-94 -21.5t-82 -26.5t-65 -24l-16 8l10 223l13 16q43 12 87 24.5t91 22t102 15.5t121 6q98 0 164.5 -14.5t111 -36t69 -47 t40.5 -49.5q20 -33 30.5 -66t15.5 -73t5 -91v-121l-2 -151v-122t2 -97t4 -98.5t9 -127.5l-11 -14h-86h-71.5t-73.5 -2t-94 -4l-13 14v76q-16 -12 -40.5 -31.5t-59.5 -36t-81 -29t-103 -12.5q-76 0 -141.5 26t-113.5 73t-76 113.5t-28 148.5zM336 1411q0 45 15.5 90t47 81 t81.5 58.5t122 22.5q74 0 122 -22.5t77.5 -56.5t42 -74.5t14.5 -79.5q4 -121 -71.5 -186.5t-198.5 -65.5q-61 0 -108.5 18t-79 50t-48 75t-16.5 90zM395 356q0 -66 40 -95.5t95 -29.5q51 0 92.5 17.5t73.5 36.5v247q-53 -6 -106 -16t-96 -28.5t-71 -49t-28 -82.5zM514 1419 q0 -66 26.5 -95.5t55.5 -29.5q33 0 57.5 33t20.5 103q-2 43 -12.5 65.5t-23.5 32.5t-25.5 12t-16.5 2q-10 0 -24.5 -5t-27 -18.5t-21.5 -37t-9 -62.5z" />
<glyph unicode="&#xe6;" horiz-adv-x="1748" d="M61 324q0 57 13.5 99t32 72.5t38 50t31.5 29.5q47 39 111.5 60.5t134.5 31t137.5 11.5t122.5 2q0 39 -3 78t-20.5 67.5t-54.5 47t-104 18.5q-43 0 -94 -10q-41 -6 -73 -14.5t-59.5 -17.5t-53 -20.5t-54.5 -23.5l-14 8l12 209l12 12q66 23 162 49.5t231 26.5 q63 0 108.5 -8t79.5 -23.5t61.5 -37t58.5 -48.5q29 23 59.5 43.5t68 37t88 26.5t117.5 10q66 0 138.5 -16.5t132.5 -55.5q68 -43 106.5 -104.5t59 -134t25.5 -152.5t7 -162l-14 -14h-655q8 -55 27.5 -111.5t84.5 -101.5q51 -33 105.5 -39t77.5 -6q102 0 171.5 24.5 t135.5 53.5l14 -10l-12 -121l-10 -111l-13 -14q-41 -10 -83 -20.5t-83 -18.5q-98 -18 -198 -19q-78 0 -156 13.5t-147 52.5q-35 20 -55.5 37.5t-43.5 40.5q-25 -23 -57.5 -47.5t-77.5 -47t-102.5 -37t-132.5 -14.5q-121 0 -198 39t-120 94.5t-59.5 115t-16.5 100.5zM381 342 q0 -18 7 -37.5t23.5 -37t44 -29t68.5 -11.5q72 0 114 25.5t77 56.5q-8 25 -13.5 43.5t-8.5 34.5t-5 35.5t-4 48.5h-59.5t-44.5 -2q-16 0 -50 -3t-67 -15.5t-57.5 -38t-24.5 -70.5zM1006 678l358 4q-4 31 -8 67.5t-27 67.5q-2 4 -11 15.5t-26.5 23.5t-43 22.5t-60.5 10.5 q-37 0 -68 -15q-37 -16 -58.5 -39.5t-32.5 -50t-16 -54.5t-7 -52z" />
<glyph unicode="&#xe7;" horiz-adv-x="980" d="M72 530q0 102 29.5 206t96 187t174 134t265.5 51q111 0 180.5 -18.5t116.5 -34.5l10 -13q-6 -41 -10 -69.5t-6 -54t-5 -53t-5 -66.5l-21 -8q-31 23 -80 48t-123 25t-124 -29.5t-81.5 -75.5t-45 -102.5t-13.5 -109.5q0 -35 8 -88t38 -104.5t85 -88.5t148 -37q86 0 138 25 t77 41l16 -10q-2 -37 -3 -64.5t-2 -54.5t-2 -56.5t-1 -70.5l-12 -12q-49 -16 -113 -30.5t-166 -14.5q-152 0 -260.5 47t-177 123.5t-100 176t-31.5 201.5zM332 -369q25 51 41 86t30.5 65t28.5 61.5t35 74.5l12 10q41 0 67.5 -1t48 -1h45.5h60l7 -12q-14 -43 -24.5 -72.5 t-20 -58.5t-20.5 -64.5t-26 -87.5l-12 -12q-88 2 -148.5 1t-117.5 -1z" />
<glyph unicode="&#xe8;" horiz-adv-x="1150" d="M74 545q0 133 38 237.5t108.5 177t168.5 111.5t219 39q35 0 71 -4t75 -14q27 -6 66.5 -20.5t82.5 -48.5t83 -91.5t67 -147.5q23 -78 26.5 -153.5t5.5 -151.5l-12 -14l-661 -12q6 -31 14 -62t31 -63q76 -113 256 -113q113 0 186.5 28.5t132.5 59.5l15 -6l-15 -231l-12 -17 q-41 -16 -77 -29.5t-76 -23.5t-88 -15.5t-111 -5.5q-55 0 -131 8.5t-153 39t-146.5 90t-114.5 163.5q-25 53 -37 125t-12 144zM267 1563l8 16h315l13 -8q14 -51 25 -88t23.5 -73t29 -77t42.5 -102l-10 -14h-221l-14 8q-33 55 -56.5 94t-45 75t-47.5 74.5t-62 94.5zM412 670 l342 8q0 35 -4.5 70.5t-26.5 70.5q-16 29 -48 50.5t-83 21.5q-23 0 -43.5 -5t-38.5 -18q-29 -18 -47.5 -42.5t-28.5 -51t-15 -53.5t-7 -51z" />
<glyph unicode="&#xe9;" horiz-adv-x="1150" d="M74 545q0 133 38 237.5t108.5 177t168.5 111.5t219 39q35 0 71 -4t75 -14q27 -6 66.5 -20.5t82.5 -48.5t83 -91.5t67 -147.5q23 -78 26.5 -153.5t5.5 -151.5l-12 -14l-661 -12q6 -31 14 -62t31 -63q76 -113 256 -113q113 0 186.5 28.5t132.5 59.5l15 -6l-15 -231l-12 -17 q-41 -16 -77 -29.5t-76 -23.5t-88 -15.5t-111 -5.5q-55 0 -131 8.5t-153 39t-146.5 90t-114.5 163.5q-25 53 -37 125t-12 144zM412 670l342 8q0 35 -4.5 70.5t-26.5 70.5q-16 29 -48 50.5t-83 21.5q-23 0 -43.5 -5t-38.5 -18q-29 -18 -47.5 -42.5t-28.5 -51t-15 -53.5 t-7 -51zM431 1225q23 53 39 91t29 73.5t25.5 76.5t30.5 101l11 10l323 4l6 -14q-25 -37 -53 -81t-58 -90t-57.5 -91t-52.5 -84l-14 -9h-221z" />
<glyph unicode="&#xea;" horiz-adv-x="1150" d="M74 545q0 133 38 237.5t108.5 177t168.5 111.5t219 39q35 0 71 -4t75 -14q27 -6 66.5 -20.5t82.5 -48.5t83 -91.5t67 -147.5q23 -78 26.5 -153.5t5.5 -151.5l-12 -14l-661 -12q6 -31 14 -62t31 -63q76 -113 256 -113q113 0 186.5 28.5t132.5 59.5l15 -6l-15 -231l-12 -17 q-41 -16 -77 -29.5t-76 -23.5t-88 -15.5t-111 -5.5q-55 0 -131 8.5t-153 39t-146.5 90t-114.5 163.5q-25 53 -37 125t-12 144zM228 1229l55 105t39.5 78t34 73t38.5 86l13 10h373l12 -10q25 -55 41 -93t32.5 -73t35 -74t49.5 -98l-7 -12l-276 -9l-12 11l-86 215l-91 -211 l-12 -10h-233zM412 670l342 8q0 35 -4.5 70.5t-26.5 70.5q-16 29 -48 50.5t-83 21.5q-23 0 -43.5 -5t-38.5 -18q-29 -18 -47.5 -42.5t-28.5 -51t-15 -53.5t-7 -51z" />
<glyph unicode="&#xeb;" horiz-adv-x="1150" d="M74 545q0 133 38 237.5t108.5 177t168.5 111.5t219 39q35 0 71 -4t75 -14q27 -6 66.5 -20.5t82.5 -48.5t83 -91.5t67 -147.5q23 -78 26.5 -153.5t5.5 -151.5l-12 -14l-661 -12q6 -31 14 -62t31 -63q76 -113 256 -113q113 0 186.5 28.5t132.5 59.5l15 -6l-15 -231l-12 -17 q-41 -16 -77 -29.5t-76 -23.5t-88 -15.5t-111 -5.5q-55 0 -131 8.5t-153 39t-146.5 90t-114.5 163.5q-25 53 -37 125t-12 144zM188 1495l10 12l289 15l10 -13v-276l-12 -12l-281 -17l-10 13zM412 670l342 8q0 35 -4.5 70.5t-26.5 70.5q-16 29 -48 50.5t-83 21.5 q-23 0 -43.5 -5t-38.5 -18q-29 -18 -47.5 -42.5t-28.5 -51t-15 -53.5t-7 -51zM647 1495l10 12l285 17l10 -11v-282l-10 -12l-279 -17l-12 12z" />
<glyph unicode="&#xec;" horiz-adv-x="598" d="M-8 1563l8 16h315l13 -8q14 -51 25 -88t23.5 -73t29 -77t42.5 -102l-10 -14h-221l-14 8q-33 55 -56.5 94t-45 75t-47.5 74.5t-62 94.5zM102 1042l13 13l352 61l14 -16l-4 -262t-2 -263q0 -106 1 -185t4 -142.5t6 -118.5t8 -115l-15 -14h-104h-80t-76 -2t-94 -4l-12 14 q2 63 4 120.5t4 117t3 127t1 151.5q0 109 -1 181.5t-4 128t-7 102.5t-11 106z" />
<glyph unicode="&#xed;" horiz-adv-x="598" d="M102 1042l13 13l352 61l14 -16l-4 -262t-2 -263q0 -106 1 -185t4 -142.5t6 -118.5t8 -115l-15 -14h-104h-80t-76 -2t-94 -4l-12 14q2 63 4 120.5t4 117t3 127t1 151.5q0 109 -1 181.5t-4 128t-7 102.5t-11 106zM154 1225q23 53 39 91t29 73.5t25.5 76.5t30.5 101l11 10 l323 4l6 -14q-25 -37 -53 -81t-58 -90t-57.5 -91t-52.5 -84l-14 -9h-221z" />
<glyph unicode="&#xee;" horiz-adv-x="598" d="M-49 1229l55 105t39.5 78t34 73t38.5 86l13 10h373l12 -10q25 -55 41 -93t32.5 -73t35 -74t49.5 -98l-7 -12l-276 -9l-12 11l-86 215l-91 -211l-12 -10h-233zM102 1042l13 13l352 61l14 -16l-4 -262t-2 -263q0 -106 1 -185t4 -142.5t6 -118.5t8 -115l-15 -14h-104h-80 t-76 -2t-94 -4l-12 14q2 63 4 120.5t4 117t3 127t1 151.5q0 109 -1 181.5t-4 128t-7 102.5t-11 106z" />
<glyph unicode="&#xef;" horiz-adv-x="598" d="M-86 1495l10 12l289 15l10 -13v-276l-12 -12l-281 -17l-10 13zM102 1042l13 13l352 61l14 -16l-4 -262t-2 -263q0 -106 1 -185t4 -142.5t6 -118.5t8 -115l-15 -14h-104h-80t-76 -2t-94 -4l-12 14q2 63 4 120.5t4 117t3 127t1 151.5q0 109 -1 181.5t-4 128t-7 102.5 t-11 106zM373 1495l10 12l285 17l10 -11v-282l-10 -12l-279 -17l-12 12z" />
<glyph unicode="&#xf0;" d="M72 543q0 133 34.5 227t88 155.5t118 97.5t122 54.5t101.5 22.5t56 4q55 0 88 -8.5t57 -18.5q-14 43 -28.5 81t-49.5 97q-76 -16 -141 -30q-55 -12 -110.5 -24.5t-77.5 -18.5l-33 -8l-21 8q-10 25 -16 41t-12 30.5t-14.5 30.5t-18.5 39l8 14q18 2 54 9.5t82.5 16.5 t97.5 19.5t100 22.5q-59 72 -103 106.5t-73 55.5l6 18q41 6 83 11.5t83 13.5q37 6 73 12t70 12l27 -4q57 -53 86 -85t57 -70q35 8 68 15t78 19l26 9l21 -9q10 -25 16 -41t12.5 -30.5t13.5 -30.5t19 -41l-12 -18q-29 -4 -54.5 -9.5t-84.5 -17.5q55 -92 92 -186.5t60.5 -187.5 t33.5 -181t10 -164q0 -156 -45 -291t-159 -223q-90 -70 -186.5 -90.5t-176.5 -20.5q-115 0 -212 35t-166.5 105.5t-108.5 176t-39 249.5zM430 559q0 -76 7 -142.5t28.5 -115.5t60 -75.5t101.5 -22.5q39 2 72.5 17.5t59 54t40 105t14.5 171.5q0 41 -3 101.5t-20.5 117.5 t-55.5 97t-107 40q-35 0 -68 -14t-61 -47q-41 -47 -54.5 -119t-13.5 -168z" />
<glyph unicode="&#xf1;" d="M100 1042l13 15q57 8 96 13t74.5 11t75.5 14.5t100 20.5l20 -14l-4 -113q72 41 153 81t175 40q27 0 61.5 -4t69.5 -17.5t66.5 -38t56.5 -63.5q18 -31 29.5 -65.5t16.5 -78.5t7 -100.5t2 -130.5v-159q2 -76 3 -128.5t2 -98.5t3 -95t6 -117l-14 -12h-102t-76 -1l-70 -2 t-86 -3l-12 12q0 53 1 105.5t1 105.5v90.5t-1 127t-2 125t-3 83.5q-2 27 -7 61.5t-17.5 63.5t-37 49.5t-67.5 20.5q-49 0 -87 -20.5t-71 -43.5q0 -137 1 -229t3 -171t5 -161t8 -201l-13 -12h-101t-76 -1t-72.5 -2t-92.5 -3l-12 12q2 98 3 196.5t1 196.5q0 125 -2 216.5 t-6 163t-9.5 133t-11.5 128.5zM260 1239l2 215l8 16q35 27 72 48.5t108 21.5q31 0 55.5 -5t53.5 -15l80 -29q35 -10 66.5 -20.5t66.5 -10.5q55 0 99 32t79 60l14 -6v-229l-8 -17q-35 -29 -80 -54t-112 -25q-35 0 -60.5 8t-56.5 18l-62 23q-35 12 -69.5 22.5t-69.5 10.5 q-53 0 -96 -24t-78 -46z" />
<glyph unicode="&#xf2;" d="M72 541q0 285 144 426t413 141q41 0 111.5 -6t138.5 -33q72 -29 121 -73t80.5 -95t49 -106.5t25.5 -103.5t9 -87t1 -59q0 -115 -24.5 -218.5t-88 -181t-170 -124t-268.5 -46.5q-111 0 -186.5 18.5t-126.5 47.5t-82 61.5t-51 63.5q-57 84 -76.5 180t-19.5 195zM310 1563 l8 16h315l13 -8q14 -51 25 -88t23.5 -73t29 -77t42.5 -102l-10 -14h-221l-14 8q-33 55 -56.5 94t-45 75t-47.5 74.5t-62 94.5zM430 543q0 -74 6 -126t17.5 -87t25 -56.5t25.5 -33.5q18 -16 46 -31.5t68 -15.5q63 0 101.5 31.5t59 81.5t26.5 114t6 127q0 84 -11.5 162.5 t-47.5 124.5q-20 25 -54 44t-77 19q-49 0 -88 -25.5t-62 -66.5q-16 -27 -24.5 -62.5t-11.5 -72.5t-4 -71t-1 -56z" />
<glyph unicode="&#xf3;" d="M72 541q0 285 144 426t413 141q41 0 111.5 -6t138.5 -33q72 -29 121 -73t80.5 -95t49 -106.5t25.5 -103.5t9 -87t1 -59q0 -115 -24.5 -218.5t-88 -181t-170 -124t-268.5 -46.5q-111 0 -186.5 18.5t-126.5 47.5t-82 61.5t-51 63.5q-57 84 -76.5 180t-19.5 195zM430 543 q0 -74 6 -126t17.5 -87t25 -56.5t25.5 -33.5q18 -16 46 -31.5t68 -15.5q63 0 101.5 31.5t59 81.5t26.5 114t6 127q0 84 -11.5 162.5t-47.5 124.5q-20 25 -54 44t-77 19q-49 0 -88 -25.5t-62 -66.5q-16 -27 -24.5 -62.5t-11.5 -72.5t-4 -71t-1 -56zM474 1225q23 53 39 91 t29 73.5t25.5 76.5t30.5 101l11 10l323 4l6 -14q-25 -37 -53 -81t-58 -90t-57.5 -91t-52.5 -84l-14 -9h-221z" />
<glyph unicode="&#xf4;" d="M72 541q0 285 144 426t413 141q41 0 111.5 -6t138.5 -33q72 -29 121 -73t80.5 -95t49 -106.5t25.5 -103.5t9 -87t1 -59q0 -115 -24.5 -218.5t-88 -181t-170 -124t-268.5 -46.5q-111 0 -186.5 18.5t-126.5 47.5t-82 61.5t-51 63.5q-57 84 -76.5 180t-19.5 195zM271 1229 l55 105t39.5 78t34 73t38.5 86l13 10h373l12 -10q25 -55 41 -93t32.5 -73t35 -74t49.5 -98l-7 -12l-276 -9l-12 11l-86 215l-91 -211l-12 -10h-233zM430 543q0 -74 6 -126t17.5 -87t25 -56.5t25.5 -33.5q18 -16 46 -31.5t68 -15.5q63 0 101.5 31.5t59 81.5t26.5 114t6 127 q0 84 -11.5 162.5t-47.5 124.5q-20 25 -54 44t-77 19q-49 0 -88 -25.5t-62 -66.5q-16 -27 -24.5 -62.5t-11.5 -72.5t-4 -71t-1 -56z" />
<glyph unicode="&#xf5;" d="M72 541q0 285 144 426t413 141q41 0 111.5 -6t138.5 -33q72 -29 121 -73t80.5 -95t49 -106.5t25.5 -103.5t9 -87t1 -59q0 -115 -24.5 -218.5t-88 -181t-170 -124t-268.5 -46.5q-111 0 -186.5 18.5t-126.5 47.5t-82 61.5t-51 63.5q-57 84 -76.5 180t-19.5 195zM260 1239 l2 215l8 16q35 27 72 48.5t108 21.5q31 0 55.5 -5t53.5 -15l80 -29q35 -10 66.5 -20.5t66.5 -10.5q55 0 99 32t79 60l14 -6v-229l-8 -17q-35 -29 -80 -54t-112 -25q-35 0 -60.5 8t-56.5 18l-62 23q-35 12 -69.5 22.5t-69.5 10.5q-53 0 -96 -24t-78 -46zM430 543 q0 -74 6 -126t17.5 -87t25 -56.5t25.5 -33.5q18 -16 46 -31.5t68 -15.5q63 0 101.5 31.5t59 81.5t26.5 114t6 127q0 84 -11.5 162.5t-47.5 124.5q-20 25 -54 44t-77 19q-49 0 -88 -25.5t-62 -66.5q-16 -27 -24.5 -62.5t-11.5 -72.5t-4 -71t-1 -56z" />
<glyph unicode="&#xf6;" d="M72 541q0 285 144 426t413 141q41 0 111.5 -6t138.5 -33q72 -29 121 -73t80.5 -95t49 -106.5t25.5 -103.5t9 -87t1 -59q0 -115 -24.5 -218.5t-88 -181t-170 -124t-268.5 -46.5q-111 0 -186.5 18.5t-126.5 47.5t-82 61.5t-51 63.5q-57 84 -76.5 180t-19.5 195zM235 1495 l10 12l289 15l10 -13v-276l-12 -12l-281 -17l-10 13zM430 543q0 -74 6 -126t17.5 -87t25 -56.5t25.5 -33.5q18 -16 46 -31.5t68 -15.5q63 0 101.5 31.5t59 81.5t26.5 114t6 127q0 84 -11.5 162.5t-47.5 124.5q-20 25 -54 44t-77 19q-49 0 -88 -25.5t-62 -66.5 q-16 -27 -24.5 -62.5t-11.5 -72.5t-4 -71t-1 -56zM694 1495l10 12l285 17l10 -11v-282l-10 -12l-279 -17l-12 12z" />
<glyph unicode="&#xf7;" horiz-adv-x="1366" d="M0 489v211h1364v-211h-1364zM543 262q0 49 35.5 95t103.5 46q63 0 102 -42t39 -99q0 -25 -9 -48.5t-26.5 -43.5t-43 -32.5t-60.5 -12.5q-59 0 -100 39t-41 98zM543 926q0 23 8 47t25.5 44.5t44 34t63.5 13.5q63 0 101 -43t38 -98q0 -49 -35.5 -93.5t-105.5 -44.5 q-55 0 -97 39t-42 101z" />
<glyph unicode="&#xf8;" d="M-6 70v16l145 125q-16 35 -28.5 65.5t-21.5 66.5t-13 80t-4 105q0 43 4 99.5t19.5 118t47 122t88.5 111.5q18 16 51 38.5t82.5 42t115 34t149.5 14.5t144.5 -11.5t103.5 -27.5t73.5 -36.5t55.5 -39.5q16 16 27 27.5t23.5 24l29 29t44.5 42.5h15l80 -88v-14l-140 -125 q12 -20 25.5 -49t26 -70t20.5 -98.5t8 -132.5q0 -43 -4 -98.5t-19.5 -116t-47 -120t-86.5 -110.5q-70 -63 -168.5 -91t-221.5 -28q-92 0 -156.5 11.5t-109.5 30t-76.5 41t-58.5 44.5l-129 -118h-16zM431 611.5q-1 -74.5 1 -142.5l344 315q-4 12 -14 31t-26.5 36t-43 30.5 t-65.5 13.5q-78 0 -119 -42t-58.5 -104.5t-18.5 -137zM457 324q23 -61 62.5 -96t101.5 -35q68 0 105.5 36.5t56 90t22.5 111.5t4 99q0 29 -1 56.5t-3 56.5z" />
<glyph unicode="&#xf9;" d="M109 1067l14 12l338 17l14 -17l-4 -413q-2 -39 -2 -78v-78q0 -45 2 -94t16.5 -89t44 -67t84.5 -27q41 0 77 19.5t77 48.5q2 61 2 95v79v73.5t-2 147.5t-4 185.5t-8 185.5l14 12l334 17l14 -17q-6 -289 -6 -577q0 -100 1 -169t2 -122t4 -98t7 -101l-12 -12h-86t-71.5 -1 t-74.5 -2t-96 -3l-14 12l2 92q-55 -43 -124.5 -83t-178.5 -40q-78 0 -147.5 26t-120.5 83q-29 33 -45.5 68.5t-24.5 82t-10 107.5t-2 145v144q0 78 -1 131t-2 99t-4 93t-7 113zM310 1563l8 16h315l13 -8q14 -51 25 -88t23.5 -73t29 -77t42.5 -102l-10 -14h-221l-14 8 q-33 55 -56.5 94t-45 75t-47.5 74.5t-62 94.5z" />
<glyph unicode="&#xfa;" d="M109 1067l14 12l338 17l14 -17l-4 -413q-2 -39 -2 -78v-78q0 -45 2 -94t16.5 -89t44 -67t84.5 -27q41 0 77 19.5t77 48.5q2 61 2 95v79v73.5t-2 147.5t-4 185.5t-8 185.5l14 12l334 17l14 -17q-6 -289 -6 -577q0 -100 1 -169t2 -122t4 -98t7 -101l-12 -12h-86t-71.5 -1 t-74.5 -2t-96 -3l-14 12l2 92q-55 -43 -124.5 -83t-178.5 -40q-78 0 -147.5 26t-120.5 83q-29 33 -45.5 68.5t-24.5 82t-10 107.5t-2 145v144q0 78 -1 131t-2 99t-4 93t-7 113zM474 1225q23 53 39 91t29 73.5t25.5 76.5t30.5 101l11 10l323 4l6 -14q-25 -37 -53 -81t-58 -90 t-57.5 -91t-52.5 -84l-14 -9h-221z" />
<glyph unicode="&#xfb;" d="M109 1067l14 12l338 17l14 -17l-4 -413q-2 -39 -2 -78v-78q0 -45 2 -94t16.5 -89t44 -67t84.5 -27q41 0 77 19.5t77 48.5q2 61 2 95v79v73.5t-2 147.5t-4 185.5t-8 185.5l14 12l334 17l14 -17q-6 -289 -6 -577q0 -100 1 -169t2 -122t4 -98t7 -101l-12 -12h-86t-71.5 -1 t-74.5 -2t-96 -3l-14 12l2 92q-55 -43 -124.5 -83t-178.5 -40q-78 0 -147.5 26t-120.5 83q-29 33 -45.5 68.5t-24.5 82t-10 107.5t-2 145v144q0 78 -1 131t-2 99t-4 93t-7 113zM271 1229l55 105t39.5 78t34 73t38.5 86l13 10h373l12 -10q25 -55 41 -93t32.5 -73t35 -74 t49.5 -98l-7 -12l-276 -9l-12 11l-86 215l-91 -211l-12 -10h-233z" />
<glyph unicode="&#xfc;" d="M109 1067l14 12l338 17l14 -17l-4 -413q-2 -39 -2 -78v-78q0 -45 2 -94t16.5 -89t44 -67t84.5 -27q41 0 77 19.5t77 48.5q2 61 2 95v79v73.5t-2 147.5t-4 185.5t-8 185.5l14 12l334 17l14 -17q-6 -289 -6 -577q0 -100 1 -169t2 -122t4 -98t7 -101l-12 -12h-86t-71.5 -1 t-74.5 -2t-96 -3l-14 12l2 92q-55 -43 -124.5 -83t-178.5 -40q-78 0 -147.5 26t-120.5 83q-29 33 -45.5 68.5t-24.5 82t-10 107.5t-2 145v144q0 78 -1 131t-2 99t-4 93t-7 113zM237 1495l10 12l289 15l10 -13v-276l-12 -12l-281 -17l-10 13zM696 1495l10 12l285 17l10 -11 v-282l-10 -12l-279 -17l-12 12z" />
<glyph unicode="&#xfd;" horiz-adv-x="1024" d="M-23 1063l11 14q63 2 105 3t79 3t78 5.5t100 7.5l17 -13l82 -311l59 -217l39 -145l45 153l53 176q18 59 30.5 99.5t22 74t18.5 69.5t21 89l17 14l284 7l9 -17q-23 -59 -45.5 -119.5t-45.5 -121.5q-68 -178 -119 -315.5t-89.5 -248t-69.5 -202t-56.5 -179.5t-50 -180 t-53.5 -203l-14 -12q-39 0 -78 1t-78 1q-41 0 -82 -1t-80 -3l-10 16q35 76 57.5 126.5t42 96.5t41 98t52.5 132q-47 147 -104.5 310t-112 314.5t-101.5 277.5t-74 200zM367 1225q23 53 39 91t29 73.5t25.5 76.5t30.5 101l11 10l323 4l6 -14q-25 -37 -53 -81t-58 -90 t-57.5 -91t-52.5 -84l-14 -9h-221z" />
<glyph unicode="&#xfe;" d="M102 1565l13 14q61 8 100 14t73 12.5t70.5 11.5t96.5 15l16 -12q-2 -102 -4 -174t-3 -136.5t-2 -133t-3 -162.5q14 10 39.5 26.5t59.5 31.5t78 25.5t99 10.5q96 0 176 -40t136.5 -108.5t87 -164t30.5 -205.5q0 -80 -20.5 -169t-71.5 -169t-138 -144.5t-218 -95.5 q-78 -16 -139.5 -18t-108.5 -2q2 -82 3 -138.5t2 -106.5t3 -105.5t6 -137.5l-10 -10h-102h-76t-74 -2t-94 -4l-10 10q2 96 3 170t2 158t2 193.5t1 275.5v64v100.5t1 119t1 119v102.5v68q0 174 -3 349.5t-22 347.5zM467 518.5q0 -61.5 1 -130.5t1 -169q29 0 61.5 2t65.5 10.5 t65.5 24.5t61.5 47q47 49 65.5 116.5t18.5 137.5q0 129 -49 209q-20 31 -43 49.5t-45.5 27.5t-43 12t-34.5 3q-47 0 -72.5 -12t-52.5 -29v-168.5v-130z" />
<glyph unicode="&#xff;" horiz-adv-x="1024" d="M-23 1063l11 14q63 2 105 3t79 3t78 5.5t100 7.5l17 -13l82 -311l59 -217l39 -145l45 153l53 176q18 59 30.5 99.5t22 74t18.5 69.5t21 89l17 14l284 7l9 -17q-23 -59 -45.5 -119.5t-45.5 -121.5q-68 -178 -119 -315.5t-89.5 -248t-69.5 -202t-56.5 -179.5t-50 -180 t-53.5 -203l-14 -12q-39 0 -78 1t-78 1q-41 0 -82 -1t-80 -3l-10 16q35 76 57.5 126.5t42 96.5t41 98t52.5 132q-47 147 -104.5 310t-112 314.5t-101.5 277.5t-74 200zM125 1495l10 12l289 15l10 -13v-276l-12 -12l-281 -17l-10 13zM584 1495l10 12l285 17l10 -11v-282 l-10 -12l-279 -17l-12 12z" />
<glyph unicode="&#x152;" horiz-adv-x="1961" d="M86 702q0 68 8 142t29.5 146.5t56.5 140t88 122.5q61 66 126 105t131.5 59.5t135 26.5t138.5 6q39 0 75.5 -1t75.5 -3h350l558 6l12 -12l-17 -250l-12 -10l-522 4v-316l485 11l11 -11l-15 -239l-14 -11h-467l4 -352q104 0 172 1t125 3t114.5 5.5t141.5 7.5l10 -13 l-16 -258l-10 -12h-482l-452 -8q-154 0 -287 13t-244 75q-61 35 -125.5 97.5t-109.5 154.5q-43 90 -58.5 191.5t-15.5 178.5zM471 707q0 -55 7.5 -111t27.5 -109q31 -82 80 -126t101 -64.5t101.5 -24.5t77.5 -4q23 0 44.5 1t43.5 1q2 100 5.5 177t4.5 142.5t2 127t1 129 t-1 149.5t-1 189q-23 2 -44.5 3t-46.5 1q-37 0 -87 -5t-101 -27.5t-98 -68t-78 -126.5q-16 -39 -27.5 -103.5t-11.5 -150.5z" />
<glyph unicode="&#x153;" horiz-adv-x="1878" d="M72 522q0 96 18.5 189.5t56.5 158.5q39 68 93.5 114t117 73.5t130 39t135.5 11.5q82 0 140 -14.5t100 -36t67.5 -44t44.5 -40.5q25 23 54.5 47t69.5 43.5t93 33t125 13.5q92 0 181 -25.5t155 -89.5q51 -49 81.5 -108.5t46 -126t20.5 -137t7 -142.5l-12 -10l-672 -6 q6 -35 19.5 -77t45.5 -80t91 -63.5t162 -25.5q100 0 167.5 23.5t135.5 54.5l12 -10l-20 -226l-15 -14q-80 -37 -164.5 -54.5t-173.5 -17.5q-94 0 -159.5 12.5t-111.5 33t-77.5 46t-62.5 52.5q-20 -20 -50 -45t-74 -46.5t-105.5 -37t-147.5 -15.5q-135 0 -233.5 40t-163 113 t-96 173t-31.5 221zM424 569q0 -41 4 -103.5t22.5 -122.5t57.5 -103t108 -43q49 0 81 23.5t46 39.5q25 33 41.5 96.5t18.5 190.5v48t-4 65.5t-13.5 72.5t-25.5 68q-23 43 -60.5 67.5t-85.5 24.5q-23 0 -43 -6q-29 -8 -54 -26.5t-46.5 -54.5t-34 -93.5t-12.5 -143.5z M1128 680h355q-2 25 -5 51.5t-12.5 52t-27 49t-47.5 39.5q-37 18 -80 19q-53 0 -94 -27q-55 -37 -69.5 -87t-19.5 -97z" />
<glyph unicode="&#x178;" d="M-23 1430l7 16q63 0 108 1t85 3t85 4t111 6l14 -10q23 -49 40 -87t32.5 -68.5t28 -57.5t26.5 -53q8 -14 28.5 -54t44 -85.5t45 -86t30.5 -57.5q33 63 60.5 118.5t57 115t63.5 131t79 168.5l12 12h81t67.5 1t73.5 2t97 3l9 -14l-453 -824v-166.5t2 -132t4 -133t6 -170.5 l-12 -12h-94t-77 -1t-83 -2t-109 -3l-10 12q4 90 7 156.5t4.5 125t2.5 118t1 135.5v65q-23 41 -44.5 80t-44.5 80q-14 23 -42.5 74t-66.5 116.5t-80 137t-81 137t-69.5 119t-45.5 80.5zM219 1556v261l12 14l291 4l10 -12l-4 -260l-12 -15l-287 -4zM721 1552v263l10 14l287 6 l12 -12l-4 -264l-10 -13l-283 -6z" />
<glyph unicode="&#x2c6;" horiz-adv-x="598" d="M-61 1229l55 105t39.5 78t34 73t38.5 86l13 10h373l12 -10q25 -55 41 -93t32.5 -73t35 -74t49.5 -98l-7 -12l-276 -9l-12 11l-86 215l-91 -211l-12 -10h-233z" />
<glyph unicode="&#x2dc;" horiz-adv-x="598" d="M-53 1239l2 215l8 16q35 27 72 48.5t108 21.5q31 0 55.5 -5t53.5 -15l80 -29q35 -10 66.5 -20.5t66.5 -10.5q55 0 99 32t79 60l14 -6v-229l-8 -17q-35 -29 -80 -54t-112 -25q-35 0 -60.5 8t-56.5 18l-62 23q-35 12 -69.5 22.5t-69.5 10.5q-53 0 -96 -24t-78 -46z" />
<glyph unicode="&#x2000;" horiz-adv-x="990" />
<glyph unicode="&#x2001;" horiz-adv-x="1980" />
<glyph unicode="&#x2002;" horiz-adv-x="990" />
<glyph unicode="&#x2003;" horiz-adv-x="1980" />
<glyph unicode="&#x2004;" horiz-adv-x="660" />
<glyph unicode="&#x2005;" horiz-adv-x="495" />
<glyph unicode="&#x2006;" horiz-adv-x="330" />
<glyph unicode="&#x2007;" horiz-adv-x="330" />
<glyph unicode="&#x2008;" horiz-adv-x="247" />
<glyph unicode="&#x2009;" horiz-adv-x="396" />
<glyph unicode="&#x200a;" horiz-adv-x="110" />
<glyph unicode="&#x2010;" horiz-adv-x="768" d="M70 461l12 235l14 13q72 0 145.5 -1t147.5 -1q90 0 157.5 1t141.5 3l10 -11l-14 -237l-12 -12q-76 0 -151 1t-150 1h-75t-67.5 -1t-69.5 -2t-79 -1z" />
<glyph unicode="&#x2011;" horiz-adv-x="768" d="M70 461l12 235l14 13q72 0 145.5 -1t147.5 -1q90 0 157.5 1t141.5 3l10 -11l-14 -237l-12 -12q-76 0 -151 1t-150 1h-75t-67.5 -1t-69.5 -2t-79 -1z" />
<glyph unicode="&#x2012;" horiz-adv-x="768" d="M70 461l12 235l14 13q72 0 145.5 -1t147.5 -1q90 0 157.5 1t141.5 3l10 -11l-14 -237l-12 -12q-76 0 -151 1t-150 1h-75t-67.5 -1t-69.5 -2t-79 -1z" />
<glyph unicode="&#x2013;" horiz-adv-x="1193" d="M70 465l20 231l14 15q121 -2 243 -3t241 -1q133 0 263 1t261 3l12 -15l-20 -237l-12 -15q-162 2 -274.5 4.5t-217 3.5t-224.5 0t-296 -1z" />
<glyph unicode="&#x2014;" horiz-adv-x="1579" d="M72 467q4 37 6 63.5t4 51t4 52.5t6 64l17 15q76 -2 143 -3t153.5 -2t205 -1h294.5q129 0 217 1t152.5 2t114 2t104.5 3l16 -15q-4 -41 -7 -71.5t-5 -57t-4 -51t-4 -55.5l-12 -14q-164 2 -330 2h-365h-698z" />
<glyph unicode="&#x2018;" horiz-adv-x="512" d="M12 1044q35 70 57.5 118t51.5 108q6 14 23.5 54t37 85t37 85t25.5 56l14 13l231 4l9 -15q-31 -92 -49.5 -153.5t-32 -113.5t-25.5 -104.5t-26 -125.5l-13 -13l-332 -10z" />
<glyph unicode="&#x2019;" horiz-adv-x="512" d="M14 1044q29 90 47.5 149.5t31.5 112t25.5 105.5t28.5 131l13 14l332 11l8 -15q-16 -33 -28.5 -57.5t-25 -50t-28 -58t-35.5 -79.5q-29 -63 -58.5 -128t-58.5 -130l-12 -13l-231 -4z" />
<glyph unicode="&#x201a;" horiz-adv-x="512" d="M-12 -205q29 90 47 149.5t31.5 112t25.5 105.5t29 131l12 14l332 10l8 -14q-16 -33 -28.5 -57.5t-24.5 -50t-27.5 -58.5t-36.5 -80q-29 -63 -58.5 -127.5t-57.5 -130.5l-13 -12l-231 -4z" />
<glyph unicode="&#x201c;" horiz-adv-x="980" d="M25 1042q27 53 49 102.5t49 107t58.5 129t74.5 169.5l14 13l238 2l6 -15q-27 -80 -44 -135t-31.5 -107.5t-28 -110.5t-31.5 -144l-10 -13l-336 -10zM459 1044q27 51 49 100.5t57 127.5q6 14 23.5 53t38 84t38 85t25.5 56l15 13l231 4l8 -15q-29 -86 -46 -145 t-31.5 -111.5t-27 -107.5t-28.5 -133l-12 -13l-332 -10z" />
<glyph unicode="&#x201d;" horiz-adv-x="980" d="M37 1044q31 92 49 155t32.5 115t26 104t27.5 124l10 12l332 13l8 -15q-25 -49 -42 -85.5t-31.5 -65.5t-25.5 -55.5t-26 -57.5q-31 -68 -48 -107.5t-28.5 -64t-17.5 -39t-12 -30.5l-15 -11l-231 -6zM467 1047q27 84 45 141t31.5 109.5t27 108.5t31.5 138l10 12l336 11 l8 -13q-23 -47 -40 -82.5t-39.5 -87t-58.5 -130t-93 -207.5l-12 -11l-238 -4z" />
<glyph unicode="&#x201e;" horiz-adv-x="980" d="M37 -203q31 92 49 154.5t32.5 115t26 104.5t27.5 124l10 12l332 10l8 -12q-25 -49 -42 -86t-31.5 -66.5t-25.5 -56t-26 -57.5q-14 -33 -30.5 -69t-30.5 -69.5t-26.5 -60t-18.5 -41.5l-15 -12l-231 -4zM467 -203q27 84 45 141.5t31.5 109.5t27 108.5t31.5 138.5l10 12 l336 10l8 -12q-23 -47 -40 -84t-40.5 -88t-58.5 -129t-92 -207l-12 -10l-238 -4z" />
<glyph unicode="&#x2022;" horiz-adv-x="681" d="M49 723q0 59 22.5 111.5t62.5 92.5t94.5 63.5t115.5 23.5q63 0 116.5 -22.5t92.5 -62.5t59.5 -92.5t20.5 -113.5q0 -59 -19.5 -112.5t-56.5 -93.5t-90 -63.5t-119 -23.5q-68 0 -123 24.5t-94 65.5t-60.5 93.5t-21.5 109.5z" />
<glyph unicode="&#x2026;" horiz-adv-x="2048" d="M203 127q0 63 42 101t95 38q59 0 99 -38t42 -99q0 -59 -39 -100t-98 -41q-25 0 -49.5 8t-45 25.5t-33.5 44t-13 61.5zM885 125q0 63 41 102t100 39q53 0 94 -37t43 -100q0 -51 -35.5 -96t-103.5 -45q-49 0 -94 35.5t-45 101.5zM1567 125q0 63 41 102t100 39q53 0 94 -37 t43 -100q0 -51 -35.5 -96t-103.5 -45q-49 0 -94 35.5t-45 101.5z" />
<glyph unicode="&#x202f;" horiz-adv-x="396" />
<glyph unicode="&#x2039;" horiz-adv-x="681" d="M76 565v21q14 27 40.5 73t55.5 99t58.5 107.5t52.5 99.5l14 12h69.5t50 1t51.5 2t71 3l12 -18q-2 -4 -15.5 -28t-33 -59.5t-43 -79.5t-46 -85t-41 -77t-26.5 -54q18 -35 32.5 -62.5t35 -64.5t51.5 -93.5t84 -150.5l-8 -23q-39 -2 -67 -3t-53.5 -2t-53 -2t-64.5 -3l-16 10 q-10 18 -18.5 36t-17.5 36.5t-22.5 42t-31.5 55.5q-8 12 -27.5 46t-40.5 69q-25 41 -53 92z" />
<glyph unicode="&#x203a;" horiz-adv-x="681" d="M133 197q2 2 14.5 26.5t33 60t43 80t45 85t40 75.5t27.5 56q-18 37 -32.5 64.5t-35 64t-52.5 93t-83 148.5l8 23q39 2 68 3t54.5 2t52 2t63.5 3l16 -10q8 -18 17.5 -34.5t19.5 -36t23.5 -43t31.5 -54.5q6 -14 25.5 -48t42.5 -69q25 -41 53 -92v-21q-16 -27 -41.5 -72.5 t-55.5 -99t-59.5 -107.5t-52.5 -99l-12 -13h-69.5t-51 -1t-52.5 -2t-71 -3z" />
<glyph unicode="&#x205f;" horiz-adv-x="495" />
<glyph unicode="&#x2122;" horiz-adv-x="1406" d="M16 1327v119h570v-119h-209v-561h-146v561h-215zM643 766v680h188l164 -514l156 514h190v-680h-141l6 391l8 139l-30 -112l-127 -418h-129l-131 420l-31 108l10 -137l8 -391h-141z" />
<glyph unicode="&#x25fc;" horiz-adv-x="1085" d="M0 0v1085h1085v-1085h-1085z" />
</font>
</defs>
</svg>
