<?xml version="1.0" standalone="no"?>
<!DOCTYPE svg PUBLIC "-//W3C//DTD SVG 1.1//EN" "http://www.w3.org/Graphics/SVG/1.1/DTD/svg11.dtd" >
<svg xmlns="http://www.w3.org/2000/svg">
<metadata></metadata>
<defs>
<font id="formataregular" horiz-adv-x="1193" >
<font-face units-per-em="2048" ascent="1638" descent="-410" />
<missing-glyph horiz-adv-x="598" />
<glyph horiz-adv-x="0" />
<glyph unicode="&#xd;" horiz-adv-x="598" />
<glyph unicode=" "  horiz-adv-x="598" />
<glyph unicode="&#x09;" horiz-adv-x="598" />
<glyph unicode="&#xa0;" horiz-adv-x="598" />
<glyph unicode="!" horiz-adv-x="555" d="M203 10l14 -16q43 2 69.5 3t48 2t45 2t64.5 3l15 19q0 31 -1 54t-1 46v47v63l-17 17q-35 -2 -58.5 -3l-47 -2t-50 -2t-65.5 -1l-16 -19q2 -27 2 -53v-51v-56t-2 -53zM205 1554q6 -84 10 -185t7 -207.5t6 -212t4 -200t1 -171.5v-123l13 -17q29 2 47 3t34.5 2t35 2t47.5 1 l10 15q0 80 2 176t7 199.5l10 207t11.5 198.5t11.5 177t11 140l-12 14q-45 -2 -75 -3t-54 -1h-51h-64z" />
<glyph unicode="&#x22;" horiz-adv-x="811" d="M106 1427q0 -10 1.5 -19t1.5 -19l79 -500h48l83 524q0 20 -1 38.5t-11 35.5q-8 14 -29.5 30.5t-58.5 16.5t-75 -23.5t-38 -83.5zM492 1407q0 -8 2 -18l79 -500h48l81 524q2 20 1 38.5t-11 35.5q-8 14 -29.5 30.5t-60.5 16.5q-37 0 -73.5 -23.5t-36.5 -83.5v-20z" />
<glyph unicode="#" horiz-adv-x="1366" d="M86 469h285l-72 -469h166l67 469h228l-68 -469h162l68 469h307v158h-285l33 221h303v158h-283l62 438h-160l-65 -438h-226l64 438h-164l-64 -438h-311v-158h291l-33 -221h-305v-158zM553 627l33 221h227l-31 -221h-229z" />
<glyph unicode="$" horiz-adv-x="980" d="M49 90l8 -16q47 -27 89 -43.5t114 -32.5q-6 -29 -11 -47.5t-9 -35.5t-10.5 -37.5t-16.5 -51.5l10 -12h29h22q12 0 23.5 -1t28.5 -1l10 12q6 29 9 48t7 36.5t7 34t10 41.5q49 -6 106 -7q117 0 203 35t142.5 91.5t84 126t27.5 139.5q0 74 -23.5 129t-56.5 95t-66.5 65.5 t-54.5 37.5q-10 6 -28.5 17.5t-41 24t-46 25.5t-44.5 25l111 453q29 -8 51.5 -16t43 -18.5t41 -25t48.5 -34.5l17 4q6 29 9 46t7 32.5t7 31t9 39.5l-8 17q-31 16 -54.5 27.5t-45 18.5t-43 13t-47.5 13q6 27 11 45t9 36.5t10.5 38t16.5 47.5l-8 13h-109l-14 -8 q-8 -43 -13.5 -71t-15.5 -83q-20 2 -32.5 3t-34.5 1q-111 0 -187 -22.5t-127 -59.5q-35 -25 -62.5 -56.5t-43.5 -68.5q-31 -68 -31 -143q0 -80 26.5 -138.5t70.5 -104.5t99.5 -82t112.5 -68l27 -17l-121 -493q-35 8 -61.5 17t-49 20.5t-43 24.5t-45.5 32l-14 -6 q-10 -43 -17.5 -74t-21.5 -82zM285 1079q0 84 67.5 133.5t167.5 49.5q14 0 26.5 -1t26.5 -1l-104 -412q-37 25 -70.5 48.5t-58.5 50t-40 58t-15 74.5zM410 137l110 459q43 -25 82 -48.5t67.5 -51t45 -62.5t16.5 -80q0 -92 -71.5 -155.5t-200.5 -63.5h-21q-10 0 -28 2z" />
<glyph unicode="%" horiz-adv-x="1878" d="M57 932q0 -25 2 -68t11.5 -94t30 -104.5t58.5 -97.5t97 -71.5t145 -27.5q129 0 201 57.5t105.5 135t40 155.5t6.5 119q0 20 -2 62t-11.5 94.5t-30 106.5t-58.5 99t-96 74t-144 29q-100 0 -179 -47t-124 -144q-33 -68 -42.5 -143.5t-9.5 -134.5zM219 926q0 49 6 110.5 t25.5 116.5t57.5 92t102 37q61 0 97 -31.5t55.5 -82t25.5 -112t6 -118.5q0 -172 -44 -260t-142 -88q-51 0 -87 24.5t-58.5 68.5t-33 105.5t-10.5 137.5zM573 12l9 -10q25 0 39 -1t28 -1h31h43l12 10q100 256 201.5 508t212.5 504q8 20 30.5 71.5t47 107.5t47 106.5 t31.5 68.5l-9 10h-137l-12 -10q-35 -90 -81 -206.5t-89 -222t-76 -181.5t-37 -86q-72 -168 -143.5 -335t-147.5 -333zM1124 451q0 -25 2 -68t11.5 -95t30 -105.5t58.5 -97.5t97 -71.5t145 -27.5t145.5 26.5t98.5 69.5t61.5 96t33 105.5t12.5 97.5t2 74q0 20 -2 62 t-11.5 93.5t-30 106.5t-58.5 99t-96 73t-144 29q-100 0 -179 -47.5t-124 -143.5q-33 -68 -42.5 -142.5t-9.5 -133.5zM1286 444q0 49 6 110.5t25.5 116t57.5 91.5t102 37q61 0 97 -33t55.5 -83t25.5 -110.5t6 -115.5q0 -66 -9.5 -135.5t-31.5 -118.5q-16 -35 -48 -66t-97 -31 q-102 0 -145.5 93.5t-43.5 244.5z" />
<glyph unicode="&#x26;" horiz-adv-x="1236" d="M76 344q0 -68 24.5 -133.5t72.5 -116.5t121 -81.5t169 -30.5q76 0 137.5 17t110.5 42t84.5 52.5t58.5 45.5q16 -23 28.5 -39t21.5 -31.5t19.5 -29.5t22.5 -35l17 -10q8 0 31.5 1t51 2t52 2t35.5 1q23 0 43 -1t41 -1l8 18q-27 25 -62 64t-68.5 78t-61 73.5t-42.5 53.5 q27 33 72 94t90 160l-2 18q-20 23 -32.5 37t-24 28.5t-23.5 31t-31 40.5l-14 -2q-25 -70 -59.5 -142.5t-77.5 -131.5l-250 313q35 23 82 55.5t90 78.5t72.5 105.5t29.5 135.5q0 61 -22.5 116.5t-65.5 97.5t-105.5 66.5t-141.5 24.5q-84 0 -150 -27.5t-111 -72.5 t-68.5 -103.5t-23.5 -120.5q0 -57 15.5 -107t39 -93t49 -79t48.5 -63q-57 -37 -111.5 -73.5t-96.5 -83.5t-67.5 -105.5t-25.5 -138.5zM283 354q0 86 55 147.5t139 119.5l283 -359q-80 -72 -150.5 -92t-111.5 -20q-96 0 -155.5 59t-59.5 145zM418 1108q0 74 46 116t109 42 q68 0 114 -45t46 -117q0 -45 -17.5 -81t-44 -65.5t-60 -54t-66.5 -47.5q-43 49 -67.5 88t-38 68.5t-17.5 53.5t-4 42z" />
<glyph unicode="'" horiz-adv-x="425" d="M106 1427q0 -10 1.5 -19t1.5 -19l79 -500h48l83 524q0 20 -1 38.5t-11 35.5q-8 14 -29.5 30.5t-58.5 16.5t-75 -23.5t-38 -83.5z" />
<glyph unicode="(" horiz-adv-x="811" d="M166 555q0 -121 22.5 -227.5t59.5 -199.5t84 -174t96 -149q70 -98 123 -152t94 -93l17 -6q20 2 38.5 3t38.5 1q16 2 33 2h33l6 16q-117 113 -198 237t-130 249.5t-70.5 248.5t-21.5 236q0 172 40 322.5t103.5 277.5t140.5 228.5t150 172.5l-6 19q-31 0 -49 -1t-33 -1h-28 h-35l-19 -6q-84 -84 -171 -186.5t-157.5 -226.5t-115.5 -270.5t-45 -320.5z" />
<glyph unicode=")" horiz-adv-x="811" d="M-14 -428l6 -18q31 0 49 1t33 1h26h37l19 8q86 86 173 188.5t157.5 225t114.5 269t44 318.5q0 121 -22.5 227.5t-59.5 199.5t-83 174t-95 149q-72 98 -125 152.5t-94 93.5l-16 6q-20 -2 -39 -2q-18 0 -39 -2q-16 -2 -33 -2h-33l-6 -17q117 -115 198 -238.5t130 -249.5 t70.5 -249t21.5 -234q0 -176 -42 -329.5t-106.5 -280.5t-140.5 -225t-145 -166z" />
<glyph unicode="*" horiz-adv-x="894" d="M55 1012q23 -35 37 -59.5t43 -69.5h17q43 33 70.5 53t52 38.5t54 39t74.5 53.5q-6 -47 -11 -80t-10 -65.5t-11 -70.5t-15 -91l13 -15q27 0 47 1.5t37 1.5q18 0 35.5 -1.5t41.5 -1.5l13 17q-8 49 -13.5 85t-9.5 67.5t-8 67.5t-10 89q37 -27 62.5 -47t51 -39.5t55 -43 t72.5 -58.5h21q14 25 22.5 40t16.5 28.5t16 28.5t21 38l-6 16q-43 18 -73 30.5t-56.5 24t-58.5 24.5t-81 36q47 25 78 40t57.5 28.5t56 26.5t74.5 36l7 18q-27 43 -41.5 69t-32.5 60l-19 3q-37 -31 -63.5 -51.5t-51 -39t-53 -40t-73.5 -54.5q4 51 8 87t7 68t8 67.5t12 88.5 l-11 15q-27 -2 -45 -3t-34 -1h-35h-43l-13 -15q8 -55 13.5 -91t9.5 -67.5t7 -65.5t9 -83q-45 33 -72.5 52.5t-51 38t-51 39t-72.5 52.5l-17 -2q-12 -25 -21.5 -40t-17.5 -28.5t-16 -27.5t-21 -33l4 -16q55 -23 88 -37t61 -25.5t59.5 -25.5t82.5 -37q-43 -18 -74.5 -32.5 t-62.5 -28t-67.5 -28.5t-88.5 -36z" />
<glyph unicode="+" horiz-adv-x="1366" d="M88 514h510v-514h164v514h514v164h-514v510h-164v-510h-510v-164z" />
<glyph unicode="," horiz-adv-x="468" d="M31 -297l8 -12q27 2 44 3t30 1h30h41l15 14q14 43 35.5 106.5t47 134t53 142.5t54.5 135l-8 17q-41 -2 -68.5 -3t-51 -2t-48.5 -2t-61 -1l-13 -15q-10 -63 -19 -119.5t-22.5 -115t-30 -127t-36.5 -156.5z" />
<glyph unicode="-" horiz-adv-x="681" d="M59 506l13 -17q82 2 160.5 3.5t160.5 1.5q76 0 119 -1t86 -4l12 13q2 25 3 42t2 33.5t3.5 34t4.5 43.5l-11 13q-27 -2 -46 -3t-39.5 -2t-45.5 -1h-59q-84 0 -168 1t-168 3l-14 -15q0 -25 -1 -42t-3 -32.5t-4.5 -32t-4.5 -38.5z" />
<glyph unicode="." horiz-adv-x="468" d="M106 10l15 -16q43 2 69.5 3t48 2t45 2t64.5 3l14 19q0 31 -1 54t-1 46t1 48.5t1 61.5l-18 17q-35 -2 -58.5 -3t-46 -2t-49 -2t-67.5 -1l-17 -19q2 -27 3 -53v-51v-56t-3 -53z" />
<glyph unicode="/" horiz-adv-x="937" d="M-18 -272l8 -15h53q23 0 41 -1t37.5 -2t50.5 -1l16 17q133 342 270.5 677.5t284.5 673.5q8 18 24.5 56t37 84.5t43 98.5t43 98t37 83t22.5 53l-12 17h-33t-57.5 -1t-56.5 -1h-27l-16 -13q-29 -78 -66 -173t-78 -195.5t-81 -196.5t-71.5 -174t-54 -131t-26.5 -64 q-2 -4 -25.5 -58t-58.5 -135t-77 -177t-81 -185.5t-70.5 -161t-44.5 -100.5q-8 -18 -15 -36.5t-17 -36.5z" />
<glyph unicode="0" d="M76 688q0 -115 11 -202t31.5 -153.5t48 -115.5t58.5 -86q47 -55 99.5 -86t101.5 -46t92 -18.5t72 -3.5q41 0 87 5.5t94 20.5t96 46t94 80q23 25 50 67t50.5 107.5t40 161.5t16.5 229q0 74 -9 176.5t-44 201.5t-104.5 183t-188.5 125q-78 27 -166 27q-68 0 -133 -15.5 t-124.5 -50t-110 -89t-86.5 -134.5q-47 -100 -61.5 -212.5t-14.5 -217.5zM301 678q0 27 1 64.5t6 81.5t12.5 91.5t19.5 90.5q4 16 18.5 56t45 82t78.5 73.5t122 31.5q72 0 121 -31.5t76 -66.5q41 -55 59.5 -132t26.5 -159q4 -41 6 -81t2 -81q0 -49 -3 -103t-9 -106.5 t-18.5 -102.5t-30.5 -89q-10 -25 -28 -52.5t-45.5 -52t-66.5 -40t-94 -15.5q-78 0 -127 32t-78.5 75t-43 86t-19.5 63q-16 72 -23.5 142.5t-7.5 142.5z" />
<glyph unicode="1" d="M299 1196l16 -12q31 6 53.5 10t43 8t45 8t59.5 11q2 -88 1 -201t-1 -221q-2 -147 -3 -243.5t-2 -176.5t-2 -164t-3 -207l12 -14q39 2 65.5 3t49 2t45.5 1h59l13 12q-4 57 -7.5 114.5t-5.5 126.5t-2 159v213q0 199 1 328.5t4 214.5t5.5 137.5t6.5 93.5l-17 10 q-68 -10 -116 -17.5t-93 -13.5t-92 -11t-112 -13l-13 -15q0 -23 -1 -39t-2 -31.5t-3 -32.5t-4 -40z" />
<glyph unicode="2" d="M68 14l8 -20q51 0 135 1t181 2t198 1q102 0 185 1t140 1h68l78 -2l10 10v43v33q0 16 1 35.5t3 48.5l-10 14q-86 -4 -139.5 -6t-93 -4t-79.5 -3t-98 -3h-202l114 115q115 113 201 208t143.5 180t86 163.5t28.5 158.5q0 82 -31.5 158t-92 133t-150.5 91t-207 34 q-53 0 -104.5 -7t-100.5 -20q-90 -25 -136 -53.5t-69 -46.5l-12 -16v-64v-43q0 -18 -1 -36.5t-1 -47.5l16 -8q29 31 69 64.5t105 62.5q92 41 193 41q76 0 132 -22.5t93 -60.5t55.5 -86t18.5 -99q0 -59 -23.5 -118t-59.5 -112t-77 -101t-78 -87q-123 -135 -246.5 -267.5 t-250.5 -265.5z" />
<glyph unicode="3" d="M109 80l10 -14q84 -49 176 -67.5t190 -18.5q86 0 166 15t148.5 47t123 83t89.5 125q43 92 43 190q0 53 -18.5 121t-64.5 128.5t-125 103.5t-200 47q14 20 44 63t67 96.5t78 112.5t77.5 111.5t66.5 94.5t42 60l-8 15q-27 0 -51.5 -1t-54 -2t-68.5 -1h-86h-602l-11 -13v-39 t-1 -31.5t-2 -34t-3 -44.5l12 -13q82 2 144.5 3.5t122 2.5t125.5 1h155q-37 -59 -90 -136t-109.5 -154t-105.5 -142.5t-76 -100.5l13 -14q31 10 68.5 19t97.5 9q18 0 46.5 -2t62.5 -9t70 -22.5t66 -41.5q41 -35 65.5 -85t24.5 -116q0 -127 -94 -209t-258 -82 q-72 0 -128 15.5t-98 35t-70.5 41t-43.5 33.5l-16 -8q-2 -31 -3 -50.5t-2 -38t-2 -38t-3 -45.5z" />
<glyph unicode="4" d="M61 377l11 -12h67q41 0 113 1t184 1h283q0 -53 -1 -92l-2 -78t-2 -83t-3 -108l12 -12q33 2 55.5 3t42.5 1h43h54l10 12q-2 55 -3 95t-1 77v80v105h51h41q20 0 39.5 -1t44.5 -4l10 11q2 27 3 44t2 31.5t3 31t4 40.5l-12 12q-35 -2 -55.5 -3t-38.5 -1h-39h-53v148v162v123 q0 55 1 100t1 92t1 101.5t3 125.5l-10 13q-47 0 -78 -1t-62 -1h-67h-90l-15 -11q-57 -100 -132 -222t-150.5 -240.5t-143 -222t-110.5 -169.5l-6 -16q0 -25 -1.5 -41t-1.5 -29q0 -12 -1 -26.5t-1 -36.5zM274 526l457 742l-8 -742h-449z" />
<glyph unicode="5" d="M123 61l10 -14l31 -14q68 -25 146.5 -39t162.5 -14q154 0 263.5 45t180 115.5t103.5 157.5t33 173q0 106 -46 201.5t-133 158.5q-74 57 -163.5 80t-184.5 23q-53 0 -86.5 -5t-60.5 -9l16 299q49 0 102.5 1t98.5 1h80h43h102t113 -4l12 12q2 27 3 45t1 35q0 16 1 32.5 t3 38.5l-12 13q-102 0 -179 -1t-155 -2t-170 -1h-223l-14 -15q0 -90 -4 -182t-8.5 -179t-10.5 -168t-10 -149l14 -10q16 8 44 21.5t65 25.5t84 20.5t102 8.5q86 0 151.5 -23.5t110.5 -65.5t68.5 -98.5t23.5 -119.5q0 -61 -23.5 -117.5t-70.5 -99.5t-115.5 -69t-160.5 -26 q-66 0 -117 11.5t-90 28t-64.5 32.5t-39.5 27l-19 -9z" />
<glyph unicode="6" d="M102 637q0 -113 24 -230.5t83 -209.5q68 -102 180 -160q59 -31 124 -44t128 -13q106 0 193.5 33.5t150 95t97 148.5t34.5 192q0 106 -36 188t-95 137t-138 84t-167 29q-109 0 -193 -39t-137 -94l-22 -29q0 35 4 83t24 120q8 29 21.5 65.5t36 74.5t58.5 75t89 63 q82 41 187 41q55 0 98 -10t76.5 -24.5t56 -30t37.5 -25.5l18 10v52q0 23 1 40t3 35.5t4 42.5l-10 13q-37 16 -110.5 36.5t-190.5 20.5q-43 0 -95 -5t-108.5 -22.5t-116 -50.5t-114.5 -90q-47 -49 -79 -103.5t-52.5 -106.5t-31.5 -103.5t-17 -94.5q-6 -49 -10.5 -97t-4.5 -97 zM338 479v49q6 10 12 22.5t15 22.5q41 61 110.5 100.5t159.5 39.5q53 0 101 -16.5t85 -50.5t58.5 -87t21.5 -125q0 -70 -21.5 -123t-57.5 -90t-83 -55.5t-100 -18.5q-74 0 -130 30t-93 77t-56.5 106.5t-21.5 118.5z" />
<glyph unicode="7" d="M96 1225l10 -13q57 2 101.5 3.5t87.5 2.5t90 2t107 1h141h192q-29 -78 -70.5 -182.5t-92 -221.5t-102.5 -236.5t-101 -228t-91 -197.5t-69 -147l10 -14q43 2 74 3t58.5 2t54.5 1h69l15 10q4 16 8 30.5t8 31.5q37 133 100.5 306t135 352t143.5 349t125 297l-8 17 q-104 -2 -249 -4.5t-288 -2.5h-260h-174l-12 -10q-4 -55 -6.5 -85.5t-6.5 -65.5z" />
<glyph unicode="8" d="M86 399q0 -82 29.5 -157.5t91 -134t157 -93t226.5 -34.5q98 0 193.5 22.5t172.5 83.5q55 43 103.5 122t48.5 193q0 59 -17.5 121t-56.5 113q-47 61 -97 86t-85 35q20 10 56 29.5t69 53t57.5 86t24.5 128.5q0 68 -26.5 132t-83 113.5t-141.5 80t-202 30.5 q-115 0 -193.5 -24.5t-129.5 -59.5q-66 -47 -107 -118.5t-41 -162.5q0 -72 21.5 -123t52.5 -84.5t64.5 -53t56.5 -31.5q-25 -10 -66 -31t-81 -60.5t-68.5 -103t-28.5 -158.5zM311 401q0 119 79 192t210 73q68 0 120 -20.5t88 -56.5t54.5 -84.5t18.5 -101.5q0 -55 -18.5 -103 t-54.5 -84t-88 -56.5t-122 -20.5q-137 0 -212 73t-75 189zM346 1030q0 88 64.5 152.5t189.5 64.5q59 0 104.5 -17.5t76 -45t47 -62t20.5 -67.5q2 -29 -6 -69t-36 -77t-77 -62.5t-129 -25.5q-119 0 -186.5 58.5t-67.5 150.5z" />
<glyph unicode="9" d="M82 936q0 -102 34 -182t93 -136.5t139 -86t170 -29.5q98 0 176 31.5t129 78.5q14 10 25.5 23.5t23.5 28.5q-2 -43 -6 -91.5t-22 -115.5q-8 -29 -21.5 -65t-36 -74.5t-58.5 -74.5t-89 -63q-82 -41 -186 -41q-55 0 -99.5 10.5t-78 24.5t-56 29.5t-37.5 25.5l-16 -10 q0 -33 -1 -52.5t-1 -35.5q0 -14 -1 -31.5t-3 -46.5l8 -14q14 -6 42 -15.5t67.5 -19.5t90 -17t109.5 -7q45 0 96.5 6t106.5 24.5t111.5 51t109.5 88.5q49 49 81 101t52.5 104.5t31.5 103.5t17 96q12 94 13 190q0 49 -4.5 106.5t-15.5 117t-30.5 117t-50.5 106.5 q-33 53 -80 94t-102 70t-116.5 41t-125.5 12q-117 0 -208 -37t-153.5 -101.5t-95 -150.5t-32.5 -184zM297 954q0 66 20.5 119t57.5 90t86 57.5t106 20.5q88 0 144.5 -37t90.5 -89t47 -109.5t13 -96.5l-2 -49q-4 -10 -10 -22.5t-14 -22.5q-41 -63 -112 -101t-159 -38 q-115 0 -191.5 69.5t-76.5 208.5z" />
<glyph unicode=":" horiz-adv-x="555" d="M193 10l14 -16q43 2 69.5 3t48 2t45 2t64.5 3l15 19q0 31 -1.5 54t-1.5 46v47v63l-16 17q-35 -2 -59.5 -3t-47 -2t-49 -2t-65.5 -1l-16 -19q0 -27 1 -52.5t1 -51.5q0 -29 -1 -55.5t-1 -53.5zM193 844l14 -17q41 2 67.5 3t50 2.5t48 2.5t61.5 3l15 16q0 31 -1.5 54.5 t-1.5 45.5v50v61l-16 18q-35 -2 -59.5 -4t-47 -3t-49.5 -1h-65l-16 -18q0 -27 1 -52.5t1 -54.5q0 -27 -1 -53.5t-1 -52.5z" />
<glyph unicode=";" horiz-adv-x="555" d="M117 -297l8 -12q27 2 44 3t30 1h30h41l15 14q14 43 35.5 106.5t47 134t53.5 142.5t54 135l-8 17q-41 -2 -68.5 -3t-51 -2t-48.5 -2t-61 -1l-13 -15q-8 -63 -18 -119.5t-22.5 -115t-30 -127t-37.5 -156.5zM229 844l13 -17q41 2 67.5 3t50 2.5t49 2.5t62.5 3l14 16 q-2 31 -3 54.5t-1 45.5q0 25 1 50.5t1 60.5l-16 18q-35 -2 -59.5 -4t-47 -3t-49.5 -1h-67l-15 -18q0 -27 1 -52.5t1 -54.5q0 -27 -1 -53.5t-1 -52.5z" />
<glyph unicode="&#x3c;" horiz-adv-x="1366" d="M0 635l1366 -641v176l-1161 553l1161 553v176l-1366 -641v-176z" />
<glyph unicode="=" horiz-adv-x="1366" d="M0 332h1366v162h-1366v-162zM0 700h1366v162h-1366v-162z" />
<glyph unicode="&#x3e;" horiz-adv-x="1366" d="M0 -6l1366 641v176l-1366 641v-176l1161 -553l-1161 -553v-176z" />
<glyph unicode="?" horiz-adv-x="854" d="M29 1286l18 -6q18 14 44 33.5t58.5 36t73.5 29t92 12.5q49 0 93.5 -14.5t78 -45.5t54 -77t20.5 -109q0 -96 -39 -176t-80 -148l-45 -69q-25 -41 -44 -78t-33.5 -74t-23.5 -77t-13 -91l14 -12q27 2 46 3t38 1h41h53l12 16q4 35 10.5 67t20.5 65.5t35.5 73.5t56.5 91l58 88 q18 29 39.5 65t39 79t29.5 94t12 111q0 90 -29.5 163.5t-85 126t-133 81t-175.5 28.5q-86 0 -163 -19.5t-149 -64.5l-10 -14q-2 -31 -3 -52.5t-3 -41t-4 -41t-4 -54.5zM254 10l14 -16q43 2 70 3t48.5 2t46 2t63.5 3l14 19q0 31 -1 54t-1 46t1 48.5t1 61.5l-16 17 q-35 -2 -59.5 -3t-47 -2t-49.5 -2t-68 -1l-16 -19q2 -27 2 -53v-51v-56t-2 -53z" />
<glyph unicode="@" horiz-adv-x="1835" d="M141 483q0 -207 76 -348t192.5 -227t255 -124t265.5 -38q203 0 391 81t356 247l-65 82q-164 -156 -338 -226.5t-350 -70.5q-111 0 -228.5 31.5t-215 105.5t-161 192.5t-63.5 292.5t65.5 332t178 275.5t259 187.5t310.5 70q123 0 217 -35t158.5 -99.5t97.5 -153.5t33 -196 q0 -121 -33 -229.5t-80 -190.5t-101 -130t-97 -48q-16 0 -39 17.5t-23 70.5q0 25 3 52.5t9.5 66.5t17.5 95.5t28 140.5l67 307h-139l-31 -127q-8 18 -23.5 48t-42 57.5t-67.5 47t-102 19.5q-86 0 -164 -48t-138.5 -129t-95.5 -186.5t-35 -220.5q0 -90 24 -152.5t61.5 -101.5 t86 -57.5t95.5 -18.5q51 0 96 16.5t82 41t65.5 55.5t51.5 59q2 -16 4 -37.5t11 -43t26.5 -42t48.5 -34.5q39 -16 82 -17q78 0 172 60.5t172 191.5q37 61 61.5 128t38.5 128.5t20.5 116.5t6.5 96q0 133 -43 243t-122 187.5t-190.5 120.5t-251.5 43q-141 0 -266 -38 t-230.5 -105.5t-188.5 -159.5t-141 -200.5t-89 -228.5t-31 -243zM651 487q0 72 20.5 150t57.5 142.5t90 106.5t119 42q29 0 59.5 -12.5t55 -38t40 -67.5t15.5 -99v2q-2 -86 -26.5 -166t-65.5 -139.5t-94.5 -95.5t-110.5 -36q-16 0 -43 6.5t-52.5 29t-45 63.5t-19.5 112z" />
<glyph unicode="A" horiz-adv-x="1236" d="M-2 12l8 -14q39 2 64.5 3t47 2t44.5 1h55l14 14q18 68 31.5 116t26 92t27 94.5t36.5 121.5q61 0 130 1t136 1q61 0 122 -1t122 -1q20 -70 34.5 -119t27 -94t27 -96t32.5 -123l14 -14q33 2 58.5 3t52.5 2t56.5 2t70.5 1l8 16q-23 74 -52.5 166.5t-60 188.5t-60.5 188 t-54 166q-47 147 -101.5 325.5t-105.5 348.5l-10 37l-15 14q-49 -2 -80.5 -3t-61.5 -2t-63.5 -2t-86.5 -1l-17 -14q-23 -74 -43 -140.5t-46 -143.5t-59.5 -175.5t-78.5 -233.5q-111 -332 -228 -663q-6 -16 -12 -31.5t-10 -32.5zM403 606l215 692l197 -692q-53 0 -107.5 -1 t-107.5 -1q-49 0 -98 1t-99 1z" />
<glyph unicode="B" horiz-adv-x="1280" d="M152 1432q2 -41 5 -83t5 -92.5t3 -114t1 -143.5v-73v-109q0 -59 -1 -126.5t-1 -127.5v-106v-70v-125q0 -53 -1 -97t-2 -82t-3 -75l10 -14l360 2q121 0 209 5t170 34q123 45 202 142t79 239q0 29 -6 69.5t-25.5 83.5t-58.5 85t-105 71q-55 25 -104 30t-84 7 q106 27 167.5 74t92.5 98t38 99t7 75q0 57 -14.5 102t-38 79t-52 58.5t-57.5 41.5q-78 45 -169 54t-183 9h-86q-43 0 -74 -2l-274 -4zM389 510v145l49 2q41 2 66.5 3.5t40.5 1.5h24h17q37 0 98 -4.5t119.5 -27t101.5 -71.5t43 -139q0 -78 -40 -137.5t-113 -87.5 q-59 -25 -150.5 -28t-208.5 -3h-39q-4 84 -5 138t-2 103.5t-1 104.5zM389 827v455q94 6 193 6q18 0 47.5 -1t65.5 -7t71 -20.5t61 -40.5q27 -29 42.5 -67t15.5 -79q0 -51 -22.5 -98t-61.5 -80q-65 -51 -169 -61q-86 -8 -196 -7h-47z" />
<glyph unicode="C" horiz-adv-x="1280" d="M102 723q0 -172 48.5 -311.5t140.5 -237.5t224 -151.5t300 -53.5q78 0 140.5 10.5t111.5 24.5t83 29.5t52 25.5l12 15q2 29 3.5 51t2.5 43.5t3 46.5t6 61l-15 9q-25 -16 -59.5 -38t-80.5 -41.5t-105.5 -32.5t-130.5 -13q-106 0 -196.5 33.5t-157 104.5t-103.5 177.5 t-37 251.5q0 129 33 234.5t97.5 179t158.5 114.5t217 41q68 0 121 -10t94 -25.5t67.5 -31t43.5 -25.5l18 8q2 33 4 55.5t4 41t4 38t6 48.5l-8 16q-51 18 -142 42t-233 24q-55 0 -121.5 -6.5t-138 -28t-143.5 -63.5t-137 -113q-68 -74 -105 -154t-55 -153.5t-22.5 -136 t-4.5 -99.5z" />
<glyph unicode="D" horiz-adv-x="1449" d="M147 1432q4 -57 7.5 -124t6.5 -166.5t4 -243.5t1 -359q0 -158 -2 -282t-6 -249l10 -14l137 2h164q61 0 100 1t63.5 2t55.5 5q78 8 165 27.5t169 65.5t153.5 125t118.5 204q31 80 43.5 164t12.5 170q0 20 -1 61t-8.5 92.5t-24 109.5t-46 116.5t-75.5 113t-114 97.5 q-63 41 -135 62.5t-149.5 30.5t-161.5 10h-57q-57 0 -117 -1l-301 -6zM389 547v227v191t1 131t2 97t3 91q53 2 99.5 3t99.5 1q31 0 75 -2t93 -11t101 -29.5t98 -59.5q55 -49 85.5 -109.5t45 -119t16.5 -107.5t2 -74q0 -86 -11.5 -160.5t-37.5 -142.5q-47 -117 -118 -180.5 t-159 -91t-188 -31.5q-66 -3 -133 -3q-34 0 -68 1q-2 70 -3 121t-2 111.5t-1 146.5z" />
<glyph unicode="E" horiz-adv-x="1110" d="M150 1432q6 -88 8 -172t4 -175.5t2 -195.5v-234q0 -141 -1 -236t-3 -167t-4 -127t-4 -117l10 -14q96 0 170 1t135 2t117 1q55 0 117.5 1t136.5 1h176l14 14q2 27 3 44.5t2 32.5t2 32.5t3 44.5l-12 14q-98 -4 -166.5 -6t-134.5 -3t-143 -1h-193q0 74 -1 126t-1 103v111 q0 59 2 150h172q70 0 127 -1.5t117.5 -2.5t150.5 -3l13 15q0 25 1 42t2 34.5t2 36t5 44.5l-10 15q-94 -2 -161 -3t-128 -1h-129h-162v120q0 51 1 97.5t2 96.5t3 122q98 0 169 -1t136.5 -2t137 -3t170.5 -4l12 14q2 27 3 47.5t3 37.5t4 34.5t4 40.5l-12 14q-141 -2 -236.5 -3 t-183.5 -1t-188.5 -1t-251.5 -1z" />
<glyph unicode="F" horiz-adv-x="980" d="M150 8l10 -14q41 2 67.5 3t50 2t50.5 1h69l11 14q-6 84 -9.5 179.5t-4.5 183.5t-1 158q0 72 2 104q92 0 150.5 -1t109 -2t101.5 -2t127 -3l12 14q2 23 3 38t3 31.5t3 38t5 56.5l-10 12q-78 -2 -133 -4t-109.5 -3t-116 -2t-149.5 -1v47q0 45 1 103.5l2 117t2 109.5t1 82 h160t126 -1t125.5 -3t162.5 -4l12 12q2 31 3 49t2 34.5t2 34t5 46.5l-10 14q-35 -2 -100 -2q-66 0 -146 -1t-167 -2t-166 -1h-146h-100l-10 -14q2 -47 4 -97.5t4 -113t3 -144.5t1 -190q0 -227 -1 -370.5t-2 -237t-4 -153.5t-5 -118z" />
<glyph unicode="G" horiz-adv-x="1409" d="M98 705q0 -178 52.5 -309.5t128.5 -213.5q57 -61 125.5 -102t142.5 -65.5t151.5 -35t153.5 -10.5q117 0 221.5 20.5t212.5 63.5l12 15q-2 45 -3 81.5t-1 100.5q0 92 2 208.5t9 239.5l-11 13q-37 -2 -61.5 -3t-48.5 -1h-51h-68l-12 -15q4 -57 8 -147t4 -209l-2 -154 q-35 -10 -84 -22.5t-127 -12.5q-123 0 -218 40t-158.5 113t-96.5 175.5t-33 229.5q0 35 3 84t14.5 104t34 111.5t61.5 109.5q47 63 102 100t107.5 54.5t96.5 21.5t73 4q72 0 130 -13t105 -31.5t82 -40t59 -38.5l17 5q2 35 5 60.5t5 47t5 43t7 47.5l-10 15q-23 10 -59.5 25.5 t-89 28.5t-120 23.5t-149.5 10.5q-41 0 -103.5 -5.5t-134 -27t-148.5 -64.5t-146 -120q-86 -96 -140.5 -235.5t-54.5 -319.5z" />
<glyph unicode="H" horiz-adv-x="1449" d="M150 1432q2 -47 4 -91.5t4 -100.5t3 -129t1 -177v-270q0 -115 -1 -201t-1 -150q0 -63 -1 -114.5t-3 -95.5t-4 -95l12 -14q43 2 68.5 3t47 2t46.5 1h69l11 14q-4 57 -7.5 115.5t-5.5 135.5t-2 179v250q106 2 231.5 3t245.5 1q72 0 115 -1t78 -1q1 -53 1 -109 q0 -110 -3 -228q-4 -177 -8 -351l12 -14q43 2 69.5 3t49 2t47.5 1h65l13 14q-4 70 -8.5 138.5t-7.5 151.5t-4 190.5t-1 257.5v229q0 96 1 173t3 143.5t4 140.5l-10 14q-37 -2 -61.5 -3t-48.5 -1q-23 0 -49.5 -1t-67.5 -1l-10 -14q4 -47 6 -86t3 -96.5t2 -145.5t3 -234 q-37 -2 -73 -3t-79 -2t-96 -1h-123h-88q-37 0 -70.5 1t-66.5 2t-72 1q0 211 2 345.5t4 224.5l-10 14q-37 -2 -62.5 -3t-50.5 -1q-23 0 -49 -1t-65 -1z" />
<glyph unicode="I" horiz-adv-x="555" d="M150 1430q10 -231 12 -461t2 -463q0 -98 -1 -171t-2 -130.5t-2 -103.5t-3 -93l12 -14q41 2 68.5 3t52.5 1t48 1t58 1l13 14q-4 80 -7.5 155t-5.5 163t-3 197.5t-1 256.5q0 131 1 230.5t2 176.5t3 135t4 110l-14 14q-39 -2 -66.5 -3t-52 -2t-51.5 -1h-57z" />
<glyph unicode="J" horiz-adv-x="681" d="M-4 178q2 -29 2 -55v-39v-64l10 -16q29 -6 62.5 -11t89.5 -5q139 0 216 45t113.5 111.5t44 142t7.5 139.5v111q0 51 -2 73v185q0 47 -1 83v34.5v35.5q1 35 1 74q0 41 1 97.5t3 133t4 185.5l-10 14q-41 -2 -70 -3t-53 -1q-25 0 -49.5 -1t-57.5 -1l-12 -14 q10 -197 13 -391.5t3 -393.5q0 -121 -1 -189.5t-4 -105.5t-7 -53t-10 -31q-16 -37 -40 -56t-48.5 -28.5t-45 -10.5t-32.5 -1q-39 0 -63.5 5t-49.5 11z" />
<glyph unicode="K" horiz-adv-x="1236" d="M147 1432q4 -61 7.5 -118t5.5 -123.5t3 -149.5t1 -197v-244v-174t-1 -127t-2 -99t-2 -91.5t-3 -100.5l10 -14q39 2 63.5 3t46 2t48.5 1h69l13 14q-6 94 -9.5 207t-4.5 217.5t-2 189.5t-1 124q12 -16 51 -66.5t91.5 -120t111.5 -149.5t116.5 -158t105.5 -144.5t77 -107.5 l19 -12q49 2 79.5 3t56 2t54.5 1h74l12 23q-158 193 -307.5 385t-294.5 391q61 78 133 166t143.5 174t136 162.5t113.5 134.5l-12 16q-41 -2 -66.5 -3t-48 -2t-49.5 -1h-70l-16 -12q-23 -33 -65.5 -89.5t-93 -121t-102.5 -131t-96 -120.5t-73 -90t-31 -38 q-12 -16 -24.5 -30.5t-24.5 -29.5v174q0 72 1 138.5t3 144.5t6 197l-10 14q-39 -2 -63.5 -3t-49.5 -1q-23 0 -49 -1t-67 -1z" />
<glyph unicode="L" horiz-adv-x="980" d="M147 1432q4 -61 7.5 -127t5.5 -144t3 -171t1 -212q0 -270 -3 -457.5t-7 -312.5l12 -14q96 2 165.5 3t125.5 1q57 0 106 1t105 1h120h158l10 14q4 45 5.5 76t5.5 82l-13 16q-102 -4 -170.5 -5t-127 -3t-117.5 -2h-146q0 37 -1 72t-2 75t-1 85v106v111q0 94 2 226t6 287.5 t13 299.5l-13 12q-39 -2 -65.5 -3t-50.5 -1q-23 0 -50.5 -1t-68.5 -1z" />
<glyph unicode="M" horiz-adv-x="1748" d="M106 8l11 -14q33 2 53 3t39.5 2t42.5 1h61l11 14q0 59 1 104.5t2.5 92.5t2 107.5t4.5 150.5l14 367q2 76 4 128t3 99t2 98t1 129q10 -49 18.5 -85t21 -82t30.5 -112.5t49 -176.5l82 -287q8 -25 26.5 -87.5t39 -132t38 -131t23.5 -85.5q8 -25 15.5 -50.5t15.5 -52.5 l12 -14q43 2 70.5 3t50 2t49.5 1h68l12 14q18 59 32.5 107.5t31 99.5t36 111.5t47.5 146.5l95 297q33 106 55 184l38.5 136.5t30 103.5t25.5 90v-96q0 -68 1 -147.5t1 -159.5v-133l4 -217q2 -84 4 -144.5t2 -118.5v-118v-148l13 -14q39 2 64.5 3t47 2t45.5 1h64l10 14 q-20 358 -32 711.5t-21 712.5l-12 14q-53 -2 -87 -3t-65 -2t-68 -1h-90l-12 -14q-12 -43 -20.5 -72t-19.5 -66t-28.5 -94t-48.5 -158l-260 -854l-223 828q-31 104 -57.5 201.5t-55.5 220.5l-14 14q-49 -2 -83 -3t-66.5 -2t-71.5 -1h-94l-13 -14q0 -68 -1 -114t-3 -101.5 t-6 -135.5t-12 -217q-10 -184 -18.5 -365.5t-24.5 -365.5q-4 -31 -6 -62.5t-7 -62.5z" />
<glyph unicode="N" horiz-adv-x="1449" d="M150 1432q8 -211 10 -419t2 -419q0 -147 -2 -292.5t-8 -293.5l12 -14q37 2 59.5 3t42 2t39.5 1h55l13 14q-2 31 -3 51.5t-2 45t-2 61.5t-4 100q-2 66 -4 128.5t-4 127.5l-20 703l323 -578q92 -162 182.5 -322.5t182.5 -322.5l16 -14q45 2 74 3t53.5 2t51.5 1h73l10 14 l-2 86q-6 289 -6 580q0 190 2 379.5t6 378.5l-12 14q-31 -2 -52.5 -3t-40.5 -2t-44 -1h-57l-13 -14q2 -53 5.5 -94.5t4.5 -93.5t3 -127t6 -195l16 -680l-254 448q-102 180 -207.5 369.5t-210.5 378.5l-20 14q-43 -2 -72.5 -3t-56.5 -1t-57.5 -1t-77.5 -1z" />
<glyph unicode="O" horiz-adv-x="1536" d="M102 713q0 -170 44 -307.5t129 -234.5t208 -149.5t283 -52.5q152 0 274.5 48.5t210.5 142.5t135.5 233t47.5 324q0 178 -46.5 319.5t-132.5 238.5t-208.5 149.5t-274.5 52.5q-160 0 -283.5 -55.5t-209.5 -155t-131.5 -240.5t-45.5 -313zM350 727q0 35 3 85t13.5 106.5 t29 112.5t46.5 102q16 27 43 56.5t67 56t94 44t126 17.5q18 0 57 -3.5t86.5 -19.5t96.5 -52t90 -102q29 -47 46 -105t26.5 -115.5t12.5 -105.5t3 -77q0 -117 -23.5 -223.5t-74 -187t-130 -128t-192.5 -47.5q-115 0 -199 51.5t-137 141.5q-27 45 -43 98t-25.5 106.5 t-12.5 102.5t-3 86z" />
<glyph unicode="P" d="M147 1432q14 -236 16.5 -475.5t2.5 -479.5v-158q0 -66 -1 -119t-2 -98t-3 -94l12 -14q39 2 63.5 3t46 2t46.5 1h69l13 14q-4 94 -7.5 159t-4.5 121t-2 114.5t-1 142.5q23 0 43.5 -1t48.5 -1q92 0 179.5 10t164 37t140 74t108.5 121q31 51 46.5 109t15.5 120 q0 53 -13.5 112.5t-45 115t-87 101.5t-141.5 74q-74 23 -155 27t-183 4l-135 -4q-14 0 -46 -1t-69 -1q-35 0 -65.5 -1t-42.5 -1zM391 993q0 72 1 143.5t1 143.5q20 2 38 3t37 2t45 2t65 1q33 0 75.5 -2t85.5 -16.5t83 -43t65 -81.5q14 -31 19 -63.5t5 -63.5q0 -39 -8 -77 t-26 -71q-27 -47 -66 -75.5t-78 -43t-74.5 -19.5t-56.5 -7q-41 -4 -98.5 -5t-110.5 -3q0 70 -1 138.5t-1 137.5z" />
<glyph unicode="Q" horiz-adv-x="1536" d="M102 717q0 -145 35 -273.5t105.5 -226.5t179 -161.5t256.5 -80.5q23 -2 44 -3t44 -3l369 -145q59 -25 99 -40t70.5 -27.5t59.5 -25t66 -26.5l16 8q16 29 26.5 47.5t19.5 35t19.5 33.5t26.5 46l-8 19q-53 12 -114.5 28.5t-124 35.5t-122 40.5t-104.5 40.5q31 14 75 39.5 t90 72t90 118t75 177.5q18 66 28.5 136.5t10.5 148.5q0 119 -31 250t-106.5 241.5t-204.5 182.5t-324 72q-176 0 -302 -61.5t-207 -166t-119 -242t-38 -290.5zM348 727q0 180 43 293t106.5 176.5t136.5 87t134 23.5q98 0 184 -47.5t142 -133.5q29 -45 46 -98t27.5 -107.5 t14.5 -105.5t4 -88t-3 -86t-12.5 -102.5t-26 -106.5t-42.5 -98q-27 -45 -62.5 -84t-81.5 -64q-43 -23 -91 -34t-97 -11q-106 0 -178 38t-119 95.5t-72.5 127t-37 135t-13.5 118t-2 72.5z" />
<glyph unicode="R" horiz-adv-x="1236" d="M147 1432q4 -78 8.5 -152t7.5 -166t4 -214t1 -294q0 -150 -2 -299t-6 -299l12 -14q39 2 63.5 3t46 2t46.5 1h69l13 14q-4 63 -7.5 149.5t-5.5 172.5t-2 160v118h43h33q16 0 31.5 1t40.5 1q18 -25 31.5 -44t32 -46.5t46 -69.5t74.5 -112q49 -76 99.5 -150.5t95.5 -152.5 l24 -43l15 -10q33 4 64.5 5t64.5 3q31 2 61 2h63l9 20q-47 63 -79 105.5t-54.5 74t-42 58.5t-43.5 61q-14 20 -47 68.5t-70 102t-70 99.5t-45 64q98 27 165 70t108.5 96t59 113.5t17.5 122.5q0 147 -69.5 234t-188.5 128q-76 27 -155.5 31t-165.5 4l-125 -2q-53 0 -115.5 -1 t-91.5 -1h-51zM389 1026q0 51 1 107.5t1 146.5q53 2 82 2h51q57 0 106.5 -2t91.5 -13.5t74.5 -33t57.5 -57.5q23 -35 31 -72t8 -70q0 -49 -19.5 -94t-58.5 -78q-37 -33 -86 -49t-104.5 -23.5t-116.5 -7.5h-117q0 86 -1 140.5t-1 103.5z" />
<glyph unicode="S" horiz-adv-x="1110" d="M88 74l8 -15q18 -10 53 -24.5t86.5 -29.5t118 -25.5t148.5 -10.5q133 0 232.5 36t165 96.5t97 139t31.5 165.5q0 98 -33.5 165.5t-85 114.5t-113 78t-116.5 55l-102 45q-47 20 -74 31.5t-42.5 19t-23.5 12.5t-18 11q-16 10 -34.5 23.5t-34 33t-26 45t-10.5 60.5 q0 92 74 146t203 54q115 0 193.5 -30.5t144.5 -63.5l16 8q2 27 4 48.5t3 41t3 41t7 50.5l-11 16q-82 27 -164.5 46.5t-203.5 19.5q-125 0 -242 -39t-188 -142q-33 -47 -48.5 -102t-15.5 -113q0 -94 33 -159.5t83 -111.5t109.5 -78t114.5 -56l102 -45q49 -18 95.5 -40 t81 -50.5t55 -67.5t20.5 -92q0 -47 -17 -88t-53 -74t-92.5 -51t-136.5 -18q-72 0 -130 14t-102 33.5t-77 40t-51 32.5l-21 -8q-2 -29 -4 -52.5t-3 -45t-4 -43t-5 -47.5z" />
<glyph unicode="T" horiz-adv-x="1024" d="M-4 1280l12 -14q68 2 111 3t81 2t80 2t109 1q2 -66 4 -158t2 -248q0 -217 -2 -430t-10 -430l10 -14q43 2 68.5 3t48 2t49.5 1h70l12 14q-2 45 -5 110.5t-5 163t-3 236t-1 330.5v113v88q0 43 1 92t3 127h108h80q39 0 81 -1t108 -3l12 14v39t1 32.5t3 36t4 46.5l-10 14 q-119 -2 -236.5 -3t-236.5 -1q-55 0 -124 -1t-142 -1h-142h-123l-10 -14q-2 -27 -3 -44.5t-1 -31.5t-1 -31.5t-3 -44.5z" />
<glyph unicode="U" horiz-adv-x="1409" d="M150 1432q2 -100 3 -164t2 -123.5t1 -130.5v-180v-209q0 -90 2 -160t12 -127t32.5 -106.5t63.5 -96.5q20 -23 55 -51.5t89.5 -54t130 -43t174.5 -17.5q125 0 236.5 36t185.5 116q45 49 68.5 104.5t34.5 111.5t13 110.5t2 101.5l-2 184q0 57 -1 100.5t-1 77.5v66v63v105 q0 43 1 85t2 90t3 118l-12 14q-31 -2 -51 -3t-39 -1q-18 0 -40.5 -1t-57.5 -1l-10 -14q6 -88 9 -186.5t4 -199t2 -199.5t1 -188q0 -121 -5 -209t-40 -153q-29 -57 -71 -88t-85 -46.5t-80 -18.5t-55 -3q-106 0 -167.5 34t-88.5 67q-53 63 -64.5 161.5t-11.5 251.5v176t1 210 t2 212.5t5 184.5l-10 14q-39 -2 -63.5 -3t-46.5 -1q-23 0 -49.5 -1t-69.5 -1z" />
<glyph unicode="V" d="M0 1432q2 -8 17.5 -58.5t38 -122t48 -155.5t50 -163t44 -142.5t27.5 -92.5q53 -174 103.5 -345t99.5 -345l14 -14q55 2 89 3t63 2t59 1h86l13 14q6 23 12 42.5t12 39.5q45 156 95.5 309.5t99.5 307.5q8 29 26.5 86t40 129.5t46 151.5t47 149.5t40 127t25.5 81.5l-10 14 q-37 -2 -59.5 -3t-42 -2t-44.5 -1h-59l-12 -14q-43 -162 -87 -323t-89 -321l-183 -643l-178 646q-47 170 -73.5 272t-44 167.5t-29 109.5t-25.5 98l-14 14q-39 -2 -64.5 -3t-49 -2t-52.5 -1h-70z" />
<glyph unicode="W" horiz-adv-x="1792" d="M-2 1432q27 -117 58.5 -254.5t64.5 -279.5t63.5 -282.5t57 -259t46 -211t27.5 -137.5l15 -14q53 2 84.5 3t60.5 2t62 1h90l12 14q2 18 9 53t15.5 76t16.5 83t14 75q10 41 17.5 84t15.5 84l170 836l168 -883q10 -55 18.5 -98t16.5 -88.5t17 -98.5t22 -129l14 -14 q51 2 84 3t62.5 2t62.5 1h86l14 14q2 10 4 21.5t4 21.5q35 168 74 334t78 334q43 186 68.5 299t42 184.5t30 120.5t31.5 109l-10 14q-33 -2 -54.5 -3l-43 -2t-46.5 -1h-57l-12 -14q-4 -31 -7 -55.5t-12.5 -70.5t-25 -129t-43.5 -231l-160 -809l-162 864q-4 27 -14 82.5 t-21.5 117t-20.5 113.5t-11 72q-2 14 -3 26.5t-4 25.5l-12 14q-53 -2 -89 -3t-68 -1q-33 0 -72 -1t-96 -1l-13 -14q-14 -78 -22 -126.5t-15.5 -86t-14.5 -75.5t-17 -93l-172 -908l-150 783q-12 68 -24.5 135t-24.5 137q-14 78 -23.5 132t-19.5 108l-12 14q-37 -2 -62.5 -3 t-49.5 -2t-52 -1h-70z" />
<glyph unicode="X" horiz-adv-x="1110" d="M-20 10l12 -16q43 2 68.5 3t49 2t48.5 1h63l17 14q49 90 82.5 153.5t66.5 121t67.5 118t86.5 146.5q53 -96 90 -161.5t68.5 -124t63.5 -119t75 -146.5l16 -10q33 4 63.5 5t63.5 3l117 6l6 17q-109 182 -214.5 363t-209.5 366q57 94 116.5 192t115 188.5t104.5 169 t86 136.5l-10 14q-37 -2 -62.5 -3t-49.5 -2t-50 -1h-66l-14 -14q-45 -88 -75 -146.5t-57.5 -111t-59 -108.5t-78.5 -138q-45 82 -76 141t-60.5 113.5t-60.5 116t-76 151.5l-16 10q-59 -10 -119 -12q-29 -4 -59 -4q-31 0 -60 -2l-10 -19q51 -82 109.5 -181t114 -196.5 t100.5 -178.5t69 -126q-25 -41 -43 -73.5t-40.5 -68.5t-53.5 -83t-76 -119q-27 -41 -51.5 -82t-53 -86t-62 -98t-76.5 -121z" />
<glyph unicode="Y" horiz-adv-x="1110" d="M-14 1425q68 -119 128 -227t114.5 -209.5t104.5 -199t101 -195.5q2 -20 2 -43v-53v-103q0 -63 -1 -134t-3 -138.5t-4 -112.5l12 -14q33 2 57.5 3t49.5 1t52.5 -1t66.5 -1l12 14q-4 55 -5 118t-3 123t-2 114v88v67q0 37 2 88q25 47 41 79t35.5 69t47 88t74.5 135 q59 106 95 171t62 110t47.5 82.5t51.5 91.5l-12 16q-31 -2 -52.5 -3t-42 -2t-44.5 -1h-62l-16 -12q-27 -55 -64.5 -133t-81.5 -165t-90.5 -175.5t-89.5 -163.5q-53 106 -88 173.5t-65.5 129t-64.5 133.5t-87 182q-4 10 -8 17.5t-8 17.5l-17 8q-29 -2 -58.5 -4t-59.5 -4 l-117 -6z" />
<glyph unicode="Z" horiz-adv-x="1067" d="M8 16l12 -18q61 2 115 2h70h397q207 0 399 -2l15 10q4 55 7 85t9 71l-12 12q-109 -4 -183.5 -5t-145 -3t-152.5 -2h-207q168 322 344 645q76 139 128 235.5t91 166t67.5 119.5t57.5 98l-10 20q-53 -2 -120 -3t-175 -1q-158 0 -314.5 1t-314.5 3l-12 -14q-2 -23 -3 -39.5 t-3 -31.5t-4.5 -33.5t-4.5 -43.5l11 -14q113 2 194.5 3t149.5 1h133h141l-225 -424q-113 -211 -225.5 -419t-229.5 -419z" />
<glyph unicode="[" horiz-adv-x="641" d="M182 -432l11 -12h112h90q45 0 94.5 -1t120.5 -1l13 14q0 49 1 74.5t5 60.5l-13 16q-29 -2 -49 -3t-42.5 -2t-49.5 -1h-61q-2 88 -3 160t-2 145.5t-2 158.5t-1 198q0 260 2 517t18 517h53h41t40 -1t54 -1l13 12v37v29q0 14 1 29.5t3 37.5l-13 15q-66 -2 -120 -3t-113 -1 h-92t-92 2l-13 -15q2 -49 4.5 -106.5t4.5 -138t3 -192.5t1 -265q0 -102 -1 -218t-1 -224q0 -109 -1 -201t-1 -144q0 -84 -1 -149.5t-3.5 -121.5t-4.5 -110.5t-6 -111.5z" />
<glyph unicode="\" horiz-adv-x="937" d="M-12 1550q8 -18 24.5 -56t37 -84t43 -98t43 -98.5t36.5 -83t23 -53.5q147 -338 284 -672.5t271 -678.5l16 -15q31 0 50.5 1t37.5 1h39h55l8 17q-18 43 -32.5 73.5t-35 76.5t-53 121t-90.5 208q-51 119 -89 207t-67.5 156.5t-54 126t-48 115.5t-51 125t-64.5 155 q-35 88 -60.5 150.5t-45 113.5t-37 96t-35.5 98l-19 13h-27t-55.5 1t-58.5 1h-33z" />
<glyph unicode="]" horiz-adv-x="641" d="M8 -432l12 -14q66 2 120.5 3t113.5 1h92t92 -2l13 14q-2 49 -4.5 106.5t-4.5 138.5t-3 192.5t-1 264.5q0 100 1 217t1 226t1 200t1 144q0 82 1 148.5t3.5 122.5t4.5 109.5t6 112.5l-11 13h-112h-92q-43 0 -92.5 1t-120.5 1l-13 -15q0 -49 -1 -74.5t-5 -60.5l13 -16 q27 2 48 3t43.5 2t47.5 1h63q2 -88 3 -160.5t2 -146.5t2 -158t1 -197q0 -260 -2 -517t-18 -517h-55h-39q-18 0 -40 1t-54 1l-13 -12v-37v-29q0 -14 -1 -29.5t-3 -37.5z" />
<glyph unicode="^" horiz-adv-x="1492" d="M291 688h196l263 533l254 -533h198l-368 758h-158z" />
<glyph unicode="_" horiz-adv-x="1024" d="M-20 -154v-102h1064v102h-1064z" />
<glyph unicode="`" horiz-adv-x="598" d="M113 1499q37 -53 61.5 -88t46 -67.5t44 -67.5t52.5 -84l13 -12q25 2 40 3t29 1h31h43l10 16q-31 78 -49 125t-29.5 78t-17.5 53.5t-14 50.5l-15 11q-41 0 -69.5 -1t-55.5 -1h-51h-61z" />
<glyph unicode="a" horiz-adv-x="1067" d="M80 317q0 -76 25.5 -139t71.5 -108t109.5 -70t141.5 -25q57 0 104.5 12.5t83 29t60 34t39.5 29.5l-2 -74l8 -12q35 2 58.5 3t44 2t44 2t60.5 1l10 10q-4 49 -6 84t-4 76t-2 96v154v203q0 66 -2 139.5t-13 116.5q-16 59 -50 100t-80 65.5t-100 35t-112 10.5 q-92 0 -180 -18.5t-174 -49.5l-12 -12q0 -16 -1 -28.5t-1 -29.5q0 -14 -1 -35.5t-3 -56.5l16 -10q66 29 138.5 53.5t172.5 24.5q78 0 116 -23.5t54 -52.5q14 -25 16.5 -55.5t2.5 -71.5l-35 -4q-139 -16 -250 -43t-187.5 -73t-118.5 -116.5t-42 -173.5zM297 330 q0 68 34 109.5t89 67t126.5 39t149.5 25.5l19 4v-342q-8 -8 -26.5 -22t-46.5 -29.5t-65.5 -27t-84.5 -11.5q-74 0 -113 28t-57.5 61.5t-21.5 63.5t-3 34z" />
<glyph unicode="b" d="M131 1579q8 -78 12 -147.5t6.5 -151.5t3.5 -181.5t1 -234.5v-305q0 -106 -1 -187t-2 -145.5t-2.5 -117t-3.5 -99.5l13 -12h45h37q16 0 34.5 -1t44.5 -1h43q33 -1 69.5 -1t76.5 1q80 2 163 20.5t161.5 60.5t144.5 120q43 51 68.5 106t39 105.5t16.5 94.5t3 75 q0 121 -35 216t-96.5 161.5t-144.5 101.5t-179 35q-57 0 -104 -10.5t-82 -26t-60.5 -30.5t-40.5 -26l9 621l-15 14l-215 -43zM365 502v149v195q35 23 90 50.5t131 27.5q53 0 106 -20.5t94 -63.5q45 -45 70 -104.5t25 -160.5q0 -98 -28 -177t-75 -128q-43 -47 -94 -70.5 t-100 -34.5t-92 -11h-66l-57 2q-2 117 -3 196.5t-1 149.5z" />
<glyph unicode="c" horiz-adv-x="937" d="M90 520q0 -121 36 -220t102.5 -171t160.5 -112t211 -40q109 0 173.5 24t109.5 46l14 14q2 31 4 51.5t3 39t3 39t6 53.5l-16 8q-14 -12 -37.5 -29.5t-56.5 -34t-76 -27.5t-94 -11q-59 0 -116.5 20t-102.5 64.5t-72 117t-27 176.5q0 98 26 172t70 123t102 74t122 25 q61 0 118.5 -21.5t108.5 -58.5l17 8q2 45 5 75.5t9 86.5l-8 14q-41 16 -110.5 41t-170.5 25q-119 0 -214 -43t-161.5 -120t-102.5 -181.5t-36 -227.5z" />
<glyph unicode="d" d="M88 506q0 -117 34 -214t94 -166t145 -107.5t188 -38.5q55 0 100 11t79 26.5t59.5 33t43.5 31.5l-4 -76l15 -12q35 2 59.5 3t46 2t43.5 1h60l10 14q-4 53 -6 110.5t-5 129.5t-4.5 162t-1.5 209q0 76 1.5 201.5t2.5 267t4 282t9 246.5l-14 12q-35 -8 -58.5 -13t-46 -9 t-48.5 -9.5t-65 -11.5l-10 -12q4 -45 7 -92t6.5 -105.5t4.5 -131t1 -167.5q-41 4 -64 4h-55q-41 0 -95.5 -3t-114.5 -17t-122.5 -42t-118.5 -79q-33 -29 -64.5 -69.5t-57 -95t-42 -123t-16.5 -152.5zM313 506q0 68 12.5 121t31 92t39 65.5t36.5 42.5q37 35 79 54.5t83 29 t76 11.5t59 2q33 0 54.5 -2t47.5 -4q0 -127 1.5 -209t1.5 -150t-1.5 -137.5t-3.5 -169.5q-10 -10 -29.5 -24.5t-48 -30t-66.5 -25.5t-85 -10q-80 0 -131 29.5t-80 62.5q-33 39 -54.5 101.5t-21.5 150.5z" />
<glyph unicode="e" horiz-adv-x="1110" d="M90 524q0 -133 38 -235.5t109.5 -172t172 -105.5t227.5 -36q68 0 123 9.5t96 22.5t68.5 26.5t40.5 19.5l12 15q2 31 3 51t3 38.5t4 40t6 52.5l-16 10q-20 -16 -55 -41.5t-93 -48.5q-86 -31 -178 -31q-25 0 -56.5 3t-67 14.5t-72.5 34t-68 59.5q-53 63 -64.5 133 t-13.5 123q84 0 147.5 1t114.5 1h99h98t111.5 -1t140.5 -1l14 12v84q0 53 -10 113.5t-33.5 121t-66.5 113.5q-47 55 -130 98.5t-206 43.5q-100 0 -190.5 -35t-159 -105.5t-108.5 -177t-40 -250.5zM309 662q8 76 35 130t64.5 87.5t83 49t88.5 15.5q70 0 131 -37t92 -123 q12 -35 15 -66t5 -54q-72 0 -126 -1t-109 -1h-121h-158z" />
<glyph unicode="f" horiz-adv-x="598" d="M8 907l12 -12h68t76 2q0 -35 1 -60.5t1 -52.5v-53v-69q0 -164 -1 -328t-9 -326l10 -14q41 2 67.5 3t49 2t45.5 1h59l10 14q-2 16 -3 32.5t-1 33.5q-10 205 -13 409.5t-3 409.5h51h39q20 0 42.5 -1t55.5 -1l13 12q0 25 1 41.5t2 31.5t2 31.5t3 41.5l-11 12q-8 0 -39.5 -1 t-68.5 -1q-35 0 -63.5 -1t-30.5 -1v61v88q0 39 3 68t9 50.5t18 39.5q25 41 58 51.5t65 10.5q16 0 28.5 -2.5t27.5 -6.5l14 11q4 47 6 75.5t8 71.5l-10 14q-20 2 -37.5 3t-40.5 1t-74 -4t-108 -25.5t-107.5 -70.5t-68.5 -137q-2 -14 -3 -26.5t-2 -31t-1 -42.5v-64l2 -135 q-23 0 -53.5 1t-77.5 3l-13 -12q0 -27 -1 -45.5t-2 -33.5t-2 -31.5t-3 -37.5z" />
<glyph unicode="g" horiz-adv-x="1067" d="M68 -190q0 -66 29.5 -124.5t88 -102.5t144.5 -69.5t200 -25.5q123 0 213.5 31.5t148.5 84t87 118t29 131.5q0 84 -31 138t-73 88t-84 51t-62 24q-23 6 -76 20t-112.5 29.5t-111.5 28t-73 18.5l61 92q23 -4 43.5 -5t47.5 -1q96 0 170.5 28.5t126 76.5t78 112.5t26.5 136.5 q0 59 -20.5 120.5t-75.5 109.5l172 -13l12 13q2 25 3 39t2 26t2 27.5t3 42.5l-10 12q-55 0 -94 -1t-72 -1t-66.5 1t-76.5 1l-51 2q-31 0 -61 1t-54 1q-43 0 -99.5 -4t-114.5 -24.5t-111.5 -60.5t-90.5 -110q-23 -45 -33 -91t-10 -91q0 -94 47 -180t150 -127 q-18 -31 -33.5 -54.5t-31 -46t-33 -48t-41.5 -60.5l4 -24q29 -14 46 -21.5t50 -22.5q-31 -25 -62.5 -52t-58.5 -63t-44 -81t-17 -100zM270 -172q0 70 34 120t87 103l148 -39q49 -12 94 -26.5t80 -36t55 -54t20 -83.5q0 -37 -15 -70t-46 -59.5t-77 -42t-109 -15.5 q-78 0 -130.5 21.5t-83 52.5t-44 65.5t-13.5 63.5zM303 698q0 102 58.5 168t158.5 66q57 0 97 -20.5t65 -54.5t36 -76t11 -83q0 -37 -8 -76.5t-31.5 -73.5t-64.5 -55.5t-105 -21.5q-61 0 -103 21.5t-67.5 54.5t-36 74t-10.5 77z" />
<glyph unicode="h" d="M129 1579q2 -35 4 -65.5t4 -67.5t4 -84t4 -115q2 -129 3.5 -258t1.5 -258q0 -147 -1.5 -258t-3.5 -195.5t-3 -149.5t-3 -120l11 -14q37 2 62.5 3t49 2t48 2t59.5 1l10 12q-4 90 -7 173t-5 174.5t-3 195.5v240q51 37 119 75.5t156 38.5q78 0 123 -42t61 -113 q8 -35 9.5 -70t1.5 -70l2 -219v-161q0 -80 -2 -160l-3 -68l15 -14q35 2 57.5 3t43 2t44 2t60.5 1l12 12q-4 43 -5 73t-2 61.5t-2 72.5t-3 107l-2 96v240q-2 51 -3.5 83.5t-2.5 54t-3 35t-6 29.5q-16 63 -57 114.5t-111 80.5q-33 14 -67.5 19t-69.5 5q-66 0 -121 -13 t-102 -33.5t-83 -42t-61 -38.5q0 166 1.5 331t11.5 331l-13 14q-35 -8 -60.5 -13t-49 -10t-50 -9.5t-63.5 -10.5z" />
<glyph unicode="i" horiz-adv-x="512" d="M127 1024q6 -45 9 -87t6 -104.5t4 -154.5t1 -240q0 -86 -1 -148.5t-3 -111.5t-4 -89t-4 -81l10 -14q37 2 61.5 3t47 2t48.5 2t67 1l10 12q-4 51 -6 94.5t-3 101.5t-2 145t-1 231q0 98 1 170.5t3 128t4 98.5t4 84l-21 12q-39 -8 -65.5 -13t-50 -10t-48 -8.5t-57.5 -9.5z M129 1552q2 -31 3 -56.5t1 -53.5v-41q0 -20 -2 -41l12 -12q37 4 62.5 6t49.5 4t50.5 3t65.5 3l12 14q0 33 -1 56.5t-1 42.5q0 20 1 42.5t1 53.5l-12 12q-39 -4 -64.5 -6t-48 -4t-49.5 -5t-66 -5z" />
<glyph unicode="j" horiz-adv-x="512" d="M-43 -352q14 -47 19.5 -69.5t15.5 -63.5l14 -9q25 6 68 18.5t90 37t91 65.5t75 105q31 68 36 146q4 57 4 134q0 31 -1 66l-2 158q0 197 1 324.5t3 217.5t5 154.5t7 132.5l-16 12q-37 -6 -62.5 -11t-50.5 -9t-52.5 -8.5t-64.5 -10.5l-12 -12q6 -66 10 -124t7 -140t4 -202 t1 -306v-172q0 -63 -2 -121q-4 -137 -39.5 -205.5t-138.5 -91.5zM123 1552q2 -31 3 -56.5t1 -53.5v-41q0 -20 -2 -41l12 -12q37 4 62.5 6t49 4t50.5 3t66 3l12 14q0 33 -1 56.5t-1 42.5q0 20 1 42.5t1 53.5l-12 12q-39 -4 -65 -6t-48.5 -4t-49 -5t-65.5 -5z" />
<glyph unicode="k" horiz-adv-x="1024" d="M127 1577q6 -72 9 -132.5t6 -133t4 -168.5t1 -238q2 -80 3 -162v-159q0 -113 -1.5 -199t-2.5 -153.5t-2 -122t-3 -103.5l13 -12q35 2 58.5 3t43.5 1q23 0 47.5 1t63.5 1l10 14q-2 29 -4 59.5t-3 70.5t-3 92.5t-2 123.5l-5 252q33 -47 86.5 -122.5t110.5 -159.5 t112.5 -170t96.5 -154l16 -12q47 4 84 6t74 2h88l8 21q-74 100 -125 170.5t-97 135t-96 135.5t-122 175q57 68 95 112t75 86t80 91t110 125l-6 18q-84 -4 -131 -4t-94 -2l-18 -12q-82 -113 -169 -218.5t-176 -211.5v424q0 98 1.5 170.5t2.5 135t3 125t4 142.5l-15 12 q-39 -8 -64.5 -13t-48 -9t-47 -8.5t-59.5 -10.5z" />
<glyph unicode="l" horiz-adv-x="512" d="M129 1579q16 -199 18.5 -417t2.5 -431q0 -147 -1.5 -258t-3.5 -195.5t-3 -149.5t-3 -120l11 -14q37 2 60 3l46 2t47.5 2t61.5 1l12 12q-4 74 -7 144.5t-5.5 160t-3.5 208t-1 286.5q0 203 2.5 403.5t12.5 403.5l-13 14q-39 -8 -64.5 -13t-48 -10t-48 -9.5t-62.5 -10.5z " />
<glyph unicode="m" horiz-adv-x="1835" d="M131 1024q4 -35 8 -81t7.5 -114.5t5.5 -169t2 -243.5q0 -158 -3.5 -253t-5.5 -157l13 -12q37 2 59.5 3t44 2t43.5 1h66l12 14q-4 43 -6 86t-4 93.5t-3 114t-1 149.5v350q72 57 137 80.5t121 23.5q45 0 75.5 -14t50 -35.5t30 -47.5t16.5 -50q10 -41 12 -86t2 -123v-115 t-2 -139.5t-4 -149t-4 -145.5l12 -12q37 2 59.5 3t44 2t46.5 1h65l10 14q-4 53 -6 97.5t-4 90.5t-2 101v135v117v57q0 37 -1 74t-3 69.5t-4 49.5q86 68 154.5 86t107.5 18q86 0 126 -47t54 -112q8 -35 9.5 -80t1.5 -142q0 -125 -1.5 -259t-5.5 -263l13 -12q35 2 58.5 3t45 2 t43.5 1h62l12 14q-4 70 -6 120t-4 99.5t-2 108.5v147v175q0 66 -2.5 114.5t-11.5 88.5t-28.5 74t-56.5 69q-43 43 -102.5 62.5t-116.5 19.5q-72 0 -135.5 -17.5t-114.5 -42t-88 -49.5t-55 -39q-10 18 -28.5 43t-48.5 48.5t-76 40t-111 16.5q-59 0 -111.5 -13.5t-95.5 -33 t-78 -43t-61 -41.5l6 104l-13 14q-45 -10 -93 -19t-126 -22z" />
<glyph unicode="n" d="M127 1024q4 -51 8 -111.5t8 -136.5t6.5 -172t2.5 -219q0 -115 -2.5 -203t-4.5 -174l11 -14q37 2 61.5 3t46 2t46 2t61.5 1l12 12q-6 90 -9 173t-5 174.5t-1 195.5v240q20 16 47 35.5t62 37t75 29.5t87 12q10 0 34.5 -2t53.5 -17t55.5 -47t40.5 -89q4 -16 6 -32.5 t4.5 -54.5t2.5 -106v-186v-152q0 -74 -2 -149q0 -16 -1.5 -33.5t-1.5 -34.5l15 -14q35 2 57.5 3t43 2t44 2t60.5 1l12 12q-2 29 -4 63t-3 81t-3 111.5t-4 154.5v240q-2 96 -6.5 149t-24.5 100q-35 84 -119 134q-41 23 -86 30.5t-84 7.5q-68 0 -125 -14t-103 -34.5t-79 -42 t-53 -36.5l2 107l-15 14q-37 -6 -60.5 -11t-46 -9t-47 -9.5t-63.5 -11.5z" />
<glyph unicode="o" d="M90 532q0 -25 2 -73.5t16.5 -107t42 -121t80.5 -115.5q49 -51 138.5 -94.5t228.5 -43.5q109 0 198 29t156 96q100 100 133 248q10 47 14.5 96.5t4.5 102.5q-4 109 -28.5 211t-96.5 184q-68 78 -165 113t-202 35q-78 0 -138 -14.5t-107.5 -36t-81 -46t-54.5 -47.5 q-51 -51 -79.5 -111.5t-42 -119t-16.5 -107.5t-3 -78zM315 528q0 66 10.5 146t51.5 143q27 43 59.5 66.5t65.5 36t59.5 14.5t40.5 2q86 0 138.5 -35t80.5 -82q18 -35 30.5 -74.5t19 -78.5t8.5 -73t2 -52v-49q0 -31 -5.5 -69t-14.5 -79t-27 -76q-45 -84 -111 -110.5 t-123 -26.5q-31 0 -61.5 6t-59.5 21q-61 31 -94 81t-48 104t-18.5 104.5t-3.5 80.5z" />
<glyph unicode="p" d="M127 1026q8 -88 13 -163t8.5 -152.5t4.5 -168.5t1 -210q0 -92 1 -181.5t1 -181.5q0 -78 -1 -142.5t-2 -119.5t-2 -104t-4 -97l11 -12l215 6l12 13q-4 72 -7 123t-4 102t-3 112.5t-2 153.5q23 -2 43 -3t49 -1q162 0 282.5 47t200.5 128t120 188.5t40 226.5q0 109 -33 201 t-91 158.5t-139 104.5t-179 38q-59 0 -108.5 -12.5t-86.5 -31t-63.5 -37t-41.5 -30.5l5 86l-15 12q-35 -6 -58.5 -11t-46 -10t-48 -9.5t-62.5 -10.5zM362 518q0 78 1.5 157t3.5 159q35 25 93 55.5t142 30.5q123 0 200 -92.5t77 -252.5q0 -94 -29 -171.5t-83 -134t-134 -87 t-180 -30.5q-27 0 -46.5 2t-39.5 4q-2 90 -3.5 179t-1.5 181z" />
<glyph unicode="q" d="M90 498q0 -106 32 -201.5t90 -166.5t142 -113t189 -42q57 0 103 11.5t83 27t65.5 32.5t47.5 30q0 -92 1 -156q1 -33 1 -64t-1 -62q-1 -60 -3 -126.5t-4 -161.5l12 -12l211 6l10 13l-4 88q-6 162 -8 321.5t-2 319.5q0 205 2 407.5t12 407.5l-14 12q-16 0 -58.5 1t-88.5 2 t-87 2t-55 1q-70 0 -156 -7t-172 -38t-163.5 -93.5t-129.5 -172.5q-29 -61 -42 -129t-13 -137zM317 502q0 111 36 187.5t83 119.5q39 37 86 56.5t92 28.5t84 11t64 2h78v-663q-29 -23 -85.5 -53.5t-150.5 -30.5q-78 0 -132 29.5t-88 77.5t-50.5 109.5t-16.5 125.5z" />
<glyph unicode="r" horiz-adv-x="681" d="M131 1024q4 -45 8 -87t6 -99.5t3.5 -139.5t1.5 -204q0 -143 -1.5 -257t-3.5 -231l11 -12q37 2 61.5 3t47 2t46.5 1h62l10 14q-4 43 -6 89.5t-4 101.5t-3 122.5t-1 153.5q0 80 1 138.5t9 100.5t25.5 71.5t48.5 52.5q14 10 35.5 18t50.5 8q27 0 46 -6t36 -12l14 10 q6 33 9 56.5t7 45t9.5 46t13.5 61.5l-8 12q-12 4 -24.5 5.5t-33.5 1.5q-66 0 -109.5 -21.5t-71.5 -52.5t-44 -64.5t-25 -58.5l11 174l-13 12q-66 -12 -109.5 -21t-103.5 -20z" />
<glyph unicode="s" horiz-adv-x="894" d="M72 776q0 -80 29.5 -132t72.5 -86t89 -51.5t77 -27.5l66 -22q94 -31 153 -64t59 -102q0 -25 -12 -51.5t-37.5 -49t-67.5 -38t-104 -15.5q-59 0 -105 11.5t-82 26.5t-59.5 32.5t-37.5 28.5l-21 -7q-2 -31 -3 -50t-2 -36.5t-3 -36t-4 -49.5l10 -18l31 -12 q59 -23 127.5 -37.5t152.5 -14.5q27 0 67 2.5t84 12.5t90 29.5t87 54.5q63 51 89 115.5t26 125.5q0 82 -31 136.5t-73 89t-88 53t-77 29.5l-73 22q-96 29 -153.5 58.5t-57.5 95.5q0 47 32.5 78.5t79.5 44.5q23 6 44.5 8t44.5 2q100 0 162.5 -29t101.5 -53l18 8q2 29 4 47.5 t3 34.5t3 33.5t7 46.5l-11 14q-29 10 -104.5 34t-190.5 24q-86 0 -161.5 -19.5t-131 -59.5t-88 -98.5t-32.5 -138.5z" />
<glyph unicode="t" horiz-adv-x="641" d="M10 905l8 -12q27 0 44.5 1t30.5 2t30 1h43l-4 -451q0 -90 1 -148t4 -95t10 -60.5t22 -46.5q25 -41 58.5 -62.5t68 -30.5t65.5 -11t49 -2q57 0 89 5t65 13l10 12q0 23 1 38.5t2 29.5t2 31.5t3 42.5l-14 12q-16 -6 -41 -12t-57 -6q-39 0 -62.5 9t-37 32.5t-17.5 61.5t-4 93 v35v51q0 27 -1 50.5t-1 33.5l4 381h65q27 0 48.5 -1t46 -2t63.5 -1l10 12v45t1 34t2 31t4 36l-11 12q-43 -2 -72.5 -3t-54.5 -1q-23 0 -45 -1t-55 -1v92t1 68.5t3 65.5t4 85l-14 10l-59.5 -17t-46 -13t-45 -12.5t-58.5 -14.5l-10 -14l6 -117v-66t2 -65q-34 -1 -57 -1h-21 q-27 1 -61 1l-13 -12v-43v-33q0 -14 -1 -30.5t-3 -41.5z" />
<glyph unicode="u" d="M131 1049q2 -41 3 -74t2 -77t2 -109.5t3 -176.5v-127q0 -59 3 -120.5t15.5 -119t39 -109.5t75.5 -91t112 -54.5t122 -15.5q63 0 114.5 13.5t92.5 33t69.5 39t44.5 31.5l-2 -86l13 -12q35 2 58.5 3t45 2t45 2t60.5 1l8 12q-2 23 -3 43.5t-1 42.5q-4 66 -7.5 183.5 t-3.5 308.5q0 125 1 237.5t6 229.5l-13 14q-35 -2 -59.5 -3t-46 -2t-46 -2t-59.5 -1l-12 -14q4 -49 7 -90t4 -91.5t2 -119t1 -175.5v-165q0 -74 -2 -158q-18 -14 -43.5 -32.5t-57.5 -35t-71 -28t-84 -11.5q-78 0 -120.5 30t-62 73t-25 89t-5.5 79q-1 49 -1 83v31q1 40 1 80 l9 449l-13 14q-37 -4 -60.5 -5t-45 -2t-45 -2t-60.5 -1z" />
<glyph unicode="v" horiz-adv-x="937" d="M-8 1044q92 -258 172 -516t155 -520l13 -14q45 2 74.5 3t57.5 2t57.5 2t72.5 1l12 12q80 264 164 523.5t178 519.5l-10 14q-31 0 -50.5 -1t-39.5 -1h-43t-60 2l-14 -10q-6 -27 -13 -57.5t-18.5 -74.5t-29 -106.5t-41.5 -150.5q-8 -31 -29.5 -103.5t-44.5 -153.5t-43 -154 t-29 -99q-63 227 -124.5 452.5t-118.5 454.5l-17 10q-37 -4 -62.5 -6t-49 -4t-49 -4t-62.5 -4z" />
<glyph unicode="w" horiz-adv-x="1622" d="M-10 1047q16 -51 50 -168t76 -264.5t84 -308.5t76 -298l13 -14q49 2 78.5 3t57.5 2t60.5 2t85.5 1l13 12q6 33 14 68t19.5 82t28 111.5t38.5 156.5l121 504l119 -492q27 -111 53.5 -226.5t44.5 -209.5l14 -14q47 2 77 3t57.5 2t60.5 2t84 1l14 12q20 88 49 190.5 t58.5 208t60.5 208t57.5 188.5t47 150.5t30.5 93.5l-12 12q-23 0 -46.5 -1t-45.5 -1q-25 0 -50.5 1t-50.5 1l-14 -12q-4 -29 -8 -49.5t-9 -44t-13.5 -56.5t-20.5 -84l-49 -215l-115 -477l-108 434q-14 57 -30 123t-31 130.5t-29.5 125.5t-24.5 115l-12 14q-51 -2 -86 -3 t-66 -2t-63 -1h-76l-15 -14q-4 -25 -8 -46.5t-12 -58.5t-21.5 -97.5t-35.5 -162.5l-134 -551l-98 422q-33 141 -53.5 229t-32.5 142.5t-18 84t-11 54.5l-12 12q-37 -4 -62.5 -6t-49 -4t-49 -3t-62.5 -3z" />
<glyph unicode="x" horiz-adv-x="937" d="M4 14l6 -16q39 2 67.5 3t53.5 1t50.5 -1t62.5 -1l14 10q8 14 33.5 61.5t57.5 104.5t64.5 114.5t55.5 94.5q53 -96 106.5 -193.5t102.5 -195.5l12 -10q45 2 78 5t58.5 5t49 3t50.5 3l10 18q-16 25 -47 72t-68 104.5t-74.5 118t-70.5 112.5t-55.5 88t-28.5 46 q25 37 69 104.5t92 141.5t93 140.5t72 103.5l-7 18q-31 0 -52 -1t-44 -1h-47h-63l-17 -12q-18 -39 -33.5 -69t-35 -63.5t-46 -79.5t-69.5 -118q-31 49 -53.5 90t-42 80t-40 81t-44.5 93l-11 8q-37 -4 -63.5 -6l-53 -4t-54 -4t-66.5 -4l-6 -19q78 -123 153.5 -245.5 t151.5 -249.5q-37 -55 -89.5 -132t-105.5 -154t-101 -142.5t-75 -102.5z" />
<glyph unicode="y" horiz-adv-x="937" d="M-14 1038q23 -53 60.5 -149t80.5 -212t88 -237t82 -221t59.5 -166.5t22.5 -72.5q-4 -12 -6 -17q-16 -53 -40 -103t-46 -102q-27 -59 -50.5 -118.5t-52.5 -116.5l-8 -15l8 -14q37 2 60.5 3t46.5 1t47 1t63 1l19 17q33 143 77 282.5t91 280.5q12 35 36.5 101.5t55.5 150.5 t65.5 180t71.5 192.5t72 186.5l63 162l-6 18q-70 -2 -115 -2h-83l-15 -12q-25 -88 -59.5 -204t-67.5 -222l-117 -361l-129 392q-16 49 -30.5 93t-28.5 90t-30.5 98t-37.5 122l-12 12q-39 -4 -65.5 -7t-49 -5t-48 -4t-64.5 -4z" />
<glyph unicode="z" horiz-adv-x="894" d="M27 12l8 -18q47 2 79.5 3t71.5 1h95h145h82t120.5 1t119.5 1h79l13 10q2 45 5 75t9 77l-10 12q-104 -4 -231.5 -7t-260.5 -5q14 27 44 82t70 128.5t88 162t98 178.5t101.5 178t96.5 162l-10 16q-133 -2 -217 -3t-157 -2t-155 -1h-211l-12 -12q-2 -23 -3 -37.5t-3 -29.5 t-4 -32.5t-4 -42.5l10 -12q49 2 88 3t85 2t110.5 2t167.5 1q-39 -74 -101.5 -186.5t-133.5 -237.5t-143.5 -248.5t-129.5 -220.5z" />
<glyph unicode="{" horiz-adv-x="724" d="M125 510q37 -10 66.5 -26.5t54.5 -71.5q16 -39 20 -89.5t4 -142.5v-198q0 -66 3 -116t10.5 -90t23 -72t39.5 -58q27 -31 55.5 -47.5t66.5 -25.5t88 -13t124 -6v102q-41 10 -89 29.5t-81 76.5q-23 37 -28 88.5t-7 147.5v96v92q0 47 -2 95q-2 76 -16.5 125t-37 79.5t-54 47 t-68.5 28.5q37 12 68.5 28.5t54 47.5t37 79t16.5 126q2 47 2 92v94v94q2 96 7 147.5t28 88.5q33 57 81 76.5t89 29.5v103q-74 -4 -124 -7.5t-88 -12.5t-66.5 -25.5t-55.5 -46.5q-25 -29 -40 -61t-22.5 -71.5t-10.5 -90t-3 -113.5v-197q0 -92 -4 -142t-20 -89 q-25 -55 -54.5 -71.5t-66.5 -27.5v-102z" />
<glyph unicode="|" horiz-adv-x="468" d="M152 -512h163v2048h-163v-2048z" />
<glyph unicode="}" horiz-adv-x="724" d="M45 -344v-102q74 2 124 6t88 13t65.5 25.5t56.5 47.5q25 27 40 58.5t22.5 71.5t10.5 90t3 116v196q0 92 4 142.5t20 89.5q25 55 54.5 71.5t66.5 26.5v102q-37 10 -66.5 26.5t-54.5 72.5q-16 39 -20 89t-4 142v199q0 63 -3 113.5t-10.5 90t-23 71.5t-39.5 61 q-29 31 -56.5 47t-65.5 25t-88 12.5t-124 7.5v-103q41 -10 89 -29.5t81 -76.5q23 -37 28 -88t7 -148v-96v-94q0 -45 2 -92q2 -78 15.5 -126t37 -79t55 -47.5t68.5 -28.5q-37 -12 -68.5 -28.5t-55 -47t-37 -80t-15.5 -124.5q-2 -47 -2 -95v-92v-94q-2 -96 -7 -147.5 t-28 -88.5q-33 -57 -81 -76.5t-89 -29.5z" />
<glyph unicode="~" horiz-adv-x="1492" d="M254 592l82 -146q33 39 55.5 65t44 42t43 23.5t51.5 7.5q41 0 83 -15.5t81 -33.5l58 -29q68 -31 111.5 -48.5t94.5 -17.5q49 0 92.5 16.5t79 41t63.5 53.5t46 53l-78 146q-14 -18 -34.5 -41t-46 -42.5t-55.5 -31.5t-60 -12q-33 0 -65 11t-79 32l-67 30 q-55 27 -110.5 48.5t-117.5 21.5q-59 0 -104 -20.5t-78 -48t-55.5 -57.5t-34.5 -48z" />
<glyph unicode="&#xa1;" horiz-adv-x="555" d="M82 8l12 -14q45 2 75 3t54.5 2t48.5 1h66l12 14q-6 84 -10 184.5t-7 207t-6 212t-4 199.5t-1 170v127l-13 14q-31 -2 -49 -3t-33.5 -2t-34 -2t-47.5 -1l-10 -12q0 -80 -2 -175t-7 -198.5t-10 -208t-11.5 -201t-12.5 -178t-10 -139.5zM96 1335l19 -18q37 2 61.5 3t46 2 t47 2t66.5 1l16 18q-2 27 -2 52v55v53q0 27 2 56l-14 14q-35 -2 -60.5 -3t-50 -2t-52.5 -2t-64 -3l-15 -17q0 -33 1 -56.5t1 -45.5q0 -23 -1 -48.5t-1 -60.5z" />
<glyph unicode="&#xa2;" horiz-adv-x="980" d="M90 526q0 -55 11.5 -129.5t43 -148.5t91 -138.5t155.5 -97.5q-8 -29 -14 -49t-12.5 -39.5t-13.5 -43t-17 -56.5l8 -12h33h22q12 0 24.5 -1t33.5 -1l14 10q4 27 8 46t7 36.5t7.5 36t10.5 47.5q23 -4 42 -7.5t54 -3.5q115 0 183.5 26t107.5 44l12 14q0 29 1 49.5t3 39t4 39 t6 49.5l-18 8q-16 -12 -41 -29.5t-58.5 -35t-76.5 -30t-94 -12.5q-27 0 -49.5 3t-38.5 7l194 775q51 -16 77 -32t58 -46l21 8q4 29 7 48.5t5 36.5t5 34.5t7 42.5l-6 10q-35 18 -61.5 28.5t-75.5 24.5q6 20 10 35.5t8.5 32t10.5 38t14 54.5l-10 12q-35 -2 -53 -2q-16 0 -58 2 l-12 -12q-4 -27 -7 -43t-5 -30.5t-5.5 -30t-9.5 -39.5q-16 0 -28.5 1t-28.5 1q-96 0 -187.5 -37t-162 -108.5t-113.5 -178t-43 -246.5zM301 522q0 10 1 44t10.5 80t28.5 97.5t54 94.5t89.5 71.5t131.5 28.5l-182 -748q-14 12 -36.5 36t-44 64t-37 96t-15.5 136z" />
<glyph unicode="&#xa3;" horiz-adv-x="980" d="M16 641l13 -12l135 4q0 -121 -11.5 -217.5t-26.5 -173t-33.5 -134t-33.5 -100.5l9 -14q49 2 122.5 4t200.5 2q29 0 97.5 -1t144.5 -1t143.5 -1t93.5 -1h56l12 12q0 27 1 44.5t1 33.5t1 32.5t3 39.5l-14 14q-41 -4 -73 -5t-64.5 -2t-73.5 -1h-101h-63t-102.5 -1t-98.5 -1 h-51q27 82 51.5 194.5t22.5 276.5h160h102t79 -1t91 -1l12 14q2 23 3 37t2 26.5t2 27t3 38.5l-10 10q-74 -2 -125 -4t-97 -3t-99 -1h-125l-2 78q-2 49 -2 61v29q0 61 10 116.5t40 96.5t82 65.5t138 24.5q37 0 108.5 -12t157.5 -59l17 8q2 25 3 43t2 34.5t3 34t6 41.5l-12 17 q-86 35 -171 46t-145 11q-94 0 -184 -24.5t-158 -90.5q-41 -41 -64.5 -88t-33.5 -92t-12 -85t-2 -66q0 -12 1 -39t2 -56.5t2 -56.5t1 -37l-131 4l-11 -14q-2 -35 -3 -57.5t-1 -67.5z" />
<glyph unicode="&#xa4;" horiz-adv-x="1366" d="M86 221l123 -123l156 156q31 -20 62.5 -39.5t68 -34t83 -22.5t105.5 -8q57 0 100 8t80 21.5t69 31.5t64 41l156 -158l125 123l-156 158q20 33 40 64.5t34 68.5t22.5 84t8.5 108q0 57 -8.5 100.5t-22.5 80.5t-32.5 68.5t-39.5 64.5l156 153l-125 125l-156 -155 q-33 20 -63.5 39.5t-67.5 34t-81 22.5t-101 8q-63 0 -113.5 -10t-89.5 -26.5t-67.5 -35t-50.5 -32.5l-154 153l-123 -123l154 -153q-12 -18 -30.5 -47t-35 -67t-28 -88t-11.5 -114q0 -61 8.5 -106t22.5 -82t33.5 -68.5t40.5 -64.5zM301 698q0 82 29.5 153t82 122t123 79.5 t150.5 28.5q70 0 138.5 -26.5t121.5 -75.5t85 -121t32 -162q0 -88 -32 -159.5t-84 -121.5t-120.5 -78t-144.5 -28q-74 0 -142.5 28t-121.5 78t-85 121.5t-32 161.5z" />
<glyph unicode="&#xa5;" horiz-adv-x="1110" d="M0 1366q39 -68 67.5 -117t52 -89t43 -75.5t41 -74.5t47 -87.5t60.5 -113.5q-59 0 -83.5 1t-49.5 1l-14 -14q0 -18 -1 -30.5t-2 -24t-3 -26t-4 -36.5l12 -14q31 0 84 1t137 1q2 -6 10.5 -20.5t16.5 -30t15 -29t9 -19.5q2 -29 2 -43v-30h-75q-43 0 -83 1t-71 1h-33l-14 -15 q0 -18 -1 -30.5t-2 -23.5t-3 -25.5t-4 -34.5l12 -17q20 0 78.5 1t193.5 1v-63v-92t-1 -68t-2 -58.5t-3 -62.5l12 -14q35 2 59.5 3t47.5 1h49h64l12 14q-2 43 -3 74t-2 66.5t-2 82t-1 117.5h155h31h23q12 0 24 -1t33 -1l12 13q2 37 4 60.5t6 61.5l-12 13q-25 -2 -46 -3 t-60 -1h-170q-2 23 -1 43t1 47q10 18 19 38.5t24 43.5h94h59q23 0 37 -1t33 -1l12 12q2 37 4 60.5t6 62.5l-12 10q-29 -2 -41 -2h-33h-82q27 49 48.5 88t42 75t41 72.5t47 83t61.5 106.5t82 142l-12 17q-33 -2 -56.5 -3t-44 -2.5t-43.5 -1.5h-53l-16 -12q-25 -55 -64 -134 t-83 -164t-88 -167t-81 -145q-33 63 -64.5 125.5t-68.5 134.5t-81 160t-99 205l-14 10q-29 -4 -58.5 -5t-58.5 -3t-57.5 -3.5t-57.5 -3.5z" />
<glyph unicode="&#xa6;" horiz-adv-x="468" d="M154 389v-780h163v780h-163zM154 631h163v780h-163v-780z" />
<glyph unicode="&#xa7;" horiz-adv-x="1024" d="M55 649q0 -156 133 -258q29 -23 62 -40t96 -50l109 -53q37 -18 58.5 -28.5t34.5 -16.5t22.5 -11.5t19.5 -11.5q16 -8 36.5 -21.5t39 -31.5t31 -44t12.5 -58q0 -72 -67 -115t-171 -43q-66 0 -118 14.5t-93 32.5t-69.5 37.5t-43.5 30.5l-18 -9v-43q0 -18 -1 -34.5t-2 -36 t-3 -47.5l8 -15q82 -43 172 -64.5t182 -21.5q104 0 178 21.5t122.5 54.5t75 73t39.5 76.5t16.5 66.5t3.5 40q0 55 -13.5 95t-35 71t-47 53.5t-48.5 40.5q18 10 52 32.5t66 60.5t56.5 91.5t24.5 124.5q0 74 -27.5 127.5t-70.5 92t-92.5 66.5t-92.5 48l-127 64q-57 29 -99 51 t-69.5 44.5t-42 47.5t-14.5 55q0 25 11 50.5t37 47t68 35t103 13.5q74 0 145.5 -20.5t137.5 -59.5l14 8q2 27 3 46.5t2 35.5t3 32.5t4 39.5l-10 16q-92 35 -171 48t-142 13q-96 0 -169 -22.5t-120 -56.5q-14 -10 -33.5 -30t-38 -49.5t-32 -70.5t-13.5 -92q0 -47 11.5 -83 t29 -63.5t39 -48t41.5 -39.5q-18 -12 -53 -33.5t-69 -58.5t-58.5 -90t-24.5 -127zM236 690q0 39 15 68.5t36.5 52.5t47 39t46.5 29q23 -14 35 -21.5t35 -17.5l84 -43q63 -33 111 -58.5t80 -51t47 -55.5t15 -69q0 -37 -16 -66.5t-38.5 -53t-47 -41t-41.5 -25.5l-188 98 q-59 31 -101.5 55.5t-69 47t-38.5 49t-12 63.5z" />
<glyph unicode="&#xa8;" horiz-adv-x="598" d="M-33 1262l13 -17q35 2 57 3t45 1h47h68l12 17q0 27 -1 48t-1 44t1 48.5t1 61.5l-14 17q-35 -2 -57.5 -3t-45.5 -1h-45h-63l-17 -19q2 -35 2 -59v-45v-43t-2 -53zM385 1266l12 -17q37 0 62.5 1t48.5 1h49h59l15 17q-2 37 -3 62.5t-1 47.5q0 23 1 43.5t1 48.5l-15 15 q-37 -2 -62.5 -3t-47.5 -1q-23 0 -46.5 1t-56.5 1l-16 -15q0 -31 1 -52t1 -44q0 -20 -1 -46t-1 -60z" />
<glyph unicode="&#xa9;" horiz-adv-x="1705" d="M125 723q0 -162 60.5 -296t162 -230.5t232.5 -149.5t272 -53q102 0 194.5 25.5t171 69.5t142 103.5t106.5 126.5q53 86 85 188.5t32 211.5q0 156 -56.5 290t-153.5 232t-230 154.5t-287 56.5q-152 0 -285 -56.5t-232 -154.5t-156.5 -231t-57.5 -287zM190 721 q0 141 52.5 262t143.5 211t212 141t260 51q145 0 266 -54t209 -145t136.5 -212t48.5 -254q-2 -147 -56.5 -269t-144.5 -209t-209 -135.5t-250 -48.5q-143 0 -265 53.5t-211 143.5t-140.5 210t-51.5 255zM385 725q0 -104 36 -193.5t100.5 -154t152.5 -100t192 -35.5 q86 0 150.5 21.5t112 50t79 60.5t49.5 54l-114 100q-16 -18 -40 -41.5t-56.5 -43t-76.5 -34t-102 -14.5q-61 0 -119.5 22.5t-103.5 65.5t-72.5 104.5t-27.5 137.5t25.5 137.5t70.5 105.5t103.5 67.5t125.5 23.5q55 0 97.5 -14.5t76 -36t57 -46t42.5 -42.5l112 108 q-18 20 -48.5 52t-78 60.5t-112 50t-150.5 21.5q-106 0 -194 -38.5t-151.5 -104t-99.5 -155t-36 -189.5z" />
<glyph unicode="&#xaa;" horiz-adv-x="681" d="M43 954q0 -98 63.5 -162.5t167.5 -64.5q61 0 98.5 17.5t73.5 39.5v-30l11 -15q27 2 69.5 3t69.5 1l12 13q-6 59 -7 122.5t-1 143.5v129q0 68 -1 103.5t-9 62.5q-18 72 -77.5 106.5t-150.5 34.5q-59 0 -116.5 -11t-112.5 -34l-12 -10q0 -4 -1 -19.5t-1 -33.5 q0 -16 -1 -31.5t-1 -20.5l18 -12q61 29 106.5 40t90.5 11q43 0 65.5 -10t33.5 -26.5t13 -36t2 -39.5l-14 -2q-86 -10 -157.5 -27.5t-123 -47.5t-80 -77t-28.5 -117zM199 965q0 39 19.5 64.5t53 40.5t78.5 23.5t96 16.5h3v-205q-6 -6 -41 -29.5t-95 -23.5q-43 0 -66.5 15.5 t-33.5 36t-12 39t-2 22.5z" />
<glyph unicode="&#xab;" horiz-adv-x="894" d="M59 543q4 -4 19.5 -31t34 -58.5t35 -62.5t22.5 -41q6 -12 12 -23.5t16.5 -31t26 -50t39.5 -81.5l12 -10q25 0 43.5 1t34.5 1h39h53l11 16q-8 12 -36 59.5t-61.5 107.5t-67.5 120.5t-52 101.5q33 63 53 101t49 90q6 12 21.5 39.5t32 58.5t30.5 57.5t20 36.5l-8 17h-82 t-77 2l-15 -11q-37 -84 -87 -181t-116 -208zM397 553q47 -80 80 -137.5t56.5 -100.5t42 -77.5t34.5 -67.5l13 -10h161l11 16q-6 10 -20.5 37t-31 55.5t-31 54t-20.5 35.5q-29 49 -45 79t-27.5 51.5t-21.5 40t-23 42.5q14 31 39 78t53.5 99.5t58.5 104.5t56 93l-8 15h-84 q-23 0 -44 1t-44 1l-14 -11q-25 -51 -39 -80.5t-22.5 -48t-13.5 -28t-9 -19.5q-6 -12 -21.5 -41.5t-33 -61.5t-32 -60.5t-20.5 -39.5v-20z" />
<glyph unicode="&#xac;" horiz-adv-x="1366" d="M0 518h1202v-518h164v680h-1366v-162z" />
<glyph unicode="&#xad;" horiz-adv-x="681" d="M59 506l13 -17q82 2 160.5 3.5t160.5 1.5q76 0 119 -1t86 -4l12 13q2 25 3 42t2 33.5t3.5 34t4.5 43.5l-11 13q-27 -2 -46 -3t-39.5 -2t-45.5 -1h-59q-84 0 -168 1t-168 3l-14 -15q0 -25 -1 -42t-3 -32.5t-4.5 -32t-4.5 -38.5z" />
<glyph unicode="&#xae;" horiz-adv-x="1705" d="M125 721q0 -162 60.5 -295t160.5 -229.5t232.5 -149.5t273.5 -53q154 0 287 56t231 154.5t155.5 230.5t57.5 284q0 150 -54 283t-151.5 233t-231.5 158.5t-294 58.5q-147 0 -279.5 -55.5t-231.5 -152.5t-157.5 -231t-58.5 -292zM190 721q0 137 51.5 258t141.5 212 t211 143t262 52t263 -53t211 -144t138.5 -212t49.5 -258t-51.5 -258t-140.5 -210t-210 -140.5t-262 -51.5q-137 0 -258 51.5t-211 140.5t-142.5 210t-52.5 260zM545 268h164v412h57q45 0 79 -4t59.5 -18.5t42 -43t24.5 -77.5q2 -8 6 -28t7 -43.5t6 -43t3 -27.5 q10 -59 21.5 -87.5t17.5 -39.5h189q-16 31 -26.5 57.5t-18 57.5t-13.5 67.5t-14 90.5q-8 47 -19.5 77.5t-27 52t-37 36t-49.5 26.5q90 23 140 77t50 142q0 66 -36.5 126.5t-110.5 86.5q-43 16 -93.5 19.5t-121.5 3.5h-299v-920zM711 811v250h104h66q27 0 44 -1t28.5 -4 t23.5 -7q39 -18 52 -51t13 -58q0 -49 -21.5 -75.5t-52 -38t-64.5 -13.5t-58 -2h-135z" />
<glyph unicode="&#xaf;" horiz-adv-x="598" d="M-25 1294l13 -14q98 0 196.5 1t196.5 1h70q31 0 54 -1t46 -1h47l14 10q0 23 1 39.5t3 31.5t3.5 32.5t5.5 42.5l-13 12q-29 -2 -50 -3t-44.5 -2t-52.5 -1h-66h-198t-199 4l-14 -14q0 -23 -2 -39.5t-3 -30.5t-3.5 -30.5t-4.5 -37.5z" />
<glyph unicode="&#xb0;" horiz-adv-x="724" d="M33 1219q0 -70 25.5 -130.5t70.5 -105.5t105.5 -70.5t130.5 -25.5q68 0 128 25.5t105 70.5t70.5 105.5t25.5 130.5q0 68 -25.5 128t-70.5 105t-105.5 70.5t-127.5 25.5q-70 0 -130.5 -25.5t-105.5 -70.5t-70.5 -105t-25.5 -128zM201 1219q0 66 48 113.5t116 47.5 q66 0 113.5 -48t47.5 -113q0 -68 -48 -116t-113 -48q-68 0 -116 48t-48 116z" />
<glyph unicode="&#xb1;" horiz-adv-x="1366" d="M84 0h1196v162h-1196v-162zM84 772h520v-496h162v496h514v162h-514v496h-162v-496h-520v-162z" />
<glyph unicode="&#xb2;" horiz-adv-x="811" d="M49 502l12 -25q29 0 80.5 1t114.5 1t132 1t132 1h115h78l12 13v51t2 53l-12 14q-68 -2 -111 -3t-82 -2t-80 -1h-104q88 88 154.5 158t111.5 129t68.5 115.5t23.5 115.5q0 53 -20.5 103.5t-61.5 88.5t-102 61.5t-141 23.5q-113 0 -179.5 -32t-93.5 -50l-10 -12 q0 -35 -1 -77t-1 -56l23 -11q12 12 33.5 30.5t50 36t67.5 30t88 12.5q94 0 140.5 -50.5t46.5 -111.5q0 -37 -15.5 -74t-39 -70.5t-50.5 -63.5t-49 -54q-115 -123 -195 -206t-137 -140z" />
<glyph unicode="&#xb3;" horiz-adv-x="811" d="M86 539l10 -13q20 -12 77.5 -34.5t168.5 -22.5q104 0 177 28.5t118 72.5t65.5 98.5t20.5 103.5q0 39 -13.5 84t-43 83t-77.5 64.5t-118 32.5q12 20 46 68.5t71 102t69.5 101.5t44.5 66l-10 17q-35 0 -68.5 -1t-95.5 -1h-407l-12 -15v-51q0 -16 -5 -51l13 -12q59 2 101 3 t79 1h76h92q-20 -31 -54 -78t-70 -96.5t-69.5 -92.5t-52.5 -67l17 -19q25 8 49 13.5t65 5.5q43 0 81 -10.5t66.5 -31t45 -52t16.5 -74.5q0 -78 -61.5 -127t-159.5 -49q-92 0 -145.5 30.5t-77.5 51.5l-21 -11q-2 -18 -3 -31.5t-1 -25.5t-1 -26.5t-3 -34.5z" />
<glyph unicode="&#xb4;" horiz-adv-x="598" d="M106 1196l9 -14h80q29 0 69 -2l15 8q35 55 57 92t43.5 69.5t47.5 67.5t62 86l-8 17q-29 -2 -59 -2h-57h-58t-63 2l-13 -11q-35 -100 -71.5 -188t-53.5 -125z" />
<glyph unicode="&#xb6;" horiz-adv-x="1366" d="M178 1034q0 -76 25.5 -148.5t79.5 -127.5q59 -59 118.5 -79t100.5 -26v-995h116v1677h297v-1677h119v1677h70v111h-471q-39 0 -89 -4t-104.5 -22.5t-106.5 -55.5t-95 -104q-35 -59 -47.5 -120t-12.5 -106z" />
<glyph unicode="&#xb7;" horiz-adv-x="468" d="M106 457l15 -17q41 2 67.5 4t50 3.5t48 2.5t61.5 1l14 18q0 31 -1 54.5t-1 45.5q0 23 1 48.5t1 62.5l-18 16q-35 -2 -58.5 -3t-46 -2t-49 -2t-67.5 -1l-17 -16q2 -29 3 -56v-51v-55q0 -25 -3 -53z" />
<glyph unicode="&#xb8;" horiz-adv-x="598" d="M145 -365l11 -16q35 0 59.5 1t44.5 1t41 -1t51 -1l15 14q12 43 21 74t18.5 59.5t19.5 59.5t25 74l-7 12q-33 0 -76.5 1t-74.5 1l-14 -10q-18 -39 -33 -69t-29 -58.5t-30.5 -62t-41.5 -79.5z" />
<glyph unicode="&#xb9;" horiz-adv-x="811" d="M205 1251l12 -14q39 8 64.5 13t62.5 10q2 -53 1 -123t-1 -136q0 -92 -1 -150t-1 -110q0 -49 -1 -104t-3 -143l12 -15q25 0 43.5 1t32.5 1h33h41l12 15q-4 39 -5 69.5t-3 72.5t-2 103v160q0 150 2 263.5t8 224.5l-12 14q-49 -8 -84 -13.5t-64.5 -8.5t-58.5 -7t-68 -8 l-12 -14q-2 -35 -3 -50.5t-5 -50.5z" />
<glyph unicode="&#xba;" horiz-adv-x="768" d="M51 1092q0 -166 82 -265.5t252 -99.5q117 0 183.5 44t100 104.5t41 124t7.5 102.5q-2 72 -18.5 138.5t-63.5 119.5q-31 35 -67 55.5t-69.5 29.5t-61 11t-44.5 2q-102 0 -161.5 -32.5t-88.5 -61.5q-35 -35 -53 -75t-26.5 -77.5t-10.5 -69.5t-2 -50zM211 1090q0 20 3 63 t19.5 84t52.5 72.5t101 31.5q31 0 61.5 -10t54 -36.5t38 -74.5t16.5 -122q0 -29 -3 -73t-20.5 -85t-52.5 -69.5t-96 -28.5q-51 0 -84 22.5t-51 50.5q-25 39 -32 86.5t-7 88.5z" />
<glyph unicode="&#xbb;" horiz-adv-x="894" d="M100 940q6 -10 21.5 -36.5t32 -55.5t31 -54.5t20.5 -35.5q27 -45 42 -73t26.5 -48.5t21.5 -41t24 -50.5q-16 -31 -39.5 -78t-51 -99.5t-57.5 -104.5t-56 -91l6 -16h84h43q23 0 45 -2l14 10q25 51 39 80.5t23.5 48t13.5 28t10 19.5q6 12 21.5 41t32 61.5t32 61t21.5 39.5 v22q-43 72 -74 126t-55.5 97t-44 81t-39.5 77l-15 12q-41 -2 -79 -2h-80zM440 946q8 -14 35 -62t60.5 -107.5t67.5 -121t52 -100.5q-16 -31 -28.5 -55.5t-23.5 -46t-22.5 -43t-25.5 -45.5q-6 -12 -21.5 -39t-33 -57.5t-31.5 -58.5t-20 -38l8 -16h82q33 0 79 -2l13 10 q39 84 89 181t116 210v18q-4 4 -19.5 31t-34 59.5t-35 62.5t-22.5 40q-6 12 -12 23.5t-15.5 31t-25 50t-39.5 81.5l-15 11q-25 0 -42 -1t-35 -1t-40 1t-52 1z" />
<glyph unicode="&#xbc;" horiz-adv-x="1878" d="M205 1251l12 -14q39 8 64.5 12t62.5 11q2 -53 1 -123t-1 -136q0 -92 -1 -150t-1 -110q0 -49 -1 -105t-3 -144l12 -15q25 2 43.5 3t32.5 1h33h41l12 15q-4 39 -5 69.5t-3 72.5t-2 103v160q0 150 3 263.5t7 224.5l-12 12q-49 -6 -84 -11.5t-64.5 -9.5t-58.5 -8t-68 -8 l-12 -12q-2 -35 -3 -50.5t-5 -50.5zM590 12l6 -10q25 0 40 -1t28 -1h30h45l11 10q100 256 202.5 507t212.5 503q8 20 31 71.5t47.5 107.5t46 106.5t29.5 68.5l-8 12q-23 0 -38.5 -1t-29.5 -1h-29h-40l-13 -8q-33 -92 -80 -207.5t-90 -221t-74.5 -182.5t-35.5 -87 q-72 -168 -143.5 -334t-147.5 -332zM1114 246l12 -15q74 0 122 1t89 1h90h119q0 -41 -1 -65.5t-1 -46.5q0 -23 -1 -48.5t-3 -64.5l12 -12q25 2 41 2h29h29h37l12 14q0 37 -1 61.5t-2 47t-1 47.5v65h53t55 -2l13 13q2 20 3 32.5t1 20.5q0 10 1 21.5t3 27.5l-13 12 q-18 0 -30.5 -1t-24.5 -1q-10 0 -24.5 -1t-34.5 -1v195v129q0 55 1 102t3 115l-12 12q-33 0 -54.5 -1t-42.5 -1h-45h-59l-12 -10q-37 -61 -84 -136t-96.5 -149.5t-95.5 -143.5t-79 -116l-6 -14v-41q0 -14 -2 -49zM1280 354l137 209q35 53 69 110.5t68 114.5 q-2 -72 -3 -150.5t-3 -154.5v-129h-268z" />
<glyph unicode="&#xbd;" horiz-adv-x="1878" d="M205 1251l12 -14q39 8 64.5 12t62.5 11q2 -53 1 -123t-1 -136q0 -92 -1 -150t-1 -110q0 -49 -1 -104t-3 -143l12 -17q25 2 43.5 3t32.5 1h33h41l12 15q-4 39 -5 69.5t-3 72.5t-2 103v160q0 150 2 263.5t8 224.5l-12 14q-49 -8 -84 -13.5t-64.5 -9.5t-58.5 -7t-68 -7 l-12 -14q-2 -35 -3 -50.5t-5 -50.5zM506 14l6 -12h31h26t34 -1t50 -1l13 10q100 256 202.5 507t212.5 503q8 20 31 71.5t47.5 107.5t46 106.5t29.5 68.5l-8 12q-25 0 -39 -1t-29 -1h-29h-40l-13 -8q-33 -92 -80 -207.5t-90 -221t-74.5 -182.5t-35.5 -87 q-72 -166 -143.5 -332t-147.5 -332zM1116 20l10 -24q29 0 82.5 1t116.5 1t133 1t131 1h113h78l12 12v51t2 54l-12 14q-68 -2 -111 -3t-82 -2t-80 -1h-104q86 88 152.5 157.5t111.5 129t68.5 116t23.5 115.5q0 53 -20.5 102.5t-61.5 88t-102 61.5t-141 23q-55 0 -100.5 -9.5 t-79 -23t-56 -27.5t-37.5 -22l-10 -13v-133l21 -10q12 12 33.5 30.5t51 36t67.5 29.5t87 12q94 0 140 -50t46 -111q0 -37 -15 -74t-38.5 -70.5t-50.5 -63.5t-49 -54q-115 -121 -195 -204t-135 -141z" />
<glyph unicode="&#xbe;" horiz-adv-x="1878" d="M86 539l10 -13q20 -12 77.5 -34.5t168.5 -22.5q104 0 177 28.5t118 72.5t65.5 98.5t20.5 103.5q0 39 -13.5 84t-43 83t-77.5 64.5t-118 32.5q12 20 46 68.5t71 102t69.5 101.5t44.5 66l-10 17q-35 0 -68.5 -1t-95.5 -1h-407l-12 -15v-51q0 -16 -5 -51l13 -12q59 2 101 3 t79 1h76h92q-20 -31 -54 -78t-70 -96.5t-69.5 -92.5t-52.5 -67l17 -19q25 8 49 13.5t65 5.5q43 0 81 -10.5t66.5 -31t45 -52t16.5 -74.5q0 -78 -61.5 -127t-159.5 -49q-92 0 -145.5 30.5t-77.5 51.5l-21 -11q-2 -18 -3 -31.5t-1 -25.5t-1 -26.5t-3 -34.5zM602 12l6 -10 q25 0 40.5 -1t27.5 -1h31h45l10 10q100 256 202.5 508t213.5 502q8 20 30.5 71.5t47 108.5t46 107.5t29.5 68.5l-8 13q-25 0 -39 -1.5t-29 -1.5h-28h-41l-12 -10q-33 -90 -80 -206.5t-90 -222t-75 -181.5t-36 -86q-72 -168 -143.5 -335t-147.5 -333zM1112 246l14 -15 q74 0 121 1t88 1h90h119q0 -41 -1 -65.5t-1 -46.5q0 -23 -1 -48.5t-3 -64.5l12 -12q25 2 41 2h29h29h37l12 14q0 37 -1 61.5t-2 47t-1 47.5v65h53t55 -2l13 13q2 20 3 32.5t1 20.5q0 10 1 21.5t3 27.5l-13 12q-18 0 -30.5 -1t-24.5 -1q-10 0 -24.5 -1t-34.5 -1v195v129 q0 55 1 103t3 116l-12 10q-33 0 -54.5 -1t-42.5 -1q-20 0 -43.5 1t-60.5 1l-12 -10q-37 -61 -84.5 -137t-96.5 -150.5t-95 -143.5t-79 -116l-4 -14q-2 -25 -2 -41q0 -14 -2 -49zM1278 354l137 211q35 53 69 109.5t68 113.5q-2 -72 -3 -149.5t-3 -155.5v-129h-268z" />
<glyph unicode="&#xbf;" horiz-adv-x="854" d="M63 393q0 -90 30 -162.5t84 -126t133 -82t177 -28.5q66 0 117 9t89 22.5t63.5 28t42.5 24.5l10 14q2 31 3 52.5t3 41t3 41t5 54.5l-18 6q-18 -14 -44 -34t-58.5 -36t-73.5 -28.5t-90 -12.5t-94.5 14.5t-79 45t-54 76.5t-20.5 110q0 96 39 175t80 148l45 70q25 41 44 77 t33.5 72.5t23.5 77.5t13 91l-14 14q-27 -2 -46.5 -3t-39.5 -1h-41h-51l-12 -17q-4 -35 -10.5 -66.5t-21 -66.5t-36 -73.5t-55.5 -90.5l-58 -88q-18 -29 -39.5 -64.5t-39 -78.5t-30 -94t-12.5 -111zM342 1546q0 -33 1 -56.5t1 -45.5v-49v-60l16 -18q39 2 62.5 3t45 2t47.5 2 t67 1l16 18q0 27 -1 52.5t-1 54.5q0 27 1 53.5t1 55.5l-14 14q-35 -2 -60.5 -3t-50 -2t-52.5 -2t-65 -3z" />
<glyph unicode="&#xc0;" horiz-adv-x="1236" d="M-2 12l8 -14q39 2 64.5 3t47 2t44.5 1h55l14 14q18 68 31.5 116t26 92t27 94.5t36.5 121.5q61 0 130 1t136 1q61 0 122 -1t122 -1q20 -70 34.5 -119t27 -94t27 -96t32.5 -123l14 -14q33 2 58.5 3t52.5 2t56.5 2t70.5 1l8 16q-23 74 -52.5 166.5t-60 188.5t-60.5 188 t-54 166q-47 147 -101.5 325.5t-105.5 348.5l-10 37l-15 14q-49 -2 -80.5 -3t-61.5 -2t-63.5 -2t-86.5 -1l-17 -14q-23 -74 -43 -140.5t-46 -143.5t-59.5 -175.5t-78.5 -233.5q-111 -332 -228 -663q-6 -16 -12 -31.5t-10 -32.5zM342 1829q39 -47 64.5 -78t47 -58.5t46 -58 t61.5 -80.5l14 -8q33 0 77 1t77 1l8 17q-31 66 -58.5 135t-39.5 108q-4 16 -8 25l-13 12h-59h-57h-66h-86zM403 606l213 692h5l194 -692q-53 0 -107.5 -1t-107.5 -1q-49 0 -98 1t-99 1z" />
<glyph unicode="&#xc1;" horiz-adv-x="1236" d="M-2 12l8 -14q39 2 64.5 3t47 2t44.5 1h55l14 14q18 68 31.5 116t26 92t27 94.5t36.5 121.5q61 0 130 1t136 1q61 0 122 -1t122 -1q20 -70 34.5 -119t27 -94t27 -96t32.5 -123l14 -14q33 2 58.5 3t52.5 2t56.5 2t70.5 1l8 16q-23 74 -52.5 166.5t-60 188.5t-60.5 188 t-54 166q-47 147 -101.5 325.5t-105.5 348.5l-10 37l-15 14q-49 -2 -80.5 -3t-61.5 -2t-63.5 -2t-86.5 -1l-17 -14q-23 -74 -43 -140.5t-46 -143.5t-59.5 -175.5t-78.5 -233.5q-111 -332 -228 -663q-6 -16 -12 -31.5t-10 -32.5zM403 606l213 692h5l194 -692q-53 0 -107.5 -1 t-107.5 -1q-49 0 -98 1t-99 1zM506 1561l8 -15h156l14 8q35 47 59.5 80t48 62.5t48 60.5t61.5 74l-6 16q-47 0 -77 -1t-56 -1h-60h-79l-13 -14q-18 -63 -46.5 -138t-57.5 -132z" />
<glyph unicode="&#xc2;" horiz-adv-x="1236" d="M-2 12l8 -14q39 2 64.5 3t47 2t44.5 1h55l14 14q18 68 31.5 116t26 92t27 94.5t36.5 121.5q61 0 130 1t136 1q61 0 122 -1t122 -1q20 -70 34.5 -119t27 -94t27 -96t32.5 -123l14 -14q33 2 58.5 3t52.5 2t56.5 2t70.5 1l8 16q-23 74 -52.5 166.5t-60 188.5t-60.5 188 t-54 166q-47 147 -101.5 325.5t-105.5 348.5l-10 37l-15 14q-49 -2 -80.5 -3t-61.5 -2t-63.5 -2t-86.5 -1l-17 -14q-23 -74 -43 -140.5t-46 -143.5t-59.5 -175.5t-78.5 -233.5q-111 -332 -228 -663q-6 -16 -12 -31.5t-10 -32.5zM299 1561l6 -17q29 0 49.5 1t36.5 1t34.5 -1 t43.5 -1l14 10q18 33 31.5 54.5t26 41t28 42t37.5 57.5q18 -29 31.5 -50.5l27 -43t28 -46t34.5 -59.5l14 -10q29 4 54.5 5t52.5 3q23 0 46.5 1t45.5 1l10 15q-29 43 -51 78.5t-40.5 67.5t-35 62.5t-32.5 65.5l-15 8q-39 -2 -78 -2h-75h-72t-72 2l-16 -10q-39 -72 -84 -147.5 t-80 -128.5zM403 606l213 692h5l194 -692q-53 0 -107.5 -1t-107.5 -1q-49 0 -98 1t-99 1z" />
<glyph unicode="&#xc3;" horiz-adv-x="1236" d="M-2 12l8 -14q39 2 64.5 3t47 2t44.5 1h55l14 14q18 68 31.5 116t26 92t27 94.5t36.5 121.5q61 0 130 1t136 1q61 0 122 -1t122 -1q20 -70 34.5 -119t27 -94t27 -96t32.5 -123l14 -14q33 2 58.5 3t52.5 2t56.5 2t70.5 1l8 16q-23 74 -52.5 166.5t-60 188.5t-60.5 188 t-54 166q-47 147 -101.5 325.5t-105.5 348.5l-10 37l-15 14q-49 -2 -80.5 -3t-61.5 -2t-63.5 -2t-86.5 -1l-17 -14q-23 -74 -43 -140.5t-46 -143.5t-59.5 -175.5t-78.5 -233.5q-111 -332 -228 -663q-6 -16 -12 -31.5t-10 -32.5zM287 1573l18 -8q31 39 69 61.5t89 22.5 q41 0 79 -13.5t56 -21.5l55 -21q23 -10 51.5 -20t63.5 -10q59 0 101 27.5t67 49.5l6 15q0 27 1 43t2 32.5t2 35t3 46.5l-20 7q-29 -39 -67 -61.5t-89 -22.5q-27 0 -52.5 7t-59.5 21l-64 25q-33 12 -65.5 22.5t-67.5 10.5q-61 0 -100 -26t-62 -46l-10 -16v-45q0 -16 -1 -33 t-2 -35t-3 -47zM403 606l213 692h5l194 -692q-53 0 -107.5 -1t-107.5 -1q-49 0 -98 1t-99 1z" />
<glyph unicode="&#xc4;" horiz-adv-x="1236" d="M-2 12l8 -14q39 2 64.5 3t47 2t44.5 1h55l14 14q18 68 31.5 116t26 92t27 94.5t36.5 121.5q61 0 130 1t136 1q61 0 122 -1t122 -1q20 -70 34.5 -119t27 -94t27 -96t32.5 -123l14 -14q33 2 58.5 3t52.5 2t56.5 2t70.5 1l8 16q-23 74 -52.5 166.5t-60 188.5t-60.5 188 t-54 166q-47 147 -101.5 325.5t-105.5 348.5l-10 37l-15 14q-49 -2 -80.5 -3t-61.5 -2t-63.5 -2t-86.5 -1l-17 -14q-23 -74 -43 -140.5t-46 -143.5t-59.5 -175.5t-78.5 -233.5q-111 -332 -228 -663q-6 -16 -12 -31.5t-10 -32.5zM276 1583l15 -14h219l14 16q0 33 -1 55.5 t-1 42.5q0 23 1 45.5t3 57.5l-14 14q-41 -2 -66.5 -3t-48.5 -1t-46 1t-60 1l-15 -16v-199zM403 606l213 692h5l194 -692q-53 0 -107.5 -1t-107.5 -1q-49 0 -98 1t-99 1zM754 1585l14 -14h61h54t50 -1t58 -3l15 16v105q0 43 2 98l-15 12q-29 0 -57.5 -1t-56.5 -1 q-29 0 -55.5 1t-55.5 1l-14 -18q0 -31 1 -52.5t1 -41.5q0 -18 -1 -42t-1 -59z" />
<glyph unicode="&#xc5;" horiz-adv-x="1236" d="M-2 12l8 -14q39 2 64.5 3t47 2t44.5 1h55l14 14q18 68 31.5 116t26 92t27 94.5t36.5 121.5q61 0 130 1t136 1q61 0 122 -1t122 -1q20 -70 34.5 -119t27 -94t27 -96t32.5 -123l14 -14q33 2 58.5 3t52.5 2t56.5 2t70.5 1l8 16q-23 74 -52.5 166.5t-60 188.5t-60.5 188 t-54 166q-47 147 -101.5 325.5t-105.5 348.5l-10 37l-15 14q-49 -2 -80.5 -3t-61.5 -2t-63.5 -2t-86.5 -1l-17 -14q-23 -74 -43 -140.5t-46 -143.5t-59.5 -175.5t-78.5 -233.5q-111 -332 -228 -663q-6 -16 -12 -31.5t-10 -32.5zM393 1735q0 -43 14.5 -84t44 -72t73.5 -49.5 t106 -18.5q61 0 107 18.5t77 51.5t46.5 75t15.5 91q-2 98 -68 158.5t-172 60.5q-115 0 -179.5 -67.5t-64.5 -163.5zM403 606l213 692h5l194 -692q-53 0 -107.5 -1t-107.5 -1q-49 0 -98 1t-99 1zM543 1741q0 63 30.5 93t63.5 30q39 0 66.5 -33t27.5 -92q0 -4 -2 -24.5 t-10 -43t-27.5 -41t-52.5 -18.5q-43 0 -69.5 33.5t-26.5 95.5z" />
<glyph unicode="&#xc6;" horiz-adv-x="1748" d="M-4 8l8 -14q39 2 63.5 3t45.5 1q23 0 48 1t64 1l13 14q23 72 38 120t30.5 92t32.5 92.5t42 119.5q74 0 121 1t88 1t89 -1t124 -1q-2 -74 -3 -124t-2 -94t-2 -93t-3 -119l10 -14q104 0 181 1t138.5 2t116.5 1h115q59 0 132 1t171 1l10 14q2 18 2 37q0 18 2 35q2 23 3 43.5 t3 40.5l-10 12q-33 -2 -63.5 -3t-68.5 -3t-85 -3t-115 -1q-61 -2 -131 -2t-172 -2q-2 88 -3 148.5t-1 111.5v107v133h182q70 0 126.5 -1t113.5 -2t145 -3l11 12q0 25 1 41t2 32.5t2 36t3 47.5l-10 13q-76 -2 -145.5 -3t-153.5 -3h-58q-39 0 -82 -1t-82 -1h-53v106v94 t1 102.5t1 133.5q96 2 164 2h133q66 0 138.5 -2t177.5 -4l10 12q4 55 6 86t6 72l-10 14q-57 -2 -150.5 -3t-203 -2t-225 -2t-218.5 -1q-102 0 -181 1t-112 1l-14 -14q-27 -80 -53.5 -154t-56 -151.5t-65.5 -167t-81 -201.5q-86 -209 -136 -335t-81 -202t-48.5 -121 t-35.5 -92zM442 602l258 676h105q0 -121 1 -203t1 -153q0 -72 -1 -144.5t-3 -173.5q-66 -2 -109 -3t-80 -1t-75.5 1t-96.5 1z" />
<glyph unicode="&#xc7;" horiz-adv-x="1280" d="M102 723q0 -172 48.5 -311.5t140.5 -237.5t224 -151.5t300 -53.5q78 0 140.5 10.5t111.5 24.5t83 29.5t52 25.5l12 15q2 29 3.5 51t2.5 43.5t3 46.5t6 61l-15 9q-25 -16 -59.5 -38t-80.5 -41.5t-105.5 -32.5t-130.5 -13q-106 0 -196.5 33.5t-157 104.5t-103.5 177.5 t-37 251.5q0 129 33 234.5t97.5 179t158.5 114.5t217 41q68 0 121 -10t94 -25.5t67.5 -31t43.5 -25.5l18 8q2 33 4 55.5t4 41t4 38t6 48.5l-8 16q-51 18 -142 42t-233 24q-55 0 -121.5 -6.5t-138 -28t-143.5 -63.5t-137 -113q-68 -74 -105 -154t-55 -153.5t-22.5 -136 t-4.5 -99.5zM573 -365l11 -16q35 0 59.5 1t44.5 1t41 -1t51 -1l17 14q12 43 21 74t18.5 59.5t19.5 59.5t25 74l-9 12q-33 2 -77 2h-74l-14 -10q-20 -43 -35 -74t-29 -58.5t-29.5 -59t-40.5 -77.5z" />
<glyph unicode="&#xc8;" horiz-adv-x="1110" d="M150 1432q6 -88 8 -172t4 -175.5t2 -195.5v-234q0 -141 -1 -236t-3 -167t-4 -127t-4 -117l10 -14q96 0 170 1t135 2t117 1q55 0 117.5 1t136.5 1h176l14 14q2 27 3 44.5t2 32.5t2 32.5t3 44.5l-12 14q-98 -4 -166.5 -6t-134.5 -3t-143 -1h-193q0 74 -1 126t-1 103v111 q0 59 2 150h172q70 0 127 -1.5t117.5 -2.5t150.5 -3l13 15q0 25 1 42t2 34.5t2 36t5 44.5l-10 15q-94 -2 -161 -3t-128 -1h-129h-162v120q0 51 1 97.5t2 96.5t3 122q98 0 169 -1t136.5 -2t137 -3t170.5 -4l12 14q2 27 3 47.5t3 37.5t4 34.5t4 40.5l-12 14q-141 -2 -236.5 -3 t-183.5 -1t-188.5 -1t-251.5 -1zM279 1829q39 -47 64.5 -78t47 -58.5t46 -58t61.5 -80.5l14 -8q33 0 77 1t77 1l8 17q-31 66 -58.5 135t-40.5 108q-4 16 -8 25l-12 12h-59h-58h-65h-86z" />
<glyph unicode="&#xc9;" horiz-adv-x="1110" d="M150 1432q6 -88 8 -172t4 -175.5t2 -195.5v-234q0 -141 -1 -236t-3 -167t-4 -127t-4 -117l10 -14q96 0 170 1t135 2t117 1q55 0 117.5 1t136.5 1h176l14 14q2 27 3 44.5t2 32.5t2 32.5t3 44.5l-12 14q-98 -4 -166.5 -6t-134.5 -3t-143 -1h-193q0 74 -1 126t-1 103v111 q0 59 2 150h172q70 0 127 -1.5t117.5 -2.5t150.5 -3l13 15q0 25 1 42t2 34.5t2 36t5 44.5l-10 15q-94 -2 -161 -3t-128 -1h-129h-162v120q0 51 1 97.5t2 96.5t3 122q98 0 169 -1t136.5 -2t137 -3t170.5 -4l12 14q2 27 3 47.5t3 37.5t4 34.5t4 40.5l-12 14q-141 -2 -236.5 -3 t-183.5 -1t-188.5 -1t-251.5 -1zM442 1561l9 -15h155l15 8q35 47 59.5 80t48 62.5t48 60.5t61.5 74l-7 16q-47 0 -76.5 -1t-56.5 -1h-59h-80l-12 -14q-18 -63 -47 -138t-58 -132z" />
<glyph unicode="&#xca;" horiz-adv-x="1110" d="M150 1432q6 -88 8 -172t4 -175.5t2 -195.5v-234q0 -141 -1 -236t-3 -167t-4 -127t-4 -117l10 -14q96 0 170 1t135 2t117 1q55 0 117.5 1t136.5 1h176l14 14q2 27 3 44.5t2 32.5t2 32.5t3 44.5l-12 14q-98 -4 -166.5 -6t-134.5 -3t-143 -1h-193q0 74 -1 126t-1 103v111 q0 59 2 150h172q70 0 127 -1.5t117.5 -2.5t150.5 -3l13 15q0 25 1 42t2 34.5t2 36t5 44.5l-10 15q-94 -2 -161 -3t-128 -1h-129h-162v120q0 51 1 97.5t2 96.5t3 122q98 0 169 -1t136.5 -2t137 -3t170.5 -4l12 14q2 27 3 47.5t3 37.5t4 34.5t4 40.5l-12 14q-141 -2 -236.5 -3 t-183.5 -1t-188.5 -1t-251.5 -1zM236 1561l6 -17q29 0 49 1t37 1q16 0 34.5 -1t43.5 -1l14 10q18 33 31.5 54.5t25.5 41t27.5 42t38.5 57.5q18 -29 31.5 -50.5t26.5 -43t27.5 -46t35.5 -59.5l14 -10q29 4 54.5 5t51.5 3q23 0 46.5 1t46.5 1l10 15q-29 43 -51.5 78.5 t-41 67.5t-35 62.5t-32.5 65.5l-14 8q-39 -2 -78 -2h-76h-72t-71 2l-17 -10q-39 -72 -84 -147.5t-79 -128.5z" />
<glyph unicode="&#xcb;" horiz-adv-x="1110" d="M150 1432q6 -88 8 -172t4 -175.5t2 -195.5v-234q0 -141 -1 -236t-3 -167t-4 -127t-4 -117l10 -14q96 0 170 1t135 2t117 1q55 0 117.5 1t136.5 1h176l14 14q2 27 3 44.5t2 32.5t2 32.5t3 44.5l-12 14q-98 -4 -166.5 -6t-134.5 -3t-143 -1h-193q0 74 -1 126t-1 103v111 q0 59 2 150h172q70 0 127 -1.5t117.5 -2.5t150.5 -3l13 15q0 25 1 42t2 34.5t2 36t5 44.5l-10 15q-94 -2 -161 -3t-128 -1h-129h-162v120q0 51 1 97.5t2 96.5t3 122q98 0 169 -1t136.5 -2t137 -3t170.5 -4l12 14q2 27 3 47.5t3 37.5t4 34.5t4 40.5l-12 14q-141 -2 -236.5 -3 t-183.5 -1t-188.5 -1t-251.5 -1zM190 1583l15 -14h219l14 16q0 33 -1 55.5t-1 42.5q0 23 1 45.5t3 57.5l-14 14q-41 -2 -66.5 -3t-48.5 -1t-46 1t-60 1l-15 -16v-199zM668 1585l14 -14h61h54t50 -1t58 -3l15 16v105q0 43 2 98l-15 12q-29 0 -57.5 -1t-56.5 -1q-29 0 -55.5 1 t-55.5 1l-14 -18q0 -31 1 -52.5t1 -41.5q0 -18 -1 -42t-1 -59z" />
<glyph unicode="&#xcc;" horiz-adv-x="555" d="M0 1829q39 -47 64.5 -78t47 -58.5t46 -58t61.5 -80.5l14 -8q33 0 77 1t77 1l8 17q-31 66 -58.5 135t-39.5 108q-4 16 -8 25l-13 12h-59h-57h-66h-86zM150 1430q10 -231 12 -461t2 -463q0 -98 -1 -171t-2 -130.5t-2 -103.5t-3 -93l12 -14q41 2 68.5 3t52.5 1t48 1t58 1 l13 14q-4 80 -7.5 155t-5.5 163t-3 197.5t-1 256.5q0 131 1 230.5t2 176.5t3 135t4 110l-14 14q-39 -2 -66.5 -3t-52 -2t-51.5 -1h-57z" />
<glyph unicode="&#xcd;" horiz-adv-x="555" d="M150 1430q10 -231 12 -461t2 -463q0 -98 -1 -171t-2 -130.5t-2 -103.5t-3 -93l12 -14q41 2 68.5 3t52.5 1t48 1t58 1l13 14q-4 80 -7.5 155t-5.5 163t-3 197.5t-1 256.5q0 131 1 230.5t2 176.5t3 135t4 110l-14 14q-39 -2 -66.5 -3t-52 -2t-51.5 -1h-57zM164 1561l8 -15 h156l14 8q35 47 59.5 80t48 62.5t48 60.5t61.5 74l-6 16q-47 0 -77 -1t-56 -1h-60h-79l-13 -14q-18 -63 -46.5 -138t-57.5 -132z" />
<glyph unicode="&#xce;" horiz-adv-x="555" d="M-43 1561l6 -17q29 0 49.5 1t36.5 1t34.5 -1t43.5 -1l14 10q18 33 31.5 54.5t26 41t28 42t37.5 57.5q18 -29 31.5 -50.5l27 -43t28 -46t34.5 -59.5l14 -10q29 4 54.5 5t52.5 3q23 0 46 1t46 1l10 15q-29 43 -51 78.5t-40.5 67.5t-35 62.5t-32.5 65.5l-15 8q-39 -2 -78 -2 h-75h-72t-72 2l-16 -10q-39 -72 -84 -147.5t-80 -128.5zM150 1430q10 -231 12 -461t2 -463q0 -98 -1 -171t-2 -130.5t-2 -103.5t-3 -93l12 -14q41 2 68.5 3t52.5 1t48 1t58 1l13 14q-4 80 -7.5 155t-5.5 163t-3 197.5t-1 256.5q0 131 1 230.5t2 176.5t3 135t4 110l-14 14 q-39 -2 -66.5 -3t-52 -2t-51.5 -1h-57z" />
<glyph unicode="&#xcf;" horiz-adv-x="555" d="M-88 1583l14 -14h219l15 16q0 33 -1 55.5t-1 42.5q0 23 1 45.5t3 57.5l-15 14q-41 -2 -66.5 -3t-47.5 -1q-23 0 -46.5 1t-60.5 1l-14 -16v-199zM150 1430q10 -231 12 -461t2 -463q0 -98 -1 -171t-2 -130.5t-2 -103.5t-3 -93l12 -14q41 2 68.5 3t52.5 1t48 1t58 1l13 14 q-4 80 -7.5 155t-5.5 163t-3 197.5t-1 256.5q0 131 1 230.5t2 176.5t3 135t4 110l-14 14q-39 -2 -66.5 -3t-52 -2t-51.5 -1h-57zM389 1585l14 -14h62h53q25 0 50.5 -1t58.5 -3l14 16v105q0 43 2 98l-14 12q-29 0 -57.5 -1t-57.5 -1t-55.5 1t-55.5 1l-14 -18q0 -31 1 -52.5 t1 -41.5q0 -18 -1 -42t-1 -59z" />
<glyph unicode="&#xd0;" horiz-adv-x="1449" d="M0 690l8 -14q23 0 41.5 1t34.5 2t35 1h47v-244t-1 -163.5t-3 -128t-6 -136.5l12 -14l137 2h164q61 0 99 1t63.5 2t56.5 5q76 6 162 25.5t169 65.5t155.5 125t119.5 206q31 80 42.5 165t11.5 171q0 33 -4.5 106.5t-28 160.5t-75.5 176t-148 153q-53 35 -112.5 55.5 t-117 29.5t-111 11t-92.5 2q-41 0 -99 -1t-99 -1l-301 -8l-13 -14q2 -49 5.5 -89t4.5 -100.5t3 -156t4 -252.5h-45h-31q-14 0 -30.5 1t-41.5 1l-10 -13q0 -25 -1 -40t-1 -29q0 -12 -1 -26.5t-3 -37.5zM387 836q0 96 1 162.5t2 115.5t2 88t1 82q104 4 164 4h66q27 0 66.5 -2 t86.5 -11t95.5 -29.5t91.5 -57.5q88 -76 117.5 -187.5t29.5 -228.5q0 -74 -10 -146.5t-35 -140t-64.5 -125t-97.5 -100.5q-51 -37 -109.5 -56.5t-123 -27.5t-134 -9t-141.5 1q-2 66 -4 115t-2 102v121v174q72 2 117 3t96 1q47 0 92 -1t92 -1l11 12q2 25 3 40.5t2 29.5 t2 28.5t3 36.5l-10 15q-66 -2 -112 -3t-89 -2t-91 -2t-118 -1z" />
<glyph unicode="&#xd1;" horiz-adv-x="1449" d="M150 1432q8 -211 10 -419t2 -419q0 -147 -2 -292.5t-8 -293.5l12 -14q37 2 59.5 3t42 2t39.5 1h55l13 14q-2 31 -3 51.5t-2 45t-2 61.5t-4 100q-2 66 -4 128.5t-4 127.5l-20 699l4 4l319 -578q92 -162 182.5 -322.5t182.5 -322.5l16 -14q45 2 74 3t53.5 2t51.5 1h73 l10 14l-2 86q-6 289 -6 580q0 190 2 379.5t6 378.5l-12 14q-31 -2 -52.5 -3t-40.5 -2t-44 -1h-57l-13 -14q2 -53 5.5 -94.5t4.5 -93.5t3 -127t6 -195l16 -676l-4 -4l-250 448q-102 180 -207.5 369.5t-210.5 378.5l-20 14q-43 -2 -72.5 -3t-56.5 -1t-57.5 -1t-77.5 -1z M393 1573l19 -8q31 39 68.5 61.5t88.5 22.5q41 0 79 -13.5t57 -21.5l55 -21q23 -10 51.5 -20t62.5 -10q59 0 101.5 27.5t66.5 49.5l7 15q0 27 1 43t2 32.5t2 35t3 46.5l-21 7q-29 -39 -66.5 -61.5t-88.5 -22.5q-27 0 -52.5 7t-60.5 21l-63 25q-33 12 -66 22.5t-68 10.5 q-61 0 -100 -26t-61 -46l-11 -16v-45q0 -16 -1 -33t-2 -35t-3 -47z" />
<glyph unicode="&#xd2;" horiz-adv-x="1536" d="M102 713q0 -170 44 -307.5t129 -234.5t208 -149.5t283 -52.5q152 0 274.5 48.5t210.5 142.5t135.5 233t47.5 324q0 178 -46.5 319.5t-132.5 238.5t-208.5 149.5t-274.5 52.5q-160 0 -283.5 -55.5t-209.5 -155t-131.5 -240.5t-45.5 -313zM350 727q0 35 3 85t13.5 106.5 t29 112.5t46.5 102q16 27 43 56.5t67 56t94 44t126 17.5q18 0 57 -3.5t86.5 -19.5t96.5 -52t90 -102q29 -47 46 -105t26.5 -115.5t12.5 -105.5t3 -77q0 -117 -23.5 -223.5t-74 -187t-130 -128t-192.5 -47.5q-115 0 -199 51.5t-137 141.5q-27 45 -43 98t-25.5 106.5 t-12.5 102.5t-3 86zM492 1829q39 -47 64.5 -78t47 -58.5t46 -58t61.5 -80.5l14 -8q33 0 77 1t77 1l8 17q-31 66 -58.5 135t-40.5 108q-4 16 -8 25l-12 12h-59h-58h-65h-86z" />
<glyph unicode="&#xd3;" horiz-adv-x="1536" d="M102 713q0 -170 44 -307.5t129 -234.5t208 -149.5t283 -52.5q152 0 274.5 48.5t210.5 142.5t135.5 233t47.5 324q0 178 -46.5 319.5t-132.5 238.5t-208.5 149.5t-274.5 52.5q-160 0 -283.5 -55.5t-209.5 -155t-131.5 -240.5t-45.5 -313zM350 727q0 35 3 85t13.5 106.5 t29 112.5t46.5 102q16 27 43 56.5t67 56t94 44t126 17.5q18 0 57 -3.5t86.5 -19.5t96.5 -52t90 -102q29 -47 46 -105t26.5 -115.5t12.5 -105.5t3 -77q0 -117 -23.5 -223.5t-74 -187t-130 -128t-192.5 -47.5q-115 0 -199 51.5t-137 141.5q-27 45 -43 98t-25.5 106.5 t-12.5 102.5t-3 86zM655 1561l9 -15h155l15 8q35 47 59.5 80t48 62.5t48 60.5t61.5 74l-7 16q-47 0 -76.5 -1t-56.5 -1h-59h-80l-12 -14q-18 -63 -47 -138t-58 -132z" />
<glyph unicode="&#xd4;" horiz-adv-x="1536" d="M102 713q0 -170 44 -307.5t129 -234.5t208 -149.5t283 -52.5q152 0 274.5 48.5t210.5 142.5t135.5 233t47.5 324q0 178 -46.5 319.5t-132.5 238.5t-208.5 149.5t-274.5 52.5q-160 0 -283.5 -55.5t-209.5 -155t-131.5 -240.5t-45.5 -313zM350 727q0 35 3 85t13.5 106.5 t29 112.5t46.5 102q16 27 43 56.5t67 56t94 44t126 17.5q18 0 57 -3.5t86.5 -19.5t96.5 -52t90 -102q29 -47 46 -105t26.5 -115.5t12.5 -105.5t3 -77q0 -117 -23.5 -223.5t-74 -187t-130 -128t-192.5 -47.5q-115 0 -199 51.5t-137 141.5q-27 45 -43 98t-25.5 106.5 t-12.5 102.5t-3 86zM449 1561l6 -17q29 0 49 1t37 1q16 0 34.5 -1t42.5 -1l15 10q18 33 31.5 54.5t25.5 41t27.5 42t38.5 57.5q18 -29 31.5 -50.5t26.5 -43t27.5 -46t35.5 -59.5l14 -10q29 4 54.5 5t51.5 3q23 0 46.5 1t46.5 1l10 15q-29 43 -51.5 78.5t-41 67.5t-35 62.5 t-32.5 65.5l-14 8q-39 -2 -78 -2h-76h-72t-71 2l-17 -10q-39 -72 -84 -147.5t-79 -128.5z" />
<glyph unicode="&#xd5;" horiz-adv-x="1536" d="M102 713q0 -170 44 -307.5t129 -234.5t208 -149.5t283 -52.5q152 0 274.5 48.5t210.5 142.5t135.5 233t47.5 324q0 178 -46.5 319.5t-132.5 238.5t-208.5 149.5t-274.5 52.5q-160 0 -283.5 -55.5t-209.5 -155t-131.5 -240.5t-45.5 -313zM350 727q0 35 3 85t13.5 106.5 t29 112.5t46.5 102q16 27 43 56.5t67 56t94 44t126 17.5q18 0 57 -3.5t86.5 -19.5t96.5 -52t90 -102q29 -47 46 -105t26.5 -115.5t12.5 -105.5t3 -77q0 -117 -23.5 -223.5t-74 -187t-130 -128t-192.5 -47.5q-115 0 -199 51.5t-137 141.5q-27 45 -43 98t-25.5 106.5 t-12.5 102.5t-3 86zM436 1573l19 -8q31 39 68.5 61.5t88.5 22.5q41 0 79 -13.5t57 -21.5l55 -21q23 -10 51.5 -20t63.5 -10q59 0 101 27.5t66 49.5l7 15q0 27 1 43t2 32.5t2 35t3 46.5l-21 7q-29 -39 -66.5 -61.5t-88.5 -22.5q-27 0 -52.5 7t-60.5 21l-63 25 q-33 12 -66 22.5t-68 10.5q-61 0 -100 -26t-61 -46l-11 -16v-45q0 -16 -1 -33t-2 -35t-3 -47z" />
<glyph unicode="&#xd6;" horiz-adv-x="1536" d="M102 713q0 -170 44 -307.5t129 -234.5t208 -149.5t283 -52.5q152 0 274.5 48.5t210.5 142.5t135.5 233t47.5 324q0 178 -46.5 319.5t-132.5 238.5t-208.5 149.5t-274.5 52.5q-160 0 -283.5 -55.5t-209.5 -155t-131.5 -240.5t-45.5 -313zM350 727q0 35 3 85t13.5 106.5 t29 112.5t46.5 102q16 27 43 56.5t67 56t94 44t126 17.5q18 0 57 -3.5t86.5 -19.5t96.5 -52t90 -102q29 -47 46 -105t26.5 -115.5t12.5 -105.5t3 -77q0 -117 -23.5 -223.5t-74 -187t-130 -128t-192.5 -47.5q-115 0 -199 51.5t-137 141.5q-27 45 -43 98t-25.5 106.5 t-12.5 102.5t-3 86zM408 1583l14 -14h219l14 16q0 33 -1 55.5t-1 42.5q0 23 1 45.5t3 57.5l-14 14q-41 -2 -66.5 -3t-48.5 -1t-46 1t-60 1l-14 -16v-199zM885 1585l14 -14h62h53q25 0 50.5 -1t57.5 -3l15 16v105q0 43 2 98l-15 12q-29 0 -57.5 -1t-56.5 -1q-29 0 -55.5 1 t-55.5 1l-14 -18q0 -31 1 -52.5t1 -41.5q0 -18 -1 -42t-1 -59z" />
<glyph unicode="&#xd7;" horiz-adv-x="1366" d="M158 186l112 -112l414 409l410 -409l114 112l-409 412l409 412l-114 114l-410 -411l-414 411l-112 -114l411 -412z" />
<glyph unicode="&#xd8;" horiz-adv-x="1536" d="M39 61q20 -20 41.5 -40.5t42.5 -43.5h16q20 25 35.5 42.5t32 34l37 37t53.5 52.5q27 -29 61.5 -57.5t98.5 -56.5q47 -23 122.5 -41.5t198.5 -18.5q23 0 68 2t102.5 15.5t122 41t124.5 79t112.5 130t87.5 193.5q39 141 39 299q0 98 -12.5 173t-30 130t-35 92t-29.5 58 q37 37 60.5 58.5t43 38.5t38 34.5t47.5 44.5v16l-82 82h-17q-25 -27 -40 -44t-31.5 -33.5l-38 -38l-54.5 -54.5q-18 20 -54 53t-94 64t-142 52.5t-201 21.5q-168 0 -292 -59.5t-206 -164t-122 -247t-40 -306.5q0 -100 12.5 -175.5t30 -130t37 -90.5t31.5 -58l-64.5 -64.5 l-43 -43t-32 -31t-32.5 -29.5zM338 694q0 51 5 109.5t18.5 118t34 116t50.5 103.5q49 74 132.5 124t195.5 50q53 0 103.5 -12.5t97.5 -38.5q53 -29 80.5 -62t48.5 -63l-721 -723q-16 53 -30.5 115.5t-14.5 162.5zM442 293l719 717q14 -49 24.5 -105.5t10.5 -146.5 q0 -111 -19.5 -222.5t-67.5 -200.5t-131 -145.5t-210 -56.5q-78 0 -134 18.5t-94 43t-61.5 52t-36.5 46.5z" />
<glyph unicode="&#xd9;" horiz-adv-x="1409" d="M150 1432q2 -100 3 -164t2 -123.5t1 -130.5v-180v-209q0 -90 2 -160t12 -127t32.5 -106.5t63.5 -96.5q20 -23 55 -51.5t89.5 -54t130 -43t174.5 -17.5q125 0 236.5 36t185.5 116q45 49 68.5 104.5t34.5 111.5t13 110.5t2 101.5l-2 184q0 57 -1 100.5t-1 77.5v66v63v105 q0 43 1 85t2 90t3 118l-12 14q-31 -2 -51 -3t-39 -1q-18 0 -40.5 -1t-57.5 -1l-10 -14q6 -88 9 -186.5t4 -199t2 -199.5t1 -188q0 -121 -5 -209t-40 -153q-29 -57 -71 -88t-85 -46.5t-80 -18.5t-55 -3q-106 0 -167.5 34t-88.5 67q-53 63 -64.5 161.5t-11.5 251.5v176t1 210 t2 212.5t5 184.5l-10 14q-39 -2 -63.5 -3t-46.5 -1q-23 0 -49.5 -1t-69.5 -1zM428 1829q39 -47 64.5 -78t47 -58.5t46 -58t61.5 -80.5l15 -8q33 0 76.5 1t76.5 1l8 17q-31 66 -58.5 135t-39.5 108q-4 16 -8 25l-12 12h-60h-57h-66h-86z" />
<glyph unicode="&#xda;" horiz-adv-x="1409" d="M150 1432q2 -100 3 -164t2 -123.5t1 -130.5v-180v-209q0 -90 2 -160t12 -127t32.5 -106.5t63.5 -96.5q20 -23 55 -51.5t89.5 -54t130 -43t174.5 -17.5q125 0 236.5 36t185.5 116q45 49 68.5 104.5t34.5 111.5t13 110.5t2 101.5l-2 184q0 57 -1 100.5t-1 77.5v66v63v105 q0 43 1 85t2 90t3 118l-12 14q-31 -2 -51 -3t-39 -1q-18 0 -40.5 -1t-57.5 -1l-10 -14q6 -88 9 -186.5t4 -199t2 -199.5t1 -188q0 -121 -5 -209t-40 -153q-29 -57 -71 -88t-85 -46.5t-80 -18.5t-55 -3q-106 0 -167.5 34t-88.5 67q-53 63 -64.5 161.5t-11.5 251.5v176t1 210 t2 212.5t5 184.5l-10 14q-39 -2 -63.5 -3t-46.5 -1q-23 0 -49.5 -1t-69.5 -1zM592 1561l8 -15h156l14 8q35 47 59.5 80t48 62.5t48 60.5t61.5 74l-6 16q-47 0 -77 -1t-56 -1h-60h-79l-13 -14q-18 -63 -46.5 -138t-57.5 -132z" />
<glyph unicode="&#xdb;" horiz-adv-x="1409" d="M150 1432q2 -100 3 -164t2 -123.5t1 -130.5v-180v-209q0 -90 2 -160t12 -127t32.5 -106.5t63.5 -96.5q20 -23 55 -51.5t89.5 -54t130 -43t174.5 -17.5q125 0 236.5 36t185.5 116q45 49 68.5 104.5t34.5 111.5t13 110.5t2 101.5l-2 184q0 57 -1 100.5t-1 77.5v66v63v105 q0 43 1 85t2 90t3 118l-12 14q-31 -2 -51 -3t-39 -1q-18 0 -40.5 -1t-57.5 -1l-10 -14q6 -88 9 -186.5t4 -199t2 -199.5t1 -188q0 -121 -5 -209t-40 -153q-29 -57 -71 -88t-85 -46.5t-80 -18.5t-55 -3q-106 0 -167.5 34t-88.5 67q-53 63 -64.5 161.5t-11.5 251.5v176t1 210 t2 212.5t5 184.5l-10 14q-39 -2 -63.5 -3t-46.5 -1q-23 0 -49.5 -1t-69.5 -1zM385 1561l6 -17q29 0 49.5 1t36.5 1t34.5 -1t43.5 -1l14 10q18 33 31.5 54.5t26 41t28 42t37.5 57.5q18 -29 31.5 -50.5l27 -43t28 -46t34.5 -59.5l14 -10q29 4 54.5 5t52.5 3q23 0 46.5 1 t45.5 1l10 15q-29 43 -51 78.5t-40.5 67.5t-35 62.5t-32.5 65.5l-15 8q-39 -2 -78 -2h-75h-72t-72 2l-16 -10q-39 -72 -84 -147.5t-80 -128.5z" />
<glyph unicode="&#xdc;" horiz-adv-x="1409" d="M150 1432q2 -100 3 -164t2 -123.5t1 -130.5v-180v-209q0 -90 2 -160t12 -127t32.5 -106.5t63.5 -96.5q20 -23 55 -51.5t89.5 -54t130 -43t174.5 -17.5q125 0 236.5 36t185.5 116q45 49 68.5 104.5t34.5 111.5t13 110.5t2 101.5l-2 184q0 57 -1 100.5t-1 77.5v66v63v105 q0 43 1 85t2 90t3 118l-12 14q-31 -2 -51 -3t-39 -1q-18 0 -40.5 -1t-57.5 -1l-10 -14q6 -88 9 -186.5t4 -199t2 -199.5t1 -188q0 -121 -5 -209t-40 -153q-29 -57 -71 -88t-85 -46.5t-80 -18.5t-55 -3q-106 0 -167.5 34t-88.5 67q-53 63 -64.5 161.5t-11.5 251.5v176t1 210 t2 212.5t5 184.5l-10 14q-39 -2 -63.5 -3t-46.5 -1q-23 0 -49.5 -1t-69.5 -1zM360 1583l15 -14h219l14 16q0 33 -1 55.5t-1 42.5q0 23 1 45.5t3 57.5l-14 14q-41 -2 -66.5 -3t-48.5 -1t-46 1t-60 1l-15 -16v-199zM838 1585l14 -14h61h54t50 -1t58 -3l15 16v105q0 43 2 98 l-15 12q-29 0 -57.5 -1t-56.5 -1q-29 0 -55.5 1t-55.5 1l-14 -18q0 -31 1 -52.5t1 -41.5q0 -18 -1 -42t-1 -59z" />
<glyph unicode="&#xdd;" horiz-adv-x="1110" d="M-14 1425q68 -119 128 -227t114.5 -209.5t104.5 -199t101 -195.5q2 -20 2 -43v-53v-103q0 -63 -1 -134t-3 -138.5t-4 -112.5l12 -14q33 2 57.5 3t49.5 1t52.5 -1t66.5 -1l12 14q-4 55 -5 118t-3 123t-2 114v88v67q0 37 2 88q25 47 41 79t35.5 69t47 88t74.5 135 q59 106 95 171t62 110t47.5 82.5t51.5 91.5l-12 16q-31 -2 -52.5 -3t-42 -2t-44.5 -1h-62l-16 -12q-27 -55 -64.5 -133t-81.5 -165t-90.5 -175.5t-89.5 -163.5q-53 106 -88 173.5t-65.5 129t-64.5 133.5t-87 182q-4 10 -8 17.5t-8 17.5l-17 8q-29 -2 -58.5 -4t-59.5 -4 l-117 -6zM442 1561l9 -15h155l15 8q35 47 59.5 80t48 62.5t48 60.5t61.5 74l-7 16q-47 0 -76.5 -1t-56.5 -1h-59h-80l-12 -14q-18 -63 -47 -138t-58 -132z" />
<glyph unicode="&#xde;" d="M147 1430q10 -231 12.5 -461t2.5 -461q0 -98 -1 -171t-2 -130t-2 -104.5t-3 -94.5l12 -14q39 2 66.5 3t51 2t48.5 1h55l12 14q-2 27 -3 48.5t-1 52.5q0 33 -1 80t-3 127h121q66 0 133.5 6t133 22.5t124.5 46.5q49 27 91 65t75 87t51.5 109.5t18.5 132.5q0 51 -13.5 110.5 t-45 114.5t-87 101t-141.5 75q-74 25 -155 28t-183 3l-125 -2v57q0 33 1 62.5t2 55t1 42.5l-14 14q-37 -2 -62.5 -3t-49 -2t-50.5 -1h-59zM383 727q0 18 1 65.5t1 98.5t1 97t1 63l55 4q35 2 68 2h68q31 0 73.5 -2t85.5 -16.5t83 -43t65 -80.5q14 -33 19 -65.5t5 -61.5 q0 -39 -8 -76.5t-27 -70.5q-31 -55 -78.5 -86t-106 -46t-123 -18.5t-128.5 -3.5h-51q0 14 -1 49t-1 72q0 39 -1 73t-1 46z" />
<glyph unicode="&#xdf;" d="M137 8l10 -14q37 2 63 3t48.5 2t47 2t63.5 1l10 12q-12 174 -14.5 350.5t-2.5 352.5v117t2.5 160.5t4.5 156.5t8 104q4 20 12 55.5t30.5 67t63.5 55t109 23.5q96 0 145 -61.5t49 -151.5q0 -51 -13 -93t-33.5 -79t-45 -68.5t-49.5 -60.5l-51 -59q-16 -20 -30.5 -43 t-14.5 -49q0 -43 38 -88.5t91 -92.5l55 -49q63 -55 100 -95t55.5 -68.5t24 -49t5.5 -41.5q0 -20 -8.5 -47t-29 -50.5t-55 -39.5t-90.5 -16q-66 0 -113 17t-73 32l-17 -10v-156l11 -17q35 -10 83 -22t122 -12q113 0 186.5 34.5t118.5 86t63.5 112t18.5 109.5q0 57 -14.5 101 t-39 81t-59.5 71.5t-74 71.5l-88 76q-10 8 -18 16.5t-19 16.5q-23 18 -41 38.5t-18 45.5q0 8 2 15t9 16.5t20.5 25t35.5 39.5l62 66q12 14 31.5 38.5t37 59.5t31 81t13.5 101q0 152 -110 240t-290 88q-57 0 -121.5 -10.5t-128.5 -44.5q-74 -41 -114.5 -93.5t-61 -106.5 t-24.5 -105.5t-6 -90.5v-80v-276q0 -25 -1.5 -83t-1.5 -124t-1 -123t-1 -80q0 -90 -1 -145t-2 -94t-2 -73t-3 -79z" />
<glyph unicode="&#xe0;" horiz-adv-x="1067" d="M80 317q0 -76 25.5 -139t71.5 -108t109.5 -70t141.5 -25q57 0 104.5 12.5t83 29t60 34t39.5 29.5l-2 -74l8 -12q35 2 58.5 3t44 2t44 2t60.5 1l10 10q-4 49 -6 84t-4 76t-2 96v154v203q0 66 -2 139.5t-13 116.5q-16 59 -50 100t-80 65.5t-100 35t-112 10.5 q-92 0 -180 -18.5t-174 -49.5l-12 -12q0 -16 -1 -28.5t-1 -29.5q0 -14 -1 -35.5t-3 -56.5l16 -10q66 29 138.5 53.5t172.5 24.5q78 0 116 -23.5t54 -52.5q14 -25 16.5 -55.5t2.5 -71.5l-35 -4q-139 -16 -250 -43t-187.5 -73t-118.5 -116.5t-42 -173.5zM285 1499 q37 -53 61.5 -88t46 -67.5t44 -67.5t52.5 -84l13 -12q25 2 40 3t29 1h31h43l10 16q-31 78 -49 125t-29.5 78t-17.5 53.5t-14 50.5l-15 11q-41 0 -69.5 -1t-55.5 -1h-51h-61zM297 330q0 68 34 109.5t89 67t126.5 39t149.5 25.5l19 4v-342q-8 -8 -26.5 -22t-46.5 -29.5 t-65.5 -27t-84.5 -11.5q-74 0 -113 28t-57.5 61.5t-21.5 63.5t-3 34z" />
<glyph unicode="&#xe1;" horiz-adv-x="1067" d="M80 317q0 -76 25.5 -139t71.5 -108t109.5 -70t141.5 -25q57 0 104.5 12.5t83 29t60 34t39.5 29.5l-2 -74l8 -12q35 2 58.5 3t44 2t44 2t60.5 1l10 10q-4 49 -6 84t-4 76t-2 96v154v203q0 66 -2 139.5t-13 116.5q-16 59 -50 100t-80 65.5t-100 35t-112 10.5 q-92 0 -180 -18.5t-174 -49.5l-12 -12q0 -16 -1 -28.5t-1 -29.5q0 -14 -1 -35.5t-3 -56.5l16 -10q66 29 138.5 53.5t172.5 24.5q78 0 116 -23.5t54 -52.5q14 -25 16.5 -55.5t2.5 -71.5l-35 -4q-139 -16 -250 -43t-187.5 -73t-118.5 -116.5t-42 -173.5zM297 330 q0 68 34 109.5t89 67t126.5 39t149.5 25.5l19 4v-342q-8 -8 -26.5 -22t-46.5 -29.5t-65.5 -27t-84.5 -11.5q-74 0 -113 28t-57.5 61.5t-21.5 63.5t-3 34zM417 1196l9 -14h80q29 0 69 -2l15 8q35 55 57 92t43.5 69.5t47.5 67.5t62 86l-8 17q-29 -2 -59 -2h-57h-58t-63 2 l-13 -11q-35 -100 -71.5 -188t-53.5 -125z" />
<glyph unicode="&#xe2;" horiz-adv-x="1067" d="M80 317q0 -76 25.5 -139t71.5 -108t109.5 -70t141.5 -25q57 0 104.5 12.5t83 29t60 34t39.5 29.5l-2 -74l8 -12q35 2 58.5 3t44 2t44 2t60.5 1l10 10q-4 49 -6 84t-4 76t-2 96v154v203q0 66 -2 139.5t-13 116.5q-16 59 -50 100t-80 65.5t-100 35t-112 10.5 q-92 0 -180 -18.5t-174 -49.5l-12 -12q0 -16 -1 -28.5t-1 -29.5q0 -14 -1 -35.5t-3 -56.5l16 -10q66 29 138.5 53.5t172.5 24.5q78 0 116 -23.5t54 -52.5q14 -25 16.5 -55.5t2.5 -71.5l-35 -4q-139 -16 -250 -43t-187.5 -73t-118.5 -116.5t-42 -173.5zM248 1200l6 -16 q27 2 45 2h33q16 0 32.5 -1t39.5 -1l14 12l56.5 113t52.5 98q16 -31 28.5 -54.5t23.5 -45t23.5 -47t30.5 -62.5l12 -10q33 2 54.5 3t40.5 1q18 0 37.5 -1t50.5 -1l8 18q-33 59 -72 142.5t-74 160.5l-14 11h-61q-33 0 -69 -1t-71 -1h-59l-16 -13q-27 -57 -43.5 -92 t-31.5 -65.5t-32.5 -64.5t-44.5 -85zM297 330q0 68 34 109.5t89 67t126.5 39t149.5 25.5l19 4v-342q-8 -8 -26.5 -22t-46.5 -29.5t-65.5 -27t-84.5 -11.5q-74 0 -113 28t-57.5 61.5t-21.5 63.5t-3 34z" />
<glyph unicode="&#xe3;" horiz-adv-x="1067" d="M80 317q0 -76 25.5 -139t71.5 -108t109.5 -70t141.5 -25q57 0 104.5 12.5t83 29t60 34t39.5 29.5l-2 -74l8 -12q35 2 58.5 3t44 2t44 2t60.5 1l10 10q-4 49 -6 84t-4 76t-2 96v154v203q0 66 -2 139.5t-13 116.5q-16 59 -50 100t-80 65.5t-100 35t-112 10.5 q-92 0 -180 -18.5t-174 -49.5l-12 -12q0 -16 -1 -28.5t-1 -29.5q0 -14 -1 -35.5t-3 -56.5l16 -10q66 29 138.5 53.5t172.5 24.5q78 0 116 -23.5t54 -52.5q14 -25 16.5 -55.5t2.5 -71.5l-35 -4q-139 -16 -250 -43t-187.5 -73t-118.5 -116.5t-42 -173.5zM203 1208l19 -8 q31 39 68.5 61.5t88.5 22.5q41 0 79 -13.5t57 -21.5l55 -22q23 -10 51.5 -19.5t63.5 -9.5q59 0 101 27.5t66 50.5l7 14q0 25 1 42.5t2 32.5t2 34.5t3 48.5l-21 6q-29 -41 -66.5 -62.5t-88.5 -21.5q-27 0 -52.5 7t-60.5 22l-63 24q-33 12 -66 22.5t-68 10.5q-61 0 -100 -25.5 t-61 -46.5l-11 -16v-45q0 -16 -1 -32.5t-2 -35t-3 -47.5zM297 330q0 68 34 109.5t89 67t126.5 39t149.5 25.5l19 4v-342q-8 -8 -26.5 -22t-46.5 -29.5t-65.5 -27t-84.5 -11.5q-74 0 -113 28t-57.5 61.5t-21.5 63.5t-3 34z" />
<glyph unicode="&#xe4;" horiz-adv-x="1067" d="M80 317q0 -76 25.5 -139t71.5 -108t109.5 -70t141.5 -25q57 0 104.5 12.5t83 29t60 34t39.5 29.5l-2 -74l8 -12q35 2 58.5 3t44 2t44 2t60.5 1l10 10q-4 49 -6 84t-4 76t-2 96v154v203q0 66 -2 139.5t-13 116.5q-16 59 -50 100t-80 65.5t-100 35t-112 10.5 q-92 0 -180 -18.5t-174 -49.5l-12 -12q0 -16 -1 -28.5t-1 -29.5q0 -14 -1 -35.5t-3 -56.5l16 -10q66 29 138.5 53.5t172.5 24.5q78 0 116 -23.5t54 -52.5q14 -25 16.5 -55.5t2.5 -71.5l-35 -4q-139 -16 -250 -43t-187.5 -73t-118.5 -116.5t-42 -173.5zM225 1262l13 -17 q35 2 57 3t45 1h47h68l12 17q0 27 -1 48t-1 44t1 48.5t1 61.5l-14 17q-35 -2 -57.5 -3t-45.5 -1h-45h-63l-17 -19q2 -35 2 -59v-45v-43t-2 -53zM297 330q0 68 34 109.5t89 67t126.5 39t149.5 25.5l19 4v-342q-8 -8 -26.5 -22t-46.5 -29.5t-65.5 -27t-84.5 -11.5 q-74 0 -113 28t-57.5 61.5t-21.5 63.5t-3 34zM643 1266l12 -17q37 0 62.5 1t48.5 1h49h59l15 17q-2 37 -3 62.5t-1 47.5q0 23 1 43.5t1 48.5l-15 15q-37 -2 -62.5 -3t-47.5 -1q-23 0 -46.5 1t-56.5 1l-16 -15q0 -31 1 -52t1 -44q0 -20 -1 -46t-1 -60z" />
<glyph unicode="&#xe5;" horiz-adv-x="1067" d="M80 317q0 -76 25.5 -139t71.5 -108t109.5 -70t141.5 -25q57 0 104.5 12.5t83 29t60 34t39.5 29.5l-2 -74l8 -12q35 2 58.5 3t44 2t44 2t60.5 1l10 10q-4 49 -6 84t-4 76t-2 96v154v203q0 66 -2 139.5t-13 116.5q-16 59 -50 100t-80 65.5t-100 35t-112 10.5 q-92 0 -180 -18.5t-174 -49.5l-12 -12q0 -16 -1 -28.5t-1 -29.5q0 -14 -1 -35.5t-3 -56.5l16 -10q66 29 138.5 53.5t172.5 24.5q78 0 116 -23.5t54 -52.5q14 -25 16.5 -55.5t2.5 -71.5l-35 -4q-139 -16 -250 -43t-187.5 -73t-118.5 -116.5t-42 -173.5zM297 330 q0 68 34 109.5t89 67t126.5 39t149.5 25.5l19 4v-342q-8 -8 -26.5 -22t-46.5 -29.5t-65.5 -27t-84.5 -11.5q-74 0 -113 28t-57.5 61.5t-21.5 63.5t-3 34zM309 1376q0 -43 14.5 -84t44 -71.5t73.5 -49t106 -18.5q61 0 107.5 18.5t77 51t46 75t15.5 91.5q-2 98 -67.5 158.5 t-172.5 60.5q-115 0 -179.5 -67.5t-64.5 -164.5zM459 1382q0 63 30.5 93t63.5 30q39 0 66.5 -33t27.5 -92q0 -4 -2 -24.5t-10 -43t-27.5 -41t-52.5 -18.5q-43 0 -69.5 34t-26.5 95z" />
<glyph unicode="&#xe6;" horiz-adv-x="1748" d="M63 315q0 -63 25 -124.5t74 -108.5t122.5 -77t172.5 -30q78 0 138 15.5t106.5 40t81 53.5t61.5 53q23 -27 59.5 -59.5t114.5 -63.5q57 -23 116.5 -31t120.5 -8q102 0 176 18.5t123 41.5q31 12 52 26l10 15q2 29 4 48t3 37.5t4 39t7 53.5l-20 8q-18 -12 -48 -33.5t-73 -41 t-97.5 -34t-119.5 -14.5q-111 0 -199 52.5t-121 160.5q-10 35 -14 74t-4 80q86 2 168 2h170q98 0 195.5 -1t189.5 -1l12 14q2 47 1 96.5t-13 118.5q-23 117 -75 187.5t-115.5 107.5t-127 49.5t-110.5 12.5q-78 0 -138.5 -17.5t-104.5 -42t-72.5 -50.5t-47.5 -44 q-29 53 -67.5 84t-80.5 46t-83 19.5t-74 4.5q-119 0 -216 -26t-156 -44l-13 -12v-45t-1 -35t-3 -33t-4 -41l18 -10q59 29 142.5 57.5t193.5 28.5q76 0 117 -22.5t60.5 -58.5t22.5 -79t3 -84v-26q-59 0 -131 -2.5t-145.5 -12.5t-144 -31.5t-125 -59.5t-87.5 -96.5t-33 -144.5 zM283 315q0 72 47 110t116.5 55.5t146.5 19.5t138 2q2 -49 6 -84t9.5 -59.5t10.5 -43t11 -36.5q-12 -12 -34.5 -35t-57.5 -44.5t-82 -37t-109 -15.5q-53 0 -92 15.5t-63.5 40t-35.5 54.5t-11 58zM936 662q10 78 39 131t68.5 86.5t86 49t89.5 15.5q76 0 123 -30.5t73.5 -75.5 t36.5 -93t12 -81q-96 -2 -157.5 -3.5t-116.5 -1.5q-53 0 -110.5 1.5t-143.5 1.5z" />
<glyph unicode="&#xe7;" horiz-adv-x="937" d="M90 520q0 -121 36 -220t102.5 -171t160.5 -112t211 -40q109 0 173.5 24t109.5 46l14 14q2 31 4 51.5t3 39t3 39t6 53.5l-16 8q-14 -12 -37.5 -29.5t-56.5 -34t-76 -27.5t-94 -11q-59 0 -116.5 20t-102.5 64.5t-72 117t-27 176.5q0 98 26 172t70 123t102 74t122 25 q61 0 118.5 -21.5t108.5 -58.5l17 8q2 45 5 75.5t9 86.5l-8 14q-41 16 -110.5 41t-170.5 25q-119 0 -214 -43t-161.5 -120t-102.5 -181.5t-36 -227.5zM387 -365l8 -16q37 0 60.5 1t44.5 1q20 0 41.5 -1t52.5 -1l14 14q12 43 21.5 74t18.5 59.5t19.5 60.5t24.5 75l-8 12 q-31 0 -75 1t-77 1l-14 -12q-20 -43 -34.5 -74t-29 -58.5t-29.5 -59t-38 -77.5z" />
<glyph unicode="&#xe8;" horiz-adv-x="1110" d="M90 524q0 -133 38 -235.5t109.5 -172t172 -105.5t227.5 -36q68 0 123 9.5t96 22.5t68.5 26.5t40.5 19.5l12 15q2 31 3 51t3 38.5t4 40t6 52.5l-16 10q-20 -16 -55 -41.5t-93 -48.5q-86 -31 -178 -31q-25 0 -56.5 3t-67 14.5t-72.5 34t-68 59.5q-53 63 -64.5 133 t-13.5 123q84 0 147.5 1t114.5 1h99h98t111.5 -1t140.5 -1l14 12v84q0 53 -10 113.5t-33.5 121t-66.5 113.5q-47 55 -130 98.5t-206 43.5q-100 0 -190.5 -35t-159 -105.5t-108.5 -177t-40 -250.5zM306 1499q37 -53 61.5 -88t46 -67.5t44 -67.5t52.5 -84l13 -12q25 2 40 3 t29 1h31h43l10 16q-31 78 -49 125t-29.5 78t-17.5 53.5t-14 50.5l-15 11q-41 0 -69.5 -1t-55.5 -1h-51h-61zM309 662q8 76 35 130t64.5 87.5t83 49t88.5 15.5q70 0 131 -37t92 -123q12 -35 15 -66t5 -54q-72 0 -126 -1t-109 -1h-121h-158z" />
<glyph unicode="&#xe9;" horiz-adv-x="1110" d="M90 524q0 -133 38 -235.5t109.5 -172t172 -105.5t227.5 -36q68 0 123 9.5t96 22.5t68.5 26.5t40.5 19.5l12 15q2 31 3 51t3 38.5t4 40t6 52.5l-16 10q-20 -16 -55 -41.5t-93 -48.5q-86 -31 -178 -31q-25 0 -56.5 3t-67 14.5t-72.5 34t-68 59.5q-53 63 -64.5 133 t-13.5 123q84 0 147.5 1t114.5 1h99h98t111.5 -1t140.5 -1l14 12v84q0 53 -10 113.5t-33.5 121t-66.5 113.5q-47 55 -130 98.5t-206 43.5q-100 0 -190.5 -35t-159 -105.5t-108.5 -177t-40 -250.5zM309 662q8 76 35 130t64.5 87.5t83 49t88.5 15.5q70 0 131 -37t92 -123 q12 -35 15 -66t5 -54q-72 0 -126 -1t-109 -1h-121h-158zM438 1196l9 -14h80q29 0 69 -2l15 8q35 55 57 92t43.5 69.5t47.5 67.5t62 86l-8 17q-29 -2 -59 -2h-57h-58t-63 2l-13 -11q-35 -100 -71.5 -188t-53.5 -125z" />
<glyph unicode="&#xea;" horiz-adv-x="1110" d="M90 524q0 -133 38 -235.5t109.5 -172t172 -105.5t227.5 -36q68 0 123 9.5t96 22.5t68.5 26.5t40.5 19.5l12 15q2 31 3 51t3 38.5t4 40t6 52.5l-16 10q-20 -16 -55 -41.5t-93 -48.5q-86 -31 -178 -31q-25 0 -56.5 3t-67 14.5t-72.5 34t-68 59.5q-53 63 -64.5 133 t-13.5 123q84 0 147.5 1t114.5 1h99h98t111.5 -1t140.5 -1l14 12v84q0 53 -10 113.5t-33.5 121t-66.5 113.5q-47 55 -130 98.5t-206 43.5q-100 0 -190.5 -35t-159 -105.5t-108.5 -177t-40 -250.5zM289 1200l6 -16q27 2 45 2h33q16 0 32.5 -1t39.5 -1l14 12l56.5 113t52.5 98 q16 -31 28.5 -54.5t23.5 -45t23.5 -47t30.5 -62.5l12 -10q33 2 54.5 3t40.5 1q18 0 37.5 -1t50.5 -1l8 18q-33 59 -72 142.5t-74 160.5l-14 11h-61q-33 0 -69 -1t-71 -1h-59l-16 -13q-27 -57 -43.5 -92t-31.5 -65.5t-32.5 -64.5t-44.5 -85zM309 662q8 76 35 130t64.5 87.5 t83 49t88.5 15.5q70 0 131 -37t92 -123q12 -35 15 -66t5 -54q-72 0 -126 -1t-109 -1h-121h-158z" />
<glyph unicode="&#xeb;" horiz-adv-x="1110" d="M90 524q0 -133 38 -235.5t109.5 -172t172 -105.5t227.5 -36q68 0 123 9.5t96 22.5t68.5 26.5t40.5 19.5l12 15q2 31 3 51t3 38.5t4 40t6 52.5l-16 10q-20 -16 -55 -41.5t-93 -48.5q-86 -31 -178 -31q-25 0 -56.5 3t-67 14.5t-72.5 34t-68 59.5q-53 63 -64.5 133 t-13.5 123q84 0 147.5 1t114.5 1h99h98t111.5 -1t140.5 -1l14 12v84q0 53 -10 113.5t-33.5 121t-66.5 113.5q-47 55 -130 98.5t-206 43.5q-100 0 -190.5 -35t-159 -105.5t-108.5 -177t-40 -250.5zM254 1262l13 -17q35 2 57 3t45 1h47h68l12 17q0 27 -1 48t-1 44t1 48.5 t1 61.5l-14 17q-35 -2 -57.5 -3t-45.5 -1h-45h-63l-17 -19q2 -35 2 -59v-45v-43t-2 -53zM309 662q8 76 35 130t64.5 87.5t83 49t88.5 15.5q70 0 131 -37t92 -123q12 -35 15 -66t5 -54q-72 0 -126 -1t-109 -1h-121h-158zM672 1266l12 -17q37 0 62.5 1t48.5 1h49h59l15 17 q-2 37 -3 62.5t-1 47.5q0 23 1 43.5t1 48.5l-15 15q-37 -2 -62.5 -3t-47.5 -1q-23 0 -46.5 1t-56.5 1l-16 -15q0 -31 1 -52t1 -44q0 -20 -1 -46t-1 -60z" />
<glyph unicode="&#xec;" horiz-adv-x="512" d="M9 1499q37 -53 61.5 -88t46 -67.5t44 -67.5t52.5 -84l13 -12q25 2 40 3t29 1h31h43l10 16q-31 78 -49 125t-29.5 78t-17.5 53.5t-14 50.5l-15 11q-41 0 -69.5 -1t-55.5 -1h-51h-61zM127 1024q6 -45 9 -87t6 -104.5t4 -154.5t1 -240q0 -86 -1 -148.5t-3 -111.5t-4 -89 t-4 -81l10 -14q37 2 61.5 3t47 2t48.5 2t67 1l10 12q-4 51 -6 94.5t-3 101.5t-2 145t-1 231q0 98 1 170.5t3 128t4 98.5t4 84l-21 12q-39 -8 -65.5 -13t-50 -10t-48 -8.5t-57.5 -9.5z" />
<glyph unicode="&#xed;" horiz-adv-x="512" d="M127 1024q6 -45 9 -87t6 -104.5t4 -154.5t1 -240q0 -86 -1 -148.5t-3 -111.5t-4 -89t-4 -81l10 -14q37 2 61.5 3t47 2t48.5 2t67 1l10 12q-4 51 -6 94.5t-3 101.5t-2 145t-1 231q0 98 1 170.5t3 128t4 98.5t4 84l-21 12q-39 -8 -65.5 -13t-50 -10t-48 -8.5t-57.5 -9.5z M139 1196l9 -14h80q29 0 69 -2l15 8q35 55 57 92t43.5 69.5t47.5 67.5t62 86l-8 17q-29 -2 -59 -2h-57h-58t-63 2l-13 -11q-35 -100 -71.5 -188t-53.5 -125z" />
<glyph unicode="&#xee;" horiz-adv-x="512" d="M-29 1200l6 -16q27 2 45 2h33q16 0 32.5 -1t39.5 -1l14 12l56.5 113t52.5 98q16 -31 28.5 -54.5t23.5 -45t23.5 -47t30.5 -62.5l12 -10q33 2 54.5 3t40.5 1q18 0 37.5 -1t50.5 -1l8 18q-33 59 -72 142.5t-74 160.5l-14 11h-61q-33 0 -69 -1t-71 -1h-59l-16 -13 q-27 -57 -43.5 -92t-31.5 -65.5t-32.5 -64.5t-44.5 -85zM127 1024q6 -45 9 -87t6 -104.5t4 -154.5t1 -240q0 -86 -1 -148.5t-3 -111.5t-4 -89t-4 -81l10 -14q37 2 61.5 3t47 2t48.5 2t67 1l10 12q-4 51 -6 94.5t-3 101.5t-2 145t-1 231q0 98 1 170.5t3 128t4 98.5t4 84 l-21 12q-39 -8 -65.5 -13t-50 -10t-48 -8.5t-57.5 -9.5z" />
<glyph unicode="&#xef;" horiz-adv-x="512" d="M-74 1262l13 -17q35 2 57 3t45 1h47h68l12 17q0 27 -1 48t-1 44t1 48.5t1 61.5l-14 17q-35 -2 -57.5 -3t-45.5 -1h-45h-63l-17 -19q2 -35 2 -59v-45v-43t-2 -53zM127 1024q6 -45 9 -87t6 -104.5t4 -154.5t1 -240q0 -86 -1 -148.5t-3 -111.5t-4 -89t-4 -81l10 -14 q37 2 61.5 3t47 2t48.5 2t67 1l10 12q-4 51 -6 94.5t-3 101.5t-2 145t-1 231q0 98 1 170.5t3 128t4 98.5t4 84l-21 12q-39 -8 -65.5 -13t-50 -10t-48 -8.5t-57.5 -9.5zM344 1266l12 -17q37 0 62.5 1t48.5 1h49h59l15 17q-2 37 -3 62.5t-1 47.5q0 23 1 43.5t1 48.5l-15 15 q-37 -2 -62.5 -3t-47.5 -1q-23 0 -46.5 1t-56.5 1l-16 -15q0 -31 1 -52t1 -44q0 -20 -1 -46t-1 -60z" />
<glyph unicode="&#xf0;" d="M92 535q0 -139 36 -245t100.5 -175.5t153.5 -104.5t198 -35q170 0 282.5 72t165.5 170q27 45 41 95t22.5 98.5t10.5 92.5t2 75q0 150 -24.5 269.5t-59.5 212.5t-73 160.5t-66 114.5q51 12 88 19.5t90 15.5l10 19q-8 18 -14 30.5t-12.5 24.5t-13.5 27.5t-17 39.5l-23 11 q-10 -4 -38.5 -12.5t-61.5 -16.5t-61.5 -16.5t-39.5 -10.5q-37 47 -65.5 78t-63.5 64l-24 8l-86 -17q-25 -4 -50.5 -8t-52.5 -8l-6 -18q23 -16 63 -51t87 -99q-43 -12 -78 -21.5t-69.5 -16.5t-74.5 -15t-92 -16l-6 -17l52 -123l18 -8q29 8 83 22.5t108.5 28t96.5 23.5t48 12 q25 -39 40 -66.5t27.5 -54t22.5 -55.5t25 -70q-23 16 -70 37t-133 21q-43 0 -95.5 -9.5t-105.5 -32t-104.5 -61.5t-92.5 -98q-35 -47 -54 -98.5t-28.5 -99.5t-12.5 -90t-3 -72zM317 528q0 35 4.5 103.5t32 136.5t85 118t165.5 50q82 0 133 -33t79 -76t39 -85.5t15 -65.5 q4 -35 8.5 -72t4.5 -80t-7.5 -109.5t-35 -130t-83 -109.5t-153.5 -46q-61 0 -110 23q-66 29 -102 80t-52 107t-19.5 107.5t-3.5 81.5z" />
<glyph unicode="&#xf1;" d="M127 1024q4 -51 8 -111.5t8 -136.5t6.5 -172t2.5 -219q0 -115 -2.5 -203t-4.5 -174l11 -14q37 2 61.5 3t46 2t46 2t61.5 1l12 12q-6 90 -9 173t-5 174.5t-2 195.5v240q20 16 47.5 35.5t62.5 37t75 29.5t87 12q10 0 34.5 -2t53.5 -17t55.5 -47t40.5 -89q4 -16 6 -32.5 t4.5 -54.5t2.5 -106v-186v-152q0 -74 -2 -149q0 -16 -1.5 -33.5t-1.5 -34.5l15 -14q35 2 57.5 3t43 2t44 2t60.5 1l12 12q-2 29 -4 63t-3 81t-3 111.5t-4 154.5v240q-2 96 -6.5 149t-24.5 100q-35 84 -119 134q-41 23 -86 30.5t-84 7.5q-68 0 -125 -14t-103 -34.5t-79 -42 t-53 -36.5l2 107l-15 14q-37 -6 -60.5 -11t-46 -9t-47 -9.5t-63.5 -11.5zM268 1208l19 -8q31 39 68.5 61.5t88.5 22.5q41 0 79 -13.5t57 -21.5l55 -22q23 -10 51.5 -19.5t63.5 -9.5q59 0 101 27.5t66 50.5l7 14q0 25 1 42.5t2 32.5t2 34.5t3 48.5l-21 6q-29 -41 -66.5 -62.5 t-88.5 -21.5q-27 0 -52.5 7t-60.5 22l-63 24q-33 12 -66 22.5t-68 10.5q-61 0 -100 -25.5t-61 -46.5l-11 -16v-45q0 -16 -1 -32.5t-2 -35t-3 -47.5z" />
<glyph unicode="&#xf2;" d="M90 532q0 -25 2 -73.5t16.5 -107t42 -121t80.5 -115.5q49 -51 138.5 -94.5t228.5 -43.5q109 0 198 29t156 96q100 100 133 248q10 47 14.5 96.5t4.5 102.5q-4 109 -28.5 211t-96.5 184q-68 78 -165 113t-202 35q-78 0 -138 -14.5t-107.5 -36t-81 -46t-54.5 -47.5 q-51 -51 -79.5 -111.5t-42 -119t-16.5 -107.5t-3 -78zM315 528q0 66 10.5 146t51.5 143q27 43 59.5 66.5t65.5 36t59.5 14.5t40.5 2q86 0 138.5 -35t80.5 -82q18 -35 30.5 -74.5t19 -78.5t8.5 -73t2 -52v-49q0 -31 -5.5 -69t-14.5 -79t-27 -76q-45 -84 -111 -110.5 t-123 -26.5q-31 0 -61.5 6t-59.5 21q-61 31 -94 81t-48 104t-18.5 104.5t-3.5 80.5zM351 1499q37 -53 61.5 -88t46 -67.5t44 -67.5t52.5 -84l13 -12q25 2 40 3t29 1h31h43l10 16q-31 78 -49 125t-29.5 78t-17.5 53.5t-14 50.5l-15 11q-41 0 -69.5 -1t-55.5 -1h-51h-61z" />
<glyph unicode="&#xf3;" d="M90 532q0 -25 2 -73.5t16.5 -107t42 -121t80.5 -115.5q49 -51 138.5 -94.5t228.5 -43.5q109 0 198 29t156 96q100 100 133 248q10 47 14.5 96.5t4.5 102.5q-4 109 -28.5 211t-96.5 184q-68 78 -165 113t-202 35q-78 0 -138 -14.5t-107.5 -36t-81 -46t-54.5 -47.5 q-51 -51 -79.5 -111.5t-42 -119t-16.5 -107.5t-3 -78zM315 528q0 66 10.5 146t51.5 143q27 43 59.5 66.5t65.5 36t59.5 14.5t40.5 2q86 0 138.5 -35t80.5 -82q18 -35 30.5 -74.5t19 -78.5t8.5 -73t2 -52v-49q0 -31 -5.5 -69t-14.5 -79t-27 -76q-45 -84 -111 -110.5 t-123 -26.5q-31 0 -61.5 6t-59.5 21q-61 31 -94 81t-48 104t-18.5 104.5t-3.5 80.5zM483 1196l9 -14h80q29 0 69 -2l15 8q35 55 57 92t43.5 69.5t47.5 67.5t62 86l-8 17q-29 -2 -59 -2h-57h-58t-63 2l-13 -11q-35 -100 -71.5 -188t-53.5 -125z" />
<glyph unicode="&#xf4;" d="M90 532q0 -25 2 -73.5t16.5 -107t42 -121t80.5 -115.5q49 -51 138.5 -94.5t228.5 -43.5q109 0 198 29t156 96q100 100 133 248q10 47 14.5 96.5t4.5 102.5q-4 109 -28.5 211t-96.5 184q-68 78 -165 113t-202 35q-78 0 -138 -14.5t-107.5 -36t-81 -46t-54.5 -47.5 q-51 -51 -79.5 -111.5t-42 -119t-16.5 -107.5t-3 -78zM313 1200l6 -16q27 2 45 2h33q16 0 32.5 -1t39.5 -1l14 12l56.5 113t52.5 98q16 -31 28.5 -54.5t23.5 -45t23.5 -47t30.5 -62.5l12 -10q33 2 54.5 3t40.5 1q18 0 37.5 -1t50.5 -1l8 18q-33 59 -72 142.5t-74 160.5 l-14 11h-61q-33 0 -69 -1t-71 -1h-59l-16 -13q-27 -57 -43.5 -92t-31.5 -65.5t-32.5 -64.5t-44.5 -85zM315 528q0 66 10.5 146t51.5 143q27 43 59.5 66.5t65.5 36t59.5 14.5t40.5 2q86 0 138.5 -35t80.5 -82q18 -35 30.5 -74.5t19 -78.5t8.5 -73t2 -52v-49q0 -31 -5.5 -69 t-14.5 -79t-27 -76q-45 -84 -111 -110.5t-123 -26.5q-31 0 -61.5 6t-59.5 21q-61 31 -94 81t-48 104t-18.5 104.5t-3.5 80.5z" />
<glyph unicode="&#xf5;" d="M90 532q0 -25 2 -73.5t16.5 -107t42 -121t80.5 -115.5q49 -51 138.5 -94.5t228.5 -43.5q109 0 198 29t156 96q100 100 133 248q10 47 14.5 96.5t4.5 102.5q-4 109 -28.5 211t-96.5 184q-68 78 -165 113t-202 35q-78 0 -138 -14.5t-107.5 -36t-81 -46t-54.5 -47.5 q-51 -51 -79.5 -111.5t-42 -119t-16.5 -107.5t-3 -78zM268 1208l19 -8q31 39 68.5 61.5t88.5 22.5q41 0 79 -13.5t57 -21.5l55 -22q23 -10 51.5 -19.5t63.5 -9.5q59 0 101 27.5t66 50.5l7 14q0 25 1 42.5t2 32.5t2 34.5t3 48.5l-21 6q-29 -41 -66.5 -62.5t-88.5 -21.5 q-27 0 -52.5 7t-60.5 22l-63 24q-33 12 -66 22.5t-68 10.5q-61 0 -100 -25.5t-61 -46.5l-11 -16v-45q0 -16 -1 -32.5t-2 -35t-3 -47.5zM315 528q0 66 10.5 146t51.5 143q27 43 59.5 66.5t65.5 36t59.5 14.5t40.5 2q86 0 138.5 -35t80.5 -82q18 -35 30.5 -74.5t19 -78.5 t8.5 -73t2 -52v-49q0 -31 -5.5 -69t-14.5 -79t-27 -76q-45 -84 -111 -110.5t-123 -26.5q-31 0 -61.5 6t-59.5 21q-61 31 -94 81t-48 104t-18.5 104.5t-3.5 80.5z" />
<glyph unicode="&#xf6;" d="M90 532q0 -25 2 -73.5t16.5 -107t42 -121t80.5 -115.5q49 -51 138.5 -94.5t228.5 -43.5q109 0 198 29t156 96q100 100 133 248q10 47 14.5 96.5t4.5 102.5q-4 109 -28.5 211t-96.5 184q-68 78 -165 113t-202 35q-78 0 -138 -14.5t-107.5 -36t-81 -46t-54.5 -47.5 q-51 -51 -79.5 -111.5t-42 -119t-16.5 -107.5t-3 -78zM270 1262l13 -17q35 2 57 3t45 1h47h68l12 17q0 27 -1 48t-1 44t1 48.5t1 61.5l-14 17q-35 -2 -57.5 -3t-45.5 -1h-45h-63l-17 -19q2 -35 2 -59v-45v-43t-2 -53zM315 528q0 66 10.5 146t51.5 143q27 43 59.5 66.5 t65.5 36t59.5 14.5t40.5 2q86 0 138.5 -35t80.5 -82q18 -35 30.5 -74.5t19 -78.5t8.5 -73t2 -52v-49q0 -31 -5.5 -69t-14.5 -79t-27 -76q-45 -84 -111 -110.5t-123 -26.5q-31 0 -61.5 6t-59.5 21q-61 31 -94 81t-48 104t-18.5 104.5t-3.5 80.5zM688 1266l12 -17q37 0 62.5 1 t48.5 1h49h59l15 17q-2 37 -3 62.5t-1 47.5q0 23 1 43.5t1 48.5l-15 15q-37 -2 -62.5 -3t-47.5 -1q-23 0 -46.5 1t-56.5 1l-16 -15q0 -31 1 -52t1 -44q0 -20 -1 -46t-1 -60z" />
<glyph unicode="&#xf7;" horiz-adv-x="1366" d="M0 514h1366v162h-1366v-162zM569 297q0 -55 36 -85t77 -30q57 0 88 37t31 78q0 43 -30 80t-85 37q-57 0 -87 -38t-30 -79zM569 891q0 -55 36 -85t77 -30q57 0 88 37t31 78q0 43 -30 80t-85 37q-57 0 -87 -38t-30 -79z" />
<glyph unicode="&#xf8;" d="M-14 88l2 -16q23 -23 35 -36t38 -42h21l41 41l29.5 29.5t29 27.5t39.5 37q16 -20 53 -52t99 -61q55 -23 113.5 -32t115.5 -9q25 0 71 3.5t102 19.5t115.5 51t108.5 101q61 78 84 175t23 197q0 47 -3 94.5t-13 94.5q-12 59 -24.5 89.5t-25.5 55.5q25 20 42.5 35.5t34 30 t33.5 29t42 32.5l2 16q-25 27 -36 41.5t-38 42.5h-16q-37 -37 -63.5 -61.5t-69.5 -63.5q-16 14 -44 38t-71 45.5t-105.5 37t-144.5 15.5q-119 0 -214 -38t-161.5 -108.5t-102.5 -170t-36 -224.5q0 -35 3 -76t11 -86q10 -66 22.5 -100.5t23.5 -61.5q-29 -25 -48.5 -42 t-38 -32.5t-37 -30.5t-42.5 -36zM311 543q0 170 45 254t115 121q27 12 58.5 20t72.5 8q57 0 96 -14t64.5 -33.5t40 -39t20.5 -32.5l-499 -446q-4 29 -8.5 67.5t-4.5 94.5zM365 256l505 451q6 -35 12.5 -81t6.5 -118q0 -74 -12.5 -143.5t-44 -124t-89 -88t-145.5 -33.5 q-66 0 -125 25.5t-94 80.5q-4 6 -7 14.5t-7 16.5z" />
<glyph unicode="&#xf9;" d="M131 1049q2 -41 3 -74t2 -77t2 -109.5t3 -176.5v-127q0 -59 3 -120.5t15.5 -119t39 -109.5t75.5 -91t112 -54.5t122 -15.5q63 0 114.5 13.5t92.5 33t69.5 39t44.5 31.5l-2 -86l13 -12q35 2 58.5 3t45 2t45 2t60.5 1l8 12q-2 23 -3 43.5t-1 42.5q-4 66 -7.5 183.5 t-3.5 308.5q0 125 1 237.5t6 229.5l-13 14q-35 -2 -59.5 -3t-46 -2t-46 -2t-59.5 -1l-12 -14q4 -49 7 -90t4 -91.5t2 -119t1 -175.5v-165q0 -74 -2 -158q-18 -14 -43.5 -32.5t-57.5 -35t-71 -28t-84 -11.5q-78 0 -120.5 30t-62 73t-25 89t-5.5 79q-2 74 -1 113.5t1 80.5 l9 449l-13 14q-37 -4 -60.5 -5t-45 -2t-45 -2t-60.5 -1zM351 1499q37 -53 61.5 -88t46 -67.5t44 -67.5t52.5 -84l13 -12q25 2 40 3t29 1h31h43l10 16q-31 78 -49 125t-29.5 78t-17.5 53.5t-14 50.5l-15 11q-41 0 -69.5 -1t-55.5 -1h-51h-61z" />
<glyph unicode="&#xfa;" d="M131 1049q2 -41 3 -74t2 -77t2 -109.5t3 -176.5v-127q0 -59 3 -120.5t15.5 -119t39 -109.5t75.5 -91t112 -54.5t122 -15.5q63 0 114.5 13.5t92.5 33t69.5 39t44.5 31.5l-2 -86l13 -12q35 2 58.5 3t45 2t45 2t60.5 1l8 12q-2 23 -3 43.5t-1 42.5q-4 66 -7.5 183.5 t-3.5 308.5q0 125 1 237.5t6 229.5l-13 14q-35 -2 -59.5 -3t-46 -2t-46 -2t-59.5 -1l-12 -14q4 -49 7 -90t4 -91.5t2 -119t1 -175.5v-165q0 -74 -2 -158q-18 -14 -43.5 -32.5t-57.5 -35t-71 -28t-84 -11.5q-78 0 -120.5 30t-62 73t-25 89t-5.5 79q-2 74 -1 113.5t1 80.5 l9 449l-13 14q-37 -4 -60.5 -5t-45 -2t-45 -2t-60.5 -1zM483 1196l9 -14h80q29 0 69 -2l15 8q35 55 57 92t43.5 69.5t47.5 67.5t62 86l-8 17q-29 -2 -59 -2h-57h-58t-63 2l-13 -11q-35 -100 -71.5 -188t-53.5 -125z" />
<glyph unicode="&#xfb;" d="M131 1049q2 -41 3 -74t2 -77t2 -109.5t3 -176.5v-127q0 -59 3 -120.5t15.5 -119t39 -109.5t75.5 -91t112 -54.5t122 -15.5q63 0 114.5 13.5t92.5 33t69.5 39t44.5 31.5l-2 -86l13 -12q35 2 58.5 3t45 2t45 2t60.5 1l8 12q-2 23 -3 43.5t-1 42.5q-4 66 -7.5 183.5 t-3.5 308.5q0 125 1 237.5t6 229.5l-13 14q-35 -2 -59.5 -3t-46 -2t-46 -2t-59.5 -1l-12 -14q4 -49 7 -90t4 -91.5t2 -119t1 -175.5v-165q0 -74 -2 -158q-18 -14 -43.5 -32.5t-57.5 -35t-71 -28t-84 -11.5q-78 0 -120.5 30t-62 73t-25 89t-5.5 79q-2 74 -1 113.5t1 80.5 l9 449l-13 14q-37 -4 -60.5 -5t-45 -2t-45 -2t-60.5 -1zM313 1200l6 -16q27 2 45 2h33q16 0 32.5 -1t39.5 -1l14 12l56.5 113t52.5 98q16 -31 28.5 -54.5t23.5 -45t23.5 -47t30.5 -62.5l12 -10q33 2 54.5 3t40.5 1q18 0 37.5 -1t50.5 -1l8 18q-33 59 -72 142.5t-74 160.5 l-14 11h-61q-33 0 -69 -1t-71 -1h-59l-16 -13q-27 -57 -43.5 -92t-31.5 -65.5t-32.5 -64.5t-44.5 -85z" />
<glyph unicode="&#xfc;" d="M131 1049q2 -41 3 -74t2 -77t2 -109.5t3 -176.5v-127q0 -59 3 -120.5t15.5 -119t39 -109.5t75.5 -91t112 -54.5t122 -15.5q63 0 114.5 13.5t92.5 33t69.5 39t44.5 31.5l-2 -86l13 -12q35 2 58.5 3t45 2t45 2t60.5 1l8 12q-2 23 -3 43.5t-1 42.5q-4 66 -7.5 183.5 t-3.5 308.5q0 125 1 237.5t6 229.5l-13 14q-35 -2 -59.5 -3t-46 -2t-46 -2t-59.5 -1l-12 -14q4 -49 7 -90t4 -91.5t2 -119t1 -175.5v-165q0 -74 -2 -158q-18 -14 -43.5 -32.5t-57.5 -35t-71 -28t-84 -11.5q-78 0 -120.5 30t-62 73t-25 89t-5.5 79q-2 74 -1 113.5t1 80.5 l9 449l-13 14q-37 -4 -60.5 -5t-45 -2t-45 -2t-60.5 -1zM270 1262l13 -17q35 2 57 3t45 1h47h68l12 17q0 27 -1 48t-1 44t1 48.5t1 61.5l-14 17q-35 -2 -57.5 -3t-45.5 -1h-45h-63l-17 -19q2 -35 2 -59v-45v-43t-2 -53zM688 1266l12 -17q37 0 62.5 1t48.5 1h49h59l15 17 q-2 37 -3 62.5t-1 47.5q0 23 1 43.5t1 48.5l-15 15q-37 -2 -62.5 -3t-47.5 -1q-23 0 -46.5 1t-56.5 1l-16 -15q0 -31 1 -52t1 -44q0 -20 -1 -46t-1 -60z" />
<glyph unicode="&#xfd;" horiz-adv-x="937" d="M-14 1038q23 -53 60.5 -149t80.5 -212t88 -237t82 -221t59.5 -166.5t22.5 -72.5q-4 -12 -6 -17q-16 -53 -40 -103t-46 -102q-27 -59 -50.5 -118.5t-52.5 -116.5l-8 -15l8 -14q37 2 60.5 3t46.5 1t47 1t63 1l19 17q33 143 77 282.5t91 280.5q12 35 36.5 101.5t55.5 150.5 t65.5 180t71.5 192.5t72 186.5l63 162l-6 18q-70 -2 -115 -2h-83l-15 -12q-25 -88 -59.5 -204t-67.5 -222l-117 -361l-129 392q-16 49 -30.5 93t-28.5 90t-30.5 98t-37.5 122l-12 12q-39 -4 -65.5 -7t-49 -5t-48 -4t-64.5 -4zM352 1196l9 -14h80q29 0 69 -2l15 8 q35 55 57 92t43.5 69.5t47.5 67.5t62 86l-8 17q-29 -2 -59 -2h-57h-58t-63 2l-13 -11q-35 -100 -71.5 -188t-53.5 -125z" />
<glyph unicode="&#xfe;" d="M131 1579q2 -23 4 -39t3 -32.5t2 -36t3 -50.5q2 -72 4.5 -121t3.5 -94t1 -98v-129v-1118v-115t-1 -85t-2.5 -74t-3.5 -81l11 -12l217 6l12 13q-4 72 -7 123t-5 102t-3 112.5t-3 153.5q23 -2 43 -3t49 -1q162 0 283.5 47t201.5 128t120 188.5t40 226.5q0 109 -33 201 t-91 158.5t-140 104.5t-178 38q-59 0 -108.5 -13.5t-86.5 -31t-63.5 -37t-41.5 -31.5q0 121 1.5 194.5t1.5 135.5q0 63 1 131.5t3 181.5l-13 12l-215 -41zM362 518q0 78 1.5 157t1.5 156q16 12 40.5 26.5t54 29t65.5 24t75 9.5q125 0 202 -92.5t77 -252.5q0 -94 -29 -171.5 t-83 -134t-134 -87t-180 -30.5q-27 0 -46.5 2t-39.5 4q-2 90 -3.5 179t-1.5 181z" />
<glyph unicode="&#xff;" horiz-adv-x="937" d="M-14 1038q23 -53 60.5 -149t80.5 -212t88 -237t82 -221t59.5 -166.5t22.5 -72.5q-4 -12 -6 -17q-16 -53 -40 -103t-46 -102q-27 -59 -50.5 -118.5t-52.5 -116.5l-8 -15l8 -14q37 2 60.5 3t46.5 1t47 1t63 1l19 17q33 143 77 282.5t91 280.5q12 35 36.5 101.5t55.5 150.5 t65.5 180t71.5 192.5t72 186.5l63 162l-6 18q-70 -2 -115 -2h-83l-15 -12q-25 -88 -59.5 -204t-67.5 -222l-117 -361l-129 392q-16 49 -30.5 93t-28.5 90t-30.5 98t-37.5 122l-12 12q-39 -4 -65.5 -7t-49 -5t-48 -4t-64.5 -4zM137 1262l13 -17q35 2 57 3t45 1h47h68l12 17 q0 27 -1 48t-1 44t1 48.5t1 61.5l-14 17q-35 -2 -57.5 -3t-45.5 -1h-45h-63l-17 -19q2 -35 2 -59v-45v-43t-2 -53zM555 1266l12 -17q37 0 62.5 1t48.5 1h49h59l15 17q-2 37 -3 62.5t-1 47.5q0 23 1 43.5t1 48.5l-15 15q-37 -2 -62.5 -3t-47.5 -1q-23 0 -46.5 1t-56.5 1 l-16 -15q0 -31 1 -52t1 -44q0 -20 -1 -46t-1 -60z" />
<glyph unicode="&#x152;" horiz-adv-x="1961" d="M102 731q0 -158 46.5 -305t158.5 -254q70 -66 147.5 -101.5t154.5 -52t145.5 -19.5t117.5 -3h482q37 2 64.5 3t51.5 1h56h71h271l12 14q0 27 1 45.5t2 35t2 33.5t5 42l-12 12q-98 -4 -165.5 -5t-132 -3t-140.5 -2h-191q-2 84 -3 141.5t-1 108.5v108q0 57 2 140h154 q61 0 118.5 -1t123 -2t163.5 -3l13 12q2 20 3 35.5l2 31t2 36t3 55.5l-10 12q-102 -2 -170 -3t-127 -1h-121h-154v119q0 51 1 97t2 96t3 120h162q70 0 133.5 -1t135 -3t174.5 -6l12 12q2 27 5 46t4 35.5t3 35t4 43.5l-10 14q-57 -2 -100 -2h-88h-76t-112.5 1t-113.5 1h-71 l-381 4q-96 0 -176 -3t-160 -21q-145 -33 -241.5 -108t-153 -172t-79 -206.5t-22.5 -212.5zM344 713q0 109 18.5 188.5t44 136t55.5 92t52 54.5q45 37 100.5 57.5t106.5 29.5t94 11t66 2h57q29 0 88 -4q0 -6 1 -31.5t2 -88t1 -173.5v-285v-69q0 -45 -1 -101.5t-1 -117.5 q0 -59 -1 -109.5t-2 -87.5t-1 -45q-29 -2 -61.5 -3t-65.5 -1q-88 0 -185 14.5t-173 67.5q-55 37 -92 89t-59.5 112.5t-33 127t-10.5 134.5z" />
<glyph unicode="&#x153;" horiz-adv-x="1878" d="M90 539q0 -104 21.5 -207t87.5 -187q51 -66 144 -118t235 -52q129 0 229 46.5t172 146.5q25 -37 58.5 -72t82.5 -61.5t116 -43t157 -16.5q133 0 214 29t122 51l10 13q2 33 4 53t4 38.5t4 39t6 49.5l-16 10q-78 -59 -158 -90t-178 -31q-109 0 -196 50.5t-122 160.5 q-14 43 -16 82t-4 68q78 2 156 2h157q100 0 206 -1t202 -3l12 12q2 25 2 33v26q0 31 -2 61.5t-6 61.5q-4 29 -13 74t-32 95t-65 99.5t-109 85.5q-49 27 -103.5 38.5t-113.5 11.5q-82 0 -143.5 -22.5t-107.5 -53.5t-78 -64.5t-50 -58.5q-27 35 -60.5 70.5t-79.5 64.5 t-108.5 46.5t-146.5 17.5q-80 0 -168 -25t-160 -88t-119 -169.5t-47 -272.5zM309 539q0 16 1 53t9.5 82t24.5 92t48 86t80 63.5t118 24.5q98 0 153.5 -43t83 -105.5t34.5 -132t7 -120.5q0 -29 -1 -71t-9 -87t-24.5 -90t-47 -81t-76.5 -58.5t-114 -22.5q-94 0 -150.5 41 t-87 102.5t-40 133t-9.5 133.5zM1067 653q10 135 86 214t195 79q86 0 141 -41t80 -106q14 -39 17 -76t3 -70q-86 0 -144.5 -1t-113.5 -1q-53 0 -113.5 1t-150.5 1z" />
<glyph unicode="&#x178;" horiz-adv-x="1110" d="M-14 1425q68 -119 128 -227t114.5 -209.5t104.5 -199t101 -195.5q2 -20 2 -43v-53v-103q0 -63 -1 -134t-3 -138.5t-4 -112.5l12 -14q33 2 57.5 3t49.5 1t52.5 -1t66.5 -1l12 14q-4 55 -5 118t-3 123t-2 114v88v67q0 37 2 88q25 47 41 79t35.5 69t47 88t74.5 135 q59 106 95 171t62 110t47.5 82.5t51.5 91.5l-12 16q-31 -2 -52.5 -3t-42 -2t-44.5 -1h-62l-16 -12q-27 -55 -64.5 -133t-81.5 -165t-90.5 -175.5t-89.5 -163.5q-53 106 -88 173.5t-65.5 129t-64.5 133.5t-87 182q-4 10 -8 17.5t-8 17.5l-17 8q-29 -2 -58.5 -4t-59.5 -4 l-117 -6zM190 1583l15 -14h219l14 16q0 33 -1 55.5t-1 42.5q0 23 1 45.5t3 57.5l-14 14q-41 -2 -66.5 -3t-48.5 -1t-46 1t-60 1l-15 -16v-199zM668 1585l14 -14h61h54t50 -1t58 -3l15 16v105q0 43 2 98l-15 12q-29 0 -57.5 -1t-56.5 -1q-29 0 -55.5 1t-55.5 1l-14 -18 q0 -31 1 -52.5t1 -41.5q0 -18 -1 -42t-1 -59z" />
<glyph unicode="&#x2c6;" horiz-adv-x="598" d="M4 1200l6 -16q27 2 45 2h33q16 0 32.5 -1t39.5 -1l14 12l56.5 113t52.5 98q16 -31 28.5 -54.5t23.5 -45t23.5 -47t30.5 -62.5l12 -10q33 2 54.5 3t40.5 1q18 0 37.5 -1t50.5 -1l8 18q-33 59 -72 142.5t-74 160.5l-14 11h-61q-33 0 -69 -1t-71 -1h-59l-16 -13 q-27 -57 -43.5 -92t-31.5 -65.5t-32.5 -64.5t-44.5 -85z" />
<glyph unicode="&#x2dc;" horiz-adv-x="598" d="M-33 1208l19 -8q31 39 68.5 61.5t88.5 22.5q41 0 79 -13.5t57 -21.5l55 -22q23 -10 51.5 -19.5t63.5 -9.5q59 0 101 27.5t66 50.5l7 14q0 25 1 42.5t2 32.5t2 34.5t3 48.5l-21 6q-29 -41 -66.5 -62.5t-88.5 -21.5q-27 0 -52.5 7t-60.5 22l-63 24q-33 12 -66 22.5 t-68 10.5q-61 0 -100 -25.5t-61 -46.5l-11 -16v-45q0 -16 -1 -32.5t-2 -35t-3 -47.5z" />
<glyph unicode="&#x2000;" horiz-adv-x="983" />
<glyph unicode="&#x2001;" horiz-adv-x="1966" />
<glyph unicode="&#x2002;" horiz-adv-x="983" />
<glyph unicode="&#x2003;" horiz-adv-x="1966" />
<glyph unicode="&#x2004;" horiz-adv-x="655" />
<glyph unicode="&#x2005;" horiz-adv-x="491" />
<glyph unicode="&#x2006;" horiz-adv-x="327" />
<glyph unicode="&#x2007;" horiz-adv-x="327" />
<glyph unicode="&#x2008;" horiz-adv-x="245" />
<glyph unicode="&#x2009;" horiz-adv-x="393" />
<glyph unicode="&#x200a;" horiz-adv-x="109" />
<glyph unicode="&#x2010;" horiz-adv-x="681" d="M59 506l13 -17q82 2 160.5 3.5t160.5 1.5q76 0 119 -1t86 -4l12 13q2 25 3 42t2 33.5t3.5 34t4.5 43.5l-11 13q-27 -2 -46 -3t-39.5 -2t-45.5 -1h-59q-84 0 -168 1t-168 3l-14 -15q0 -25 -1 -42t-3 -32.5t-4.5 -32t-4.5 -38.5z" />
<glyph unicode="&#x2011;" horiz-adv-x="681" d="M59 506l13 -17q82 2 160.5 3.5t160.5 1.5q76 0 119 -1t86 -4l12 13q2 25 3 42t2 33.5t3.5 34t4.5 43.5l-11 13q-27 -2 -46 -3t-39.5 -2t-45.5 -1h-59q-84 0 -168 1t-168 3l-14 -15q0 -25 -1 -42t-3 -32.5t-4.5 -32t-4.5 -38.5z" />
<glyph unicode="&#x2012;" horiz-adv-x="681" d="M59 506l13 -17q82 2 160.5 3.5t160.5 1.5q76 0 119 -1t86 -4l12 13q2 25 3 42t2 33.5t3.5 34t4.5 43.5l-11 13q-27 -2 -46 -3t-39.5 -2t-45.5 -1h-59q-84 0 -168 1t-168 3l-14 -15q0 -25 -1 -42t-3 -32.5t-4.5 -32t-4.5 -38.5z" />
<glyph unicode="&#x2013;" d="M59 502l13 -15q217 2 366.5 3.5t261.5 1.5q115 0 208 -1.5t198 -1.5l14 15q4 41 7 71.5t10 77.5l-13 13q-162 -4 -327.5 -5.5t-331.5 -1.5q-143 0 -226 1.5t-147 3.5l-16 -13q-2 -25 -4 -41t-3 -31.5t-4.5 -33t-5.5 -43.5z" />
<glyph unicode="&#x2014;" horiz-adv-x="1492" d="M59 500l11 -13q33 0 101.5 1t151.5 2.5t171 2.5t161 1h125h56h67q45 0 102.5 -1t118.5 -1q63 0 118.5 -1.5t98.5 -1.5h66l12 13q4 53 7.5 82.5t7.5 72.5l-11 11q-186 -6 -393 -7.5t-409 -1.5h-138q-61 0 -122.5 1.5t-128 2.5t-146.5 1l-12 -13q-2 -27 -3 -43t-3 -30.5 t-4.5 -32t-4.5 -45.5z" />
<glyph unicode="&#x2018;" horiz-adv-x="468" d="M51 1026l12 -14q39 2 66 4t50.5 4t49 3t64.5 1l12 14q16 131 47 258t66 256l-10 15q-25 -2 -40.5 -3t-29.5 -1t-31.5 -1t-46.5 -1l-12 -15q-45 -133 -92 -262t-105 -258z" />
<glyph unicode="&#x2019;" horiz-adv-x="468" d="M51 1026l10 -14q25 2 41.5 3t30.5 1t31.5 1t44.5 3l14 14q43 131 90 261t105 257l-12 15q-41 -4 -67 -5t-49.5 -2t-49 -2.5t-64.5 -3.5l-12 -14q-16 -129 -47 -257t-66 -257z" />
<glyph unicode="&#x201a;" horiz-adv-x="468" d="M31 -297l8 -12q27 0 44 1t30 1q14 0 30.5 1t40.5 1l15 14q14 43 35.5 106.5t47 134t53 142.5t54.5 135l-8 17q-41 -2 -68.5 -4t-51 -3t-48.5 -1h-61l-13 -15q-10 -63 -19 -119.5t-22.5 -115t-30 -127t-36.5 -156.5z" />
<glyph unicode="&#x201c;" horiz-adv-x="811" d="M45 1022l12 -14q37 4 61.5 6t48 3t49.5 2t67 3l14 12q12 82 25.5 146.5t26.5 124t28.5 119t34.5 128.5l-11 15q-27 -2 -43 -3t-30 -1t-30.5 -1t-43.5 -1l-14 -13q-14 -43 -28.5 -87t-36 -103.5t-52.5 -140t-78 -195.5zM401 1024l11 -14q39 2 66.5 4t52 3l49 2t61.5 3 l12 14q18 131 48 258t65 256l-10 15q-25 -2 -41.5 -3t-30.5 -1t-31.5 -1t-44.5 -4l-12 -14q-43 -131 -91 -260t-104 -258z" />
<glyph unicode="&#x201d;" horiz-adv-x="811" d="M45 1024l10 -14q25 2 41.5 3t30.5 1t30.5 1t43.5 3l14 14q43 133 90 262t105 256l-11 15q-41 -4 -66.5 -5t-49 -2.5t-49 -2.5t-64.5 -3l-12 -14q-18 -129 -49 -257t-64 -257zM399 1022l11 -14q27 2 43 3t30 1t30.5 1t43.5 1l14 12q12 43 26.5 87t36 103.5t53.5 140.5 t79 197l-12 13q-39 -4 -63.5 -6t-47 -3.5t-48.5 -2.5t-67 -3l-14 -12q-14 -80 -24.5 -136t-22.5 -110.5t-27.5 -117t-40.5 -154.5z" />
<glyph unicode="&#x201e;" horiz-adv-x="811" d="M45 -297l10 -14q25 2 41.5 3t30.5 2t30.5 2t43.5 1l14 14q43 133 90 262t105 256l-11 15q-41 -4 -66.5 -5t-49 -2t-49 -2.5t-64.5 -3.5l-12 -14q-18 -129 -49 -257t-64 -257zM399 -299l11 -14q27 2 43 3t30 1t30.5 1t43.5 3l14 12q14 43 28.5 87t36 103.5t52.5 140.5 t78 195l-12 13q-39 -4 -63.5 -6t-47 -3t-48.5 -2.5t-67 -3.5l-14 -12q-14 -80 -24.5 -136t-22.5 -110.5t-27.5 -117t-40.5 -154.5z" />
<glyph unicode="&#x2022;" horiz-adv-x="681" d="M76 723q0 -53 19.5 -101.5t54 -85t85 -58t111.5 -21.5q57 0 106.5 20.5t83 57t53 85t19.5 103.5q0 57 -20.5 106.5t-56 85t-84 55t-103.5 19.5q-57 0 -106.5 -21.5t-85 -58.5t-56 -85t-20.5 -101z" />
<glyph unicode="&#x2026;" horiz-adv-x="2048" d="M225 102q0 -51 35 -82.5t82 -31.5q41 0 77 28.5t38 87.5q2 45 -30 80t-83 35q-53 0 -86 -33.5t-33 -83.5zM909 104q0 -53 35 -84.5t84 -31.5q41 0 77 31.5t36 84.5q-2 47 -34 81t-81 34q-47 0 -82 -32.5t-35 -82.5zM1593 104q0 -47 32 -81.5t85 -34.5q51 0 83 34.5 t32 81.5q0 41 -30 78t-85 37q-49 0 -83 -33.5t-34 -81.5z" />
<glyph unicode="&#x202f;" horiz-adv-x="393" />
<glyph unicode="&#x2039;" horiz-adv-x="555" d="M57 553q47 -80 80 -137.5t56.5 -100.5t42 -77.5t34.5 -67.5l15 -10h161l11 16q-6 10 -21.5 37t-32 55.5t-31 54t-20.5 35.5q-29 49 -45 79t-27.5 51.5t-20.5 40t-21 42.5q14 31 38.5 78t52 99.5t57.5 104.5t56 93l-6 15h-84q-23 0 -44 1t-44 1l-14 -11q-25 -51 -39 -80.5 t-23.5 -48t-13.5 -28t-10 -19.5q-6 -12 -21.5 -41.5t-32 -61.5t-32 -60.5t-21.5 -39.5v-20z" />
<glyph unicode="&#x203a;" horiz-adv-x="555" d="M98 946q6 -10 20.5 -36.5t32 -56.5t32 -55.5t20.5 -33.5q27 -49 44 -79t28.5 -51.5t20.5 -40t21 -42.5q-14 -31 -38.5 -78t-52 -99t-57.5 -104.5t-56 -93.5l6 -14h84q23 -2 43 -2h45l14 10q27 55 42 87t23.5 48.5t12.5 24.5l8 16q6 12 21.5 41t32 60.5t32 60.5t21.5 41 l-2 20q-47 80 -79 137.5t-56.5 100.5t-42 78l-33.5 67l-15 11h-34h-29q-16 0 -39 -1t-59 -1z" />
<glyph unicode="&#x205f;" horiz-adv-x="491" />
<glyph unicode="&#x2122;" horiz-adv-x="1406" d="M33 1346h219v-580h119v580h215v100h-553v-100zM643 766h115l-4 420l-9 137l35 -113l138 -444h106l137 442l35 117l-6 -139l-4 -420h117v680h-162l-166 -537l-170 537h-162v-680z" />
<glyph unicode="&#x25fc;" horiz-adv-x="1075" d="M0 0v1075h1075v-1075h-1075z" />
<glyph unicode="&#xfb01;" horiz-adv-x="1110" d="M8 907l12 -12h68t76 2q0 -35 1 -60.5t1 -52.5v-53v-69q0 -164 -1 -328t-9 -326l10 -14q41 2 67.5 3t49 2t45.5 1h59l10 14q-2 16 -3 32.5t-1 33.5q-10 205 -13 409.5t-3 409.5h51h39q20 0 42.5 -1t55.5 -1l13 12q0 25 1 41.5t2 31.5t2 31.5t3 41.5l-11 12q-8 0 -39.5 -1 t-68.5 -1q-35 0 -63.5 -1t-30.5 -1v61q0 47 -1 77t0 49.5t3 32.5t6 30q12 51 44 85t101 34q16 0 28.5 -2.5t27.5 -6.5l14 11q4 47 7 75.5t7 71.5l-10 14q-20 2 -37.5 3t-40.5 1q-94 0 -157.5 -20t-104.5 -53t-61.5 -75t-29.5 -87t-10 -88t-1 -78l2 -135q-23 0 -53.5 1 t-77.5 3l-13 -12q0 -27 -1 -45.5t-2 -33.5t-2 -31.5t-3 -37.5zM725 1024q6 -47 9 -89t6 -103.5t4 -153.5t1 -240q0 -86 -1 -148.5t-3 -111.5t-4 -90l-4 -82l10 -12q37 2 61.5 3t47 2t47.5 1h68l10 14q-4 51 -6 93.5t-3 100.5t-2 146t-1 232q0 98 1 170.5t3 128t4 98.5t4 84 l-21 12q-39 -8 -65.5 -13t-50 -10t-48 -8.5t-57.5 -9.5zM727 1552q2 -29 3 -55.5t1 -52.5v-43q0 -18 -2 -41l12 -12q37 4 62.5 6t49.5 4t50.5 3t65.5 3l12 14q0 33 -1 56.5t-1 42.5q0 20 1 42.5t1 53.5l-12 14q-39 -4 -64.5 -6t-48 -5t-49.5 -5t-66 -6z" />
<glyph unicode="&#xfb02;" horiz-adv-x="1110" d="M8 907l12 -12h68t76 2q0 -35 1 -60.5t1 -52.5v-53v-69q0 -164 -1 -328t-9 -326l10 -14q41 2 67.5 3t49 2t45.5 1h59l10 14q-2 16 -3 32.5t-1 33.5q-10 205 -13 409.5t-3 409.5h51h39q20 0 42.5 -1t55.5 -1l13 12q0 25 1 41.5t2 31.5t2 31.5t3 41.5l-11 12q-8 0 -39.5 -1 t-68.5 -1q-35 0 -63.5 -1t-30.5 -1v61v88q0 39 3 68t9 50.5t18 39.5q25 41 58 51.5t65 10.5q16 0 28.5 -2.5t27.5 -6.5l14 11q4 47 7 75.5t7 71.5l-10 14q-20 2 -37.5 3t-40.5 1t-74 -4t-108 -25.5t-107.5 -70.5t-68.5 -137q-2 -14 -3 -26.5t-2 -31t-1 -42.5v-64l2 -135 q-23 0 -53.5 1t-77.5 3l-13 -12q0 -27 -1 -45.5t-2 -33.5t-2 -31.5t-3 -37.5zM727 1577q16 -197 18.5 -415t2.5 -433q0 -147 -1.5 -258t-3.5 -196t-3 -149.5t-3 -119.5l11 -12q37 2 60 3l46 2t47 1h62l12 14q-4 74 -7 144.5t-5 160t-3.5 207t-1.5 285.5q0 205 2.5 404.5 t12.5 404.5l-12 12q-39 -8 -65 -13t-48.5 -9t-48 -8.5t-62.5 -10.5z" />
</font>
</defs>
</svg>
