<?xml version="1.0" standalone="no"?>
<!DOCTYPE svg PUBLIC "-//W3C//DTD SVG 1.1//EN" "http://www.w3.org/Graphics/SVG/1.1/DTD/svg11.dtd" >
<svg xmlns="http://www.w3.org/2000/svg">
<metadata></metadata>
<defs>
<font id="formatabold" horiz-adv-x="1193" >
<font-face units-per-em="2048" ascent="1638" descent="-410" />
<missing-glyph horiz-adv-x="598" />
<glyph horiz-adv-x="0" />
<glyph horiz-adv-x="682" />
<glyph unicode=" "  horiz-adv-x="598" />
<glyph unicode="&#x09;" horiz-adv-x="598" />
<glyph unicode="&#xa0;" horiz-adv-x="598" />
<glyph unicode="!" horiz-adv-x="641" d="M152 1534q14 -166 21 -247t13.5 -177t12.5 -228t14 -350l10 -14l299 6l15 19q2 117 7 259t12 272t16.5 263t17.5 224l-19 10l-407 -21zM162 8l10 -14l383 4l10 8l4 340l-10 6l-184 -6h-39q-12 0 -80 2h-80l-14 -12v-328z" />
<glyph unicode="&#x22;" horiz-adv-x="811" d="M45 1397q0 -10 4 -33l2 -16l111 -512h65l109 536q0 2 2 17v18q0 57 -39 92t-98 35t-107.5 -35t-48.5 -102zM473 1399q0 -18 4 -51l113 -512h63l109 536q2 10 2 35q0 57 -40 92t-97 35q-66 0 -110 -38t-44 -97z" />
<glyph unicode="#" horiz-adv-x="1366" d="M86 381h193l-52 -383h254l54 383h202l-53 -383h256l53 383h238v252h-201l25 196h223v254h-186l49 361h-256l-49 -361h-205l53 361h-256l-51 -361h-240v-254h205l-27 -196h-229v-252zM569 633l27 196h205l-29 -196h-203z" />
<glyph unicode="$" horiz-adv-x="1150" d="M100 82l11 -14q66 -37 100.5 -50.5t107.5 -31.5l-36 -140l10 -14l160 2l16 12l27 123q100 0 171.5 7.5t153.5 37.5q92 37 150.5 89.5t85 106.5t33 93t6.5 68q0 80 -29 146.5t-75 116.5t-93 86t-119 81l-75 53l75 287q66 -20 99.5 -35.5t103.5 -56.5l25 6l26 268l-8 12 q-61 29 -92 39t-90 23l30 129l-12 12l-160 2l-16 -14l-18 -109q-70 4 -105 4q-117 0 -205 -32.5t-139 -81.5t-85 -125t-34 -160q0 -82 23.5 -146.5t63.5 -111.5t83 -80t113 -80l78 -51l-74 -297q-45 12 -73.5 22.5t-54.5 22.5t-55.5 31.5t-72.5 52.5l-25 -10zM469 1067 q0 27 19.5 49.5t43.5 32.5q18 8 46 8q6 0 18 -2h16l-57 -201q-37 29 -61.5 55.5t-24.5 57.5zM555 242l59 209q39 -23 65 -50.5t26 -68.5q0 -31 -19.5 -51.5t-42.5 -28.5q-27 -10 -63 -10h-13h-12z" />
<glyph unicode="%" horiz-adv-x="1878" d="M61 930q0 -94 11.5 -172t45.5 -145.5t103.5 -108.5t181.5 -41q115 0 185.5 41t105.5 108.5t45.5 145.5t10.5 176q0 100 -10.5 178t-45.5 145.5t-105.5 108.5t-185.5 41t-185.5 -43t-104 -112.5t-43 -146.5t-9.5 -175zM322 936q0 86 5 157.5t23 104.5q8 14 20.5 24.5 t32.5 10.5q37 0 51.5 -26.5t20.5 -57.5q8 -41 11 -98.5t3 -114.5q0 -61 -3 -118.5t-11 -98.5q-6 -31 -20.5 -56.5t-51.5 -25.5q-29 0 -45 21.5t-24 60.5q-8 41 -10 99.5t-2 117.5zM535 18l14 -18q55 2 101 3t52 1q35 2 54 2l12 14q219 584 575 1348l-8 18h-207l-14 -14 q-23 -57 -36 -93t-29.5 -76t-47 -109.5t-36.5 -85.5l-209 -486q-8 -20 -38 -86.5t-100.5 -228.5t-82.5 -189zM1128 449q0 -94 11.5 -173t45.5 -147t103.5 -108.5t181.5 -40.5q115 0 185.5 40.5t105.5 108.5t45.5 146t10.5 178q0 98 -10.5 176t-45.5 145.5t-105.5 108.5 t-185.5 41t-185.5 -43t-104 -113t-43 -145.5t-9.5 -173.5zM1389 455q0 86 5 156.5t23 103.5q8 14 20.5 24.5t32.5 10.5q37 0 51.5 -26t20.5 -56q8 -41 11 -98.5t3 -114.5q0 -63 -3 -118.5t-11 -98.5q-6 -31 -20.5 -57.5t-51.5 -26.5q-29 0 -45 22.5t-24 61.5q-8 41 -10 99 t-2 118z" />
<glyph unicode="&#x26;" horiz-adv-x="1449" d="M31 375q0 -98 40 -175t108.5 -128.5t154.5 -78t178 -26.5q115 0 211 32t184 87l68 -84l16 -10q72 4 248 8h6q131 0 197 -2l10 18l-12 15q-96 104 -121 134t-55.5 67.5t-75.5 95.5q53 68 87 111.5t57.5 76.5t41 60.5t45.5 76.5l-4 23l-203 246l-16 -2q-39 -115 -87 -199 t-110 -160l-172 221q135 98 187.5 177t52.5 180q0 68 -25.5 132t-78.5 113q-31 29 -72 48.5t-85 28.5t-79 12.5t-61 3.5q-82 0 -160 -19.5t-141.5 -63.5t-101.5 -117t-38 -175q0 -94 31 -158.5t88 -142.5q-59 -37 -109.5 -74t-97.5 -88t-76.5 -117.5t-29.5 -146.5zM451 418 q0 41 24.5 69.5t63.5 59.5q4 4 6 4l182 -227q-41 -20 -67.5 -28.5t-63.5 -8.5q-68 0 -106.5 37.5t-38.5 93.5zM580 1151q0 35 24.5 62.5t63.5 27.5q10 0 21 -2t27.5 -11t27 -29.5t10.5 -53.5q0 -45 -24.5 -76t-67.5 -65l-5 -3l-2 3q-43 61 -59 89.5t-16 57.5z" />
<glyph unicode="'" horiz-adv-x="425" d="M68 1399q0 -18 4 -51l110 -512h66l108 536v17q2 8 2 16q0 43 -16 70l-2 4q-16 20 -43 37.5t-74 17.5q-61 0 -108 -36t-47 -99z" />
<glyph unicode="(" horiz-adv-x="681" d="M109 563q0 -166 42 -337t117 -349q37 -88 71 -153.5t79 -147.5l16 -12h211l17 18q-41 123 -69 218.5t-56.5 220t-47 263t-18.5 275.5q0 182 39 412q23 135 60.5 281.5t91.5 293.5l-17 21h-211l-16 -13q-51 -90 -92 -176t-72 -159q-70 -168 -107.5 -331t-37.5 -325z" />
<glyph unicode=")" horiz-adv-x="681" d="M20 -416l17 -20h211l16 12q45 80 80 147.5t76 165.5q72 174 112.5 341t40.5 335q0 229 -82.5 484.5t-226.5 504.5l-16 13h-211l-17 -21q35 -104 66 -205.5t59.5 -225.5t47 -264t18.5 -280q0 -94 -9 -196.5t-25.5 -196.5t-35 -181t-39.5 -155q-18 -72 -63 -207z" />
<glyph unicode="*" horiz-adv-x="980" d="M72 1257l6 -14l227 -92l-225 -92l-4 -15l123 -202l12 -2q31 23 53.5 41t42 34.5t36.5 34t48 45.5l4 4l-26 -251l6 -9l241 6l11 11l-56 241l215 -151l13 4q20 39 34.5 67.5t43.5 81.5q27 49 32 60l-4 12l-241 80l239 102l2 15q-29 43 -40 60.5t-23.5 37.5t-24.5 43t-33 59 l-14 5q-37 -27 -59.5 -43.5t-40 -31t-41 -36t-56.5 -49.5l41 246l-10 8l-233 -2l-11 -11l43 -239q-25 16 -48 32.5t-34.5 25.5t-53.5 41t-62 46l-17 -2q-18 -35 -29.5 -57.5t-21.5 -38.5t-22.5 -36.5t-42.5 -68.5z" />
<glyph unicode="+" horiz-adv-x="1366" d="M86 467h469v-467h260v467h465v260h-465v465h-260v-465h-469v-260z" />
<glyph unicode="," horiz-adv-x="555" d="M2 -188l8 -15l297 8l15 11q6 12 61 145q45 113 49 119q16 43 40 94t46 100q31 68 33 74l-8 14q-150 -8 -193 -10t-75.5 -2t-137.5 -2l-10 -12q-18 -102 -30.5 -159.5t-24 -105.5t-27.5 -108.5t-43 -150.5z" />
<glyph unicode="-" horiz-adv-x="811" d="M70 436l8 -10h637l12 14l14 287l-8 10h-639l-12 -14z" />
<glyph unicode="." horiz-adv-x="555" d="M70 336l8 -330l8 -12l387 8l8 8v334l-8 8l-395 -4z" />
<glyph unicode="/" horiz-adv-x="1067" d="M-33 -289l13 -18l274 8l12 12q203 518 385 940q96 219 285 666q45 109 56.5 136.5t21.5 48t20 42.5l-8 19h-274l-13 -15q-63 -168 -100 -263t-70.5 -177t-90 -217t-152.5 -356q-59 -135 -89 -206t-65 -147q-37 -86 -89 -205.5t-116 -267.5z" />
<glyph unicode="0" d="M70 692q0 -172 22.5 -301t80.5 -224t163.5 -146.5t265.5 -51.5q115 0 213 35t166 109q33 37 58.5 81t45 109.5t30.5 161.5t11 227q0 170 -21.5 297t-78.5 223.5t-162.5 149.5t-269.5 53q-139 0 -230.5 -40t-146.5 -101q-29 -31 -50.5 -63.5t-44 -96t-37.5 -169 t-15 -253.5zM469 690q0 47 1 102.5t5 108.5t12.5 104.5t20.5 77.5q10 25 30.5 45.5t57.5 20.5q25 0 49.5 -13.5t42.5 -56.5q12 -31 20.5 -79t12.5 -102t5 -104.5t1 -99.5q0 -129 -6 -221t-29 -156q-10 -35 -35.5 -58t-58.5 -23q-35 0 -60.5 24.5t-39.5 63.5q-18 61 -23 161 q-6 102 -6 205z" />
<glyph unicode="1" d="M221 1092l12 -13l179 11q0 -408 -2 -613q-2 -106 -4.5 -206.5t-6.5 -262.5l11 -14q53 2 104 4t111 4h196l17 14q-8 147 -11.5 265t-3.5 309v225q2 49 3 245.5t3 350.5l-14 12l-563 -73l-14 -13z" />
<glyph unicode="2" d="M18 23l7 -29q45 0 262 4q170 2 308 3t202 1h125q70 -2 133 -2l14 23q0 41 1 79.5t3 71.5t4 66.5t6 85.5l-12 14l-383 -12q25 31 88 108q63 78 88 107q102 127 136 223t34 188q0 201 -136 332t-388 131q-113 0 -204 -24.5t-214 -71.5l-10 -4l-12 -14l-4 -318l18 -14 q80 61 142.5 90t154.5 29q63 0 106 -20.5t68 -52.5t34 -65.5t9 -64.5q0 -37 -9 -71t-30.5 -71.5t-52.5 -82t-98 -136.5q-205 -272 -390 -503z" />
<glyph unicode="3" d="M84 1077l14 -14l394 12l-39 -98q-37 -92 -69 -169t-71 -165l15 -12q31 16 52 22t56 6q82 0 142.5 -52t60.5 -138q0 -94 -63.5 -150.5t-174.5 -56.5q-84 0 -145 28.5t-131 76.5l-2 2l-19 -11l-4 -305l6 -14q74 -27 170.5 -48.5t215.5 -21.5q137 0 250.5 34t197.5 112 q74 74 114 171t40 203q0 121 -46.5 208t-117.5 132q-35 20 -65.5 29.5t-71.5 15.5q49 104 72.5 152.5t46 95.5t122.5 248l-14 23q-156 -4 -275.5 -7.5t-240.5 -3.5q-131 0 -389 4l-15 -20z" />
<glyph unicode="4" d="M63 272l11 -16h522l-12 -254l12 -12l144 6t104 2l53 -2h80l18 14l-10 246h129l16 14l15 262l-15 13l-145 -6v206q-2 94 -2 129q0 133 2 249t6 261l-16 15l-479 -6l-19 -15q-59 -137 -71 -164q-35 -84 -54.5 -128t-40.5 -85q-29 -61 -67.5 -142t-110.5 -230 q-47 -92 -70 -140v-217zM395 539l94 235q12 37 32 89t28 73.5t23.5 59.5t31.5 75q4 12 14 39l-12 -571h-211z" />
<glyph unicode="5" d="M104 51l13 -18q100 -33 183 -48.5t214 -15.5q170 0 288 51.5t183.5 131t92 167t26.5 166.5q0 197 -123 325t-350 128q-43 0 -117 -10q-4 0 -14 -2l16 155l463 -10l14 14l25 291l-10 17q-37 0 -82 -2q-172 -4 -248 -5.5t-182 -1.5q-25 0 -148 2h-147l-15 -14 q-2 -76 -4 -130t-4 -91t-5 -76t-11 -153l-8 -91l-2 -16q-10 -147 -15 -227l19 -10q61 29 118.5 45t139.5 16q115 0 177 -52t62 -136q0 -82 -54 -136.5t-167 -54.5q-86 0 -151.5 25.5t-147.5 76.5l-20 -10q0 -109 -1 -159t-8 -142z" />
<glyph unicode="6" d="M66 643q0 -145 28.5 -266t93 -213t173 -143.5t262.5 -51.5q102 0 193 28t164 89t116 159.5t43 235.5q0 82 -24.5 163t-76 147.5t-132.5 107.5t-189 41q-80 0 -133.5 -19.5t-108.5 -50.5l-2 -2q8 70 25.5 117t66.5 86q35 29 88.5 45.5t112.5 16.5q84 0 141.5 -24t98.5 -56 l22 10l16 289l-12 16q-86 27 -142 38t-147 11q-182 0 -301.5 -48t-203.5 -146q-72 -84 -122 -229.5t-50 -350.5zM465 553q31 33 63.5 53.5t81.5 20.5q76 0 114 -59.5t38 -141.5q0 -29 -5 -60.5t-20.5 -61.5t-45 -50.5t-75.5 -20.5q-49 0 -76.5 24t-41.5 48 q-18 35 -25.5 88.5t-7.5 159.5z" />
<glyph unicode="7" d="M88 1075l12 -12l541 8q-43 -113 -49 -125q-143 -371 -175 -455.5t-55 -142.5q-4 -12 -16 -41q-2 -6 -18.5 -50t-37 -100.5t-29.5 -82t-21 -64.5l16 -16q102 4 163.5 6t129.5 2l63 -2h93l16 16q10 39 20 86t21 86q27 100 88 297l12 39q23 72 60 189q70 229 102 329 q27 86 53 168q27 80 53 166l-12 23q-221 -4 -329.5 -6t-225.5 -4q-176 -2 -434 -3l-14 -16z" />
<glyph unicode="8" d="M57 410q0 -111 56.5 -211.5t146.5 -151.5q72 -41 156 -58.5t178 -17.5q135 0 246.5 34t187.5 116q53 59 81 137t28 152q0 115 -60 208q-35 55 -68.5 81t-90.5 51q39 18 65.5 35.5t52.5 52.5q35 39 50.5 89t15.5 103t-19.5 116.5t-73 126t-152.5 103.5t-249 41 q-70 0 -151.5 -13t-147.5 -42q-66 -31 -108.5 -75t-66 -92t-32 -89t-8.5 -74q0 -119 72 -203q23 -25 45 -41t68 -38q-41 -16 -70 -35t-62 -53q-45 -53 -67.5 -121t-22.5 -131zM487 403q0 29 2.5 56.5t13.5 60.5t33.5 54.5t61.5 21.5q16 0 33.5 -6t35 -25.5t29 -55.5 t11.5 -91q0 -41 -6 -75.5t-29 -61.5q-31 -35 -76 -35q-39 0 -74 34.5t-35 122.5zM489 1018q0 55 14.5 89t33 49t35 18.5t26.5 3.5q35 0 58.5 -21.5t35.5 -50.5t13 -88q0 -53 -14.5 -94t-65.5 -60q-10 -4 -29 -4q-29 0 -52.5 17.5t-35.5 40.5q-8 16 -13.5 38.5t-5.5 61.5z " />
<glyph unicode="9" d="M55 922q0 -96 25.5 -182.5t79 -152t133.5 -103.5t186 -38q72 0 121 16.5t121 53.5l2 2v-6q-10 -72 -31.5 -122t-81.5 -89q-33 -20 -80 -33.5t-102 -13.5q-86 0 -140.5 22.5t-101.5 57.5l-20 -10l-16 -289l12 -17q88 -29 143 -39t139 -10q199 0 317 50.5t195 144.5 q51 63 86 140t53.5 155t25.5 148.5t7 131.5q0 94 -12 181.5t-40.5 167t-79 145t-122.5 108.5q-61 37 -139 56.5t-162 19.5q-246 0 -382 -137t-136 -358zM432 963q0 74 34 132t109 58q27 0 62 -13.5t61 -60.5q18 -37 24.5 -88t6.5 -157q-31 -33 -64.5 -54.5t-84.5 -21.5 q-70 0 -109 59.5t-39 145.5z" />
<glyph unicode=":" horiz-adv-x="641" d="M156 336l6 -330l10 -12l387 8l8 8v334l-8 8l-397 -4zM158 743l10 -10l391 6l10 9v337l-4 7l-399 -7l-8 -12v-330z" />
<glyph unicode=";" horiz-adv-x="641" d="M86 -188l10 -15l295 8l17 11l20 53q45 109 74 176q14 37 37.5 88t44.5 98q14 31 21 47.5t18 40.5l12 29l-8 14q-147 -8 -190.5 -10t-76 -2t-137.5 -2l-10 -12q-20 -102 -33.5 -168t-27 -123t-30 -115.5t-36.5 -117.5zM215 741l8 -10l389 6l11 8l4 338l-9 9l-395 -9 l-8 -12v-330z" />
<glyph unicode="&#x3c;" horiz-adv-x="1366" d="M0 592l1366 -598v282l-1004 443l1004 448v285l-1366 -606v-254z" />
<glyph unicode="=" horiz-adv-x="1366" d="M0 254h1366v260h-1366v-260zM0 680h1366v260h-1366v-260z" />
<glyph unicode="&#x3e;" horiz-adv-x="1366" d="M0 -6l1366 598v254l-1366 606v-285l1001 -448l-1001 -443v-282z" />
<glyph unicode="?" horiz-adv-x="937" d="M49 1210l17 -16q72 45 125 67.5t116 22.5q86 0 146.5 -51t60.5 -152q0 -84 -34 -152.5t-93 -144.5l-49 -61q-53 -59 -72.5 -99t-21.5 -106l10 -14l360 8l11 16q4 43 11 63.5t34 57.5l45 60q35 43 54 67.5t29.5 38.5t17.5 26.5t18 28.5q45 76 69.5 145.5t24.5 153.5 q0 125 -57.5 221.5t-161.5 143.5q-57 27 -129 38t-152 11q-102 0 -177 -17.5t-179 -54.5l-15 -16zM225 8l11 -14l382 4l9 8l4 340l-10 6q-59 -2 -183 -6h-39q-12 0 -80 2h-79l-15 -12v-328z" />
<glyph unicode="@" horiz-adv-x="1835" d="M141 487q0 -205 76 -350t198 -231t260 -123t269 -37q135 0 255 35t213 88t154.5 103.5t125.5 109.5l-97 125q-59 -55 -113.5 -99.5t-137 -91.5t-188 -77.5t-228.5 -30.5q-96 0 -200.5 26.5t-200 92t-157 180.5t-61.5 282q0 160 61.5 306.5t168 260t243 177t281.5 63.5 q82 0 163 -23.5t147.5 -74.5t107.5 -136t41 -206q0 -109 -27 -208t-70 -176t-88 -120t-77 -43q-25 0 -32 20.5t-7 45.5q0 16 1 29.5t6 42t16 88t34 170.5l68 323h-187l-18 -80l-2 2q-37 53 -82 87t-129 34q-96 0 -179 -50t-142.5 -136t-92.5 -191.5t-33 -210.5 q0 -86 24.5 -158.5t80.5 -121.5q45 -39 94 -52.5t86 -13.5q92 0 152.5 43t103.5 99l2 -7q10 -45 27 -67q25 -31 65.5 -50.5t89.5 -19.5q92 0 180.5 58.5t158 161t109.5 236.5t40 277q0 109 -35 212.5t-109.5 189.5t-192.5 137t-276 51q-195 0 -367.5 -76.5t-301.5 -213 t-200 -312.5t-71 -369zM692 494q0 68 18.5 137t51.5 127.5t77 94.5t95 36q53 0 95 -43t44 -129q0 -70 -20.5 -141.5t-56 -129t-81 -92.5t-92.5 -35q-12 0 -30.5 4.5t-42 20.5t-41 53t-17.5 97z" />
<glyph unicode="A" horiz-adv-x="1409" d="M0 14l10 -14h377l14 8l80 344h400l77 -348l15 -10q25 0 74 2q88 4 137 4h211l14 16l-416 1426l-14 10l-520 -6l-13 -10zM557 647l53 207q20 72 33.5 122t18 67.5t12.5 52t18 78.5l68 -310l51 -217h-254z" />
<glyph unicode="B" horiz-adv-x="1409" d="M102 1434q6 -98 9.5 -143.5t5.5 -116t3 -147.5t1 -214q0 -356 -10 -803l10 -10h463q276 6 421.5 37t243.5 145q59 70 76.5 138.5t17.5 128.5q0 55 -12 107t-49 106q-43 61 -98.5 85.5t-132.5 40.5h-2h2q59 33 105 70t79 105q20 41 26.5 77.5t6.5 67.5q0 74 -28 139.5 t-83 110.5q-61 53 -154.5 74.5t-285.5 21.5q-94 0 -142 -2l-90 -2l-374 -4zM541 268v328h77q31 2 41 2q41 0 59.5 -2t35.5 -6q14 -4 32.5 -10.5t37 -22.5t31.5 -44t13 -69q0 -47 -24.5 -88t-75.5 -63q-33 -14 -82 -19.5t-145 -5.5zM545 879v309q121 0 172 -8.5t78 -36.5 q14 -14 26.5 -40t12.5 -65q0 -61 -42 -105t-135 -52q-35 -2 -112 -2z" />
<glyph unicode="C" horiz-adv-x="1236" d="M66 705q0 -76 11 -154t38.5 -156t76 -150.5t119.5 -129.5q86 -68 206 -107t292 -39q100 0 174 14.5t176 45.5l6 2l11 12l14 346l-16 8l-3 -2q-53 -37 -114.5 -63.5t-155.5 -26.5q-68 0 -132 19.5t-119.5 67.5t-88.5 130t-33 201q0 115 31 195.5t83 130t113.5 71 t127.5 21.5q94 0 152.5 -29t109.5 -70v-2l14 9q2 72 3 105.5t3 69.5t5.5 71.5t7.5 90.5l-9 15l-8 2q-88 35 -167 54.5t-193 19.5q-334 0 -534.5 -201t-200.5 -571z" />
<glyph unicode="D" horiz-adv-x="1449" d="M106 1436q14 -332 15 -994v-205.5t-4 -226.5l12 -16q340 4 371 6h118q84 0 163 7t164 33t165 79t141 141q41 59 68 128t41 139.5t19 129t5 105.5q0 236 -70.5 379t-178 207.5t-213 80t-234.5 17.5h-569zM557 322v806h6q53 4 78 5q55 0 97 -8.5t75 -32.5q39 -27 62.5 -74 t34 -99.5t13.5 -94.5t3 -85q0 -86 -12.5 -149.5t-30 -104.5t-37 -65.5t-37.5 -40.5q-41 -35 -91 -47.5t-97 -12.5q-16 0 -37 3h-27z" />
<glyph unicode="E" horiz-adv-x="1150" d="M104 1434q6 -123 8.5 -166t2.5 -121q4 -158 4 -498q0 -193 -2 -336q0 -68 -2 -146.5t-4 -158.5l10 -14l117 2q147 4 223 5t196 1h64q139 -2 326 -2l18 12l20 303l-12 13q-166 -6 -285.5 -9.5t-234.5 -3.5v283h426l14 12l17 269l-13 14l-448 -8v260h473l12 10l15 283 l-11 8h-921z" />
<glyph unicode="F" horiz-adv-x="1067" d="M104 1440q8 -227 11.5 -371.5t3.5 -286.5v-166q-2 -137 -2 -163q-2 -100 -2 -224q-2 -123 -4 -223l14 -12q94 4 150.5 6t119.5 2l60 -2h88l14 12l-12 553h422l14 15q4 90 7 140t11 140l-10 10l-442 -12l-2 289h467l14 14l16 283l-14 10q-203 -4 -344 -4q-182 -2 -567 -2z " />
<glyph unicode="G" horiz-adv-x="1449" d="M66 707q0 -113 22.5 -209.5t61.5 -173.5q63 -127 165 -209q88 -72 219.5 -109t307.5 -37q141 0 245.5 20.5t243.5 61.5l6 2l9 17v6q-4 203 -5 317q0 82 2.5 153.5t6.5 178.5l-11 10q-94 -4 -147 -6t-117 -2l-59 2h-92l-11 -12q6 -59 8.5 -94t4.5 -72q2 -78 2 -229 q-51 -12 -99 -13q-90 0 -141 30t-78 62q-53 61 -71.5 142.5t-18.5 163.5q0 113 32 208t105 154q43 35 106.5 56.5t137.5 21.5q100 0 171 -30t157 -85l8 -6l18 6l25 340l-6 14q-100 41 -196.5 66t-233.5 25q-217 0 -369.5 -68t-242 -180.5t-128 -246.5t-38.5 -275z" />
<glyph unicode="H" horiz-adv-x="1536" d="M109 1434q4 -178 7 -321.5t3 -285.5q0 -35 -2 -227q0 -68 -2 -259t-4 -337l10 -10l434 6l8 10v596q72 4 129.5 5t110.5 1q115 0 172 -2q2 -55 2 -164q0 -72 -2 -221q-4 -170 -4 -219l8 -12q84 2 127 3t86 3h223l10 12q-4 188 -6 327.5t-2 315.5q0 264 8 789l-10 8 l-438 -6l-10 -10l8 -510h-412v514l-8 12l-39 -2q-154 -6 -231 -6q-113 0 -168 2z" />
<glyph unicode="I" horiz-adv-x="681" d="M109 1436q6 -180 9 -293t3 -240q0 -117 -4 -350q-4 -365 -4 -549l8 -10q106 4 164.5 6t124.5 2l63 -2h94l8 10q-14 502 -14 869q0 158 2 265t8 265v33l-8 10q-104 -4 -160.5 -6t-123.5 -2l-64 2h-96z" />
<glyph unicode="J" horiz-adv-x="768" d="M6 14l12 -12q131 -12 199 -12q55 0 115.5 7t131.5 34.5t126 91t72 168.5q6 41 8 92t2 188v84q-4 315 -4 478q0 205 2 311l-15 8q-18 0 -110 -2q-94 -4 -113 -4h-201l-14 -10q2 -49 6 -238.5t5 -260.5t4.5 -228.5t3.5 -169.5q0 -43 -6.5 -81t-21.5 -70t-46 -51.5 t-80 -19.5q-31 0 -62 7l-12 -13q0 -12 2 -71v-74q0 -27 -2 -96q-2 -27 -2 -56z" />
<glyph unicode="K" horiz-adv-x="1409" d="M96 1434q8 -119 11.5 -180.5t6.5 -154.5t5 -213t2 -294q0 -150 -2 -252t-8 -303v-31l14 -12q96 4 153.5 6t120.5 2l60 -2h86l12 10q-6 82 -8 117t-3 66.5t-5 222.5v20q0 70 -4 207l-2 102l215 -411q33 -68 53 -110t30.5 -63.5t28 -59.5t43.5 -97l2 -4l19 -8l471 18l6 19 q-16 25 -33.5 51t-37 58t-34 55.5t-65.5 113.5q-2 2 -25 41l-266 490l4 6q66 102 93.5 145t75.5 110.5t102.5 140.5t148.5 198l-12 14l-451 -6l-14 -8l-98 -178l-254 -451l15 633l-13 10q-102 -4 -162 -6t-123 -2l-59 2h-86z" />
<glyph unicode="L" horiz-adv-x="1110" d="M113 1438q2 -104 3 -150.5t3 -103.5v-393q4 -348 4 -523q0 -127 -2 -262l10 -12q215 4 321.5 6t245.5 2h138q125 -2 213 -2l10 12l20 307l-10 13h-14q-184 -8 -228 -8q-92 -2 -266 -5q0 72 2 240q2 258 2 414q2 92 3 181t3 134q2 35 4 78t5 78l-15 8l-440 -4z" />
<glyph unicode="M" horiz-adv-x="1921" d="M78 6l10 -12l342 6l14 12v49q-4 162 -4 252q0 174 9 523l8 290l96 -354l33 -121q14 -55 68.5 -261t99.5 -384l14 -12q76 4 119 6t90 2l45 -2h65l17 12l186 699l33 125l76 278v-307l16 -801l10 -12q98 2 172 4q82 2 230 2l12 12q-2 61 -18 367q-16 303 -21 364 q-8 137 -12 225.5t-6 154t-4 119.5t-6 198l-13 12l-555 -6l-14 -8q-20 -88 -66 -264q-16 -57 -47 -175q-49 -174 -71 -262q-10 -39 -19 -73q-16 -70 -22 -95l-228 877l-12 6l-291 -6h-276l-13 -10q-6 -252 -12 -438.5t-12 -319.5t-16.5 -286.5t-26.5 -385.5z" />
<glyph unicode="N" horiz-adv-x="1492" d="M102 1434q20 -451 21 -1082q0 -84 -1 -161.5t-5 -186.5l12 -10q88 4 152.5 5t191.5 1l10 12l-28 828q18 -25 51 -69t103.5 -139t132 -178t94.5 -130l38 -54q35 -49 84.5 -116.5t108.5 -151.5l16 -8l287 6l12 12v23q-4 195 -5 278.5t-1 221.5q0 145 2 475v434l-12 8 l-334 -6l-8 -10q4 -133 5 -178.5t3 -124.5q2 -133 2 -451q-66 92 -103.5 146.5t-99 138.5t-114.5 157q-41 55 -67.5 92t-58.5 81t-53.5 75t-50.5 74l-12 6l-178 -6h-182z" />
<glyph unicode="O" horiz-adv-x="1492" d="M66 702q0 -352 174 -541.5t499 -189.5q78 0 155 11.5t158 43t153.5 90t123.5 146.5q57 96 77.5 221t20.5 258q-6 217 -60 353.5t-148 226.5q-49 47 -109.5 78t-125 49t-124 24.5t-115.5 6.5q-117 0 -210 -23.5t-161.5 -64.5t-116.5 -93.5t-85 -111.5q-59 -100 -82.5 -220 t-23.5 -264zM516 713q0 104 11.5 185t38 142.5t72.5 95t116 33.5q63 0 107 -33.5t68.5 -95t36 -138.5t11.5 -173q0 -82 -8 -156.5t-32 -140t-71 -106.5t-121 -41q-76 0 -123 45t-69.5 112.5t-29.5 135t-7 135.5z" />
<glyph unicode="P" horiz-adv-x="1323" d="M109 4l14 -10q92 4 145.5 6t118.5 2l62 -2h92l10 12q-2 84 -4 147.5t-2 119.5q0 16 2 92v92q102 0 176 3t147.5 15.5t141 40t121.5 74.5q49 43 80.5 95t48 104.5t22.5 98.5t6 91q0 96 -26.5 180t-85.5 146q-86 92 -203 115.5t-326 25.5l-98 -2l-424 -4l-12 -10 q0 -31 2 -70q4 -143 5 -219t1 -201q0 -197 -3 -427t-11 -515zM549 766v391q92 0 129 -2t67 -14q35 -12 56.5 -35t31 -47.5t11.5 -44t2 -35.5q0 -59 -24.5 -108.5t-71.5 -73.5q-35 -18 -82 -24.5t-119 -6.5z" />
<glyph unicode="Q" horiz-adv-x="1492" d="M66 715q0 -289 105 -466t298 -239q35 -10 119 -26q4 -2 16 -4l21 -5q72 -31 129 -59q70 -33 213 -111q51 -27 102 -53q4 -2 70 -37q74 -37 110.5 -57t93.5 -53l19 2q27 51 45 88t36.5 70.5t37 63.5t45.5 73l-15 22q-88 27 -134 41.5t-94 29.5t-91 29.5t-129 45.5 q90 37 153.5 81t118.5 134q49 78 70.5 175t21.5 242q0 201 -53 365t-180 270q-86 74 -201.5 107t-247.5 33q-176 0 -306 -55.5t-212 -157t-121.5 -239.5t-39.5 -310zM516 711q0 106 11.5 189t38 143.5t73.5 93t115 32.5q20 0 42.5 -4t49 -19.5t52.5 -46t42 -79.5 q14 -43 26.5 -113.5t12.5 -179.5q0 -53 -5 -118.5t-16 -114.5q-25 -115 -85 -164t-123 -49q-80 0 -129.5 49t-71 120.5t-27.5 136t-6 124.5z" />
<glyph unicode="R" horiz-adv-x="1323" d="M96 1436q6 -74 10.5 -134.5t7.5 -137.5t4 -157.5t1 -207.5q0 -199 -6 -594q-2 -63 -4 -199l10 -12l422 6l12 12q-2 39 -6 120t-6 132q-2 88 -2 271l67 2l129 -271l111 -258l22 -16l432 18l9 19l-140 239l-186 363q72 33 119 69.5t84 114.5q20 43 33.5 96.5t13.5 120.5 q0 121 -44 205t-99 125q-66 51 -162.5 69.5t-233.5 18.5q-27 0 -55 -2h-57l-107 -2h-369zM539 815l4 340q2 0 51 2h51q86 0 126 -43t40 -117q0 -59 -24.5 -96t-64.5 -55.5t-85 -24.5t-98 -6z" />
<glyph unicode="S" d="M111 57l16 -20h2q76 -29 162 -48.5t217 -19.5q178 0 315.5 47t220.5 170q29 45 55.5 113t26.5 156q0 76 -24.5 153.5t-93.5 141.5q-51 47 -102.5 75.5t-104.5 48.5q-10 4 -10 5l-113 47h-2q-55 23 -95 53.5t-40 79.5q0 27 13 52.5t32 41.5q18 12 43.5 21.5t75.5 9.5 q51 0 109 -15.5t110 -46.5q33 -18 90 -63l18 8l19 319l-9 13h-2q-78 35 -166 57.5t-223 22.5q-139 0 -237.5 -30t-171.5 -97q-72 -68 -101.5 -152t-29.5 -178q0 -98 30.5 -171t78.5 -121t99.5 -77.5t124.5 -62.5l103 -41l4 -2q66 -27 103.5 -57.5t37.5 -81.5q0 -18 -7 -40 t-27.5 -43.5t-61.5 -37t-107 -15.5q-76 0 -159.5 22.5t-141.5 63.5q-16 10 -45 35l-18 -6q0 -96 -4 -156q0 -12 -2 -48t-6 -103q-2 -16 -2 -23z" />
<glyph unicode="T" horiz-adv-x="1110" d="M6 1139l10 -11l326 9q-2 -422 -4 -627q0 -119 -2 -230.5t-6 -273.5l12 -12q106 2 186 4q88 2 240 2l14 14q-10 430 -10 746q0 33 2 190v191l311 -11l13 13q2 92 5 147.5t11 153.5l-10 2h-1071l-15 -12z" />
<glyph unicode="U" horiz-adv-x="1409" d="M90 1436l2 -52q4 -305 4 -342q2 -145 2 -430v-63v-4q4 -133 22.5 -226.5t82.5 -171.5q43 -53 105.5 -88.5t132 -55t137 -27t131.5 -7.5q135 0 242.5 28t176.5 77q59 41 95.5 93t54.5 109.5t24.5 110.5t10.5 131v4l2 78l10 844l-12 8l-375 -6l-10 -8q8 -215 11 -386 t3 -411q0 -137 -10 -204.5t-53 -110.5q-31 -31 -68 -42.5t-74 -11.5q-70 0 -113.5 34t-64.5 93q-14 41 -18 95.5t-4 134.5q0 272 12 813l-10 10q-100 -2 -141.5 -3t-82.5 -3h-217z" />
<glyph unicode="V" horiz-adv-x="1323" d="M-8 1427l67 -227l37 -127q61 -209 92 -307q20 -66 62 -201q41 -135 59 -203q25 -82 64 -227q23 -88 35 -131l12 -10q96 2 141 3t90 3h232l16 12q55 209 92 342t68 238.5t79 264.5t160 525l19 62l-10 8l-385 -6l-13 -12q-12 -68 -28.5 -157t-29.5 -151.5t-39 -183.5 t-52 -246l-4 -18q-12 -57 -29 -137q-27 -129 -37 -172q-41 168 -119 508q-35 162 -106 526l-8 47l-15 8q-16 0 -102 -6q-86 -4 -104 -6l-238 -6z" />
<glyph unicode="W" horiz-adv-x="2048" d="M0 1427q66 -276 97.5 -415.5t64.5 -284.5t71.5 -330.5t81.5 -390.5l13 -12q98 4 167.5 6t133.5 2q125 0 186 -2l16 12q23 115 33 172q39 217 66 344q16 88 65 334l13 68q8 -39 16 -96q14 -82 18 -111q10 -57 33 -172t33 -172l22 -135q16 -109 25.5 -165t13.5 -73l13 -12 q88 4 157.5 6t141.5 2q135 0 202 -2l13 10l352 1434l-12 8l-369 -6l-14 -8l-185 -1090q-31 172 -51 287t-40.5 242t-45 281.5t-45.5 281.5v2l-12 10l-440 -6l-13 -12q-33 -197 -56.5 -335t-41.5 -244.5t-42 -236t-50 -272.5l-178 1104l-17 8l-215 -12q-139 -4 -213 -4z" />
<glyph unicode="X" horiz-adv-x="1280" d="M6 4l10 -10q88 2 126 3t77 3h205l18 12l181 385q102 -233 113.5 -260.5t18.5 -46t36 -90.5l22 -12l447 12l10 23q-59 100 -102.5 174.5t-80 141.5t-95 175.5t-128.5 235.5q90 162 149.5 268t95.5 168.5t68.5 118t82.5 133.5l-7 14q-106 -4 -162.5 -6t-117.5 -2l-58 2h-84 l-12 -12q-29 -74 -39 -98.5t-25.5 -62.5t-34 -78t-50.5 -114q-27 57 -47.5 104.5t-31.5 74t-28.5 71.5t-44.5 115l-20 12q-51 -2 -113 -6q-61 -4 -113 -6q-18 0 -110 -2q-94 -4 -113 -4l-12 -19q55 -90 114.5 -192.5t110.5 -192.5q27 -49 56.5 -99t70.5 -122q31 -53 41 -70 q-2 -4 -6 -10q-80 -145 -115 -208.5t-71 -127.5q-14 -25 -33 -55.5t-81.5 -138t-117.5 -201.5z" />
<glyph unicode="Y" horiz-adv-x="1366" d="M-12 1425q12 -20 98 -163.5t146.5 -246t133 -225t99.5 -169.5v-107q0 -164 -2 -276q-2 -59 -6 -137t-4 -95l10 -12q100 2 141 3t80 3h213l16 12q-4 117 -6 219.5t-2 274.5v121q39 76 101.5 191.5t109.5 202.5t114.5 207t123.5 214l-8 10l-400 -6l-10 -6 q-53 -133 -96 -229.5t-95 -206.5q-6 -12 -18 -39q-6 10 -20 39q-63 117 -92 170t-54.5 102t-42 86t-39.5 88l-14 8q-125 -8 -157 -10t-84 -4t-83.5 -2t-144.5 -2z" />
<glyph unicode="Z" d="M33 8l12 -14q111 2 212 4t216 2h631l12 18l21 295l-11 13l-489 -15l518 1131l-8 10l-131 -2q-197 -4 -290 -5t-208 -1q-33 0 -199 2h-198l-12 -14l-21 -291l14 -13l457 9q-29 -72 -45 -112t-32.5 -76t-38 -81t-40.5 -82q-55 -113 -116.5 -242.5t-182.5 -383.5 q-49 -104 -71 -152z" />
<glyph unicode="[" horiz-adv-x="681" d="M102 1546q6 -313 9.5 -419.5t5.5 -274.5t3 -302t1 -345q0 -426 -2 -637l12 -17q119 4 198 6.5t163 2.5q113 0 167 -2l17 12l6 194l-10 9h-197q-4 311 -7 547.5t-3 482.5q0 365 2 547l201 -7l10 15q-2 29 -2 82q0 29 2 86l2 30l-12 13l-553 -8z" />
<glyph unicode="\" horiz-adv-x="1067" d="M33 1552q12 -25 16 -36q43 -84 138.5 -300.5t203.5 -482.5q25 -61 83 -205.5t110 -275.5l83 -207t104.5 -259t29.5 -73l28 -18q47 0 138 4h67q53 2 64 2l2 12q-6 16 -17 39q-4 8 -10 21q-78 170 -157.5 357t-180.5 435q-127 315 -194 471l-13 29q-113 272 -130 314 t-30.5 76t-35.5 93l-23 19q-127 -2 -274 -2z" />
<glyph unicode="]" horiz-adv-x="681" d="M0 1354l10 -11l197 3q4 -301 7 -532.5t3 -465.5v-289q-2 -242 -2 -288l-201 6l-10 -15q2 -27 2 -79q0 -39 -4 -113v-6l12 -13l553 9l13 14q-8 354 -9.5 445.5t-4.5 255t-4 293.5t-1 331q0 434 2 651l-12 17q-129 -4 -207 -6t-160 -2q-109 0 -161 2l-17 -13z" />
<glyph unicode="^" horiz-adv-x="1492" d="M233 635h281l238 475l225 -475h283l-398 811h-213z" />
<glyph unicode="_" horiz-adv-x="1024" d="M-20 -154v-102h1064v102h-1064z" />
<glyph unicode="`" horiz-adv-x="598" d="M45 1622l21 -33q29 -45 51 -82t42.5 -70.5t100.5 -172.5l16 -9h265l10 15q-31 74 -44 107.5t-26.5 71.5t-26 79t-28.5 100l-12 10q-82 -4 -126 -5t-91 -1l-58 2h-86z" />
<glyph unicode="a" d="M45 330q0 -152 98.5 -251t243.5 -99q80 0 145.5 27.5t151.5 78.5v-78l14 -14q98 2 172 4q78 2 215 2l13 16q-6 80 -9.5 134.5t-5.5 97.5q-2 63 -2 229l2 131v60q2 35 2 49q0 115 -19 183.5t-77 121.5q-51 47 -137 72.5t-223 25.5t-232.5 -18.5t-212.5 -52.5l-12 -17 l-12 -258l14 -8q119 47 195.5 68.5t173.5 21.5q76 0 102.5 -21.5t26.5 -60.5q0 -6 -2 -12v-12h-2q-137 -18 -233.5 -38t-186.5 -63t-146.5 -121.5t-56.5 -197.5zM436 383q0 43 22.5 70.5t57.5 42t71 20.5t87 10h4v-211q-31 -18 -59.5 -29.5t-65.5 -11.5q-51 0 -84 29t-33 80 z" />
<glyph unicode="b" horiz-adv-x="1280" d="M88 1540q6 -63 9 -111.5t5 -103.5t3 -140t1 -208q0 -176 -6 -721q0 -115 -2 -244l15 -12h391q80 0 148.5 5t145 23.5t152.5 58.5t137 106q78 82 115 191.5t37 231.5q0 221 -122 363.5t-335 142.5q-86 0 -144 -20.5t-118 -54.5q-6 -4 -10 -7l14 578l-10 16 q-61 -12 -105 -20t-94.5 -17.5t-97.5 -16.5t-115 -17l-14 -13v-10zM512 262v547q78 31 123 31q55 0 92 -26t57.5 -66.5t28.5 -88t8 -96.5q0 -70 -20.5 -137.5t-73.5 -110.5q-41 -35 -90 -44t-125 -9z" />
<glyph unicode="c" horiz-adv-x="980" d="M51 545q0 -98 27.5 -195.5t94.5 -182.5t185.5 -138.5t290.5 -53.5q78 0 137.5 11.5t145.5 36.5l4 2l10 12l12 278l-14 11q-51 -33 -90 -46.5t-106 -13.5q-133 0 -201 81t-68 210q0 133 68.5 209t171.5 76q70 0 107.5 -19.5t72.5 -52.5l2 -4l23 6q8 100 14 149.5t18 131.5 l-10 12h-2q-86 31 -144.5 44t-140.5 13q-113 0 -210 -25.5t-164 -68.5q-111 -70 -172.5 -199t-61.5 -284z" />
<glyph unicode="d" horiz-adv-x="1280" d="M49 500q0 -102 26.5 -196.5t79 -168.5t130 -117t174.5 -43q98 0 172 33t135 90l-2 -90l10 -14q88 4 140.5 6t111.5 2l55 -2h80l13 16q-4 143 -7.5 258t-3.5 273q0 45 2 266q2 209 2 242v14q2 262 4 326q0 51 2.5 103t6.5 124l-13 10l-409 -71l-13 -13q4 -66 6.5 -95.5 t4.5 -76.5q2 -86 2 -278h-43q-31 2 -47 2q-123 0 -225.5 -22.5t-184.5 -86.5q-106 -82 -157.5 -212t-51.5 -279zM471 524q0 139 55.5 222t175.5 83h29q23 -2 27 -2v-145q2 -49 2 -90q0 -113 -4 -291l-4 -2q-37 -20 -62.5 -29.5t-56.5 -9.5q-82 0 -129 82q-20 39 -26.5 83 t-6.5 99z" />
<glyph unicode="e" horiz-adv-x="1150" d="M49 547q0 -150 53.5 -272.5t165.5 -200.5q80 -55 184.5 -77t206.5 -22t187.5 15.5t128.5 29.5q33 12 69 29l13 19l10 262l-14 10q-66 -43 -146 -62.5t-168 -19.5q-63 0 -111 13.5t-77 29.5q-47 29 -65.5 61.5t-28.5 88.5l635 8l14 16q0 80 -4 145.5t-21.5 139.5 t-56.5 143.5t-104 120.5q-61 49 -146.5 72.5t-171.5 23.5q-102 0 -199.5 -31.5t-177.5 -100t-128 -179.5t-48 -262zM446 676q2 61 19.5 107t73.5 71q23 10 51 10q43 0 69.5 -19.5t40 -49t16.5 -56t5 -59.5z" />
<glyph unicode="f" horiz-adv-x="768" d="M2 831l12 -12l156 6q0 -330 -2 -471q-2 -66 -4 -166t-6 -182l14 -12q100 2 178 4q82 2 230 2l14 14q-6 131 -9 202t-3 149q-4 156 -4 456l147 -2l16 12l21 252l-10 15l-177 -8q0 141 23 199.5t96 58.5q25 0 70 -13l16 11q2 70 6.5 117.5t14.5 142.5v8l-10 12 q-152 16 -230 16q-131 0 -212 -33.5t-120 -92t-51 -131t-12 -175.5q0 -39 4 -116l-137 4l-17 -19z" />
<glyph unicode="g" d="M63 -205q0 -29 8.5 -61.5t29 -68.5t59.5 -69.5t98 -58.5q68 -29 143.5 -39t167.5 -10q166 0 280 39t177.5 99.5t89 128t25.5 132.5q0 94 -40 160t-101.5 101.5t-118 52t-121.5 26.5l-76 15l-184 28l39 86h6q53 -4 78 -4q74 0 151.5 19.5t144 61.5t107.5 108.5t41 154.5 q0 45 -11.5 79t-33.5 81l139 -37l10 12q4 90 6.5 131.5t8.5 122.5v2l-15 11h-399q-27 0 -63 2q-51 2 -88 2q-57 0 -106.5 -2t-108 -13.5t-117 -36t-105.5 -65.5q-51 -47 -86 -115.5t-35 -156.5q0 -86 37 -156t88 -108q18 -14 58 -33q12 -6 22 -13q-37 -78 -61 -124 q-12 -25 -25.5 -48.5t-29.5 -54.5l-37 -65l-2 -17l80 -63l-3 -2q-53 -41 -90 -92.5t-37 -141.5zM418 -154q0 27 14 74q2 8 4 14q18 -4 66 -14q66 -16 82 -18q76 -12 117.5 -33t41.5 -68q0 -37 -36.5 -64.5t-110.5 -27.5q-27 0 -56.5 6t-57 22.5t-46 43t-18.5 65.5zM455 741 q0 55 31.5 100.5t86.5 45.5q59 0 91 -49t32 -123q0 -82 -34.5 -118t-81.5 -36q-39 0 -65 20.5t-39 50.5t-17 58.5t-4 50.5z" />
<glyph unicode="h" horiz-adv-x="1280" d="M72 1544q12 -102 17 -161.5t9 -150.5t6 -216t2 -326q0 -227 -4 -682l11 -14q90 4 146 6t120 2l61 -2h84l15 14q0 25 -2 45q-10 270 -11.5 338t-2.5 134.5t-3 240.5q74 37 119 37q74 0 95.5 -66.5t21.5 -236.5v-74q0 -57 2 -129v-125v-82q-2 -45 -2 -84l12 -18q76 4 131 6 t113 2h78q66 -2 77 -2l17 16q-4 78 -7 125t-5.5 120t-2.5 112t-2 186v156q-2 131 -15 199.5t-65 119.5q-37 39 -90 63.5t-139 24.5q-109 0 -189.5 -34.5t-152.5 -86.5h-2v621l-12 12q-166 -31 -214 -39t-208 -32l-8 -13v-6z" />
<glyph unicode="i" horiz-adv-x="641" d="M86 1049q14 -131 19.5 -227.5t5.5 -258.5q0 -186 -13 -555l15 -14q92 4 147 6t123 2l63 -2h95l14 14v6q-10 174 -15 305.5t-5 336.5q0 152 4 454l-11 17q-74 -14 -122 -22.5t-95 -17t-71.5 -12.5t-141.5 -20zM96 1542l8 -334l19 -12q37 6 41 6q147 27 180 32t73 10t97 11 l12 13v327l-12 15l-403 -54z" />
<glyph unicode="j" horiz-adv-x="641" d="M-72 -258l54 -260l14 -8h2q104 20 198.5 57t186.5 123q88 82 117.5 168t29.5 205v43q-2 37 -2 45v88q0 55 -4 325q-2 256 -2 295q0 78 2 140.5t6 156.5l-14 13l-31 -7q-2 0 -69.5 -12t-120.5 -21.5t-87 -14.5t-114 -17l-14 -14v-7q8 -76 11 -114.5t6 -104t4 -163 t3 -271.5q0 -27 2 -170q2 -135 3 -158q0 -84 -8.5 -136t-27 -84t-51 -51t-88.5 -32zM80 1542q4 -86 5 -149.5t1 -184.5l18 -12q141 25 195.5 33t91.5 13t105 13l12 13v327l-12 15l-404 -54z" />
<glyph unicode="k" horiz-adv-x="1236" d="M74 1546q8 -96 13 -172t9 -185.5t6 -270t2 -379.5q0 -156 -2 -266.5t-8 -266.5l17 -12q76 4 227 8q115 0 170 -2l16 16q-4 59 -7 128t-5 126q-2 96 -2 318q70 -158 104.5 -237t62.5 -143.5t44 -107.5t35 -92l18 -14l434 18l17 17q-51 100 -76 148t-57.5 115.5 t-70.5 147.5t-118 248l29 45q45 72 59 92q14 23 43 62l51 76q61 92 80 120l-14 21q-96 -2 -166 -4q-78 -2 -225 -2l-19 -15q-25 -53 -48 -104t-46.5 -98t-52.5 -101.5t-84 -156.5q0 348 2 544q2 84 5 209t3 183q2 43 2 63l-14 12l-420 -71z" />
<glyph unicode="l" horiz-adv-x="641" d="M82 1540q8 -86 12 -141.5t6 -138.5q4 -147 4 -666q0 -156 -2 -262.5t-6 -255.5q-2 -35 -2 -68l15 -14q92 4 146 6t122 2l61 -2h94l15 14q-6 123 -8 192.5t-4 135.5q-4 141 -5 303q0 86 2 510q2 399 3 461l-17 18l-424 -73l-12 -13v-8z" />
<glyph unicode="m" horiz-adv-x="1878" d="M90 1049q12 -121 17.5 -217.5t5.5 -251.5v-150q-2 -47 -9 -422l17 -14l405 6l15 14q-6 174 -7.5 232.5t-3.5 134.5q-2 127 -2 397q61 31 101 31q59 0 80.5 -59.5t21.5 -249.5q0 -92 -1 -269.5t-3 -222.5l16 -14q102 2 140.5 3t74.5 3h187l12 14q-6 186 -7 244.5t-3 136.5 q-2 131 -2 389q66 25 96 25q31 0 53.5 -13.5t36.5 -47.5q6 -14 9 -45t6 -70q2 -49 2 -127q0 -74 -1 -209t-4 -291l15 -12q94 2 132 3t75 3h198l15 14q-2 43 -6.5 159t-6.5 183q-2 113 -2 332l-2 68v2q-2 96 -17 162.5t-71 119.5q-31 29 -88 53.5t-141 24.5q-131 0 -242 -51 q-39 -18 -63.5 -33.5t-57.5 -42.5q-10 20 -25.5 41t-42 41.5t-67.5 33.5t-98 13q-90 0 -158.5 -33.5t-148.5 -95.5l2 125l-17 17q-96 -20 -131 -26.5t-78 -14t-91 -14.5t-124 -17z" />
<glyph unicode="n" horiz-adv-x="1280" d="M78 1053q10 -102 14 -150.5t8 -119t6.5 -167t2.5 -221.5q0 -129 -5 -387l13 -14q96 4 153.5 6t118.5 2l60 -2h79l11 14q0 4 -2 52q-2 66 -4.5 128t-4.5 168q0 33 -2 144q-4 135 -4 184q0 20 2 51v29q74 37 113 37q59 0 78.5 -34t25.5 -77v-2q6 -41 10.5 -154.5 t4.5 -224.5v-96v-106q-2 -88 -2 -107l10 -12q94 4 150.5 6t117.5 2l58 -2h77l17 14q-6 106 -7 126t-3 74t-3.5 100t-3.5 155v111q0 193 -9 275.5t-50 143.5q-43 70 -109.5 97.5t-144.5 27.5q-51 0 -118.5 -14t-125.5 -45q-31 -18 -88 -59l4 112l-20 19q-70 -14 -119 -24.5 t-96 -18t-80 -12.5t-121 -17z" />
<glyph unicode="o" horiz-adv-x="1236" d="M57 539q0 -72 9.5 -142.5t39 -144.5t90 -136.5t156.5 -97.5q57 -23 132 -33t139 -10q150 0 270.5 47.5t196.5 153.5q29 43 47 94.5t27.5 103.5t12.5 95t3 80q0 168 -39 268.5t-103 161.5q-76 76 -183 108.5t-234 32.5q-47 0 -100.5 -5t-114 -21.5t-122 -51t-108.5 -90.5 q-68 -78 -93.5 -182t-25.5 -231zM481 528q0 80 5.5 138.5t19.5 104.5t43 71.5t74 25.5q72 0 102.5 -77t30.5 -224q0 -27 -1 -60.5t-4 -68.5t-10.5 -72.5t-19.5 -60.5q-37 -76 -103 -76q-10 0 -24 3.5t-32.5 13.5t-36 34.5t-27.5 65.5q-16 66 -17 182z" />
<glyph unicode="p" horiz-adv-x="1280" d="M82 1047q10 -129 14 -186.5t8.5 -147.5t6.5 -217t2 -297q0 -244 -9 -699v-6l15 -12l76 4q119 6 180 6q57 0 157 -4h7l12 12l-16 496h12q139 6 235.5 23.5t190.5 74.5q82 49 133 112.5t82 141.5q47 119 47 254q0 96 -27.5 189.5t-82 167t-137.5 117.5t-189 44 q-102 0 -165 -27.5t-116 -68.5l-2 -2l2 92l-18 19q-96 -20 -127 -26.5t-72 -14t-87 -14.5t-120 -17zM532 262v541l9 4q59 24 97 24h3q59 0 93 -27.5t50 -60.5q14 -27 24.5 -64.5t10.5 -113.5q0 -74 -17.5 -129t-43.5 -88q-45 -53 -97.5 -68.5t-125.5 -17.5h-3z" />
<glyph unicode="q" horiz-adv-x="1280" d="M45 496q0 -246 124 -383.5t325 -137.5q88 0 147 20.5t119 53.5l-8 -555l14 -12q25 0 43 2q145 6 223 6q10 0 70 -2h74l14 12q-6 104 -8 149.5t-4 100.5t-3 116.5t-4 190.5l-4 334l-2 236q0 117 2 190.5t7 208.5q0 12 2 66l-17 12l-241 -4h-89q-279 0 -435 -43t-251 -187 q-41 -59 -69.5 -153t-28.5 -221zM473 553q0 41 6 81t23.5 78t51.5 66.5t85 40.5q31 6 66 6q6 0 26 -2h27v-549q-67 -24 -104 -24h-3q-59 0 -97 33.5t-54.5 82t-21.5 95.5t-5 92z" />
<glyph unicode="r" horiz-adv-x="854" d="M88 1049q6 -63 10 -105.5t7.5 -100t4.5 -116.5t1 -152q0 -188 -13 -565l15 -14q100 4 150 5t104 1l65 -2h96l15 16l-6 359q-2 33 -2 100q0 63 3 102t16 74t45 55.5t85 20.5q35 0 55.5 -8t51.5 -29l20 6q16 90 23.5 131t15.5 84t18.5 85t28.5 122l-14 12q-37 6 -72 7 q-139 0 -225 -129q-18 -27 -43 -84l-6 -11l4 205l-15 17q-76 -16 -126 -26.5t-88 -17t-74.5 -11.5t-137.5 -17z" />
<glyph unicode="s" horiz-adv-x="1024" d="M63 72l13 -23q4 -2 18 -8q20 -6 35 -12q49 -18 139 -36t189 -18q240 0 372 105.5t132 277.5q0 84 -36 149.5t-85 104.5q-43 35 -117 66l-143 59q-86 37 -86 78q0 6 2 16.5t13 24.5t33.5 24.5t61.5 10.5q86 0 141.5 -23.5t110.5 -62.5l2 -2l21 6q6 82 9 124t13 128l-12 12 q-92 27 -164 40t-166 13q-37 0 -76 -2t-85 -10t-95 -26.5t-90 -47.5q-57 -43 -97 -116.5t-40 -161.5q0 -63 21.5 -120.5t49.5 -92.5q33 -39 75 -63.5t106 -53.5q2 -2 8 -4l86 -35q53 -20 79.5 -38.5t26.5 -53.5q0 -6 -3 -18.5t-14 -25.5t-38 -23.5t-67 -10.5 q-55 0 -117 17.5t-113 50.5q-29 16 -78 57l-20 -10z" />
<glyph unicode="t" horiz-adv-x="768" d="M0 834l12 -13l131 4l-4 -180v-139q-2 -117 -2 -139q0 -84 3 -123t14 -78q31 -98 107.5 -144.5t225.5 -46.5q68 0 122.5 7.5t131.5 23.5l15 14l20 252l-16 9q-59 -23 -105 -23q-68 0 -96 49q-12 23 -15 64t-3 92l6 358l78 2h45q27 -2 49 -2l16 17l23 245l-17 15 q-63 -6 -97 -7t-97 -1l6 383l-18 12q-96 -29 -126 -38t-68 -18.5t-81 -20.5t-106 -28l-11 -14v-268h-116l-15 -15z" />
<glyph unicode="u" horiz-adv-x="1280" d="M102 1079q6 -115 8.5 -174t2.5 -139q0 -18 -2 -68v-100v-88q0 -197 13 -281t58 -141q37 -47 102.5 -81t145.5 -34q59 0 129 20.5t127 55.5q25 14 72 49l6 4l-2 -94l14 -14q88 2 126 3t73 3h186l15 14q-6 145 -7 185q-2 90 -2 237q0 219 4 654l-16 20q-74 -4 -114 -7 t-80.5 -5t-80.5 -3t-122 -3l-13 -15l13 -749q-78 -41 -121 -41q-41 0 -64.5 19.5t-35 53t-13.5 73.5t-2 106q0 31 2 176q2 137 2 157v111q-2 90 -2 109l-16 18l-391 -18z" />
<glyph unicode="v" horiz-adv-x="1110" d="M0 1077q35 -92 66.5 -184t89.5 -262l22 -70q14 -41 30.5 -91t32 -98t48.5 -155l12 -41q12 -47 43 -137l10 -33l17 -12q90 4 158.5 5t205.5 1l21 14q25 78 52.5 167t62 194.5t97 292t142.5 422.5l-8 14l-342 -6l-15 -13q-16 -84 -23 -123.5t-15.5 -74.5t-21.5 -94.5 t-23 -98.5l-62 -258q-14 63 -37 152q-43 182 -61 264l-49 246l-17 12q-80 -6 -125 -9t-86 -5q-49 -2 -194 -4h-19z" />
<glyph unicode="w" horiz-adv-x="1705" d="M6 1075l23 -84q74 -262 108 -385q43 -141 80 -282q10 -41 29.5 -116t24.5 -95.5t13.5 -49t12.5 -45.5l4 -12l18 -12q94 4 164 4q80 2 232 2l14 12l143 645q6 -25 31 -149q25 -127 29 -152q41 -233 61 -348l17 -14q94 4 146 6t112 2l55 -2h84l12 14q94 348 129 471t84 295 t88 310l-10 14q-94 -4 -130 -6t-81 -2h-43q-37 2 -63 2l-13 -13q-12 -84 -26.5 -166.5t-26.5 -149.5t-29.5 -142.5t-44.5 -190.5l-10 51q-45 250 -61.5 339t-22.5 126t-22 140l-17 12q-119 -4 -166 -6t-106 -2h-60q-51 2 -88 2l-12 -13q-14 -84 -28.5 -159.5t-28 -141 t-30.5 -148.5t-42 -196q-31 133 -47 209t-30.5 142.5t-28 138t-29.5 168.5l-14 12q-156 -12 -199 -14t-70.5 -2t-124.5 -2z" />
<glyph unicode="x" horiz-adv-x="1110" d="M-16 10l10 -16q72 4 125 6t102 2h70q57 -2 69 -2l19 12q14 33 24.5 54.5t20.5 44t63 122.5l23 46l22 -41q23 -45 38.5 -75t26.5 -53.5t22.5 -48t29.5 -63.5l21 -10q139 8 209 10q78 2 233 2l6 14q-61 92 -86.5 131t-62.5 97.5t-81 129t-130 212.5q10 16 41.5 64t41 62.5 t41 62.5t50.5 75l47 70q33 49 55.5 82.5t61.5 86.5l-11 17q-88 -4 -138 -6t-103 -2l-51 2h-70l-18 -13q-16 -39 -29.5 -67.5t-26 -54t-32 -63.5t-27.5 -54q-8 16 -28.5 54t-29.5 54q-14 27 -47 97l-24 49l-19 8q-49 -2 -73 -4q-92 -6 -148 -8l-211 -6l-12 -15 q92 -141 201 -299q10 -16 25.5 -39.5t41.5 -64.5q41 -66 64 -105q10 -18 12 -20q-84 -127 -150.5 -226.5t-148.5 -222.5q-53 -78 -59 -88z" />
<glyph unicode="y" horiz-adv-x="1110" d="M-20 1077q49 -115 61 -147.5t25.5 -71.5t42.5 -119q18 -51 51 -141q33 -92 51 -143q23 -63 37 -105.5t67.5 -204t63.5 -190.5l2 -6q-25 -68 -48.5 -128.5t-37.5 -96t-30.5 -76.5t-53.5 -127l-10 -23l10 -16q96 2 132 3t71 3h166l16 12q20 90 36.5 151.5t32 118t40 136.5 t55.5 176l104 311l246 697l-12 14l-328 -6l-12 -13q-8 -31 -10 -43q-8 -31 -30 -114.5t-35 -133t-35.5 -127t-51.5 -178.5q-35 127 -51.5 188.5t-27.5 107.5t-23.5 94.5t-44.5 189.5q-2 14 -7 29l-16 12q-172 -12 -219 -14t-79 -2t-140 -2z" />
<glyph unicode="z" horiz-adv-x="1024" d="M27 12l8 -18q162 4 293 6t276 2h172q143 -2 170 -2l12 8l27 262l-14 11l-381 -13q104 233 207.5 444.5t189.5 372.5l-10 19q-227 -4 -348 -6t-246 -2l-117 2h-164l-10 -11l-22 -258l10 -10h340q-10 -23 -146 -309q-88 -190 -98 -211q-49 -100 -66.5 -132t-35 -65.5 t-47.5 -89.5z" />
<glyph unicode="{" horiz-adv-x="724" d="M33 489q55 -16 95 -60t54 -101q6 -27 8.5 -53.5t4.5 -122.5v-15v-180q0 -121 10 -186.5t55 -116.5q61 -72 160.5 -87.5t339.5 -15.5v142l-4 2q-90 25 -134 53.5t-67 99.5q-10 33 -13 71t-3 118v78v12q-2 143 -6.5 194.5t-22.5 92.5q-29 66 -76 96.5t-106 48.5l-6 2 q59 16 109 46t79 100q18 43 22.5 91t6.5 195v13v77q0 80 3 118t13 71q23 72 67 100.5t134 52.5l4 2v142q-240 0 -339 -15.5t-161 -87.5q-45 -51 -55 -116.5t-10 -186.5v-180v-12q-2 -92 -4.5 -122t-8.5 -56q-14 -57 -54 -101.5t-95 -60.5v-142z" />
<glyph unicode="|" horiz-adv-x="468" d="M104 -512h261v2048h-261v-2048z" />
<glyph unicode="}" horiz-adv-x="724" d="M-35 -307v-142q240 0 339 15.5t161 87.5q45 51 55 116.5t10 186.5v180v15q2 90 4.5 119.5t8.5 56.5q14 57 54 101t95 60v142q-55 16 -95 60t-54 102q-6 27 -8.5 53t-4.5 125v12v180q0 121 -10 186.5t-55 116.5q-61 72 -160.5 87.5t-339.5 15.5v-142l4 -2 q90 -25 134 -53.5t67 -99.5q12 -33 14 -71t2 -118v-77v-13q2 -143 6.5 -193t22.5 -93q29 -66 76 -96.5t106 -49.5l6 -2q-57 -16 -108 -46t-80 -99q-18 -43 -22.5 -91.5t-6.5 -195.5v-12v-78q0 -80 -2 -118t-14 -71q-23 -72 -67 -100.5t-134 -52.5z" />
<glyph unicode="~" horiz-adv-x="1492" d="M211 614l113 -211q78 88 114.5 116t98.5 28q33 0 64.5 -10.5t84.5 -34.5l64 -31l6 -2q66 -31 110.5 -46t96.5 -15q88 0 174 51t145 119l-106 215q-61 -72 -111.5 -99.5t-95.5 -27.5q-47 0 -150 45l-4 2l-74 32q-72 33 -115.5 48.5t-95.5 15.5q-63 0 -115.5 -19.5t-90 -49 t-63 -60.5t-50.5 -66z" />
<glyph unicode="&#xa1;" horiz-adv-x="641" d="M51 4l17 -10l407 20l12 17q-10 123 -17 212t-13 185t-10.5 193.5t-16.5 343.5l-2 67l-10 15l-301 -7l-13 -18q-2 -121 -7 -261t-12 -270.5t-16.5 -267.5t-17.5 -219zM72 1219l8 -7l184 7h41h80q66 -2 78 -2l14 12v327l-10 15l-383 -4l-10 -8z" />
<glyph unicode="&#xa2;" horiz-adv-x="1024" d="M51 541q0 -131 44 -250t116 -187q51 -47 104.5 -70.5t112.5 -39.5q-14 -47 -24.5 -83t-26.5 -85l12 -14q61 4 82 4h84l14 14l6 33q8 41 11.5 56t15.5 61q115 2 183.5 12t146.5 41l12 18q2 59 3 87t3 56.5t4 54t9 81.5l-17 8q-57 -33 -109.5 -52.5t-111.5 -19.5 q-4 0 -25 2h-26q33 137 102 414q8 37 27 109q45 -10 67.5 -17.5t71.5 -30.5l19 13q6 90 12 137t20 123q2 10 2 14l-10 19l-20 8q-29 10 -46.5 15t-48.5 13l19 68q16 55 26 90l-10 14q-72 -2 -147 -2l-17 -12q-2 -8 -2 -18q-8 -37 -12 -58.5t-12 -60.5l-17 2q-47 2 -73 2 q-98 0 -202 -28.5t-179 -90.5q-86 -70 -139.5 -187.5t-53.5 -262.5zM444 532q0 76 21.5 127.5t52.5 79t59.5 38.5t61.5 20q-23 -86 -33 -125t-21.5 -80t-39.5 -160q-2 -8 -25 -102l-2 2q-35 45 -54.5 87t-19.5 113z" />
<glyph unicode="&#xa3;" horiz-adv-x="1067" d="M51 602l10 -12l125 6q-4 -88 -9 -155.5t-21 -174.5q-12 -78 -23.5 -122t-36.5 -117l-2 -4l15 -23h897l12 20l14 240l-10 8l-465 -8l23 334h311l12 10l15 211l-13 12l-325 -8l2 78q2 68 10 109t37 69q27 29 71.5 42t92.5 13q61 0 106 -11t94 -34l6 -2l19 13l20 264l-10 14 l-6 2q-84 20 -153.5 30.5t-174.5 10.5q-96 0 -194.5 -20.5t-171.5 -73.5q-82 -59 -118 -144t-36 -214q0 -33 4 -99l2 -49l-100 2l-17 -10z" />
<glyph unicode="&#xa4;" horiz-adv-x="1366" d="M12 219l195 -194l166 168q82 -45 146.5 -68t162.5 -23q94 0 156.5 20.5t144.5 61.5l8 4l164 -168l199 195l-168 168q47 84 67.5 146.5t20.5 166.5q0 98 -20.5 160t-63.5 145l-2 3l166 163l-197 195l-164 -164l-6 4q-82 45 -142.5 64.5t-160.5 19.5q-98 0 -160.5 -20.5 t-146.5 -65.5l-4 -2l-164 164l-193 -195l162 -166l-2 -2q-45 -82 -64.5 -141t-19.5 -156q0 -113 23.5 -181t64.5 -134v-2zM348 692q0 80 29 144.5t78 108.5t108.5 65.5t118.5 21.5q133 0 234.5 -93t101.5 -245q0 -70 -25.5 -132t-70.5 -108t-106.5 -72t-131.5 -26 q-61 0 -121.5 23.5t-110 68t-77 106.5t-27.5 138z" />
<glyph unicode="&#xa5;" horiz-adv-x="1323" d="M0 1366q4 -8 94 -157.5t116 -192.5t30 -51l36 -60q-29 0 -88 2l-14 -14v-23q-2 -68 -3 -102.5t-7 -91.5l12 -14h246l39 -68v-88q-43 0 -142 2h-131l-14 -12q0 -78 -2 -115t-8 -105l12 -14q193 0 283 2v-14q-2 -92 -3 -132t-7 -114l10 -10q117 4 161 5t95 1q16 0 63 -2 h103l14 14q0 16 -2 121q0 70 -2 131q23 0 192 -2h91l12 12q2 29 2 62q4 45 4 54t4 108l-12 12h-10q-49 -4 -93 -4h-192v94l33 62h155q45 0 97 -3l12 13q0 18 4 65q2 61 6 158l-12 12q-35 -2 -70 -2h-61l2 4q121 219 146.5 265.5t55 95.5t66.5 112l-8 11q-78 -2 -112 -3 t-70 -4h-205l-10 -8q-33 -78 -61 -143.5t-51.5 -116.5t-46 -99t-44.5 -95q-74 135 -104.5 191t-53 100.5t-40 81t-42.5 92.5l-14 10q-104 -8 -207 -13q-61 -2 -164 -4q-29 0 -82 -2z" />
<glyph unicode="&#xa6;" horiz-adv-x="468" d="M104 389v-780h261v780h-261zM104 631h261v780h-261v-780z" />
<glyph unicode="&#xa7;" horiz-adv-x="1150" d="M57 571q0 -78 27 -136t68 -98t84 -65.5t106 -56.5l92 -39q49 -20 76 -31q43 -14 74.5 -35.5t31.5 -58.5q0 -41 -43 -63.5t-108 -22.5q-51 0 -108.5 10.5t-102.5 28.5q-18 8 -59 31l-21 10l-16 -10q-4 -80 -7.5 -121t-11.5 -117l-4 -37l12 -16q100 -29 178 -43t167 -14 q96 0 189 20.5t171 67.5t124 123.5t46 185.5q0 74 -22.5 115t-75.5 94l-2 2q78 72 128 147.5t50 190.5q0 76 -28 132t-73 96t-91 64.5t-107 53.5l-103 45q-86 33 -112.5 50.5t-26.5 53.5q0 41 37 65t98 24q76 0 140.5 -26t132.5 -65l18 11q4 94 8 137t15 129l-15 16 q-106 31 -184 46.5t-174 15.5t-197.5 -22.5t-167.5 -74.5q-53 -43 -92 -111.5t-39 -158.5q0 -76 24.5 -118t72.5 -85q-35 -29 -63 -54.5t-54.5 -66t-44 -95t-17.5 -124.5zM360 666q0 29 14.5 52t45.5 58l86 -43l74 -33q84 -37 105.5 -46t37.5 -19q66 -43 65 -100 q0 -31 -15 -54.5t-48 -58.5l-121 57q-23 8 -69 29.5t-58 28.5q-55 29 -86 56.5t-31 72.5z" />
<glyph unicode="&#xa8;" horiz-adv-x="598" d="M-113 1528l9 -324l10 -10l319 23l13 10v321l-9 8q-29 -2 -85 -6t-88.5 -6t-159.5 -8zM369 1528l8 -326l12 -8l316 25l8 8v332l-8 6l-330 -27z" />
<glyph unicode="&#xa9;" horiz-adv-x="1705" d="M125 723q0 -156 57.5 -291t159.5 -233.5t235.5 -151.5t278.5 -53t277.5 54t233.5 152.5t158.5 232.5t57.5 286q0 145 -53 278t-151.5 236.5t-232.5 161t-292 57.5q-147 0 -280.5 -55.5t-233.5 -154.5t-157.5 -233.5t-57.5 -285.5zM190 719q0 139 52.5 262t144.5 214 t213 141t256 50q141 0 263 -52t212 -145t138.5 -214t48.5 -256q0 -104 -41 -227t-131 -222q-94 -100 -223.5 -155.5t-268.5 -55.5t-262 52.5t-212 144.5t-139.5 213t-50.5 250zM358 725q0 -102 32 -193.5t96.5 -163t161.5 -112.5t224 -41q125 0 220.5 42t179.5 130l-178 166 l-2 -2q-39 -37 -89.5 -63.5t-125.5 -26.5q-129 0 -197 74.5t-68 191.5q0 115 70 189.5t188 74.5q70 0 118 -25.5t99 -68.5q4 -4 7 -6l178 170q-37 37 -67.5 63.5t-78 53t-113 43t-145.5 16.5q-115 0 -210 -40t-161.5 -110.5t-102.5 -164t-36 -197.5z" />
<glyph unicode="&#xaa;" horiz-adv-x="811" d="M45 944q0 -104 65.5 -167.5t153.5 -63.5q55 0 100.5 19.5t96.5 51.5v-53l10 -8q92 4 252 4l8 10q-4 61 -6 87t-2 55q-2 41 -2 161l2 84q0 123 -10.5 175.5t-46.5 89.5q-29 29 -84.5 49t-145.5 20q-102 0 -171.5 -13t-129.5 -34l-8 -10v2q-2 0 -2 -82q0 -20 -2 -48t-4 -40 l10 -4q61 27 115.5 42t122.5 15q45 0 64.5 -12t21.5 -43v-14q-80 -8 -144.5 -21.5t-126 -42.5t-99.5 -80t-38 -129zM299 977q0 53 45 71.5t113 22.5v-139q-41 -27 -82 -27q-37 0 -56.5 21.5t-19.5 50.5z" />
<glyph unicode="&#xab;" horiz-adv-x="1024" d="M12 578l94 -160q53 -92 78 -134t47 -81l17 -10h276l8 24q-45 86 -79 156q-41 78 -72 137t-43 86q43 90 92 178t96 168l13 21l-11 18h-71l-47 -2q-39 0 -81 2t-93 4l-15 -14l-4 -8q-10 -20 -19.5 -36t-30 -52.5t-65.5 -117.5t-90 -157v-22zM451 602l2 -22 q37 -66 71.5 -128.5t56 -100.5t33 -59.5t37.5 -70.5l13 -24l14 -9h6q86 4 131 5q49 0 148 -5l8 25l-191 373q18 37 37 71.5t40.5 73.5t51 91t82.5 141l-12 18h-305l-17 -14q-18 -37 -43.5 -84t-51 -91t-60.5 -103.5t-51 -86.5z" />
<glyph unicode="&#xac;" horiz-adv-x="1366" d="M0 465h1104v-465h260v725h-260h-1104v-260z" />
<glyph unicode="&#xad;" horiz-adv-x="811" d="M70 436l8 -10h637l12 14l14 287l-8 10h-639l-12 -14z" />
<glyph unicode="&#xae;" horiz-adv-x="1705" d="M123 723q0 -158 58.5 -292t161.5 -232.5t235.5 -151.5t273.5 -53q152 0 285 55t233 155.5t156.5 232.5t56.5 282q0 147 -54 281.5t-153.5 236.5t-234.5 158.5t-289 56.5q-145 0 -278.5 -54.5t-234.5 -153.5t-158.5 -233t-57.5 -288zM188 723q0 135 51.5 256t142.5 213 t214 143t260 51q139 0 260 -51t211 -144t140.5 -214t50.5 -256t-51.5 -256t-142.5 -212t-213 -142.5t-259 -51.5q-135 0 -256 51.5t-213 141.5t-143.5 212t-51.5 259zM512 262h225v393h39q57 -2 84 -7t42.5 -22.5t23.5 -52t18 -108.5t20.5 -119t30.5 -84h258 q-31 57 -45 114.5t-32 172.5l-2 6q-14 82 -36 113.5t-69 62.5q31 14 56.5 29.5t51 39t41 61.5t15.5 87q0 72 -42 138.5t-124 91.5q-43 14 -96 18t-125 4h-334v-938zM737 834v194h68q88 0 110.5 -1t42.5 -9q25 -10 37.5 -33.5t12.5 -50.5q0 -23 -10.5 -46.5t-30.5 -35.5 q-18 -10 -46 -14t-85 -4h-99z" />
<glyph unicode="&#xaf;" horiz-adv-x="598" d="M-63 1266l10 -13q88 2 227 2q352 0 461 -2l12 15l4 67q2 12 4 50t7 85l-11 13h-4q-68 -2 -118 -3t-138 -1q-285 0 -428 2l-12 -13q-2 -70 -5 -108.5t-9 -93.5z" />
<glyph unicode="&#xb0;" horiz-adv-x="724" d="M10 1178q0 -76 29 -141.5t78 -112.5t112 -73t131 -28q76 0 141.5 29t114 78t75 113.5t26.5 134.5q0 66 -25.5 129t-74 114.5t-114 80t-141.5 28.5q-74 0 -138 -27.5t-112.5 -77t-75 -114t-26.5 -133.5zM250 1178q0 47 32.5 80.5t79.5 33.5t81 -35.5t34 -82.5 q0 -39 -30 -75t-87 -36q-43 0 -76.5 30.5t-33.5 84.5z" />
<glyph unicode="&#xb1;" horiz-adv-x="1366" d="M86 0h1194v260h-1194v-260zM86 760h469v-428h260v428h465v260h-465v426h-260v-426h-469v-260z" />
<glyph unicode="&#xb2;" horiz-adv-x="811" d="M29 498l4 -19q57 0 272 4q233 2 254 2q66 0 143 -2l11 15q2 55 3 89t5 89q2 14 2 20l-8 9l-49 -3q-57 -2 -91 -3t-110 -3l92 115l23 29q49 63 79.5 124.5t30.5 143.5q0 131 -89 215t-249 84q-70 0 -138.5 -16.5t-143.5 -49.5l-9 -8q0 -39 -1 -113.5t-3 -93.5l13 -10 q53 39 94 58.5t96 19.5q49 0 80 -17.5t45 -41t17.5 -43t3.5 -31.5q0 -37 -16.5 -72t-41.5 -69q-12 -16 -44 -60.5t-89 -121t-101 -133t-85 -107.5z" />
<glyph unicode="&#xb3;" horiz-adv-x="811" d="M72 1184l8 -10q88 4 256 8q-18 -47 -35.5 -91t-28 -70t-22.5 -54.5t-29 -65.5l8 -8q37 18 70 18q53 0 93 -32.5t40 -94.5q0 -61 -44 -97t-109 -36q-49 0 -92.5 17.5t-90.5 52.5l-12 -6v-94.5t-4 -104.5l6 -10q51 -18 111.5 -31.5t142.5 -13.5q133 0 214 43t119 103.5 t47 110.5t9 85q0 88 -45 159.5t-152 88.5q27 57 61 126.5t51.5 103.5t45.5 93l-8 15q-92 -2 -175 -4.5t-171 -2.5q-137 0 -246 2l-10 -12v-24q-2 -45 -3 -80t-5 -84z" />
<glyph unicode="&#xb4;" horiz-adv-x="598" d="M41 1262l8 -15l264 4l13 9l229 362l-8 14l-373 -8l-10 -10q-18 -72 -36.5 -132.5t-31 -96t-26 -65.5t-29.5 -62z" />
<glyph unicode="&#xb5;" horiz-adv-x="1280" d="M102 1079q4 -78 6.5 -202.5t2.5 -268.5q2 -176 2 -389q0 -229 -2 -389t-7 -336l15 -12q27 2 53 2q123 6 186 6q14 0 80 -2h80l12 10q-2 82 -3 127t-3 162l-2 104v199q6 -51 45 -76.5t74 -25.5q33 0 68.5 24.5t54.5 77.5l-2 -84l14 -12q80 2 115 3t72 3h196l17 14 q-2 49 -4.5 91t-2.5 96q-2 61 -2 248v139q-2 113 -2 135q0 133 2 270l2 97l-16 20q-25 -2 -47 -2q-106 -8 -166.5 -11t-181.5 -5l-15 -15q6 -131 11 -358q0 -156 2 -234v-47q0 -25 -2 -47t-13.5 -45.5t-36 -41t-65.5 -17.5q-35 0 -57.5 11t-33.5 28.5t-15.5 32t-6.5 30.5 q-2 18 -3 52t-3 77v135q0 39 2 228q2 182 2 211l-16 18q-94 -4 -165 -8t-108.5 -5t-101.5 -5h-18z" />
<glyph unicode="&#xb6;" horiz-adv-x="1366" d="M166 1006q0 -92 35 -180.5t108 -147.5q43 -33 81 -48.5t93 -31.5v-940h172v1628h242v-1628h172v1628h74v160h-512q-106 -2 -182 -22.5t-156 -96.5q-74 -70 -100.5 -158t-26.5 -163z" />
<glyph unicode="&#xb7;" horiz-adv-x="555" d="M70 745l8 -329l8 -13l387 9l8 8v334l-8 8l-395 -4z" />
<glyph unicode="&#xb8;" horiz-adv-x="598" d="M82 -428l12 -12h299l15 10l108 334l-12 12h-244l-16 -10z" />
<glyph unicode="&#xb9;" horiz-adv-x="811" d="M160 1194l8 -8q23 2 38 3t46 3l33 2q0 -223 -2 -395t-7 -312l7 -8q106 4 143 4h129l6 9q-4 94 -6 183t-2 238q0 43 2 256q2 203 2 234l-10 8q-219 -29 -367 -49l-8 -8q-4 -33 -5 -52.5t-3 -54.5z" />
<glyph unicode="&#xba;" horiz-adv-x="811" d="M39 1079q0 -182 89 -275t282 -93q68 0 136 16t128 72q41 37 69.5 101t28.5 185q0 94 -22.5 169t-83.5 126q-45 37 -108.5 57.5t-149.5 20.5q-63 0 -131 -14t-127 -62q-59 -51 -85 -128.5t-26 -174.5zM315 1077q0 102 17.5 159.5t73.5 57.5q49 0 68.5 -49t21.5 -149 q0 -117 -21.5 -168t-71.5 -51q-29 0 -47 18t-27.5 48t-11.5 62.5t-2 71.5z" />
<glyph unicode="&#xbb;" horiz-adv-x="1024" d="M33 211l12 -18h305l15 14q18 37 46.5 88t61.5 107.5t54.5 94.5t43.5 74l-2 23q-166 301 -209 383l-16 8q-90 -4 -135 -4q-49 0 -148 4l-8 -24q20 -41 68 -132q51 -102 74.5 -147t46.5 -94q-18 -41 -32.5 -70t-49.5 -88q-78 -139 -127 -219zM483 211l15 -18h69l47 2 q39 0 81 -2.5t93 -4.5l15 15q10 20 32.5 60t51.5 91q43 78 98 174l27 45v23l-219 375l-17 10h-276l-8 -25q12 -25 45.5 -91t60.5 -117.5t54.5 -103.5t33.5 -64q-47 -100 -103.5 -199.5t-99.5 -169.5z" />
<glyph unicode="&#xbc;" horiz-adv-x="1878" d="M158 1194l8 -8q12 0 29 2q41 2 88 4q0 -223 -2 -394t-7 -311l7 -10q90 4 135 5t137 1l6 9q-4 92 -6 181t-2 240q0 43 2 256q2 203 2 234l-10 8l-94 -14q-76 -10 -124 -16.5t-149 -18.5l-8 -8q-4 -37 -8 -109q0 -4 -4 -51zM530 18l13 -18q55 2 100 3t53 1q35 2 54 2l14 14 q231 612 573 1346l-6 20q-78 -2 -209 -2l-12 -14q-20 -53 -35.5 -93t-30 -74t-39 -92t-44.5 -103q-35 -80 -105 -242t-106 -244q-20 -47 -44 -101t-67 -151.5t-75 -172t-34 -79.5zM1114 176l6 -10h342l-4 -64q0 -20 -4 -102l8 -8q80 4 124 5t126 1l10 8q0 25 -2 80 q-4 55 -4 80h86l10 10q0 25 3 33q0 35 1 64.5t5 72.5l-9 8q-16 0 -51 -2q-6 0 -45 -2q0 281 1 382.5t3 170.5l-12 8l-137 -2q-129 -2 -174 -2l-13 -10q-47 -111 -65.5 -151.5t-37.5 -82.5t-44 -93.5t-92 -188.5l-31 -62v-143zM1331 350l62 154q2 6 8 20q31 84 42 115t34 84 q-2 -90 -3 -158.5t-4 -136.5q-2 -74 -2 -78h-137z" />
<glyph unicode="&#xbd;" horiz-adv-x="1878" d="M158 1194l8 -8q10 0 39 2q25 4 78 6q0 -223 -2 -395t-7 -312l7 -10q90 4 135 5t137 1l6 9q-4 92 -6 182t-2 239q0 43 2 256q2 203 2 234l-10 8l-94 -14q-76 -10 -124 -16.5t-149 -18.5l-8 -8q-4 -37 -8 -109q0 -4 -4 -51zM461 18l12 -18q55 2 100 3t54 1q35 2 53 2l14 14 q223 590 576 1346l-8 20q-78 -2 -207 -2l-15 -12q-20 -55 -35.5 -95t-28.5 -73t-39 -92t-46 -104q-139 -324 -211 -486q-20 -47 -44 -101t-67 -151.5t-74.5 -172t-33.5 -79.5zM1094 14l4 -18q47 0 278 4q215 2 248 2q68 0 145 -2l11 14q2 55 3 89t5 90q2 14 2 20l-8 8 l-49 -2q-57 -2 -91 -3t-110 -3l92 115l23 28q49 63 79.5 125t30.5 144q0 131 -89 215t-249 84q-70 0 -138.5 -16.5t-145.5 -49.5l-7 -8q-2 -20 -3 -95t-1 -112l13 -10q53 39 94 58.5t96 19.5q49 0 80 -17.5t45 -41t17.5 -43t3.5 -31.5q0 -37 -16.5 -72t-41.5 -70 q-12 -16 -47 -65t-88 -119t-101.5 -132.5t-84.5 -105.5z" />
<glyph unicode="&#xbe;" horiz-adv-x="1878" d="M72 1184l8 -10q88 4 256 8q-18 -47 -35.5 -91t-28 -70t-22.5 -54.5t-29 -65.5l8 -8q37 18 70 18q53 0 93 -32.5t40 -94.5q0 -61 -44 -97t-109 -36q-49 0 -92.5 17.5t-90.5 52.5l-12 -6v-94.5t-4 -104.5l6 -10q51 -18 111.5 -31.5t142.5 -13.5q133 0 214 43t119 103.5 t47 110.5t9 85q0 88 -45 159.5t-152 88.5q27 57 61 126.5t51.5 103.5t45.5 93l-8 15q-92 -2 -175 -4.5t-171 -2.5q-137 0 -246 2l-10 -12v-24q-2 -45 -3 -80t-5 -84zM543 18l12 -18q55 2 100 3t54 1q35 2 53 2l14 14q217 584 574 1346l-7 18h-208l-13 -14q-18 -47 -32.5 -84 t-25.5 -64.5t-21.5 -53t-47.5 -107.5l-22 -53q-35 -80 -105 -242t-106 -244q-8 -20 -107.5 -246.5t-111.5 -257.5zM1116 176l6 -10h340l-4 -64q0 -20 -4 -102l8 -8q80 4 124 5t126 1l10 8q0 25 -2 80q-4 55 -4 80h86l10 10q0 25 3 33q0 35 1 64.5t5 72.5l-9 8q-16 0 -51 -2 q-6 0 -43 -2q0 281 1 382.5t3 168.5l-12 10q-125 -4 -163 -4h-148l-13 -10q-47 -111 -65 -151.5t-37.5 -82.5t-44.5 -93.5t-92 -188.5l-31 -62v-143zM1333 350l62 154q25 66 39 104.5t45 114.5q-2 -90 -3 -158.5t-3 -136.5q-2 -74 -3 -78h-137z" />
<glyph unicode="&#xbf;" horiz-adv-x="937" d="M10 389q0 -72 22.5 -140.5t65.5 -119.5q39 -49 91.5 -80t105.5 -46t104.5 -20.5t106.5 -5.5q109 0 182.5 16.5t177.5 53.5l15 19l8 284l-17 17q-74 -45 -126 -68t-117 -23q-84 0 -144.5 52.5t-60.5 148.5q0 84 32.5 150.5t94.5 148.5l51 62q55 66 71.5 100.5t20.5 103.5 l-10 15l-358 -8l-13 -17q-2 -41 -10 -61.5t-35 -59.5l-45 -59q-39 -49 -59.5 -74.5t-22.5 -29.5q-61 -86 -96 -175.5t-35 -183.5zM307 1214l10 -6q92 6 185 6h39q104 0 157 -2l15 15v325l-11 15l-383 -4l-8 -9z" />
<glyph unicode="&#xc0;" horiz-adv-x="1409" d="M0 14l10 -14h377l14 8l80 344h400l77 -348l15 -10q25 0 74 2q88 4 137 4h211l14 16l-416 1426l-14 10l-520 -6l-13 -10zM373 1876l231 -320l14 -10h240l10 13q-18 57 -29.5 92t-21.5 70.5t-18 69.5t-23 93l-12 6h-383zM557 647l53 207q20 72 30.5 113t18 67.5t14.5 59 t17 80.5h4l66 -310l51 -217h-254z" />
<glyph unicode="&#xc1;" horiz-adv-x="1409" d="M0 14l10 -14h377l14 8l80 344h400l77 -348l15 -10q25 0 74 2q88 4 137 4h211l14 16l-416 1426l-14 10l-520 -6l-13 -10zM549 1556l8 -10h238l12 6l248 326l-6 10h-379l-11 -8q-14 -63 -44.5 -152.5t-65.5 -171.5zM557 647l53 207q20 72 30.5 113t18 67.5t14.5 59t17 80.5 h4l66 -310l51 -217h-254z" />
<glyph unicode="&#xc2;" horiz-adv-x="1409" d="M0 14l10 -14h377l14 8l80 344h400l77 -348l15 -10q25 0 74 2q88 4 137 4h211l14 16l-416 1426l-14 10l-520 -6l-13 -10zM299 1561l10 -13h285l12 13l84 147l64 -147l12 -13l321 4l9 17q-31 51 -53.5 88t-38 64.5t-27.5 52t-47 96.5l-4 10l-13 10h-428l-12 -12 q-37 -84 -75 -151.5t-99 -165.5zM557 647l53 207q20 72 30.5 113t18 67.5t14.5 59t17 80.5h4l66 -310l51 -217h-254z" />
<glyph unicode="&#xc3;" horiz-adv-x="1409" d="M0 14l10 -14h377l14 8l80 344h400l77 -348l15 -10q25 0 74 2q88 4 137 4h211l14 16l-416 1426l-14 10l-520 -6l-13 -10zM332 1567l8 -4q78 35 113.5 47t72.5 12q53 0 138 -31l65 -24l12 -4q68 -20 111 -21q66 0 111 22.5t92 61.5l8 16l-6 271l-8 6q-68 -53 -110 -74.5 t-83 -21.5q-39 0 -129 26l-14 4l-90 33q-49 14 -97 15q-66 0 -105.5 -18.5t-82.5 -51.5l-6 -16v-248zM557 647l53 207q20 72 30.5 113t18 67.5t14.5 59t17 80.5h4l66 -310l51 -217h-254z" />
<glyph unicode="&#xc4;" horiz-adv-x="1409" d="M0 14l10 -14h377l14 8l80 344h400l77 -348l15 -10q25 0 74 2q88 4 137 4h211l14 16l-416 1426l-14 10l-520 -6l-13 -10zM270 1556l9 -10l327 6l10 13l5 295l-9 12l-331 -4l-9 -15q0 -12 2 -73v-76q0 -39 -2 -121zM557 647l53 207q20 72 30.5 113t18 67.5t14.5 59t17 80.5 h4l66 -310l51 -217h-254zM788 1548l11 -12l315 10l10 15l4 299l-10 14l-321 -10l-9 -13q2 -74 3 -163q0 -92 -3 -140z" />
<glyph unicode="&#xc5;" horiz-adv-x="1409" d="M0 14l10 -14h377l14 8l80 344h400l77 -348l15 -10q25 0 74 2q88 4 137 4h211l14 16l-416 1426l-14 10l-520 -6l-13 -10zM420 1751q0 -106 71.5 -174t200.5 -68t201 68.5t72 183.5q-2 109 -76 177.5t-197 68.5q-125 0 -198.5 -71.5t-73.5 -184.5zM557 647l53 207 q20 72 30.5 113t18 67.5t14.5 59t17 80.5h4l66 -310l51 -217h-254zM616 1757q0 49 17.5 86t58.5 37q37 0 55.5 -33t20.5 -80q0 -61 -20.5 -96t-55.5 -35t-55.5 35t-20.5 86z" />
<glyph unicode="&#xc6;" horiz-adv-x="1878" d="M0 12l8 -18q92 4 144.5 6t109.5 2l53 -2h80l17 10l116 367h363l-8 -371l14 -12q201 4 342 4q178 2 539 2l14 12l18 305l-12 11q-63 -2 -101 -4t-112 -5q-90 -2 -282 -4v279h405l14 14l17 271l-13 12l-421 -4l4 258h456l11 12l16 285l-14 4h-1200l-13 -8 q-31 -90 -52 -146.5t-46 -119t-71 -179t-146 -364.5q-49 -119 -125 -307q-76 -190 -125 -310zM637 678l172 469h94l-8 -469h-258z" />
<glyph unicode="&#xc7;" horiz-adv-x="1236" d="M66 702q0 -150 40.5 -281.5t129 -233t226.5 -160t326 -58.5q123 0 208 16.5t169 43.5l9 14q0 35 2 68q2 84 5 144t7 134l-17 8q-53 -39 -115.5 -65.5t-154.5 -26.5q-172 0 -273.5 108.5t-101.5 305.5q0 35 3 73.5t17.5 91t46.5 104.5t83 89q84 63 205 64 q63 0 125.5 -19.5t109.5 -58.5q16 -16 27 -25l14 11q2 70 3 103.5t3 68t5 68.5t8 97l-9 13q-76 33 -160.5 55.5t-209.5 22.5q-102 0 -200.5 -21.5t-192 -73t-169 -140.5t-120.5 -218q-29 -76 -39 -158t-10 -164zM508 -426l12 -14h90q31 2 58 2t59 -2h94l13 12 q61 193 83.5 258.5t24.5 73.5l-12 12q-145 0 -244 2l-16 -12q-33 -72 -49.5 -105.5t-32 -64.5t-32.5 -67t-48 -95z" />
<glyph unicode="&#xc8;" horiz-adv-x="1150" d="M104 1434q6 -123 8.5 -166t2.5 -121q4 -158 4 -498q0 -193 -2 -336q0 -68 -2 -146.5t-4 -158.5l10 -14l117 2q147 4 223 5t196 1h64q139 -2 326 -2l18 12l20 303l-12 13q-166 -6 -285.5 -9.5t-234.5 -3.5v283h426l14 12l17 269l-13 14l-448 -8v260h473l12 10l15 283 l-11 8h-921zM244 1876l231 -320l14 -10h240l10 13q-18 57 -29.5 92t-21.5 70.5t-18 69.5t-23 93l-12 6h-383z" />
<glyph unicode="&#xc9;" horiz-adv-x="1150" d="M104 1434q6 -123 8.5 -166t2.5 -121q4 -158 4 -498q0 -193 -2 -336q0 -68 -2 -146.5t-4 -158.5l10 -14l117 2q147 4 223 5t196 1h64q139 -2 326 -2l18 12l20 303l-12 13q-166 -6 -285.5 -9.5t-234.5 -3.5v283h426l14 12l17 269l-13 14l-448 -8v260h473l12 10l15 283 l-11 8h-921zM420 1556l8 -10h238l12 6l248 326l-6 10h-379l-11 -8q-14 -63 -44.5 -152.5t-65.5 -171.5z" />
<glyph unicode="&#xca;" horiz-adv-x="1150" d="M104 1434q6 -123 8.5 -166t2.5 -121q4 -158 4 -498q0 -193 -2 -336q0 -68 -2 -146.5t-4 -158.5l10 -14l117 2q147 4 223 5t196 1h64q139 -2 326 -2l18 12l20 303l-12 13q-166 -6 -285.5 -9.5t-234.5 -3.5v283h426l14 12l17 269l-13 14l-448 -8v260h473l12 10l15 283 l-11 8h-921zM170 1561l10 -13h285l12 13l84 147l64 -147l12 -13l321 4l9 17q-31 51 -53.5 88t-38 64.5t-27.5 52t-47 96.5l-4 10l-13 10h-428l-12 -12q-37 -84 -75 -151.5t-99 -165.5z" />
<glyph unicode="&#xcb;" horiz-adv-x="1150" d="M104 1434q6 -123 8.5 -166t2.5 -121q4 -158 4 -498q0 -193 -2 -336q0 -68 -2 -146.5t-4 -158.5l10 -14l117 2q147 4 223 5t196 1h64q139 -2 326 -2l18 12l20 303l-12 13q-166 -6 -285.5 -9.5t-234.5 -3.5v283h426l14 12l17 269l-13 14l-448 -8v260h473l12 10l15 283 l-11 8h-921zM154 1556l8 -10l327 6l11 13l4 295l-8 12l-332 -4l-8 -15q0 -12 2 -73v-76q0 -39 -2 -121zM672 1548l10 -12l315 10l11 15l4 299l-11 14l-321 -10l-8 -13q2 -74 2 -163q0 -92 -2 -140z" />
<glyph unicode="&#xcc;" horiz-adv-x="681" d="M10 1876l232 -320l14 -10h240l10 13q-18 57 -29.5 92t-22 70.5t-18.5 69.5t-22 93l-13 6h-383zM109 1436q6 -180 9 -293t3 -240q0 -117 -4 -350q-4 -365 -4 -549l8 -10q106 4 164.5 6t124.5 2l63 -2h94l8 10q-14 502 -14 869q0 158 2 265t8 265v33l-8 10 q-104 -4 -160.5 -6t-123.5 -2l-64 2h-96z" />
<glyph unicode="&#xcd;" horiz-adv-x="681" d="M109 1436q6 -180 9 -293t3 -240q0 -117 -4 -350q-4 -365 -4 -549l8 -10q106 4 164.5 6t124.5 2l63 -2h94l8 10q-14 502 -14 869q0 158 2 265t8 265v33l-8 10q-104 -4 -160.5 -6t-123.5 -2l-64 2h-96zM186 1556l9 -10h237l12 6l248 326l-6 10h-379l-10 -8 q-14 -63 -45 -152.5t-66 -171.5z" />
<glyph unicode="&#xce;" horiz-adv-x="681" d="M-63 1561l10 -13h284l13 13l84 147l63 -147l12 -13l322 4l8 17q-31 51 -53.5 88t-37.5 64.5t-27.5 52t-47.5 96.5l-4 10l-12 10h-428l-12 -12q-37 -84 -75 -151.5t-99 -165.5zM109 1436q6 -180 9 -293t3 -240q0 -117 -4 -350q-4 -365 -4 -549l8 -10q106 4 164.5 6 t124.5 2l63 -2h94l8 10q-14 502 -14 869q0 158 2 265t8 265v33l-8 10q-104 -4 -160.5 -6t-123.5 -2l-64 2h-96z" />
<glyph unicode="&#xcf;" horiz-adv-x="681" d="M-80 1556l8 -10l328 6l10 13l4 295l-8 12l-332 -4l-8 -15q0 -12 2 -73v-76q0 -39 -2 -121zM109 1436q6 -180 9 -293t3 -240q0 -117 -4 -350q-4 -365 -4 -549l8 -10q106 4 164.5 6t124.5 2l63 -2h94l8 10q-14 502 -14 869q0 158 2 265t8 265v33l-8 10q-104 -4 -160.5 -6 t-123.5 -2l-64 2h-96zM438 1548l11 -12l315 10l10 15l4 299l-10 14l-322 -10l-8 -13q2 -74 2 -163q0 -92 -2 -140z" />
<glyph unicode="&#xd0;" horiz-adv-x="1449" d="M-2 662l12 -11q39 2 66 4q33 2 43 2v-135q2 -90 2 -133q0 -45 -2 -135v-133v-55q-2 -45 -2 -56l12 -16q59 0 119 2q152 2 254 2l133 2q78 0 143.5 6t142 25.5t152.5 62.5t137 115q78 90 126 230.5t48 332.5q0 186 -49 312t-118 196q-55 57 -123 91t-138.5 49.5t-128 19.5 t-135.5 6h-4h-102h-467l-13 -10q4 -96 6.5 -184.5t4.5 -254.5l2 -151q-47 0 -109 2l-12 -12v-174zM553 854v274q2 0 47 2q37 2 49 3q57 0 103.5 -12.5t86.5 -50.5t63.5 -117t23.5 -205q0 -154 -40 -259.5t-136 -146.5q-51 -23 -136 -23l-26 3h-29l-4 342q18 0 63 2h41h41 q47 -2 66 -2l10 12q2 49 4 80q2 59 4 94l-10 12q-78 -4 -120 -5t-101 -3z" />
<glyph unicode="&#xd1;" horiz-adv-x="1492" d="M102 1434q20 -451 21 -1082q0 -84 -1 -161.5t-5 -186.5l12 -10q88 4 152.5 5t191.5 1l10 12l-28 824l4 4q18 -25 137 -186.5t164 -223t76 -106.5l38 -54q35 -49 84.5 -116.5t108.5 -151.5l16 -8l287 6l12 12v23q-4 195 -5 278.5t-1 221.5q0 145 2 475v434l-12 8l-334 -6 l-8 -10q4 -147 6 -209t4 -137q2 -125 2 -408h-4q-61 88 -107 153.5t-59.5 84t-54.5 75t-94 129.5q-41 55 -67.5 92t-58.5 81t-53.5 75t-50.5 74l-12 6l-178 -6h-182zM375 1567l8 -4q78 35 113.5 47t72.5 12q53 0 138 -31l65 -24l12 -4q68 -20 111 -21q66 0 111 22.5t92 61.5 l8 16l-6 271l-8 6q-68 -53 -110 -74.5t-83 -21.5q-39 0 -129 26l-14 4l-90 33q-49 14 -97 15q-66 0 -105.5 -18.5t-82.5 -51.5l-6 -16v-248z" />
<glyph unicode="&#xd2;" horiz-adv-x="1492" d="M66 702q0 -352 174 -541.5t499 -189.5q78 0 155 11.5t158 43t153.5 90t123.5 146.5q57 96 77.5 221t20.5 258q-6 217 -60 353.5t-148 226.5q-49 47 -109.5 78t-125 49t-124 24.5t-115.5 6.5q-117 0 -210 -23.5t-161.5 -64.5t-116.5 -93.5t-85 -111.5q-59 -100 -82.5 -220 t-23.5 -264zM416 1876l231 -320l15 -10h239l10 13q-18 57 -29.5 92t-21.5 70.5t-18 69.5t-23 93l-12 6h-383zM516 713q0 104 11.5 185t38 142.5t72.5 95t116 33.5q63 0 107 -33.5t68.5 -95t36 -138.5t11.5 -173q0 -82 -8 -156.5t-32 -140t-71 -106.5t-121 -41q-76 0 -123 45 t-69.5 112.5t-29.5 135t-7 135.5z" />
<glyph unicode="&#xd3;" horiz-adv-x="1492" d="M66 702q0 -352 174 -541.5t499 -189.5q78 0 155 11.5t158 43t153.5 90t123.5 146.5q57 96 77.5 221t20.5 258q-6 217 -60 353.5t-148 226.5q-49 47 -109.5 78t-125 49t-124 24.5t-115.5 6.5q-117 0 -210 -23.5t-161.5 -64.5t-116.5 -93.5t-85 -111.5q-59 -100 -82.5 -220 t-23.5 -264zM516 713q0 104 11.5 185t38 142.5t72.5 95t116 33.5q63 0 107 -33.5t68.5 -95t36 -138.5t11.5 -173q0 -82 -8 -156.5t-32 -140t-71 -106.5t-121 -41q-76 0 -123 45t-69.5 112.5t-29.5 135t-7 135.5zM592 1556l8 -10h238l12 6l248 326l-6 10h-379l-11 -8 q-14 -63 -44.5 -152.5t-65.5 -171.5z" />
<glyph unicode="&#xd4;" horiz-adv-x="1492" d="M66 702q0 -352 174 -541.5t499 -189.5q78 0 155 11.5t158 43t153.5 90t123.5 146.5q57 96 77.5 221t20.5 258q-6 217 -60 353.5t-148 226.5q-49 47 -109.5 78t-125 49t-124 24.5t-115.5 6.5q-117 0 -210 -23.5t-161.5 -64.5t-116.5 -93.5t-85 -111.5q-59 -100 -82.5 -220 t-23.5 -264zM342 1561l10 -13h285l12 13l84 147l64 -147l12 -13l321 4l9 17q-31 51 -53.5 88t-38 64.5t-27.5 52t-47 96.5l-4 10l-13 10h-428l-12 -12q-37 -84 -75 -151.5t-99 -165.5zM516 713q0 104 11.5 185t38 142.5t72.5 95t116 33.5q63 0 107 -33.5t68.5 -95t36 -138.5 t11.5 -173q0 -82 -8 -156.5t-32 -140t-71 -106.5t-121 -41q-76 0 -123 45t-69.5 112.5t-29.5 135t-7 135.5z" />
<glyph unicode="&#xd5;" horiz-adv-x="1492" d="M66 702q0 -352 174 -541.5t499 -189.5q78 0 155 11.5t158 43t153.5 90t123.5 146.5q57 96 77.5 221t20.5 258q-6 217 -60 353.5t-148 226.5q-49 47 -109.5 78t-125 49t-124 24.5t-115.5 6.5q-117 0 -210 -23.5t-161.5 -64.5t-116.5 -93.5t-85 -111.5q-59 -100 -82.5 -220 t-23.5 -264zM375 1567l8 -4q78 35 113.5 47t72.5 12q53 0 138 -31l65 -24l12 -4q68 -20 111 -21q66 0 111 22.5t92 61.5l8 16l-6 271l-8 6q-68 -53 -110 -74.5t-83 -21.5q-39 0 -129 26l-14 4l-90 33q-49 14 -97 15q-66 0 -105.5 -18.5t-82.5 -51.5l-6 -16v-248zM516 713 q0 104 11.5 185t38 142.5t72.5 95t116 33.5q63 0 107 -33.5t68.5 -95t36 -138.5t11.5 -173q0 -82 -8 -156.5t-32 -140t-71 -106.5t-121 -41q-76 0 -123 45t-69.5 112.5t-29.5 135t-7 135.5z" />
<glyph unicode="&#xd6;" horiz-adv-x="1492" d="M66 702q0 -352 174 -541.5t499 -189.5q78 0 155 11.5t158 43t153.5 90t123.5 146.5q57 96 77.5 221t20.5 258q-6 217 -60 353.5t-148 226.5q-49 47 -109.5 78t-125 49t-124 24.5t-115.5 6.5q-117 0 -210 -23.5t-161.5 -64.5t-116.5 -93.5t-85 -111.5q-59 -100 -82.5 -220 t-23.5 -264zM326 1556l8 -10l328 6l10 13l4 295l-8 12l-332 -4l-8 -15q0 -12 2 -73v-76q0 -39 -2 -121zM516 713q0 104 11.5 185t38 142.5t72.5 95t116 33.5q63 0 107 -33.5t68.5 -95t36 -138.5t11.5 -173q0 -82 -8 -156.5t-32 -140t-71 -106.5t-121 -41q-76 0 -123 45 t-69.5 112.5t-29.5 135t-7 135.5zM844 1548l10 -12l315 10l11 15l4 299l-10 14l-322 -10l-8 -13q2 -74 2 -163q0 -92 -2 -140z" />
<glyph unicode="&#xd7;" horiz-adv-x="1366" d="M125 225l184 -186l373 373l375 -373l182 186l-371 371l371 375l-182 180l-375 -371l-373 371l-184 -180l373 -375z" />
<glyph unicode="&#xd8;" horiz-adv-x="1492" d="M-12 106l2 -22l135 -129l22 4l142 158q47 -33 82 -54.5t89 -44t126.5 -36t165.5 -13.5q211 0 365.5 86t230.5 246q43 90 61 202.5t18 237.5q0 156 -28.5 251t-79.5 196l-2 4l166 166l-2 20l-135 123l-19 -2q-72 -84 -143 -153l-2 2q-82 57 -150 84q-57 20 -127.5 32.5 t-161.5 12.5q-266 0 -433 -129t-218 -379q-27 -141 -26 -273q0 -162 23.5 -248t70.5 -172v-2l-39 -38q-33 -33 -59.5 -58.5t-73.5 -71.5zM489 733q0 74 13.5 162t34.5 143q10 23 24 46.5t39 49t62.5 42t89.5 16.5q78 0 118.5 -35t65.5 -82l-442 -454v6q-4 74 -5 106z M541 399l452 461q0 -4 4 -47q6 -80 7 -119q0 -57 -7.5 -123.5t-33 -139.5t-77.5 -123t-134 -50q-84 0 -127 37t-82 100z" />
<glyph unicode="&#xd9;" horiz-adv-x="1409" d="M90 1436l2 -52q4 -305 4 -342q2 -145 2 -430v-63v-4q4 -133 22.5 -226.5t82.5 -171.5q43 -53 105.5 -88.5t132 -55t137 -27t131.5 -7.5q135 0 242.5 28t176.5 77q59 41 95.5 93t54.5 109.5t24.5 110.5t10.5 131v4l2 78l10 844l-12 8l-375 -6l-10 -8q8 -215 11 -386 t3 -411q0 -137 -10 -204.5t-53 -110.5q-31 -31 -68 -42.5t-74 -11.5q-70 0 -113.5 34t-64.5 93q-14 41 -18 95.5t-4 134.5q0 272 12 813l-10 10q-100 -2 -141.5 -3t-82.5 -3h-217zM373 1876l231 -320l14 -10h240l10 13q-18 57 -29.5 92t-21.5 70.5t-18 69.5t-23 93l-12 6 h-383z" />
<glyph unicode="&#xda;" horiz-adv-x="1409" d="M90 1436l2 -52q4 -305 4 -342q2 -145 2 -430v-63v-4q4 -133 22.5 -226.5t82.5 -171.5q43 -53 105.5 -88.5t132 -55t137 -27t131.5 -7.5q135 0 242.5 28t176.5 77q59 41 95.5 93t54.5 109.5t24.5 110.5t10.5 131v4l2 78l10 844l-12 8l-375 -6l-10 -8q8 -215 11 -386 t3 -411q0 -137 -10 -204.5t-53 -110.5q-31 -31 -68 -42.5t-74 -11.5q-70 0 -113.5 34t-64.5 93q-14 41 -18 95.5t-4 134.5q0 272 12 813l-10 10q-100 -2 -141.5 -3t-82.5 -3h-217zM549 1556l8 -10h238l12 6l248 326l-6 10h-379l-11 -8q-14 -63 -44.5 -152.5t-65.5 -171.5z " />
<glyph unicode="&#xdb;" horiz-adv-x="1409" d="M90 1436l2 -52q4 -305 4 -342q2 -145 2 -430v-63v-4q4 -133 22.5 -226.5t82.5 -171.5q43 -53 105.5 -88.5t132 -55t137 -27t131.5 -7.5q135 0 242.5 28t176.5 77q59 41 95.5 93t54.5 109.5t24.5 110.5t10.5 131v4l2 78l10 844l-12 8l-375 -6l-10 -8q8 -215 11 -386 t3 -411q0 -137 -10 -204.5t-53 -110.5q-31 -31 -68 -42.5t-74 -11.5q-70 0 -113.5 34t-64.5 93q-14 41 -18 95.5t-4 134.5q0 272 12 813l-10 10q-100 -2 -141.5 -3t-82.5 -3h-217zM299 1561l10 -13h285l12 13l84 147l64 -147l12 -13l321 4l9 17q-31 51 -53.5 88t-38 64.5 t-27.5 52t-47 96.5l-4 10l-13 10h-428l-12 -12q-37 -84 -75 -151.5t-99 -165.5z" />
<glyph unicode="&#xdc;" horiz-adv-x="1409" d="M90 1436l2 -52q4 -305 4 -342q2 -145 2 -430v-63v-4q4 -133 22.5 -226.5t82.5 -171.5q43 -53 105.5 -88.5t132 -55t137 -27t131.5 -7.5q135 0 242.5 28t176.5 77q59 41 95.5 93t54.5 109.5t24.5 110.5t10.5 131v4l2 78l10 844l-12 8l-375 -6l-10 -8q8 -215 11 -386 t3 -411q0 -137 -10 -204.5t-53 -110.5q-31 -31 -68 -42.5t-74 -11.5q-70 0 -113.5 34t-64.5 93q-14 41 -18 95.5t-4 134.5q0 272 12 813l-10 10q-100 -2 -141.5 -3t-82.5 -3h-217zM307 1556l8 -10l328 6l10 13l4 295l-8 12l-332 -4l-8 -15q0 -12 2 -73v-76q0 -39 -2 -121z M825 1548l11 -12l315 10l10 15l4 299l-10 14l-321 -10l-9 -13q2 -74 2 -163q0 -92 -2 -140z" />
<glyph unicode="&#xdd;" horiz-adv-x="1366" d="M-12 1425q12 -20 98 -163.5t146.5 -246t133 -225t99.5 -169.5v-107q0 -164 -2 -276q-2 -59 -6 -137t-4 -95l10 -12q100 2 141 3t80 3h213l16 12q-4 117 -6 219.5t-2 274.5v121q39 76 101.5 191.5t109.5 202.5t114.5 207t123.5 214l-8 10l-400 -6l-10 -6 q-53 -133 -96 -229.5t-95 -206.5q-6 -12 -18 -39q-6 10 -20 39q-63 117 -92 170t-54.5 102t-42 86t-39.5 88l-14 8q-125 -8 -157 -10t-84 -4t-83.5 -2t-144.5 -2zM526 1556l9 -10h237l12 6l248 326l-6 10h-379l-10 -8q-14 -63 -45 -152.5t-66 -171.5z" />
<glyph unicode="&#xde;" horiz-adv-x="1323" d="M109 1417q6 -182 8 -282.5t2 -223.5q0 -301 -8 -907l8 -10q100 4 156.5 6t121.5 2l64 -2h92l8 10q-2 27 -4 140t-2 126q203 0 327 18.5t224 94.5q92 68 138 178.5t46 235.5q0 100 -31.5 188t-97.5 150q-82 78 -202.5 101.5t-309.5 23.5h-94v47q2 80 4 129l-10 10 q-106 -4 -159.5 -6t-117.5 -2q-16 0 -61 2h-94l-8 -10v-19zM551 580v391h121q20 0 46.5 -6.5t56.5 -23.5t50.5 -53t20.5 -93q0 -25 -4 -52.5t-19.5 -58.5t-49.5 -57.5t-87 -38.5q-23 -4 -52.5 -6t-82.5 -2z" />
<glyph unicode="&#xdf;" horiz-adv-x="1323" d="M92 926q4 -162 6 -271.5t2 -214.5q0 -143 -4 -434l15 -12l391 6l18 14q0 2 -2 125q-4 375 -5 510t-3 276.5t-4 186.5v39q0 35 3 67.5t17.5 68.5t48 60.5t87.5 24.5q61 0 95 -50t34 -136q0 -63 -16.5 -104.5t-55.5 -100.5l-49 -66q-29 -37 -44.5 -67.5t-15.5 -69.5 q0 -35 12.5 -61.5t36.5 -61.5l3 -2l118 -141q31 -41 46.5 -70.5t15.5 -68.5q0 -55 -39 -89t-96 -34q-23 0 -38.5 6t-37.5 18l-19 -12l2 -248l17 -12h6q47 -8 79 -11t66 -3q29 0 69 4t89 13t97 25.5t85 41.5q59 43 106.5 116.5t47.5 190.5q0 106 -42 183t-114 159l-61 74 q-23 25 -38 50t-15 50q0 33 30 82l37 59l2 4q43 74 63.5 127.5t20.5 116.5q0 74 -38 151.5t-136 129.5q-70 37 -150.5 50t-177.5 13q-59 0 -121.5 -7t-129 -25.5t-125 -52.5t-99.5 -85q-55 -70 -72.5 -169t-17.5 -265v-98z" />
<glyph unicode="&#xe0;" d="M45 330q0 -152 98.5 -251t243.5 -99q80 0 145.5 27.5t151.5 78.5v-78l14 -14q98 2 172 4q78 2 215 2l13 16q-6 80 -9.5 134.5t-5.5 97.5q-2 63 -2 229l2 131v60q2 35 2 49q0 115 -19 183.5t-77 121.5q-51 47 -137 72.5t-223 25.5t-232.5 -18.5t-212.5 -52.5l-12 -17 l-12 -258l14 -8q119 47 195.5 68.5t173.5 21.5q76 0 102.5 -21.5t26.5 -60.5q0 -6 -2 -12v-12h-2q-137 -18 -233.5 -38t-186.5 -63t-146.5 -121.5t-56.5 -197.5zM256 1622l20 -33q29 -45 51.5 -82t43 -70.5t100.5 -172.5l16 -9h265l10 15q-31 74 -44 107.5t-26.5 71.5 t-26 79t-28.5 100l-12 10q-82 -4 -126 -5t-91 -1l-58 2h-86zM436 383q0 43 22.5 70.5t57.5 42t71 20.5t87 10h4v-211q-31 -18 -59.5 -29.5t-65.5 -11.5q-51 0 -84 29t-33 80z" />
<glyph unicode="&#xe1;" d="M45 330q0 -152 98.5 -251t243.5 -99q80 0 145.5 27.5t151.5 78.5v-78l14 -14q98 2 172 4q78 2 215 2l13 16q-6 80 -9.5 134.5t-5.5 97.5q-2 63 -2 229l2 131v60q2 35 2 49q0 115 -19 183.5t-77 121.5q-51 47 -137 72.5t-223 25.5t-232.5 -18.5t-212.5 -52.5l-12 -17 l-12 -258l14 -8q119 47 195.5 68.5t173.5 21.5q76 0 102.5 -21.5t26.5 -60.5q0 -6 -2 -12v-12h-2q-137 -18 -233.5 -38t-186.5 -63t-146.5 -121.5t-56.5 -197.5zM436 383q0 43 22.5 70.5t57.5 42t71 20.5t87 10h4v-211q-31 -18 -59.5 -29.5t-65.5 -11.5q-51 0 -84 29t-33 80 zM438 1262l8 -15l265 4l12 9l229 362l-8 14l-373 -8l-10 -10q-18 -72 -36.5 -132.5t-31 -96t-25.5 -65.5t-30 -62z" />
<glyph unicode="&#xe2;" d="M45 330q0 -152 98.5 -251t243.5 -99q80 0 145.5 27.5t151.5 78.5v-78l14 -14q98 2 172 4q78 2 215 2l13 16q-6 80 -9.5 134.5t-5.5 97.5q-2 63 -2 229l2 131v60q2 35 2 49q0 115 -19 183.5t-77 121.5q-51 47 -137 72.5t-223 25.5t-232.5 -18.5t-212.5 -52.5l-12 -17 l-12 -258l14 -8q119 47 195.5 68.5t173.5 21.5q76 0 102.5 -21.5t26.5 -60.5q0 -6 -2 -12v-12h-2q-137 -18 -233.5 -38t-186.5 -63t-146.5 -121.5t-56.5 -197.5zM215 1262l6 -9h285l10 9l80 213l74 -220l12 -10l332 12l6 9q-31 59 -48.5 95t-31.5 66.5t-33.5 74.5t-52.5 122 l-10 10h-438l-13 -10q-4 -12 -10 -22q-37 -86 -70.5 -155t-97.5 -185zM436 383q0 43 22.5 70.5t57.5 42t71 20.5t87 10h4v-211q-31 -18 -59.5 -29.5t-65.5 -11.5q-51 0 -84 29t-33 80z" />
<glyph unicode="&#xe3;" d="M45 330q0 -152 98.5 -251t243.5 -99q80 0 145.5 27.5t151.5 78.5v-78l14 -14q98 2 172 4q78 2 215 2l13 16q-6 80 -9.5 134.5t-5.5 97.5q-2 63 -2 229l2 131v60q2 35 2 49q0 115 -19 183.5t-77 121.5q-51 47 -137 72.5t-223 25.5t-232.5 -18.5t-212.5 -52.5l-12 -17 l-12 -258l14 -8q119 47 195.5 68.5t173.5 21.5q76 0 102.5 -21.5t26.5 -60.5q0 -6 -2 -12v-12h-2q-137 -18 -233.5 -38t-186.5 -63t-146.5 -121.5t-56.5 -197.5zM227 1278l9 -6q74 33 111.5 46t74.5 13q53 0 137 -31l66 -24l12 -4q68 -20 111 -21q63 0 106 21.5t92 60.5l4 2 l8 17l-6 270l-8 8q-25 -18 -60.5 -43.5t-41.5 -30.5q-31 -16 -50.5 -20t-39.5 -4q-29 0 -65 9t-79 24l-90 30q-2 0 -4 2q-53 12 -86 13q-70 0 -114 -19.5t-81 -50.5l-6 -16v-246zM436 383q0 43 22.5 70.5t57.5 42t71 20.5t87 10h4v-211q-31 -18 -59.5 -29.5t-65.5 -11.5 q-51 0 -84 29t-33 80z" />
<glyph unicode="&#xe4;" d="M45 330q0 -152 98.5 -251t243.5 -99q80 0 145.5 27.5t151.5 78.5v-78l14 -14q98 2 172 4q78 2 215 2l13 16q-6 80 -9.5 134.5t-5.5 97.5q-2 63 -2 229l2 131v60q2 35 2 49q0 115 -19 183.5t-77 121.5q-51 47 -137 72.5t-223 25.5t-232.5 -18.5t-212.5 -52.5l-12 -17 l-12 -258l14 -8q119 47 195.5 68.5t173.5 21.5q76 0 102.5 -21.5t26.5 -60.5q0 -6 -2 -12v-12h-2q-137 -18 -233.5 -38t-186.5 -63t-146.5 -121.5t-56.5 -197.5zM178 1528l8 -324l11 -10l319 23l12 10v321l-8 8q-29 -2 -85 -6t-89 -6t-160 -8zM436 383q0 43 22.5 70.5 t57.5 42t71 20.5t87 10h4v-211q-31 -18 -59.5 -29.5t-65.5 -11.5q-51 0 -84 29t-33 80zM659 1528l9 -326l12 -8l315 25l9 8v332l-9 6l-329 -27z" />
<glyph unicode="&#xe5;" d="M45 330q0 -152 98.5 -251t243.5 -99q80 0 145.5 27.5t151.5 78.5v-78l14 -14q98 2 172 4q78 2 215 2l13 16q-6 80 -9.5 134.5t-5.5 97.5q-2 63 -2 229l2 131v60q2 35 2 49q0 115 -19 183.5t-77 121.5q-51 47 -137 72.5t-223 25.5t-232.5 -18.5t-212.5 -52.5l-12 -17 l-12 -258l14 -8q119 47 195.5 68.5t173.5 21.5q76 0 102.5 -21.5t26.5 -60.5q0 -6 -2 -12v-12h-2q-137 -18 -233.5 -38t-186.5 -63t-146.5 -121.5t-56.5 -197.5zM317 1460q0 -106 72 -173.5t201 -67.5t200.5 68t71.5 183q-2 109 -75.5 177.5t-196.5 68.5q-125 0 -199 -71.5 t-74 -184.5zM436 383q0 43 22.5 70.5t57.5 42t71 20.5t87 10h4v-211q-31 -18 -59.5 -29.5t-65.5 -11.5q-51 0 -84 29t-33 80zM514 1466q0 49 17.5 86t58.5 37q37 0 55.5 -32.5t20.5 -79.5q0 -61 -20.5 -96t-55.5 -35t-55.5 34.5t-20.5 85.5z" />
<glyph unicode="&#xe6;" horiz-adv-x="1748" d="M33 338q0 -57 18.5 -118.5t64.5 -117t129 -90.5t206 -35q117 0 193.5 34t174.5 106l6 -4q27 -27 47.5 -42.5t55.5 -31.5q49 -25 127 -43.5t207 -18.5q121 0 213 19.5t167 52.5l13 19l10 258l-14 8q-68 -39 -149 -57.5t-169 -18.5q-63 0 -114.5 11.5t-94.5 39.5 q-47 31 -61 62.5t-25 89.5h652l14 14v2q-4 88 -10 154.5t-22.5 135.5t-49.5 133.5t-86 113.5q-51 47 -138 77.5t-194 30.5q-125 0 -190.5 -24.5t-141.5 -77.5l-4 -2q-45 47 -108.5 75.5t-198.5 28.5q-80 0 -186.5 -15t-233.5 -60l-14 -19l-14 -233l18 -13l8 4 q68 33 114 49.5t120 26.5q43 6 86 6q74 0 115.5 -20.5t58.5 -54.5q8 -18 11 -41t3 -70q-137 0 -221 -5t-143 -22q-78 -20 -128.5 -61t-77 -88t-35.5 -91t-9 -77zM410 362q0 35 19.5 55.5t46 30t52 11.5t47.5 2q45 0 68 -2q8 -49 14.5 -74t24.5 -72q-39 -27 -70.5 -42 t-74.5 -15q-61 0 -94 31.5t-33 74.5zM1028 682q6 61 22.5 103t63.5 67q25 14 66 14q45 0 72.5 -18.5t41 -47t18.5 -57t7 -61.5h-291z" />
<glyph unicode="&#xe7;" horiz-adv-x="980" d="M51 541q0 -113 35 -214.5t106.5 -180t183 -125t261.5 -46.5q98 0 166.5 14.5t132.5 35.5l10 12v14q6 119 8 146.5t4 117.5l-14 9q-41 -29 -84 -44.5t-117 -15.5q-131 0 -197.5 84t-66.5 207q0 131 67.5 208t174.5 77q68 0 107.5 -21.5t70.5 -52.5l2 -2l23 6 q8 100 13 148.5t19 132.5l-10 12q-63 27 -128.5 42t-168.5 15q-291 0 -444.5 -161.5t-153.5 -417.5zM315 -426l13 -14h92q31 2 57 2q27 0 58 -2h92l14 12q61 193 84 258.5t25 73.5l-13 12q-145 0 -243 2l-17 -12q-33 -72 -49 -105.5t-31.5 -64.5t-33 -67t-48.5 -95z" />
<glyph unicode="&#xe8;" horiz-adv-x="1150" d="M49 547q0 -150 53.5 -272.5t165.5 -200.5q80 -55 184.5 -77t206.5 -22t187.5 15.5t128.5 29.5q33 12 69 29l13 19l10 262l-14 10q-66 -43 -146 -62.5t-168 -19.5q-63 0 -111 13.5t-77 29.5q-47 29 -65.5 61.5t-28.5 88.5l635 8l14 16q0 80 -4 145.5t-21.5 139.5 t-56.5 143.5t-104 120.5q-61 49 -146.5 72.5t-171.5 23.5q-102 0 -199.5 -31.5t-177.5 -100t-128 -179.5t-48 -262zM231 1622l21 -33q29 -45 51.5 -82t43 -70.5t99.5 -172.5l17 -9h264l10 15q-31 74 -44 107.5t-26.5 71.5t-25.5 79t-29 100l-12 10q-82 -4 -126 -5t-91 -1 l-57 2h-86zM446 676q2 61 19.5 107t73.5 71q23 10 51 10q43 0 69.5 -19.5t40 -49t16.5 -56t5 -59.5z" />
<glyph unicode="&#xe9;" horiz-adv-x="1150" d="M49 547q0 -150 53.5 -272.5t165.5 -200.5q80 -55 184.5 -77t206.5 -22t187.5 15.5t128.5 29.5q33 12 69 29l13 19l10 262l-14 10q-66 -43 -146 -62.5t-168 -19.5q-63 0 -111 13.5t-77 29.5q-47 29 -65.5 61.5t-28.5 88.5l635 8l14 16q0 80 -4 145.5t-21.5 139.5 t-56.5 143.5t-104 120.5q-61 49 -146.5 72.5t-171.5 23.5q-102 0 -199.5 -31.5t-177.5 -100t-128 -179.5t-48 -262zM414 1262l8 -15l264 4l12 9l230 362l-8 14l-373 -8l-10 -10q-18 -72 -37 -132.5t-31 -96t-25.5 -65.5t-29.5 -62zM446 676q2 61 19.5 107t73.5 71 q23 10 51 10q43 0 69.5 -19.5t40 -49t16.5 -56t5 -59.5z" />
<glyph unicode="&#xea;" horiz-adv-x="1150" d="M49 547q0 -150 53.5 -272.5t165.5 -200.5q80 -55 184.5 -77t206.5 -22t187.5 15.5t128.5 29.5q33 12 69 29l13 19l10 262l-14 10q-66 -43 -146 -62.5t-168 -19.5q-63 0 -111 13.5t-77 29.5q-47 29 -65.5 61.5t-28.5 88.5l635 8l14 16q0 80 -4 145.5t-21.5 139.5 t-56.5 143.5t-104 120.5q-61 49 -146.5 72.5t-171.5 23.5q-102 0 -199.5 -31.5t-177.5 -100t-128 -179.5t-48 -262zM190 1262l7 -9h284l11 9l79 213l74 -220l12 -10l332 12l6 9q-31 59 -48 95t-31.5 66.5t-34 74.5t-52.5 122l-10 10h-438l-12 -10q-4 -12 -11 -22 q-37 -86 -70.5 -155t-97.5 -185zM446 676q2 61 19.5 107t73.5 71q23 10 51 10q43 0 69.5 -19.5t40 -49t16.5 -56t5 -59.5z" />
<glyph unicode="&#xeb;" horiz-adv-x="1150" d="M49 547q0 -150 53.5 -272.5t165.5 -200.5q80 -55 184.5 -77t206.5 -22t187.5 15.5t128.5 29.5q33 12 69 29l13 19l10 262l-14 10q-66 -43 -146 -62.5t-168 -19.5q-63 0 -111 13.5t-77 29.5q-47 29 -65.5 61.5t-28.5 88.5l635 8l14 16q0 80 -4 145.5t-21.5 139.5 t-56.5 143.5t-104 120.5q-61 49 -146.5 72.5t-171.5 23.5q-102 0 -199.5 -31.5t-177.5 -100t-128 -179.5t-48 -262zM156 1528l8 -324l10 -10l320 23l12 10v321l-8 8q-29 -2 -85.5 -6t-89 -6t-159.5 -8zM446 676q2 61 19.5 107t73.5 71q23 10 51 10q43 0 69.5 -19.5t40 -49 t16.5 -56t5 -59.5zM637 1528l8 -326l12 -8l316 25l8 8v332l-8 6l-330 -27z" />
<glyph unicode="&#xec;" horiz-adv-x="641" d="M-23 1622l21 -33q29 -45 51.5 -82t43 -70.5t100.5 -172.5l16 -9h264l10 15q-31 74 -44 107.5t-26.5 71.5t-25.5 79t-29 100l-12 10q-82 -4 -126 -5t-91 -1l-57 2h-86zM86 1049q14 -131 19.5 -227.5t5.5 -258.5q0 -186 -13 -555l15 -14q92 4 147 6t123 2l63 -2h95l14 14v6 q-10 174 -15 305.5t-5 336.5q0 152 4 454l-11 17q-74 -14 -122 -22.5t-95 -17t-71.5 -12.5t-141.5 -20z" />
<glyph unicode="&#xed;" horiz-adv-x="641" d="M86 1049q14 -131 19.5 -227.5t5.5 -258.5q0 -186 -13 -555l15 -14q92 4 147 6t123 2l63 -2h95l14 14v6q-10 174 -15 305.5t-5 336.5q0 152 4 454l-11 17q-74 -14 -122 -22.5t-95 -17t-71.5 -12.5t-141.5 -20zM160 1262l8 -15l264 4l12 9l230 362l-8 14l-373 -8l-10 -10 q-18 -72 -37 -132.5t-31 -96t-25.5 -65.5t-29.5 -62z" />
<glyph unicode="&#xee;" horiz-adv-x="641" d="M-63 1262l6 -9h284l11 9l79 213l74 -220l12 -10l332 12l6 9q-31 59 -48 95t-31.5 66.5t-34 74.5t-52.5 122l-10 10h-438l-12 -10q-4 -12 -11 -22q-39 -86 -72.5 -155t-94.5 -185zM86 1049q14 -131 19.5 -227.5t5.5 -258.5q0 -186 -13 -555l15 -14q92 4 147 6t123 2l63 -2 h95l14 14v6q-10 174 -15 305.5t-5 336.5q0 152 4 454l-11 17q-74 -14 -122 -22.5t-95 -17t-71.5 -12.5t-141.5 -20z" />
<glyph unicode="&#xef;" horiz-adv-x="641" d="M-98 1528l8 -324l10 -10l320 23l12 10v321l-8 8q-29 -2 -85.5 -6t-89 -6t-159.5 -8zM86 1049q14 -131 19.5 -227.5t5.5 -258.5q0 -186 -13 -555l15 -14q92 4 147 6t123 2l63 -2h95l14 14v6q-10 174 -15 305.5t-5 336.5q0 152 4 454l-11 17q-74 -14 -122 -22.5t-95 -17 t-71.5 -12.5t-141.5 -20zM383 1528l8 -326l12 -8l316 25l8 8v332l-8 6l-330 -27z" />
<glyph unicode="&#xf0;" horiz-adv-x="1236" d="M57 543q0 -45 4.5 -91t18.5 -102.5t43 -114t76 -106.5q76 -78 179 -115t222 -37q158 0 267.5 51.5t174.5 125.5q47 53 76 117.5t42.5 130t16.5 113.5t3 93q0 176 -49.5 347t-182.5 372q12 4 125 31q39 10 43 10l10 25l-12 22q-31 55 -42 76.5t-32 67.5l-24 6h-2 q-33 -12 -78 -27.5t-119 -36.5q-27 31 -53.5 58.5t-71.5 70.5l-30 10q-12 -2 -72 -14q-61 -14 -74 -16q-88 -14 -143 -23l-13 -20q29 -23 65 -62t81 -96q-41 -12 -66.5 -19.5t-62.5 -17.5t-94.5 -24.5t-69.5 -16.5l-12 -22q27 -47 42 -78t38 -84l28 -8l27 8q33 12 57.5 19.5 t102.5 29.5l141 41q47 -76 84 -160l2 -4q-27 14 -56.5 23.5t-82.5 9.5q-90 0 -182.5 -31t-170 -97.5t-126 -176t-48.5 -258.5zM481 545q0 170 30 249.5t112 79.5q76 0 105.5 -72.5t33.5 -213.5q0 -186 -32 -270.5t-112 -84.5q-47 0 -75.5 29t-42 74t-16.5 94t-3 115z" />
<glyph unicode="&#xf1;" horiz-adv-x="1280" d="M78 1053q10 -102 14 -150.5t8 -119t6.5 -167t2.5 -221.5q0 -129 -5 -387l13 -14q96 4 153.5 6t118.5 2l60 -2h79l11 14q0 4 -2 52q-2 66 -4.5 128t-4.5 168q0 33 -2 144q-4 135 -4 184q0 20 2 51v29q74 37 113 37q59 0 78.5 -34t25.5 -77v-2q6 -41 10.5 -154.5 t4.5 -224.5v-96v-106q-2 -88 -2 -107l10 -12q94 4 150.5 6t117.5 2l58 -2h77l17 14q-6 106 -7 126t-3.5 74t-3.5 100t-3 155v111q0 193 -9 275.5t-50 143.5q-43 70 -109.5 97.5t-144.5 27.5q-51 0 -118.5 -14t-125.5 -45q-31 -18 -88 -59l4 112l-20 19q-70 -14 -119 -24.5 t-96 -18t-80 -12.5t-121 -17zM268 1278l8 -6q74 33 112 46t75 13q53 0 137 -31l66 -24l12 -4q68 -20 110 -21q63 0 106.5 21.5t92.5 60.5l4 2l8 17l-6 270l-8 8q-25 -18 -60.5 -43.5t-41.5 -30.5q-31 -16 -50.5 -20t-39.5 -4q-29 0 -65 9t-79 24l-90 30q-2 0 -4 2 q-53 12 -86 13q-70 0 -114 -19.5t-81 -50.5l-6 -16v-246z" />
<glyph unicode="&#xf2;" horiz-adv-x="1236" d="M57 539q0 -72 9.5 -142.5t39 -144.5t90 -136.5t156.5 -97.5q57 -23 132 -33t139 -10q150 0 270.5 47.5t196.5 153.5q29 43 47 94.5t27.5 103.5t12.5 95t3 80q0 168 -39 268.5t-103 161.5q-76 76 -183 108.5t-234 32.5q-47 0 -100.5 -5t-114 -21.5t-122 -51t-108.5 -90.5 q-68 -78 -93.5 -182t-25.5 -231zM274 1622l21 -33q29 -45 51.5 -82t43 -70.5t99.5 -172.5l17 -9h264l10 15q-31 74 -44 107.5t-26.5 71.5t-25.5 79t-29 100l-12 10q-82 -4 -126 -5t-91 -1l-57 2h-86zM481 528q0 80 5.5 138.5t19.5 104.5t43 71.5t74 25.5q72 0 102.5 -77 t30.5 -224q0 -27 -1 -60.5t-4 -68.5t-10.5 -72.5t-19.5 -60.5q-37 -76 -103 -76q-10 0 -24 3.5t-32.5 13.5t-36 34.5t-27.5 65.5q-16 66 -17 182z" />
<glyph unicode="&#xf3;" horiz-adv-x="1236" d="M57 539q0 -72 9.5 -142.5t39 -144.5t90 -136.5t156.5 -97.5q57 -23 132 -33t139 -10q150 0 270.5 47.5t196.5 153.5q29 43 47 94.5t27.5 103.5t12.5 95t3 80q0 168 -39 268.5t-103 161.5q-76 76 -183 108.5t-234 32.5q-47 0 -100.5 -5t-114 -21.5t-122 -51t-108.5 -90.5 q-68 -78 -93.5 -182t-25.5 -231zM457 1262l8 -15l264 4l12 9l230 362l-8 14l-373 -8l-10 -10q-18 -72 -37 -132.5t-31 -96t-25.5 -65.5t-29.5 -62zM481 528q0 80 5.5 138.5t19.5 104.5t43 71.5t74 25.5q72 0 102.5 -77t30.5 -224q0 -27 -1 -60.5t-4 -68.5t-10.5 -72.5 t-19.5 -60.5q-37 -76 -103 -76q-10 0 -24 3.5t-32.5 13.5t-36 34.5t-27.5 65.5q-16 66 -17 182z" />
<glyph unicode="&#xf4;" horiz-adv-x="1236" d="M57 539q0 -72 9.5 -142.5t39 -144.5t90 -136.5t156.5 -97.5q57 -23 132 -33t139 -10q150 0 270.5 47.5t196.5 153.5q29 43 47 94.5t27.5 103.5t12.5 95t3 80q0 168 -39 268.5t-103 161.5q-76 76 -183 108.5t-234 32.5q-47 0 -100.5 -5t-114 -21.5t-122 -51t-108.5 -90.5 q-68 -78 -93.5 -182t-25.5 -231zM233 1262l7 -9h284l11 9l79 213l74 -220l12 -10l332 12l6 9q-31 59 -48 95t-31.5 66.5t-34 74.5t-52.5 122l-10 10h-438l-12 -10q-4 -12 -11 -22q-37 -86 -70.5 -155t-97.5 -185zM481 528q0 80 5.5 138.5t19.5 104.5t43 71.5t74 25.5 q72 0 102.5 -77t30.5 -224q0 -27 -1 -60.5t-4 -68.5t-10.5 -72.5t-19.5 -60.5q-37 -76 -103 -76q-10 0 -24 3.5t-32.5 13.5t-36 34.5t-27.5 65.5q-16 66 -17 182z" />
<glyph unicode="&#xf5;" horiz-adv-x="1236" d="M57 539q0 -72 9.5 -142.5t39 -144.5t90 -136.5t156.5 -97.5q57 -23 132 -33t139 -10q150 0 270.5 47.5t196.5 153.5q29 43 47 94.5t27.5 103.5t12.5 95t3 80q0 168 -39 268.5t-103 161.5q-76 76 -183 108.5t-234 32.5q-47 0 -100.5 -5t-114 -21.5t-122 -51t-108.5 -90.5 q-68 -78 -93.5 -182t-25.5 -231zM246 1278l8 -6q74 33 111.5 46t74.5 13q53 0 138 -31l65 -24l12 -4q68 -20 111 -21q63 0 106 21.5t93 60.5l4 2l8 17l-6 270l-8 8q-25 -18 -61 -43.5t-42 -30.5q-31 -16 -50 -20t-40 -4q-29 0 -64.5 9t-78.5 24l-90 30q-2 0 -5 2 q-53 12 -86 13q-70 0 -113.5 -19.5t-80.5 -50.5l-6 -16v-246zM481 528q0 80 5.5 138.5t19.5 104.5t43 71.5t74 25.5q72 0 102.5 -77t30.5 -224q0 -27 -1 -60.5t-4 -68.5t-10.5 -72.5t-19.5 -60.5q-37 -76 -103 -76q-10 0 -24 3.5t-32.5 13.5t-36 34.5t-27.5 65.5 q-16 66 -17 182z" />
<glyph unicode="&#xf6;" horiz-adv-x="1236" d="M57 539q0 -72 9.5 -142.5t39 -144.5t90 -136.5t156.5 -97.5q57 -23 132 -33t139 -10q150 0 270.5 47.5t196.5 153.5q29 43 47 94.5t27.5 103.5t12.5 95t3 80q0 168 -39 268.5t-103 161.5q-76 76 -183 108.5t-234 32.5q-47 0 -100.5 -5t-114 -21.5t-122 -51t-108.5 -90.5 q-68 -78 -93.5 -182t-25.5 -231zM207 1528l8 -324l10 -10l320 23l12 10v321l-8 8q-29 -2 -85 -6t-89 -6t-160 -8zM481 528q0 80 5.5 138.5t19.5 104.5t43 71.5t74 25.5q72 0 102.5 -77t30.5 -224q0 -27 -1 -60.5t-4 -68.5t-10.5 -72.5t-19.5 -60.5q-37 -76 -103 -76 q-10 0 -24 3.5t-32.5 13.5t-36 34.5t-27.5 65.5q-16 66 -17 182zM688 1528l8 -326l13 -8l315 25l8 8v332l-8 6l-330 -27z" />
<glyph unicode="&#xf7;" horiz-adv-x="1366" d="M0 465h1366v260h-1366v-260zM516 225q0 -68 47 -115t123 -47q70 0 116 49t46 115q0 70 -47 118t-121 48q-68 0 -116 -49t-48 -119zM516 958q0 -68 47 -114.5t123 -46.5q70 0 116 49t46 115q0 70 -47 117.5t-121 47.5q-68 0 -116 -49t-48 -119z" />
<glyph unicode="&#xf8;" horiz-adv-x="1236" d="M-4 70l80 -93l16 3l125 116q33 -29 58.5 -47t68.5 -35.5t109.5 -28t158.5 -10.5q111 0 206 18.5t177 75t133.5 169t51.5 288.5q0 137 -23.5 218t-60.5 149l141 129l-2 16q-27 27 -39 40.5t-35 39.5l-20 2l-131 -123q-80 55 -165 89t-224 34q-109 0 -219.5 -29.5 t-192.5 -105.5q-53 -49 -86 -114.5t-48.5 -131t-18.5 -113.5t-3 -94q0 -135 22.5 -207.5t55.5 -123.5l-135 -117v-14zM469 506q0 82 3 142.5t17.5 114.5t45 87t83.5 33q57 0 85 -34t45 -89zM489 338l277 254q0 -80 -5 -144.5t-19.5 -116.5t-44 -83t-76.5 -31q-55 0 -82 31 t-50 90z" />
<glyph unicode="&#xf9;" horiz-adv-x="1280" d="M102 1079q6 -115 8.5 -174t2.5 -139q0 -18 -2 -68v-100v-88q0 -197 13 -281t58 -141q37 -47 102.5 -81t145.5 -34q59 0 129 20.5t127 55.5q25 14 72 49l6 4l-2 -94l14 -14q88 2 126 3t73 3h186l15 14q-6 145 -7 185q-2 90 -2 237q0 219 4 654l-16 20q-74 -4 -114 -7 t-80.5 -5t-80.5 -3t-122 -3l-13 -15l13 -749q-78 -41 -121 -41q-41 0 -64.5 19.5t-35 53t-13.5 73.5t-2 106q0 31 2 176q2 137 2 157v111q-2 90 -2 109l-16 18l-391 -18zM297 1622l20 -33q29 -45 51.5 -82t43 -70.5t100.5 -172.5l16 -9h265l10 15q-31 74 -44.5 107.5 t-26.5 71.5t-25.5 79t-28.5 100l-12 10q-82 -4 -126 -5t-91 -1l-58 2h-86z" />
<glyph unicode="&#xfa;" horiz-adv-x="1280" d="M102 1079q6 -115 8.5 -174t2.5 -139q0 -18 -2 -68v-100v-88q0 -197 13 -281t58 -141q37 -47 102.5 -81t145.5 -34q59 0 129 20.5t127 55.5q25 14 72 49l6 4l-2 -94l14 -14q88 2 126 3t73 3h186l15 14q-6 145 -7 185q-2 90 -2 237q0 219 4 654l-16 20q-74 -4 -114 -7 t-80.5 -5t-80.5 -3t-122 -3l-13 -15l13 -749q-78 -41 -121 -41q-41 0 -64.5 19.5t-35 53t-13.5 73.5t-2 106q0 31 2 176q2 137 2 157v111q-2 90 -2 109l-16 18l-391 -18zM479 1262l8 -15l265 4l12 9l229 362l-8 14l-373 -8l-10 -10q-18 -72 -36.5 -132.5t-31 -96 t-25.5 -65.5t-30 -62z" />
<glyph unicode="&#xfb;" horiz-adv-x="1280" d="M102 1079q6 -115 8.5 -174t2.5 -139q0 -18 -2 -68v-100v-88q0 -197 13 -281t58 -141q37 -47 102.5 -81t145.5 -34q59 0 129 20.5t127 55.5q25 14 72 49l6 4l-2 -94l14 -14q88 2 126 3t73 3h186l15 14q-6 145 -7 185q-2 90 -2 237q0 219 4 654l-16 20q-74 -4 -114 -7 t-80.5 -5t-80.5 -3t-122 -3l-13 -15l13 -749q-78 -41 -121 -41q-41 0 -64.5 19.5t-35 53t-13.5 73.5t-2 106q0 31 2 176q2 137 2 157v111q-2 90 -2 109l-16 18l-391 -18zM256 1262l6 -9h285l10 9l80 213l74 -220l12 -10l332 12l6 9q-31 59 -48.5 95t-31.5 66.5t-33.5 74.5 t-52.5 122l-10 10h-439l-12 -10q-4 -12 -10 -22q-37 -86 -71 -155t-97 -185z" />
<glyph unicode="&#xfc;" horiz-adv-x="1280" d="M102 1079q6 -115 8.5 -174t2.5 -139q0 -18 -2 -68v-100v-88q0 -197 13 -281t58 -141q37 -47 102.5 -81t145.5 -34q59 0 129 20.5t127 55.5q25 14 72 49l6 4l-2 -94l14 -14q88 2 126 3t73 3h186l15 14q-6 145 -7 185q-2 90 -2 237q0 219 4 654l-16 20q-74 -4 -114 -7 t-80.5 -5t-80.5 -3t-122 -3l-13 -15l13 -749q-78 -41 -121 -41q-41 0 -64.5 19.5t-35 53t-13.5 73.5t-2 106q0 31 2 176q2 137 2 157v111q-2 90 -2 109l-16 18l-391 -18zM229 1528l9 -324l10 -10l319 23l13 10v321l-9 8q-29 -2 -85 -6t-88.5 -6t-159.5 -8zM711 1528l8 -326 l12 -8l316 25l8 8v332l-8 6l-330 -27z" />
<glyph unicode="&#xfd;" horiz-adv-x="1110" d="M-20 1077q49 -115 61 -147.5t25.5 -71.5t42.5 -119q18 -51 51 -141q33 -92 51 -143q23 -63 37 -105.5t67.5 -204t63.5 -190.5l2 -6q-25 -68 -48.5 -128.5t-37.5 -96t-30.5 -76.5t-53.5 -127l-10 -23l10 -16q96 2 132 3t71 3h166l16 12q20 90 36.5 151.5t32 118t40 136.5 t55.5 176l104 311l246 697l-12 14l-328 -6l-12 -13q-8 -31 -10 -43q-8 -31 -30 -114.5t-35 -133t-35.5 -127t-51.5 -178.5q-35 127 -51.5 188.5t-27.5 107.5t-23.5 94.5t-44.5 189.5q-2 14 -7 29l-16 12q-172 -12 -219 -14t-79 -2t-140 -2zM393 1262l8 -15l265 4l12 9 l229 362l-8 14l-373 -8l-10 -10q-18 -72 -36.5 -132.5t-31 -96t-25.5 -65.5t-30 -62z" />
<glyph unicode="&#xfe;" horiz-adv-x="1280" d="M88 1548q6 -66 9 -109.5t5 -109t3 -139.5t1 -207v-817v-258l3 -117q0 -129 -5 -297l15 -12h2q86 6 138 8t112 2q57 0 161 -4h7l10 12l-4 121q-8 264 -10 375q57 0 114.5 5t125 18.5t138 44t129.5 79.5q31 27 63 64t61.5 93t49 132t19.5 168q0 100 -27.5 193.5t-83 167 t-139.5 116.5t-190 43q-84 0 -139.5 -21.5t-141.5 -72.5l2 125q0 43 2 185.5t4 185.5q0 8 2 49v47l-10 14q-84 -16 -124 -24.5t-80 -15.5t-85 -13t-123 -18zM530 803l2 2q66 27 107 26q20 0 46 -6t57.5 -30.5t54 -77.5t22.5 -139q0 -170 -74.5 -242t-209.5 -74 q-2 154 -3.5 247t-1.5 294z" />
<glyph unicode="&#xff;" horiz-adv-x="1110" d="M-20 1077q49 -115 61 -147.5t25.5 -71.5t42.5 -119q18 -51 51 -141q33 -92 51 -143q23 -63 37 -105.5t67.5 -204t63.5 -190.5l2 -6q-25 -68 -48.5 -128.5t-37.5 -96t-30.5 -76.5t-53.5 -127l-10 -23l10 -16q96 2 132 3t71 3h166l16 12q20 90 36.5 151.5t32 118t40 136.5 t55.5 176l104 311l246 697l-12 14l-328 -6l-12 -13q-8 -31 -10 -43q-8 -31 -30 -114.5t-35 -133t-35.5 -127t-51.5 -178.5q-35 127 -51.5 188.5t-27.5 107.5t-23.5 94.5t-44.5 189.5q-2 14 -7 29l-16 12q-172 -12 -219 -14t-79 -2t-140 -2zM135 1528l8 -324l11 -10l319 23 l12 10v321l-8 8q-29 -2 -85 -6t-89 -6t-160 -8zM616 1528l9 -326l12 -8l315 25l9 8v332l-9 6l-329 -27z" />
<glyph unicode="&#x152;" horiz-adv-x="1921" d="M66 698q0 -98 15 -188t56 -174q57 -121 141 -192.5t182.5 -103.5t195 -39t241.5 -7h107l92 2q164 4 251 5t166 1h154q86 -2 156 -2l12 14l18 295l-12 13q-201 -8 -303 -9q-53 0 -104.5 1t-98.5 3v281h410l16 12l19 267l-11 10h-436v260h469l13 10l14 285l-12 12h-844h-99 q-143 0 -247.5 -14.5t-172 -38t-108.5 -51t-80 -64.5q-102 -94 -151 -246.5t-49 -341.5zM526 719q0 135 33 226t84 136t113.5 56.5t152.5 11.5v-832q-43 -6 -88 -6q-145 0 -220 92.5t-75 315.5z" />
<glyph unicode="&#x153;" horiz-adv-x="1878" d="M57 545q0 -92 19.5 -190.5t70.5 -174.5q74 -109 197 -157t268 -48q143 0 225.5 33t151.5 84l4 2q66 -49 104 -68.5t101 -31.5q102 -18 193 -19q115 0 207 19.5t171 54.5l13 19l10 262l-14 10q-47 -27 -73 -39t-69 -22q-96 -20 -180 -21q-113 0 -186 43q-49 27 -66.5 57.5 t-29.5 92.5l643 8l14 16q0 90 -6 162t-26.5 149.5t-65.5 146t-119 116.5q-57 37 -129 54t-152 17q-119 0 -207 -35.5t-149 -85.5q-63 53 -148.5 87t-210.5 34q-98 0 -205.5 -26.5t-183.5 -89.5q-94 -78 -133 -199t-39 -260zM481 551q0 174 34 246.5t106 72.5 q45 0 66.5 -19.5t35.5 -43.5v-2q23 -47 30 -111.5t7 -124.5q0 -193 -33 -265.5t-106 -72.5q-80 0 -110 76t-30 244zM1163 676v2q2 59 14.5 100t55.5 68q35 20 80 20q66 0 102 -53q18 -27 24.5 -56.5t8.5 -76.5z" />
<glyph unicode="&#x178;" horiz-adv-x="1366" d="M-12 1425q12 -20 98 -163.5t146.5 -246t133 -225t99.5 -169.5v-107q0 -164 -2 -276q-2 -59 -6 -137t-4 -95l10 -12q100 2 141 3t80 3h213l16 12q-4 117 -6 219.5t-2 274.5v121q39 76 101.5 191.5t109.5 202.5t114.5 207t123.5 214l-8 10l-400 -6l-10 -6 q-53 -133 -96 -229.5t-95 -206.5q-6 -12 -18 -39q-6 10 -20 39q-63 117 -92 170t-54.5 102t-42 86t-39.5 88l-14 8q-125 -8 -157 -10t-84 -4t-83.5 -2t-144.5 -2zM260 1556l8 -10l328 6l10 13l4 295l-8 12l-332 -4l-8 -15q0 -12 2 -73v-76q0 -39 -2 -121zM778 1548l10 -12 l316 10l10 15l4 299l-10 14l-322 -10l-8 -13q2 -74 2 -163q0 -92 -2 -140z" />
<glyph unicode="&#x2c6;" horiz-adv-x="598" d="M-102 1262l6 -9h284l11 9l80 213l73 -220l13 -10l331 12l6 9q-31 59 -48 95t-31.5 66.5t-34 74.5t-51.5 122l-11 10h-438l-12 -10q-4 -12 -10 -22q-37 -86 -71 -155t-97 -185z" />
<glyph unicode="&#x2dc;" horiz-adv-x="598" d="M-66 1278l9 -6q74 33 111.5 46t74.5 13q53 0 137 -31l66 -24l12 -4q68 -20 111 -21q63 0 106 21.5t92 60.5l4 2l9 17l-7 270l-8 8q-25 -18 -60.5 -43.5t-41.5 -30.5q-31 -16 -50.5 -20t-39.5 -4q-29 0 -65 9t-79 24l-90 30q-2 0 -4 2q-53 12 -86 13q-70 0 -114 -19.5 t-80 -50.5l-7 -16v-246z" />
<glyph unicode="&#x2000;" horiz-adv-x="1003" />
<glyph unicode="&#x2001;" horiz-adv-x="2007" />
<glyph unicode="&#x2002;" horiz-adv-x="1003" />
<glyph unicode="&#x2003;" horiz-adv-x="2007" />
<glyph unicode="&#x2004;" horiz-adv-x="669" />
<glyph unicode="&#x2005;" horiz-adv-x="501" />
<glyph unicode="&#x2006;" horiz-adv-x="334" />
<glyph unicode="&#x2007;" horiz-adv-x="334" />
<glyph unicode="&#x2008;" horiz-adv-x="250" />
<glyph unicode="&#x2009;" horiz-adv-x="401" />
<glyph unicode="&#x200a;" horiz-adv-x="111" />
<glyph unicode="&#x2010;" horiz-adv-x="811" d="M70 436l8 -10h637l12 14l14 287l-8 10h-639l-12 -14z" />
<glyph unicode="&#x2011;" horiz-adv-x="811" d="M70 436l8 -10h637l12 14l14 287l-8 10h-639l-12 -14z" />
<glyph unicode="&#x2012;" horiz-adv-x="811" d="M70 436l8 -10h637l12 14l14 287l-8 10h-639l-12 -14z" />
<glyph unicode="&#x2013;" d="M70 444l8 -14q106 0 264 2h262q106 0 205.5 -3t282.5 -9l12 14l20 295l-12 14q-328 -8 -491 -8q-229 0 -517 10l-14 -16z" />
<glyph unicode="&#x2014;" horiz-adv-x="1449" d="M70 444l8 -16h6q492 4 735 4q188 0 300 -4t216 -10h13l12 16q6 98 22 295l-14 14q-96 -4 -207.5 -7t-288.5 -3q-342 0 -768 10l-14 -14q-2 -39 -6 -84q-2 -47 -6 -97t-8 -104z" />
<glyph unicode="&#x2018;" horiz-adv-x="555" d="M6 1061l6 -12l402 8l8 10l129 487l-6 13q-51 -2 -156 -2q-78 0 -135 2l-12 -11q-16 -39 -35 -85t-47.5 -107t-65.5 -135t-88 -168z" />
<glyph unicode="&#x2019;" horiz-adv-x="555" d="M4 1063l4 -14q102 4 154 4q27 0 86 -2q25 -2 51 -2l14 10q27 66 48.5 118t47 106t59.5 122t79 149l-4 13l-402 -8l-8 -11q-4 -16 -23.5 -91t-30.5 -119t-31.5 -119.5t-43.5 -155.5z" />
<glyph unicode="&#x201a;" horiz-adv-x="555" d="M4 -143l4 -15q102 4 154 4q27 0 86 -2q25 -2 51 -2l14 11q27 66 48.5 118t47 106t59.5 121.5t79 149.5l-4 12l-402 -8l-8 -10q-4 -16 -23.5 -91t-30.5 -119t-31.5 -119.5t-43.5 -155.5z" />
<glyph unicode="&#x201c;" horiz-adv-x="1067" d="M6 1061l6 -12l402 8l8 10q14 66 37.5 155t64.5 236q10 39 27 96l-6 13q-51 -2 -156 -2q-82 0 -135 2l-12 -11l-6 -12q-31 -76 -47.5 -114.5t-42 -93t-61.5 -125t-79 -150.5zM518 1061l6 -12l400 8l10 10l129 487l-6 13q-51 -2 -154 -2q-82 0 -135 2l-14 -11 q-27 -70 -48.5 -120t-45 -100t-58.5 -115.5t-84 -159.5z" />
<glyph unicode="&#x201d;" horiz-adv-x="1067" d="M4 1063l4 -14q102 4 154 4q31 0 82 -2q45 -2 55 -2l14 10q27 63 48.5 116.5t47 107.5t60.5 123t78 148l-4 13l-402 -8l-8 -11q-2 -10 -29 -108q-29 -109 -52 -197t-48 -180zM516 1063l4 -14q102 4 154 4q27 0 86 -2q25 -2 51 -2l14 10q25 66 46.5 115t44 98t55.5 113.5 t88 168.5l-4 13l-402 -8l-8 -11z" />
<glyph unicode="&#x201e;" horiz-adv-x="1067" d="M4 -143l4 -15h6q94 4 144 4q47 0 141 -4l14 11l6 14q31 74 51.5 122t45 102t52.5 107.5t79 151.5l-4 12l-402 -10l-8 -10q-12 -49 -18 -75.5t-21 -76.5q-8 -31 -20 -73q-12 -45 -31 -113q-29 -104 -39 -147zM516 -143l4 -15h6q90 4 140 4q35 0 104 -2q31 -2 41 -2l14 11 q92 231 234 497l-4 12l-402 -10l-8 -10z" />
<glyph unicode="&#x2022;" horiz-adv-x="681" d="M25 723q0 -66 24.5 -123t68.5 -101t101 -68.5t123 -24.5t123 24.5t101 68.5t68.5 101t24.5 123t-24.5 123t-68.5 101t-101 68.5t-123 24.5t-123 -24.5t-101 -68.5t-68.5 -101t-24.5 -123z" />
<glyph unicode="&#x2026;" horiz-adv-x="2048" d="M178 147q0 -72 50.5 -115.5t111.5 -43.5q76 0 120 51.5t44 114.5q-2 70 -48 115.5t-116 45.5q-59 0 -110.5 -44t-51.5 -124zM860 152q0 -74 50.5 -119t115.5 -45q76 0 119 51.5t43 114.5q0 70 -48 114.5t-112 44.5q-72 0 -120 -47t-48 -114zM1544 152q0 -74 50.5 -119 t117.5 -45q63 0 110.5 48t47.5 118q0 61 -43 111t-119 50q-63 0 -113.5 -46t-50.5 -117z" />
<glyph unicode="&#x202f;" horiz-adv-x="401" />
<glyph unicode="&#x2039;" horiz-adv-x="555" d="M4 578l14 -24q13 -24 48 -81l92 -158q18 -33 37.5 -67.5t25.5 -44.5l19 -10h63q37 -2 55 -3q25 0 56 3h102l8 24l-30 62l-95 178l-27 54q-28 54 -42 83q18 43 49 100.5t63.5 115.5t55 96t32.5 57l-12 18h-78q-35 -2 -47 -2q-41 0 -80 2t-86 4l-14 -14q-16 -33 -58 -105.5 t-71 -124.5q-74 -129 -80 -141v-22z" />
<glyph unicode="&#x203a;" horiz-adv-x="555" d="M25 211l12 -18h78q35 2 47 2q41 0 80 -2.5t86 -4.5l14 15q14 27 55 99.5t97 170.5q49 86 57 100v23l-15 28q-16 27 -44 72q-18 33 -65.5 113t-68 116t-26.5 46l-17 10q-25 0 -79 2h-52h-53q-63 -2 -92 -2l-8 -25l30 -59l95 -180l28 -55l41 -82q-18 -41 -49 -98.5 t-63.5 -116t-54 -95.5t-33.5 -59z" />
<glyph unicode="&#x205f;" horiz-adv-x="501" />
<glyph unicode="&#x2122;" horiz-adv-x="1409" d="M-2 1309h211v-543h172v543h207v137h-590v-137zM643 766h168l-12 362l-13 136l29 -105l121 -393h151l117 389l27 111l-10 -138l-9 -362h168v680h-219l-145 -492l-156 492h-217v-680z" />
<glyph unicode="&#x25fc;" horiz-adv-x="1105" d="M0 0v1106h1106v-1106h-1106z" />
</font>
</defs>
</svg>
