<?xml version="1.0" standalone="no"?>
<!DOCTYPE svg PUBLIC "-//W3C//DTD SVG 1.1//EN" "http://www.w3.org/Graphics/SVG/1.1/DTD/svg11.dtd" >
<svg xmlns="http://www.w3.org/2000/svg">
<metadata></metadata>
<defs>
<font id="formatalight" horiz-adv-x="1110" >
<font-face units-per-em="2048" ascent="1532" descent="-516" />
<missing-glyph horiz-adv-x="598" />
<glyph horiz-adv-x="0" />
<glyph unicode="&#xd;" horiz-adv-x="598" />
<glyph unicode=" "  horiz-adv-x="598" />
<glyph unicode="&#x09;" horiz-adv-x="598" />
<glyph unicode="&#xa0;" horiz-adv-x="598" />
<glyph unicode="!" horiz-adv-x="512" d="M207 8q2 20 2 40v40v41t-2 41l14 16q25 0 41.5 1t32.5 2t35.5 2.5t50.5 3.5l16 -15q-2 -27 -3 -45t-1 -34.5t1 -36t3 -50.5l-14 -14q-47 0 -78 -2t-82 -4zM213 1530l10 12h38t30.5 1t34 2t47.5 3l8 -16q0 -20 -1 -41t-3 -41q-4 -57 -6 -135t-4 -164t-4.5 -173t-3.5 -162 t-2 -129t-1 -77q0 -78 1 -129t3 -86l-10 -12q-25 -2 -42 -3t-46 -5l-12 14q0 51 -2 138t-4 192.5t-6.5 221.5t-8.5 225.5t-8 204.5t-8 159z" />
<glyph unicode="&#x22;" horiz-adv-x="811" d="M123 1440q0 53 32.5 73.5t61.5 20.5q18 0 37 -6q37 -16 43 -42t6 -52l-72 -523h-38l-68 496q0 10 -1 17.5t-1 15.5zM508 1424.5v15.5q0 53 31.5 73.5t60.5 20.5q18 0 37 -6q37 -16 44 -42t7 -52l-74 -523h-39l-65 496q-2 10 -2 17.5z" />
<glyph unicode="#" horiz-adv-x="1366" d="M86 530v111h358l27 199h-342v116h356l66 494h129l-70 -494h205l64 494h122l-67 -494h344v-116h-358l-27 -199h344v-111h-358l-72 -530h-127l78 530h-207l-78 -530h-119l74 530h-342zM565 641h207l27 199h-205z" />
<glyph unicode="$" horiz-adv-x="980" d="M74 104q10 29 14 49.5t14 57.5l17 2q66 -68 174 -107l143 588l-53 35q-49 29 -95 61.5t-83 72.5t-59.5 91.5t-22.5 118.5q0 78 28.5 141.5t80 107.5t124 68.5t160.5 24.5q23 0 45.5 -1t46.5 -3q6 25 9.5 42t6.5 33.5l6 33t7 39.5l14 12q29 -2 44.5 -2t43.5 4l13 -10 q-8 -29 -14.5 -49.5t-11.5 -40l-10 -39t-11 -43.5q57 -16 100 -36t96 -61l4 -14q-10 -35 -13 -53.5t-11 -55.5l-17 -4q-66 66 -112.5 88.5t-71.5 32.5l-125 -516l63 -39q51 -29 100.5 -61.5t88.5 -74.5t63.5 -98.5t24.5 -133.5q0 -84 -32 -156t-90 -125t-139 -84t-181 -31 q-29 0 -49.5 2t-43.5 6q-2 -8 -7 -31.5t-10 -50t-10 -50t-7 -33.5l-17 -13q-31 2 -43 2t-43 -2l-10 15q8 29 14 51t12.5 42.5t12.5 42t12 50.5q-12 2 -33.5 8t-47 17.5t-54.5 24.5t-53 32zM250 1087q0 -45 16.5 -79.5t39 -61t49 -47t46.5 -35.5l66 -41l117 484q-20 4 -36 5 t-32 1q-55 0 -103 -16.5t-85 -45t-57.5 -70.5t-20.5 -94zM387 78q37 -6 66 -6q74 0 131 24.5t98 64.5t62.5 92t21.5 107q0 49 -14.5 84t-39 63t-58 51.5t-70.5 45.5l-62 39z" />
<glyph unicode="%" horiz-adv-x="1878" d="M68 932q0 66 11 148.5t47 155.5t103.5 123t180.5 50q117 0 183 -53t100 -128t42 -158t8 -144q0 -27 -3 -72t-14 -96t-32.5 -103.5t-59.5 -95.5t-94.5 -69.5t-138.5 -26.5q-96 0 -160.5 40t-103.5 106.5t-54 150.5t-15 172zM178 928q0 -70 10.5 -137.5t36 -122t70.5 -88 t115 -33.5q66 0 109.5 32.5t70.5 92.5q23 53 33 120.5t12 133.5q0 86 -10.5 158.5t-37 126t-70.5 84t-109 30.5q-78 0 -123 -40t-68.5 -100.5t-31 -130t-7.5 -126.5zM600 14q23 49 43.5 92.5t44 97.5t53 123.5t70.5 172.5l209 504q20 53 41.5 105t44.5 105t34 84t25 74 l23 14q29 0 41 1.5t35 1.5l14 -13q-35 -76 -60.5 -131t-45 -102t-39 -92t-41.5 -101l-203 -493q-55 -137 -86 -214t-48.5 -119t-25.5 -62.5t-16 -45.5l-19 -14q-29 0 -43 -1t-39 -3zM1135 451q0 66 11 147.5t47 154t103.5 123t180.5 50.5q76 0 131 -24.5t92 -64.5 t58.5 -91.5t32.5 -105.5t14 -105.5t3 -90.5q0 -41 -8 -118.5t-42 -154.5t-101.5 -133t-188.5 -56q-96 0 -160.5 39.5t-102.5 105.5t-54 149.5t-16 174.5zM1245 446q0 -70 9.5 -138t35 -121.5t70.5 -87t115 -33.5q66 0 109.5 32.5t70.5 91.5q23 53 33 120.5t12 133.5 q0 84 -10.5 157t-37 126t-69.5 84t-108 31q-78 0 -123 -40t-68.5 -99.5t-31 -129t-7.5 -127.5z" />
<glyph unicode="&#x26;" horiz-adv-x="1193" d="M68 350q0 86 31.5 149.5t79.5 110.5t105.5 83t110.5 65q-57 72 -91 123t-51 91t-22.5 69.5t-5.5 58.5q0 63 23.5 120.5t68.5 101.5t107.5 69.5t140.5 25.5q68 0 126.5 -21.5t101.5 -60.5t66.5 -92t23.5 -117q0 -78 -30 -137t-76 -106t-102.5 -84t-107.5 -68 q76 -98 154 -193.5t158 -191.5q45 59 79.5 124t63.5 134v2l16 2l2 -2q25 -35 38.5 -50t35.5 -40v-20q-16 -29 -49 -85.5t-111 -148.5q16 -20 43 -52t70 -73q23 -23 45.5 -45t44.5 -51q4 -4 11.5 -12.5t9.5 -8.5l-11 -20h-34.5t-45.5 -2q-16 0 -36.5 -1t-34.5 -3l-17 8l-2 2 q-18 27 -32.5 47.5t-27.5 37.5t-29.5 36.5t-39.5 46.5q-33 -33 -72.5 -66.5t-90 -61.5t-109.5 -45t-129 -17q-94 0 -168 29.5t-125 80.5t-78.5 117.5t-27.5 140.5zM205 346q0 -55 20.5 -103t57 -82t88 -53.5t112.5 -19.5t110.5 17.5t88.5 44t67.5 54t49.5 50.5l-340 416 q-37 -20 -81 -48t-83 -67t-64.5 -90t-25.5 -119zM348 1118q0 -37 14.5 -75.5t36 -76.5t48 -76t53.5 -75l2 2q35 20 80 48t84 65t65.5 85t26.5 109q0 78 -54.5 133.5t-148.5 55.5q-51 0 -90 -17.5t-64.5 -45t-39 -62.5t-13.5 -70z" />
<glyph unicode="'" horiz-adv-x="425" d="M123 1440q0 53 32.5 73.5t61.5 20.5q18 0 37 -6q37 -16 43 -42t6 -52l-72 -523h-38l-68 496q0 10 -1 17.5t-1 15.5z" />
<glyph unicode="(" horiz-adv-x="811" d="M160 559q0 145 33.5 285.5t97 265.5t155 231.5t205.5 186.5q10 8 21.5 15t21.5 13l29 11h74l8 -21q-168 -127 -264.5 -269t-145.5 -277.5t-62.5 -251t-13.5 -189.5q0 -180 45.5 -342t122.5 -295q82 -137 170 -221t148 -127l-8 -20h-74l-29 8q-164 109 -268 240.5 t-163.5 267t-81 262.5t-21.5 227z" />
<glyph unicode=")" horiz-adv-x="811" d="M6 -426q25 18 77 61t112 109q80 92 137 192.5t92 205t51.5 210t16.5 207.5q0 174 -42 336t-126 303q-82 137 -170 221t-148 127l8 21h74l29 -11q166 -109 269 -240.5t162.5 -267t81 -262.5t21.5 -227q0 -145 -33.5 -285.5t-97 -265.5t-155 -230.5t-205.5 -185.5 q-10 -8 -21.5 -15t-21.5 -13l-29 -10h-74z" />
<glyph unicode="*" horiz-adv-x="897" d="M43 954l2 21q45 16 79 31.5t68.5 32t73.5 38t94 51.5q-39 20 -84 42t-87 42.5t-78.5 36t-57.5 25.5l-10 18q20 33 28.5 50.5t22.5 50.5l19 6q66 -51 137.5 -99.5t152.5 -93.5q0 25 -3 65t-7 88t-8 97t-10 90l12 17h30.5h24t24.5 1t34 3l16 -13q-6 -35 -10 -67.5t-7 -70.5 t-5 -88t-2 -122q37 20 79.5 50t82.5 57.5t72 51.5t44 34l21 -2q10 -16 17 -26.5t13 -21t13.5 -20.5l19.5 -26l-4 -21q-43 -16 -78 -30.5t-68.5 -32t-73.5 -38t-93 -51.5q33 -18 79 -40.5t90 -44t81.5 -38t54.5 -22.5l8 -18q-18 -35 -26.5 -51.5t-22.5 -49.5l-21 -8 q-35 29 -65.5 51.5t-63.5 45t-71.5 46t-87.5 52.5q4 -86 11 -172t17 -170l-12 -17q-35 0 -54.5 -1l-58.5 -3l-14 15q6 35 9 66.5t6 70.5t5 88t2 121q-31 -18 -69.5 -44t-77.5 -53.5t-74 -52t-57 -43.5l-21 2q-18 33 -28 48.5t-33 45.5z" />
<glyph unicode="+" horiz-adv-x="1366" d="M88 535v122h537v533h120v-533h535v-122h-535v-535h-120v535h-537z" />
<glyph unicode="," horiz-adv-x="425" d="M51 -322q4 16 15.5 71.5t27 127.5t29.5 150.5t24 142.5l15 16h43t34.5 1t32 2t35.5 4l12 -19q-25 -59 -51 -134t-48.5 -145.5t-40 -128t-23.5 -81.5l-15 -17h-34.5t-47.5 -2z" />
<glyph unicode="-" horiz-adv-x="598" d="M37 532q6 31 8 46.5t4 50.5l14 14q78 -4 156 -5t156 -1q66 0 101.5 1t70.5 5l14 -12q-4 -41 -6 -59.5t-6 -47.5l-12 -10q-23 0 -42.5 1t-51 2t-82 1h-132.5h-51h-38.5t-39 -1t-49.5 -3z" />
<glyph unicode="." horiz-adv-x="425" d="M117 8q2 20 3 40t1 40t-1 41t-3 41l14 16q25 0 42 1t33.5 2t36 2.5t48.5 3.5l16 -15q0 -27 -1 -45t-1 -34.5t1 -36t3 -50.5l-16 -14q-47 0 -78 -2t-82 -4z" />
<glyph unicode="/" horiz-adv-x="897" d="M-14 -264q96 203 157.5 347t108.5 255l246 590q49 121 79.5 195.5t54 136t48.5 127t61 165.5l21 15q37 -2 56.5 -2t62.5 2l12 -19q-80 -162 -150.5 -329.5t-142.5 -341.5l-256 -617q-33 -78 -55.5 -132t-43 -105.5t-42 -107.5t-51.5 -138q-4 -12 -8.5 -23.5t-8.5 -21.5 l-20 -15q-23 2 -33 2h-23q-16 0 -30.5 -1t-30.5 -1z" />
<glyph unicode="0" horiz-adv-x="1193" d="M86 692q0 207 46 350.5t114 221.5q45 53 96 83.5t100.5 46t91 19.5t70.5 4q158 0 257.5 -66.5t154.5 -173t74.5 -236.5t17.5 -259q0 -49 -5 -122t-22.5 -151.5t-51.5 -156.5t-91 -140.5t-142 -101.5t-206 -39q-31 0 -74 4.5t-91 20.5t-98.5 49t-95.5 90 q-72 92 -108.5 238.5t-36.5 318.5zM227 684q0 -113 16.5 -222.5t58.5 -196.5t114.5 -140t185.5 -53q117 0 187.5 59t110.5 150.5t53.5 198t15.5 200.5q2 129 -16.5 244.5t-53.5 195.5q-6 14 -24.5 47t-53.5 67t-88 58.5t-133 24.5q-88 0 -149.5 -33t-102.5 -87t-65.5 -122.5 t-37 -139.5t-15.5 -136.5t-3 -114.5z" />
<glyph unicode="1" horiz-adv-x="1193" d="M358 1260q2 25 3 41t1 47l13 16q57 6 96 11t73 9.5t70.5 10.5t90.5 14l16 -12q-2 -59 -4 -104.5t-3 -86.5t-1 -87v-107v-57.5t1 -132.5t2 -184t3 -212t5 -216.5t7 -197.5l-12 -12h-62.5t-62.5 -4l-14 12q4 66 4 126.5v115.5v255t-2 253q-2 156 -3 245t-2.5 139t0 77.5 t1.5 62.5q-35 -4 -57.5 -8t-43 -7t-44 -8.5t-58.5 -11.5z" />
<glyph unicode="2" horiz-adv-x="1193" d="M70 14q10 10 31.5 32t49 48.5t58.5 56t58.5 57.5t50 49.5t32.5 33.5q59 57 115.5 114.5t114.5 116.5q74 76 126 137.5t85.5 116.5t50 107.5t16.5 111.5q0 141 -89 225.5t-237 84.5q-76 0 -138 -19.5t-111.5 -46.5t-86 -55.5t-59.5 -48.5l-14 10q2 18 3 30.5t2 24.5 t1 27.5v40.5l10 20q25 14 62 37t88 43.5t115.5 34.5t142.5 14q113 0 197.5 -33.5t140 -91t83 -131.5t27.5 -153q0 -92 -29.5 -167t-64.5 -130q-25 -39 -56.5 -78t-73.5 -84t-97.5 -100.5t-128.5 -129.5l-219 -213h223q68 0 125 1.5t113.5 3.5t118 3t134.5 5l13 -13 q-4 -31 -5 -46t-6 -48l-18 -14h-45t-123 2h-610q-90 -2 -123 -2h-45z" />
<glyph unicode="3" horiz-adv-x="1193" d="M90 100q4 37 6 53.5t4 53.5l19 6q51 -43 103 -69.5t101.5 -41t92.5 -19.5t76 -5q88 0 160.5 25.5t124.5 70.5t81 108.5t29 139.5q0 72 -29 128t-77 95t-112.5 59.5t-136.5 20.5q-59 0 -110 -10t-84 -21l-10 17l155 200q39 51 65.5 86t54.5 73t62.5 86t92.5 128l-256 -2 q-147 -2 -238.5 -2t-116.5 -2l-12 14q2 14 3 22.5t2 17.5t2 19.5t1 26.5l15 11h32.5t51 -1.5t50 -1.5h34.5h479h31.5t50 1.5t51.5 1.5h35l8 -17q-27 -33 -53.5 -65.5t-60 -76.5t-79 -103.5t-108.5 -143.5l-113 -162q16 2 26.5 2h22.5q74 0 146 -23.5t128 -72.5t92 -126 t36 -181q0 -98 -35 -180t-101.5 -142.5t-163.5 -94.5t-220 -34q-106 0 -209 27t-191 86z" />
<glyph unicode="4" horiz-adv-x="1193" d="M76 422q4 29 4 42t2 40l10 24q63 86 146.5 205t166 241t156.5 231.5t119 176.5l18 13h70q6 0 22.5 1t34 1t32.5 1t22 1l18 -15v-407v-463h98l99 2l16 -12q-4 -27 -4 -41t-2 -37l-17 -16q-96 2 -190 0q0 -37 1 -90.5t2 -105.5t2 -97t3 -68v-26l-8 -19q-47 -2 -69.5 -3 t-47.5 -1l-14 12q4 102 4 200.5v197.5q-35 2 -66.5 2h-66.5h-62.5t-95.5 -1t-113.5 -1t-114.5 -1t-97 -1h-66zM219 518h549l6 809z" />
<glyph unicode="5" horiz-adv-x="1193" d="M135 86q2 16 3 26.5t2 20.5t2 21.5t3 29.5l19 11q20 -14 51 -34t74 -38.5t98 -30.5t125 -12q106 0 183 35t126 90t71.5 121.5t22.5 130.5q0 39 -13 98t-51 114.5t-108.5 95.5t-185.5 40q-63 0 -117.5 -11.5t-98.5 -27.5t-76 -32.5t-52 -28.5l-16 12l14 244q6 111 10 212 t4 203l15 13h32.5t51 -1.5t51 -1.5h35.5h378h33t51.5 1.5t50 1.5h33.5l15 -13q-4 -29 -6 -42t-4 -44l-15 -14q-66 2 -131 2t-131 2h-336l-16 -418q33 14 97.5 35t156.5 21q102 0 188 -33t147.5 -92.5t95.5 -142.5t34 -181q0 -96 -35 -186t-103.5 -160t-171 -111t-237.5 -41 q-74 0 -132.5 11.5t-103.5 27t-74.5 30.5t-46.5 26z" />
<glyph unicode="6" horiz-adv-x="1193" d="M131 623q0 49 3 113.5t15.5 136t35 145.5t61.5 141q55 94 123.5 146.5t134 77t121 29.5t86.5 5q92 0 167.5 -19.5t153.5 -66.5l8 -20q-4 -33 -5 -47.5t-3 -49.5l-20 -8q-125 106 -291 107q-84 0 -146.5 -24.5t-105.5 -55.5q-70 -51 -108.5 -122t-59 -146.5t-27 -151.5 t-8.5 -137q61 74 158.5 127t232.5 53q111 0 192 -36t135 -96t80 -138t26 -162q0 -92 -32 -175t-92.5 -144.5t-148.5 -98.5t-201 -37q-102 0 -194 38t-162 128q-47 59 -72.5 129t-38 136.5t-15.5 126t-3 96.5zM266 549q0 -25 2 -60.5t9.5 -77.5t22.5 -87t40 -88 q37 -61 80 -94t83 -48.5t71.5 -17.5t48.5 -2q96 0 160.5 33.5t102.5 85t54 114t16 121.5q0 154 -87 235.5t-228 81.5q-68 0 -126 -18t-104 -47t-83 -63.5t-62 -67.5z" />
<glyph unicode="7" horiz-adv-x="1193" d="M84 1290q6 29 8 44.5t4 41.5l19 13h32.5t52 -1.5t52 -1.5h35.5h616h33t51.5 1.5t51 1.5h34.5l10 -17q-47 -104 -100 -221t-106 -229l-197 -457q-23 -57 -46.5 -112.5t-45.5 -112.5q-4 -12 -17.5 -46t-28 -73t-27.5 -73t-19 -48l-19 -12q-45 0 -68.5 -1t-68.5 -3l-10 16 q6 12 26.5 59t50 112t62.5 139.5t62.5 141t53 118t31.5 71.5q72 160 142.5 319.5t142.5 321.5h-305q-55 0 -120.5 -1t-132.5 -2t-130 -3t-117 -4z" />
<glyph unicode="8" horiz-adv-x="1193" d="M119 387q0 61 17.5 122.5t56 113t101 88.5t155.5 49q-33 6 -77 17t-89 46q-45 33 -81 93.5t-36 152.5q0 80 30.5 144.5t87 109.5t136.5 69.5t178 24.5q92 0 169 -22.5t132 -66.5t86 -108.5t31 -146.5q0 -94 -47 -172t-146 -115q-16 -6 -31.5 -11t-31.5 -9l45 -10 q55 -14 105.5 -42t86.5 -73q35 -41 57.5 -103.5t22.5 -138.5q0 -80 -28.5 -157.5t-88 -137t-150.5 -96.5t-216 -37q-109 0 -197 31t-149.5 85t-95 131t-33.5 169zM256 391q0 -70 23.5 -128t68.5 -100t108.5 -65.5t141.5 -23.5q90 0 157.5 27.5t110.5 73.5t62.5 106.5 t15.5 128.5q-6 129 -93 212t-253 83q-41 0 -74.5 -5.5t-58.5 -13.5q-29 -10 -64.5 -30.5t-68.5 -55.5t-54.5 -86t-21.5 -123zM301 1061q0 -119 83 -187.5t208 -68.5q135 0 209 72.5t78 181.5q2 127 -78 193.5t-203 66.5q-63 0 -117.5 -16.5t-94.5 -49t-62.5 -81 t-22.5 -111.5z" />
<glyph unicode="9" horiz-adv-x="1193" d="M109 963q0 92 31.5 175t92 144t147.5 98t200 37q102 0 193 -37t163 -129q45 -59 71.5 -128.5t39 -136t15.5 -126t3 -96.5q0 -47 -3 -111.5t-15.5 -136.5t-35 -146.5t-61.5 -142.5q-55 -94 -122.5 -146t-133 -76.5t-121 -30t-86.5 -5.5q-92 0 -168.5 19.5t-154.5 66.5 l-8 21q2 14 3 25.5t2 21.5t2 21.5t1 27.5l22 8q125 -106 291 -106q82 0 145.5 24.5t104.5 55.5q70 51 108.5 121.5t59 146.5t27 151.5t8.5 137.5q-59 -74 -157.5 -127.5t-233.5 -53.5q-109 0 -190 36t-134 95.5t-79.5 138.5t-26.5 163zM242 958q0 -150 85 -233.5t230 -83.5 q70 0 129 19.5t106.5 49t82 63.5t57.5 65q-2 27 -4 62.5t-10.5 77.5t-22.5 86t-39 87q-37 61 -80 94t-83 48.5t-71.5 17.5t-46.5 2q-98 0 -162.5 -35t-102.5 -87t-53 -114.5t-15 -118.5z" />
<glyph unicode=":" horiz-adv-x="512" d="M205 8q2 20 3 40t1 40t-1 41t-3 41l14 16q25 0 42.5 1t33.5 2t35.5 2.5t48.5 3.5l16 -15q-2 -27 -3 -45t-1 -34.5t1 -36t3 -50.5l-14 -14q-47 0 -78 -2t-82 -4zM205 862q2 20 3 40t1 40t-1 41t-3 41l14 16h42.5t33.5 1t35.5 3.5t48.5 4.5l16 -15q-2 -27 -3 -45t-1 -34.5 t1 -36t3 -50.5l-14 -14h-42t-33.5 -1t-37 -3t-47.5 -4z" />
<glyph unicode=";" horiz-adv-x="512" d="M141 -322q2 14 14.5 69.5t27 128.5t29.5 151.5t26 142.5l12 16h45t34.5 1t32 2t35.5 4l13 -19q-27 -63 -53.5 -140t-49 -148.5t-39 -127t-22.5 -73.5l-15 -17h-34.5t-49.5 -2zM229 862q2 20 2 40v40v41t-2 41l15 16h41t32.5 1t36 3.5t49.5 4.5l15 -15q0 -27 -1 -45 t-1 -34.5t1 -36t3 -50.5l-14 -14h-42.5t-35 -1t-38 -3t-46.5 -4z" />
<glyph unicode="&#x3c;" horiz-adv-x="1366" d="M0 653v144l1366 655v-131l-1229 -596l1229 -600v-131z" />
<glyph unicode="=" horiz-adv-x="1366" d="M0 354v121h1366v-121h-1366zM0 715v121h1366v-121h-1366z" />
<glyph unicode="&#x3e;" horiz-adv-x="1366" d="M0 -6v131l1229 600l-1229 596v131l1366 -655v-144z" />
<glyph unicode="?" horiz-adv-x="768" d="M20 1366q4 35 4.5 52.5t2.5 47.5l12 23q53 27 126 53.5t173 26.5q92 0 164.5 -29t123 -79t76 -116.5t25.5 -142.5q0 -111 -47 -203t-102 -178l-39 -61q-33 -49 -55.5 -90t-36 -81t-18.5 -84t-3 -99l-16 -19h-47.5t-47.5 -4l-16 14q0 72 5 124t19.5 97.5t38 89.5t58.5 99 l37 55q20 31 43.5 68t43 80t32 89t12.5 95q0 57 -20.5 105.5t-56.5 84t-86 55t-108 19.5q-51 0 -95 -12t-80 -28.5t-62.5 -34t-40.5 -27.5zM276 8q0 20 1.5 40t1.5 40t-1.5 41t-1.5 41l15 16q25 0 41 1t32.5 2t36 2.5t50.5 3.5l14 -15q0 -27 -1 -45t-1 -34.5t1 -36t3 -50.5 l-16 -14q-47 0 -77 -1t-83 -5z" />
<glyph unicode="@" horiz-adv-x="1835" d="M141 479q0 190 71 366.5t197 312.5t298 218t374 82q147 0 261 -43t192 -122t119 -187.5t41 -237.5q0 -137 -40 -266t-104.5 -230.5t-149.5 -163t-173 -61.5q-47 0 -78 15.5t-49 38.5q-29 35 -33 69.5t-4 67.5q-18 -27 -36.5 -48.5t-47.5 -49.5q-49 -43 -107.5 -68 t-119.5 -25q-35 0 -79 13.5t-84 50.5t-67.5 100.5t-27.5 165.5q0 111 34.5 215.5t93 185t136.5 129t162 48.5q37 0 70.5 -10.5t62.5 -26.5q53 -35 74.5 -77t37.5 -81l35 148h121l-68 -299q-10 -47 -20 -97.5t-19.5 -97.5t-14.5 -89t-5 -73q0 -37 9 -57.5t21.5 -31.5t25 -14 t18.5 -3q45 0 102 49t108.5 133t86 198.5t34.5 243.5q0 111 -34.5 202t-102 157.5t-165 102.5t-222.5 36q-172 0 -324.5 -71.5t-267 -193.5t-181 -285t-66.5 -343q0 -160 56 -279.5t151.5 -199.5t219 -120t259.5 -40q119 0 224 27.5t192 70.5t158 96.5t122 104.5l55 -65 q-152 -150 -343 -237t-404 -87q-135 0 -275.5 41t-253 129t-184.5 227.5t-72 335.5zM633 483q0 -74 20.5 -119t49 -68.5t59.5 -30.5t51 -7q66 0 126 45t101 113q27 45 43.5 92t25.5 89t11 73t2 41q0 66 -16 110.5t-43 72.5t-61.5 40t-67.5 12q-68 0 -123 -44t-95 -111.5 t-61.5 -149.5t-21.5 -158z" />
<glyph unicode="A" horiz-adv-x="1150" d="M0 18q27 74 45 126.5t35.5 101.5t36 104.5t43.5 132.5l315 953l12 12l175 4l14 -10l110 -338l152 -455q39 -119 65.5 -200.5t49 -149.5t45 -132.5t53.5 -148.5l-10 -14l-140 -4l-12 14q-18 68 -30.5 114t-24.5 90t-27.5 93t-38.5 121l-16 49h-526l-41 -2l-25 -73 q-23 -70 -36 -116t-25.5 -87t-23.5 -84t-28 -107l-16 -12h-121zM317 592q59 -2 117 -2h117q66 0 129 1t133 1l-250 782z" />
<glyph unicode="B" horiz-adv-x="1193" d="M154 1434l14 12l197 4l120 2q44 1 81 1q56 0 98 -2q70 -3 133 -24q86 -25 133 -71.5t69.5 -96t26.5 -91.5t4 -56q0 -84 -26.5 -141.5t-60.5 -95t-65.5 -57t-41.5 -23.5q-25 -10 -50.5 -18.5t-54.5 -16.5q27 -2 52.5 -4t52.5 -6q135 -29 207.5 -121t72.5 -219 q0 -84 -30.5 -160t-92.5 -131q-47 -41 -100 -64.5t-119.5 -35t-146.5 -14.5t-178 -5h-89l-178 -2l-14 12q2 43 3 79t2 71t1 70.5v82.5q0 106 -2 212t-2 212q-2 162 -3 260.5t-2 168t-4 128t-7 140.5zM301 504.5q0 -74.5 2 -136t3 -120.5t5 -137q121 0 199 1t130 4t86 9 t67 18q92 31 140 100.5t48 164.5q0 10 -1 30.5t-8 46t-22.5 54t-44.5 55.5q-37 37 -89 56.5t-107.5 28.5t-111.5 11t-101 2q-47 0 -96.5 -1t-98.5 -1v-185.5zM301 799q45 0 99 -1h28q41 0 81 2q54 3 106.5 10t93.5 24q31 12 63.5 32.5t60 52t46 74.5t18.5 99q0 96 -39 148 t-92 75.5t-109.5 28t-91.5 4.5h-38.5t-75.5 -1t-79 -1h-48h-23v-547z" />
<glyph unicode="C" horiz-adv-x="1236" d="M88 717q0 141 44 278.5t132 244t220 172t311 65.5q78 0 136 -8.5t103 -21.5t80 -29.5t66 -31.5l10 -16q-4 -16 -6 -27.5t-4 -22.5t-3 -24.5t-3 -33.5l-15 -11q-23 14 -54.5 35t-75.5 37t-101.5 28.5t-132.5 12.5q-154 0 -261.5 -59.5t-175 -152.5t-98.5 -208t-31 -227 q0 -133 41 -249t117 -201t182.5 -134t235.5 -49q117 0 227 45q59 25 92 48.5t68 51.5l16 -10q-4 -18 -5 -31.5t-3 -25.5t-2 -27.5v-36.5l-10 -20q-18 -10 -36.5 -20.5t-37.5 -20.5q-59 -29 -146 -48.5t-186 -19.5q-172 0 -302 60.5t-217 163t-131 237.5t-44 287z" />
<glyph unicode="D" horiz-adv-x="1409" d="M154 1436l14 10l276 2q39 0 77 1t77 1q74 0 159 -6t170 -34t161.5 -82t134.5 -152q61 -106 78.5 -215t17.5 -195q0 -61 -7 -131t-27.5 -140.5t-55.5 -139t-90 -130.5q-76 -84 -162 -130t-175 -67.5t-176 -24.5t-167 -3h-86l-191 -2l-12 12q2 49 3 86t1 71v68.5v81.5 q0 104 -1 209t-3 209q-2 150 -3 242t-2 161.5t-4 135t-7 162.5zM303 530.5q0 -65.5 1 -129t3 -132t4 -163.5h138q82 0 156.5 4.5t142 18.5t129 43t116.5 80q63 57 100 130t56.5 144.5t26 136t6.5 105.5t-3 86t-14 92q-8 41 -27.5 102.5t-72.5 125.5q-78 94 -193.5 131.5 t-293.5 37.5q-31 0 -62 -1t-61 -1l-152 -2v-657v-151.5z" />
<glyph unicode="E" horiz-adv-x="1067" d="M154 1436l12 12l143 -2h367l289 4l12 -10l-6 -99l-17 -12l-538 6l-117 2v-528h203l430 4l12 -12l-4 -92l-18 -11q-61 2 -108.5 3t-108.5 1h-104.5t-104.5 -2h-195l10 -589h178l492 8l8 -13l-8 -100l-8 -6h-625l-166 -8l-14 14q0 49 1 90t2 78t1 73v77q0 555 -18 1112z " />
<glyph unicode="F" horiz-adv-x="937" d="M156 1436l12 12l158 -2h342l278 4l12 -10l-8 -99l-14 -12l-449 10h-188v-47l2 -243l2 -224l2 -34h88l441 8l12 -13l-8 -94l-13 -12l-407 4h-113q0 -119 1 -198.5t3 -150.5t4 -144.5t6 -178.5l-12 -12l-125 -2l-12 12q0 53 1 95t2 79t1 73v79v78t-1 120.5t-2 142.5 t-2 143.5t-2 122.5t-1 83v120t-1 87t-3 86t-6 117z" />
<glyph unicode="G" horiz-adv-x="1409" d="M90 715q0 129 40 264t127 245.5t226.5 181.5t337.5 71q76 0 134.5 -9.5t105.5 -22.5t84 -30.5t69 -34.5l11 -16l-17 -109l-14 -8q-35 27 -63.5 46.5t-88.5 37.5q-47 14 -101 22.5t-114 8.5q-162 0 -275.5 -54.5t-185 -143.5t-104.5 -203.5t-33 -237.5q0 -115 33 -229.5 t105.5 -205.5t190.5 -148.5t288 -57.5q115 0 178 16.5t104 30.5v164v121v70.5t-2 62.5t-4 64.5t-4 78.5l10 10l132 5l12 -13q-2 -68 -4 -122t-3 -104t-2 -98.5t-1 -103.5v-101t2 -102l-11 -18q-137 -49 -245.5 -61.5t-171.5 -12.5q-35 0 -111 5.5t-168 35t-187.5 94 t-168.5 185.5q-37 59 -58.5 120.5t-33 119t-15.5 105.5t-4 81z" />
<glyph unicode="H" horiz-adv-x="1409" d="M156 1434l12 12l123 4l12 -12v-596q123 -2 209 -2h170t181.5 1t240.5 5q0 102 -1 173t-3 133t-4 126.5t-6 155.5l12 12l125 4l12 -14q-2 -164 -2 -290v-233.5t1 -204t4 -199.5t6 -224t7 -275l-12 -10l-125 -4l-12 12v721q-90 2 -179 3t-179 1h-100.5t-98.5 -1t-109.5 -2 t-134.5 -3v-130t1 -105.5t2 -97.5t2 -103t3 -123t4 -158l-12 -10l-123 -4l-12 12v212v184.5v168v164.5q0 129 -1 219.5t-2 166t-4 148t-7 163.5z" />
<glyph unicode="I" horiz-adv-x="468" d="M152 1436l12 10l127 4l12 -12q0 -121 -1 -240t-1 -240q0 -133 1 -242.5t3 -217t5 -224t7 -262.5l-12 -12l-127 -2l-12 12q0 43 1 82l2 78t1 80v90q0 100 -1 235.5t-3 283t-5 298t-9 279.5z" />
<glyph unicode="J" horiz-adv-x="681" d="M6 137l17 10q31 -18 67.5 -33.5t99.5 -15.5q68 0 106 21.5t56.5 54.5t23.5 69t7 64q2 20 3 59.5t1 110.5q0 63 -1 125t-3 123q-4 180 -7 355t-7 356l12 10l127 4l12 -12q-4 -104 -5 -195.5t-1 -183.5q0 -23 1 -72t1 -112.5t2 -132t2 -132t1 -115t1 -75.5 q0 -102 -6 -163.5t-27 -109.5q-23 -51 -59.5 -82.5t-78.5 -49t-84 -23.5t-77 -6q-47 0 -84.5 9t-85.5 23l-10 15z" />
<glyph unicode="K" horiz-adv-x="1150" d="M156 1436l10 12l123 2l12 -12v-666l277 307q82 92 132 146.5t82.5 91.5t54 62.5t48.5 60.5l18 6h150l6 -12q-37 -37 -64.5 -67t-65.5 -68.5t-93 -98t-148 -158.5l-243 -264l112 -123q145 -162 291 -320.5t293 -316.5l-6 -16h-82l-74 -6l-22 10q-162 195 -328 382 t-340 374l16 -750l-10 -10l-123 -4l-12 12q0 51 1 92t2 79t1 74v79q0 551 -18 1102z" />
<glyph unicode="L" horiz-adv-x="937" d="M156 1434l12 12l129 4l12 -12q-2 -88 -3 -166t-2 -150.5t-1 -143.5v-144q0 -182 2 -362.5t6 -362.5h119q94 0 156.5 1t113 3t97.5 3t112 5l13 -15l-9 -98l-12 -12l-147 4h-400l-172 -4l-12 12q0 111 1 217.5t1 216.5l-2 265l-4 268q0 94 -1 153.5t-2 104.5t-3 89t-4 112z " />
<glyph unicode="M" horiz-adv-x="1665" d="M119 14q2 29 5 56.5t5 56.5t4 63.5t4 77.5q4 61 8.5 124t8.5 124l24 449q4 94 7 152.5t5.5 105.5t3.5 94t3 119l10 10h54.5h41t39.5 1t53 3l15 -12q0 -4 9 -33t22.5 -72t29.5 -97t33 -108l315 -1030l316 951q4 14 16 49t26.5 74.5t27 75.5t16.5 50q10 29 23 66t24 72 l14 10h51.5t40 1t40 2t48.5 3l15 -16l16 -658q2 -63 5 -149t7 -185.5t9.5 -209t11.5 -220.5l-10 -14q-43 0 -64.5 -1t-60.5 -3l-13 14v240q0 61 -1 119.5t-3 126.5l-16 880l-301 -915q-16 -47 -34.5 -104.5t-39 -119l-40 -120t-34.5 -105.5l-16 -12q-29 0 -46.5 1t-34.5 1 t-35.5 -1t-49.5 -1l-14 14l-8 27q-29 94 -46.5 151.5t-30 99.5t-22.5 75.5t-24 83.5l-276 899l-32 -752q-6 -137 -9 -221t-5 -142.5t-3 -106.5t-1 -114l-12 -14h-50.5t-62.5 -2z" />
<glyph unicode="N" horiz-adv-x="1409" d="M154 1436l12 12l180 4l19 -12q14 -25 24 -40.5t19.5 -30.5t20.5 -35.5t30 -53.5q47 -84 107.5 -185.5t135.5 -230.5l428 -760q-2 160 -2 285t-2 229.5t-3 195.5t-3 186.5t-5 201t-7 236.5l10 10l109 4l12 -10q-2 -80 -3 -152.5t-1 -171.5q0 -129 1 -270t3 -283.5t5 -283 t9 -267.5l-12 -12l-182 -4l-17 10q-12 18 -28.5 45t-39 66t-53 92t-73.5 127l-567 1005l6 -608q0 -135 1 -219t3 -155.5t4 -149.5t6 -197l-12 -14l-109 -2l-12 12q0 117 1 229.5t1 229.5q0 125 -1 236.5t-3 223t-5 234.5t-7 273z" />
<glyph unicode="O" horiz-adv-x="1492" d="M90 727q0 139 36 274.5t116 241t205.5 170t308.5 64.5q168 0 290.5 -57.5t201.5 -158t117 -238.5t38 -300q0 -172 -44 -311.5t-128 -237.5t-204 -151.5t-273 -53.5q-147 0 -257 40t-188 114q-119 113 -169 269.5t-50 334.5zM227 725q0 -92 21.5 -204.5t78 -211t158 -165 t260.5 -66.5q80 0 142.5 15.5t107.5 39.5q135 71 204 229q67 153 67 350v11q0 29 -3 84t-15.5 119.5t-36 132t-62.5 123.5q-51 70 -110.5 107.5t-113 55t-97.5 20.5t-64 3q-113 0 -197 -29.5t-141 -78.5q-37 -33 -72 -83.5t-63.5 -118t-46 -151.5t-17.5 -182z" />
<glyph unicode="P" d="M154 1434l14 10l270 6l72 2q61 0 117.5 -3t111 -13.5t103.5 -34t94 -64.5t84 -113.5t39 -183.5q0 -63 -14.5 -115.5t-36 -93t-50 -72.5t-55.5 -54q-53 -41 -116.5 -65t-135 -35t-147.5 -14t-152 -3h-47q0 -109 1 -182.5t3 -134t3 -120t5 -139.5l-10 -12l-127 -4l-10 14 q0 49 1 89t2 77t1 75v83v67.5t-1 107.5t-2 126.5t-2 128t-1 110v72.5q-2 100 -3 160.5t-2 108t-3 94.5t-6 125zM301 696q111 0 195 2t148.5 15.5t114.5 41t93 81.5q37 47 53.5 99t16.5 109q0 86 -31 137.5t-55 73.5q-33 31 -74 48.5t-85 26.5t-90 11t-89 2q-29 0 -58.5 -1 t-60.5 -1l-78 -2v-643z" />
<glyph unicode="Q" horiz-adv-x="1492" d="M90 719q0 43 5 104.5t19.5 129t41 137t69.5 131.5q45 66 96.5 108.5t102.5 69t100 41t92 22.5q70 14 146 15q98 0 208.5 -30t198.5 -104q72 -61 118 -139t71.5 -160.5t35 -163.5t9.5 -149q0 -139 -34 -272t-116 -246q-35 -49 -67.5 -81t-64 -54.5t-64.5 -37.5l-66 -30 q86 -29 144.5 -48t106.5 -34.5t97.5 -30t118.5 -32.5l6 -19l-82 -94l-22 -8q-78 35 -132 58.5t-106.5 43t-113 42t-150.5 53.5l-92 30q-37 0 -75 1t-77 8q-84 12 -176 55t-168.5 129t-128 222t-51.5 333zM225 727q0 -45 5.5 -102.5t19.5 -118t38.5 -121.5t61.5 -113 q72 -102 173.5 -148t224.5 -46q98 0 167.5 23.5t115.5 55t72.5 64.5t41.5 51q35 49 57.5 106.5t36.5 117t19.5 118t5.5 107.5q0 57 -6.5 113.5t-16.5 111.5q-41 207 -167 314.5t-320 107.5q-117 0 -195 -32.5t-123 -67.5q-96 -78 -153.5 -222.5t-57.5 -318.5z" />
<glyph unicode="R" horiz-adv-x="1150" d="M154 1436l12 12l295 6q37 1 70 1q82 0 139 -4q80 -5 145 -26q86 -31 134 -84t71.5 -108t28 -100.5t4.5 -57.5q0 -84 -32 -152.5t-77 -113.5q-37 -37 -75 -60.5t-76.5 -38t-76.5 -21.5t-71 -11l150 -197q35 -47 69.5 -91t69.5 -89q12 -16 43 -55t65.5 -84t66.5 -85t44 -57 l-8 -18h-68q-20 -2 -38.5 -3t-39.5 -3l-20 12q-37 51 -62.5 87t-56.5 77t-73 97.5t-111 148.5q-55 74 -88 117t-51.5 66.5t-27.5 35.5t-20 25l-186 -3q0 -106 1 -181t2 -142.5t4 -142t7 -181.5l-12 -12l-125 -2l-12 12q2 53 3 93t1 77v73v79q0 279 -4 553t-14 551zM301 766 q94 0 161.5 2t118 6t87.5 12.5t71 22.5q25 10 55.5 27.5t58.5 48t46.5 77t18.5 111.5q0 102 -42 157.5t-102.5 81t-124 30t-106.5 4.5q-59 0 -116.5 -2.5t-125.5 -4.5v-573z" />
<glyph unicode="S" horiz-adv-x="1067" d="M104 1100q0 88 40 167t112 130q72 49 156 64.5t155 15.5q135 0 217 -30t123 -52l13 -17l-13 -100l-20 -10q-27 16 -57.5 33.5t-69.5 33t-87 24.5t-110 9q-109 0 -173 -29.5t-98 -71.5t-45 -86t-11 -73q0 -59 22.5 -100t60 -72t87 -54.5t102.5 -43.5l145 -62 q45 -23 100.5 -51.5t103.5 -74.5t80 -111.5t32 -157.5q0 -78 -29 -151.5t-88 -132t-149.5 -93.5t-210.5 -35q-31 0 -76 4t-96.5 16.5t-102.5 33t-96 51.5l-8 20l8 125l20 4q18 -16 36 -32.5t46 -34.5q59 -39 127 -57.5t139 -18.5q80 0 143.5 22.5t108.5 61.5t70 93t25 118 q0 59 -20.5 103t-55.5 78t-84 61.5t-107 52.5l-163 67q-49 23 -101.5 51.5t-97.5 70.5t-74 100.5t-29 140.5z" />
<glyph unicode="T" horiz-adv-x="1024" d="M0 1341l8 101l15 10l210 -6h486l293 6l12 -10l-8 -103l-12 -10q-57 2 -98.5 4t-85.5 3t-99 2t-139 1v-266.5t1 -215.5t2 -189t3 -187.5t4 -210t6 -256.5l-12 -14l-123 -2l-14 12q2 160 3 321t1 320q0 174 -1 344t-3 342l-435 -8z" />
<glyph unicode="U" horiz-adv-x="1366" d="M164 578l4 612v55.5v52t-1 60.5t-3 76l12 14l131 4l10 -12q-4 -217 -8 -407.5t-4 -379.5q0 -78 1 -138t6 -109.5t16.5 -88t29.5 -71.5q33 -57 77 -90t89 -48.5t87 -19.5t71 -4q27 0 62.5 2t74.5 13.5t80 33t76 57.5q35 35 49 64t18 45q12 35 19.5 68.5t10.5 77.5t4 103.5 t1 145.5v186.5t-1 140.5t-1 108.5t-1 95.5t-3 96t-4 113l12 14l111 2l12 -12v-557l-2 -271q0 -88 -4 -170t-20 -143q-18 -68 -60.5 -127t-106 -104.5t-148.5 -71t-189 -25.5q-63 0 -126 10.5t-116 32.5q-61 25 -115.5 71t-87.5 103q-47 84 -55 185.5t-8 206.5z" />
<glyph unicode="V" d="M4 1430l8 14l135 10l11 -10q23 -86 39 -146.5t32.5 -117t35 -119t44.5 -150.5l250 -817l299 971q16 55 28.5 94t24 78t23.5 86t31 115l14 12h121l10 -14l-162 -478l-160 -495l-141 -449l-14 -14l-166 -4l-14 10l-140 447l-174 553z" />
<glyph unicode="W" horiz-adv-x="1705" d="M2 1434l10 12l129 6l13 -12q20 -106 34.5 -178t29.5 -142.5t33.5 -155.5t47.5 -219l145 -651l218 936l92 404l14 12h51.5h39t39 1t50.5 3l15 -10l112 -482l205 -862l176 805l111 535l12 10h113l12 -12l-109 -447l-112 -477q-20 -92 -33.5 -152.5t-25 -111.5t-22.5 -104.5 t-26 -129.5l-14 -12l-172 -4l-14 14l-89 361l-233 1001l-182 -794l-131 -566l-17 -12l-172 -4l-14 8l-109 481l-71 301z" />
<glyph unicode="X" horiz-adv-x="1024" d="M-10 16q12 18 41.5 64.5t64.5 99.5t66 100.5t43 67.5l252 393l-156 267q-63 113 -99 176t-58.5 103t-41 69.5t-45.5 75.5l11 16l135 4l16 -8q23 -47 38 -76t27.5 -53.5t28 -53t37.5 -71.5l180 -334l84 139q45 76 74 123t53.5 91t53 95.5t73.5 133.5l15 10h131l10 -14 q-31 -49 -58.5 -92.5t-55 -86.5t-56.5 -89t-63 -101l-195 -309l184 -332q47 -84 77 -136t54.5 -92t48 -80t60.5 -98l-12 -18h-140l-16 8q-18 35 -31.5 62.5t-34 66.5t-52.5 98.5t-83 157.5l-133 250l-131 -217q-66 -111 -104.5 -176.5t-63 -107.5t-39 -70.5t-33.5 -61.5 l-14 -10h-133z" />
<glyph unicode="Y" horiz-adv-x="1024" d="M2 1427l10 17l133 10l19 -12q18 -41 30.5 -71t27 -59.5t30.5 -64.5t41 -86l219 -454l129 247q33 63 57.5 111.5t50 101t55.5 116t73 155.5l16 10h119l12 -16l-233 -428l-220 -410l11 -582l-13 -12l-123 -4l-14 14q6 178 6 359q0 63 -1 113t-3 104l-211 415z" />
<glyph unicode="Z" horiz-adv-x="1024" d="M18 12q55 92 93.5 156.5t73 126t73.5 130.5t96 169l230 403q55 98 89 156.5t53 93.5t29.5 54.5t22.5 41.5l-203 -2l-487 -12l-12 12l8 97l12 12l195 -4h428l258 2l8 -12q-31 -49 -54.5 -89t-48 -81t-52 -91.5t-66.5 -117.5l-541 -951h273q98 0 163.5 1.5t116.5 2.5 t100.5 3t114.5 4l13 -15l-9 -96l-12 -10l-182 4h-463l-311 -4z" />
<glyph unicode="[" horiz-adv-x="598" d="M215 1546l14 17h84h100.5t97.5 1t73 3l14 -15q-4 -25 -6 -38t-4 -41l-17 -17q-39 0 -63.5 1t-45 1h-43h-59.5q-6 -281 -6 -561v-655q0 -55 1 -135t3 -162t4.5 -159t6.5 -126h61.5h47h46h56.5l16 -16q-4 -20 -5 -31.5t-3 -36.5l-15 -16h-77.5h-63.5t-77 -1t-119 -3l-17 16 q2 123 3 208t2 156.5t0 142.5t-1 165v628q2 145 2 246t-1 174.5t-4 133t-5 120.5z" />
<glyph unicode="\" horiz-adv-x="897" d="M2 1548l14 19q41 -2 61.5 -2t55.5 2l21 -15q37 -100 61.5 -165.5t49 -127t55 -136t79.5 -195.5l244 -590q25 -57 50.5 -119.5t58 -136.5t71.5 -159t88 -187l-12 -19q-16 0 -31.5 1t-31.5 1h-22.5t-31.5 -2l-20 15q-4 10 -8 21t-9 24q-31 82 -53 138t-41.5 107.5 t-42 105.5t-55.5 132l-256 617q-72 174 -143.5 341.5t-151.5 329.5z" />
<glyph unicode="]" horiz-adv-x="598" d="M0 -432q4 33 6 44t4 36l17 16q39 0 63.5 -1t45 -1h43h59.5q6 279 6 561v658q0 86 -1 177t-3 183q0 47 -1 79t-2 55.5t-3.5 44t-4.5 42.5q-37 0 -62.5 1t-48 1t-46 -1t-56.5 -1l-14 17q4 20 5 31.5t3 35.5l15 17h77.5h63.5t77 1t119 3l15 -17q-2 -127 -3 -215t-1 -160.5 t1 -141t1 -154.5v-631q-2 -145 -2 -245.5t1 -174.5t3 -133.5t6 -120.5l-14 -16h-84h-100.5t-97.5 -1t-73 -3z" />
<glyph unicode="^" horiz-adv-x="1492" d="M319 717l369 729h129l357 -729h-156l-268 561l-275 -561h-156z" />
<glyph unicode="_" horiz-adv-x="1024" d="M-20 -154h1064v-102h-1064v102z" />
<glyph unicode="`" horiz-adv-x="598" d="M143 1460l9 19h54h39.5t39 1t51.5 1l14 -13q8 -25 17.5 -54.5t29.5 -82.5q14 -39 23.5 -62.5t15.5 -39t10.5 -24.5t8.5 -21l-11 -19h-42t-42 -4l-20 15q-31 47 -51.5 78.5t-41 61.5t-45 62.5t-59.5 81.5z" />
<glyph unicode="a" horiz-adv-x="980" d="M70 309q0 72 26.5 136.5t79.5 111.5q35 31 78 51.5t90 34.5t94 23.5t90 15.5l181 27v26q-2 41 -5.5 76t-13.5 59q-4 8 -16 24.5t-35 32t-59.5 27t-90.5 11.5q-51 0 -90 -5.5t-71.5 -15.5t-63.5 -24.5t-65 -32.5l-17 8l6 96l11 15q61 25 130.5 46t172.5 21 q111 0 174 -27.5t98 -68.5q23 -25 35 -48.5t17 -57t6.5 -82t1.5 -123.5v-127q-2 -104 -2 -172q0 -11 -1 -22q1 -55 3 -101q2 -54 5 -106t7 -124l-12 -14l-109 -6l-14 12l-2 72q-139 -102 -291 -103q-78 0 -141.5 24t-109.5 67t-71.5 104t-25.5 139zM199 315q0 -41 14 -81.5 t44 -73.5t75 -54.5t108 -21.5q100 0 159.5 35t109.5 76v411l-111 -16q-68 -12 -116 -22.5t-81.5 -21.5t-59.5 -22.5t-46 -27.5q-6 -4 -21.5 -17.5t-33 -36t-29.5 -54.5t-12 -73z" />
<glyph unicode="b" d="M113 1589l12 15l129 22l12 -10q-2 -96 -4 -163t-2 -133.5v-146t2 -202.5q23 16 42.5 27.5t51.5 25.5q76 29 136.5 37t91.5 8q66 0 136.5 -22.5t135.5 -75.5q86 -72 129 -180.5t43 -225.5q0 -131 -52 -241.5t-130 -180.5q-55 -49 -112.5 -76.5t-116 -42t-115 -18.5 t-105.5 -6l-250 -4l-12 12q2 125 2 250v250q0 129 -1 256t-3 256q-2 139 -4 223t-3 141.5t-4 101.5t-9 103zM262 111q27 0 51.5 -1t48.5 -1h7q27 0 67.5 3t86.5 11t95.5 23.5t90.5 41.5q49 31 83.5 74t58 92t34 102.5t10.5 104.5q0 94 -28.5 168t-77 125t-111 76.5 t-129.5 25.5q-33 0 -81 -8t-108 -35q-35 -16 -55 -31.5t-43 -31.5v-739z" />
<glyph unicode="c" horiz-adv-x="897" d="M82 512q0 117 32.5 219.5t97 178t160 119.5t222.5 44q104 0 161.5 -23.5t98.5 -45.5l10 -19l-14 -115l-19 -8q-35 31 -91 65t-154 34q-76 0 -140.5 -28t-105.5 -67q-72 -66 -100.5 -160t-28.5 -192q0 -117 34 -199t86 -133t116.5 -73.5t127.5 -22.5q84 0 155 30.5 t130 88.5l21 -8l-13 -121l-16 -25q-41 -27 -82 -42t-79 -22t-69.5 -9.5t-52.5 -2.5q-92 0 -180 31t-155.5 95.5t-109.5 166t-42 244.5z" />
<glyph unicode="d" d="M80 508q0 133 46 235.5t112 165.5q53 51 117.5 81t132 45.5t134 19.5t121.5 4h42t51 -2q-2 141 -3.5 225t-2.5 137.5t-4 89t-9 82.5l14 13q18 2 32 5t26 5t27.5 5t39.5 9l13 -12q-2 -141 -3 -278.5t-1 -276.5q0 -264 2 -533.5t14 -517.5l-12 -10h-54.5t-54.5 -4l-12 12 v94q-16 -14 -42 -33.5t-62.5 -38t-87 -31.5t-115.5 -13q-111 0 -197 42t-144.5 114.5t-89 166.5t-30.5 199zM213 516q0 -86 22.5 -163t67.5 -133t109.5 -89t150.5 -33q61 0 109.5 15.5t83.5 36t57.5 41t32.5 32.5v68q0 68 -2 153.5t-3 175t-2 175.5t-1 155q-27 2 -48.5 3 t-60.5 1q-70 0 -144.5 -8t-146.5 -39q-74 -33 -118 -82t-67.5 -103t-31.5 -108.5t-8 -97.5z" />
<glyph unicode="e" horiz-adv-x="1067" d="M80 522q0 121 32.5 222.5t94 174t150.5 113.5t204 41q96 0 183 -31.5t157 -123.5q35 -45 53.5 -93.5t27.5 -96.5t12 -93t3 -84l-12 -12h-776q2 -49 8 -104.5t37 -121.5q33 -72 80 -115.5t95 -67.5t94 -32t81 -8q70 0 126 15.5t98 37t72 44t48 38.5l17 -10l-9 -117 l-10 -20q-33 -18 -66.5 -36.5t-75.5 -32t-93.5 -23t-116.5 -9.5q-125 0 -221.5 42t-161 115t-98 172.5t-33.5 215.5zM217 643h645q-4 45 -11 94t-42 105q-31 49 -67.5 75.5t-70.5 39t-65 14.5t-49 2q-72 0 -136.5 -26.5t-111.5 -80.5q-53 -61 -69.5 -123.5t-22.5 -99.5z" />
<glyph unicode="f" horiz-adv-x="555" d="M0 954l4 86l12 15l174 -6l-4 137q-2 20 -2 39.5v40.5q0 92 16.5 147t57.5 94q25 25 54.5 41.5t60 24.5t59.5 11t51 3q25 0 44.5 -3t43.5 -7l11 -16l-7 -78l-16 -15q-20 6 -35.5 9.5t-38.5 3.5q-66 0 -99.5 -21.5t-48.5 -58.5t-17 -86q-2 -27 -2 -56q0 -23 1 -47v-165 l220 4l16 -17l-8 -80l-12 -14l-216 4v-200t1.5 -159.5t2.5 -136t2 -130t3 -140.5t6 -168l-12 -10l-117 -4l-15 12v936l-176 -2z" />
<glyph unicode="g" horiz-adv-x="980" d="M68 -184q0 61 20.5 110t51 87t64.5 65.5t60 46.5l-90 39l-6 20q20 31 34.5 51.5t26 40t23.5 41t31 52.5q-31 18 -65 42.5t-61.5 60.5t-46 87t-18.5 125q0 57 13.5 102t32 79t40 58.5t37.5 39.5q43 35 89 54t95.5 28.5t100.5 10.5t102 1l92 -2h271l8 -15l-8 -86l-15 -12 l-205 12q14 -12 38 -32.5t45.5 -53t38 -80t16.5 -108.5q0 -80 -31 -145.5t-83 -111.5t-120.5 -71.5t-144.5 -25.5q-31 0 -55.5 4t-55.5 10l-65 -111l184 -55q59 -18 98 -29.5t64.5 -18.5t43 -14.5t34.5 -15.5q98 -43 144 -110.5t46 -153.5q0 -84 -37 -149.5t-98.5 -109.5 t-141 -66.5t-165.5 -22.5q-78 0 -155 20.5t-138.5 61.5t-100 103.5t-38.5 146.5zM195 -170q0 -37 15 -80t52 -79t97.5 -60.5t148.5 -24.5q80 0 137 21.5t94 54.5t53.5 74t16.5 80q0 49 -17.5 81.5t-42 54t-51 34t-43.5 18.5q-57 23 -140 45t-157 45q-23 -18 -51 -43.5 t-53 -58.5t-42 -73t-17 -89zM219 682q0 -68 23.5 -117t62.5 -80.5t87 -46t95 -14.5q68 0 118 22.5t84 60.5t50.5 86t16.5 101q0 49 -16.5 95.5t-49.5 83t-81 58t-111 21.5q-70 0 -122 -22.5t-87 -59t-52.5 -86t-17.5 -102.5z" />
<glyph unicode="h" d="M125 1593l12 13l129 20l13 -12q-4 -98 -5.5 -171t-2.5 -143q0 -35 -0.5 -73.5t0.5 -80.5q1 -83 1 -204q31 20 69 44t83 43.5t99.5 31.5t119.5 12q66 0 109 -14.5t82 -38.5q43 -29 67.5 -63.5t36.5 -80t15 -102.5t5 -133l5 -209q0 -80 1 -132t2 -94t2 -86t5 -108l-10 -12 l-123 -4l-11 14q0 102 1 202.5t1 205.5v180.5t-4 120.5q-2 35 -10 84t-43 90q-25 29 -71 50.5t-105 21.5q-55 0 -104.5 -15.5t-91.5 -37t-74.5 -45t-55.5 -42.5q0 -152 1 -252t4 -185t5.5 -171t6.5 -205l-13 -12l-118 -2l-13 12v713v223.5t-2 222.5q0 82 -2 139.5t-4 103.5 t-5 88t-7 93z" />
<glyph unicode="i" horiz-adv-x="425" d="M123 1399l2 127l16 16l131 12l15 -16l-2 -127l-15 -16l-131 -13zM131 1026l12 12l123 19l13 -13q-2 -35 -3.5 -62.5t-2.5 -53t-1 -50v-55.5q0 -199 5.5 -405.5t15.5 -405.5l-12 -12l-123 -2l-11 10q2 100 2.5 156.5t0.5 103.5q0 57 -1.5 148.5t-2.5 195t-5 212t-10 202.5 z" />
<glyph unicode="j" horiz-adv-x="425" d="M-33 -379l10 14q53 6 88 21.5t55.5 48.5t29 88t8.5 139q0 20 -1 74.5t-1 116t-1 118t-1 78.5q-2 147 -3 245t-3.5 172.5t-5.5 139t-7 148.5l15 12l122 23l13 -10q-4 -55 -5 -93t-1 -92v-71t1 -109t2 -129t2 -130.5t1 -112.5v-74l2 -152q2 -64 2 -118q0 -69 -3 -124 q-5 -98 -40 -163q-27 -49 -61.5 -79t-69.5 -45.5t-66 -20.5t-49 -7l-12 16zM129 1399l2 127l16 16l132 12l14 -16l-2 -127l-15 -16l-131 -13z" />
<glyph unicode="k" horiz-adv-x="897" d="M129 1593l12 13l127 18l13 -12q-2 -55 -3.5 -98.5t-2.5 -82t-1 -78.5v-91v-629l185 188q6 6 22.5 23.5t35 37t35.5 37t23 25.5q20 20 33 33.5t22 24t15 18.5t14 18l25 11q18 0 35.5 -1t36.5 -1q18 0 36.5 1t36.5 1l9 -19q-86 -78 -167 -156.5t-163 -158.5l-86 -86 l188 -232q92 -111 146.5 -176t86 -104t50 -59.5t37.5 -39.5l-10 -16q-14 0 -27.5 1t-26.5 1q-6 0 -21.5 -1t-31.5 -3t-29 -3l-14 -1l-20 10q-29 39 -50.5 68.5t-50 67.5t-74 94.5t-118.5 148.5l-181 225v-147.5t1.5 -124t4.5 -137t7 -189.5l-10 -12l-119 -4l-13 14v598v262 q0 170 -1 277.5t-3 183.5t-6 134.5t-8 127.5z" />
<glyph unicode="l" horiz-adv-x="425" d="M127 1593l12 13l129 20l13 -12q-2 -84 -3.5 -152.5t-2.5 -131t-1 -126v-139.5q0 -266 3 -527.5t14 -525.5l-12 -12l-119 -2l-13 12v629v263.5t-1 195.5t-2 147.5t-4 118.5t-6 109.5t-7 119.5z" />
<glyph unicode="m" horiz-adv-x="1748" d="M127 1026l12 14l125 21l12 -14l-4 -117q80 59 167 101t186 42q68 0 114.5 -18.5t77.5 -43t48.5 -51t27.5 -45.5q27 20 64.5 47t87 51.5t108.5 42t129 17.5q86 0 129 -19.5t55 -27.5q43 -29 70 -64.5t41 -84t19.5 -110.5t5.5 -142v-58v-147.5t1 -119.5t3 -124.5t6 -163.5 l-13 -12l-112 -4l-14 12q2 72 3 121t2 106.5t1 134v203.5q0 131 -10.5 204t-45.5 114q-29 31 -74.5 49t-101.5 18q-53 0 -99 -13t-87 -33.5t-75 -45t-62 -45.5q4 -29 6 -49t4 -40.5t2 -45v-63.5l2 -52q0 -109 1 -180.5t3 -129.5t4 -114.5t6 -134.5l-12 -12l-117 -4l-12 14 q2 57 3 107.5t1 122.5v109.5t-1 132t-3 131t-6 106.5q-4 31 -13.5 81t-43.5 91q-23 25 -63 45t-97 20q-53 0 -101.5 -15t-88.5 -36.5t-71.5 -44t-52.5 -39.5q0 -139 1 -233t3.5 -178t5.5 -175.5t9 -222.5l-14 -12l-119 -4l-13 12q0 37 1.5 66.5t2.5 57.5t1 55.5v60.5 q0 78 -1 154.5t-4 154.5q0 92 -1 152.5t-3 108.5t-6 95.5t-10 112.5z" />
<glyph unicode="n" d="M127 1026l10 14l125 21l12 -12l-8 -107q33 20 71 43t84 42.5t100 32.5t116 13q14 0 43 -1t62.5 -10t70.5 -28.5t70 -56.5q27 -31 42 -64.5t22 -74.5t9 -90.5t2 -106.5l5 -209q0 -80 1 -132t3 -94t3 -86t5 -108l-12 -12l-123 -4l-11 14q2 72 3.5 121t1.5 111q0 31 -1.5 94 t-2.5 135t-2 139.5t-3 108.5q-2 35 -9 84t-40 88q-27 31 -73 50.5t-101 19.5q-57 0 -108.5 -15.5t-93.5 -37t-75.5 -45t-54.5 -40.5q0 -86 1 -153.5t2 -125t1.5 -111.5t3.5 -115.5t5 -135t6 -170.5l-13 -12l-120 -4l-11 12q2 84 3.5 135.5t1.5 116.5q0 80 -1.5 161t-3.5 161 q0 88 -1 145t-3 104.5t-5 91.5t-9 103z" />
<glyph unicode="o" d="M82 522q0 86 14.5 170t57.5 158q70 121 175 172t238 51q109 0 185.5 -31.5t128 -82t80 -112t44 -120.5t19.5 -111t4 -81v-15q0 -146 -38 -246q-40 -106 -106.5 -172.5t-152.5 -96.5t-176 -30q-127 0 -217 43t-146.5 118t-83 174.5t-26.5 211.5zM219 524q0 -18 2 -58 t11.5 -89t29 -100.5t56 -94.5t94 -70.5t141.5 -27.5q100 0 166.5 38t104.5 100.5t54 144.5q14 73 13 148v20q-2 53 -10.5 114.5t-26.5 110.5q-29 78 -72 120t-86 61.5t-82 22.5t-57 3q-109 0 -175.5 -43t-102 -109.5t-48 -144.5t-12.5 -146z" />
<glyph unicode="p" d="M117 1030l10 12l123 19l14 -12l-2 -97q20 18 49 39t67 39.5t86 30.5t109 12q104 0 189.5 -39t145 -106.5t91 -160.5t31.5 -202q0 -82 -25.5 -178t-91.5 -178q-35 -47 -81 -86t-108 -66.5t-144 -44t-189 -16.5q-31 0 -59.5 1t-67.5 5q0 -82 1 -136t2 -103.5t4 -102.5 t8 -129l-13 -12h-125l-12 12q6 356 6 713q0 160 -1 272.5t-4 200.5t-6 161.5t-7 151.5zM262 113q37 -4 61.5 -6.5t53.5 -2.5q90 0 177 17.5t161 71.5q18 12 48 39.5t57.5 72.5t48 106.5t20.5 145.5q0 63 -16.5 133t-55.5 128.5t-103.5 96t-160.5 37.5q-100 0 -193 -49 q-35 -18 -55 -35.5t-43 -40.5v-714z" />
<glyph unicode="q" d="M80 481q0 100 28.5 196.5t90.5 176.5q53 68 117.5 105.5t133 57t136 25t129.5 7.5l254 4l14 -13q-4 -59 -6 -105t-3 -91l-2 -90t-1 -101v-72t1 -110t2 -131t2 -132.5t2 -112.5t1 -75q0 -102 1 -162.5t2 -107.5t4 -94t7 -123l-14 -14h-123l-10 12q2 47 3 85t2 74t1 72.5 v83.5q0 59 -1 116.5t-1 117.5q-70 -53 -142.5 -78t-158.5 -25q-94 0 -179 33t-149.5 97.5t-102.5 157.5t-38 216zM211 498q0 -106 30.5 -183t82 -127.5t115 -74t130.5 -23.5q14 0 43 2t66 13.5t81 33t87 60.5v737q-37 4 -63.5 5t-55.5 1q-31 0 -61.5 -2t-61.5 -6 q-49 -4 -98 -16.5t-96 -40.5q-53 -31 -91 -75t-62 -94.5t-35 -104.5t-11 -105z" />
<glyph unicode="r" horiz-adv-x="598" d="M133 1026l12 12l121 19l13 -13l-3 -161q16 47 39 80q27 39 75 72.5t112 33.5q25 0 46 -5t46 -15l14 -15l-16 -108l-17 -13q-23 12 -41 19.5t-45 7.5q-41 0 -72.5 -15.5t-54.5 -37.5q-27 -27 -42 -60.5t-24 -79t-12 -103.5t-3 -132q0 -57 1 -121.5t3 -130t4 -129t4 -119.5 l-12 -12l-123 -2l-13 12q2 51 3.5 92t2.5 80t1 81v95q0 166 -2.5 340t-16.5 328z" />
<glyph unicode="s" horiz-adv-x="854" d="M70 72q4 18 6 32.5t3 26.5t2 25.5t1 33.5l16 7q25 -23 45.5 -39.5t53.5 -32.5q55 -27 108 -36t92 -9q41 0 87 10t84 33.5t62.5 61.5t24.5 96q0 49 -16 80.5t-46 52t-70 34t-85 25.5l-98 29q-41 12 -87 29.5t-85 48t-65.5 80t-26.5 124.5q0 51 21.5 102.5t67.5 92.5 t118.5 67.5t175.5 26.5q88 0 146.5 -18.5t121.5 -42.5l8 -15l-14 -118l-10 -5q-37 29 -101.5 59t-167.5 30q-123 0 -180 -55.5t-57 -127.5q0 -37 13 -60.5t26 -37.5q29 -29 65.5 -42t104.5 -34l106 -28q27 -8 72 -24.5t88 -48.5t73.5 -82t30.5 -126q0 -53 -19.5 -109.5 t-65.5 -103.5t-122.5 -78t-191.5 -31q-121 0 -193.5 29t-111.5 51z" />
<glyph unicode="t" horiz-adv-x="555" d="M0 956l4 84l12 13l162 -4l-8 251l14 13l119 28l12 -12l-10 -280l236 6l10 -15l-4 -88l-15 -10l-229 4v-547v-81.5t2 -69.5q2 -72 26.5 -112t102.5 -40q29 0 50.5 6.5t43.5 16.5l17 -10l-6 -93l-15 -18q-31 -6 -54.5 -9t-53.5 -3q-90 0 -139.5 28.5t-72 75.5t-26.5 107.5 t-4 124.5l2 106v518l-166 -4z" />
<glyph unicode="u" d="M135 1036l12 15l123 4l13 -13q-4 -147 -6.5 -291.5t-2.5 -291.5q0 -61 3 -108.5t9.5 -82.5t18.5 -61.5t33 -48.5q29 -33 77 -54.5t107 -21.5q20 0 40 2t40 6q88 18 137 52t97 73q0 154 -1 256t-2.5 187t-4.5 170t-9 206l12 17h37.5h26.5t24.5 2t30.5 4l13 -15 q-2 -96 -3.5 -190t-1.5 -188q0 -100 1 -182.5t3.5 -158t5.5 -150.5t7 -161l-12 -12l-113 -8l-14 12l4 98q-18 -16 -47 -37.5t-71 -42t-98.5 -34t-131.5 -13.5q-14 0 -44 1t-67 10.5t-77 30t-73 57.5q-31 35 -48 72.5t-26.5 76.5t-11.5 78t-2 76v53v176v178v59.5t-1 54.5 t-3 60.5t-4 77.5z" />
<glyph unicode="v" horiz-adv-x="897" d="M2 1026l10 18l129 9l17 -11q18 -66 31.5 -114.5t32 -110t46 -149.5t74.5 -236l111 -346l133 412q31 94 51 158.5t36.5 121t33 114.5t38.5 140l19 17h119l12 -15l-145 -405l-103 -305l-100 -312l-15 -12l-167 -4l-19 12l-225 684z" />
<glyph unicode="w" horiz-adv-x="1449" d="M2 1028l10 16l125 5l13 -13q8 -41 14 -69.5t13 -60.5t17.5 -71.5t26.5 -101.5l160 -647l172 649l76 297l12 12l174 5l12 -15q14 -55 24.5 -96t20 -78t21.5 -78t29 -98l163 -584l140 555q16 66 27.5 110t20.5 83t19.5 82t22.5 104l12 17h111l12 -15l-121 -428l-102 -385 l-51 -205l-17 -14l-164 -6l-14 12l-78 291l-184 666l-131 -514q-20 -74 -33.5 -125.5t-25 -96.5t-23.5 -95t-29 -124l-12 -10l-166 -4l-12 10l-76 283l-117 420z" />
<glyph unicode="x" horiz-adv-x="811" d="M-12 12q25 35 49 71t51 77q8 12 27.5 41.5t42 64.5t43 67t28.5 44l103 160l-150 249q-39 63 -79 128t-74 120l8 15l131 6l20 -11q12 -27 20.5 -43t24.5 -47q8 -12 30 -51t65 -112l78 -140l71 121q25 43 45.5 78t38 65.5t32.5 60.5t32 62l16 13h125l10 -15 q-14 -23 -40.5 -64.5t-54.5 -84.5t-49.5 -78t-27.5 -43l-135 -215l88 -145q25 -39 43 -69t43 -69t62.5 -97t99.5 -155l-8 -16l-133 -6l-21 10q-23 43 -39 72.5t-29.5 55.5t-30 52.5t-38.5 65.5l-109 186l-125 -198q-29 -45 -46 -75t-30.5 -53.5t-24.5 -45t-28 -52.5l-22 -12 h-123z" />
<glyph unicode="y" horiz-adv-x="897" d="M0 1030l12 19l121 10l19 -15l165 -471l144 -393l153 436q25 70 40.5 117t29.5 91t28.5 92.5t35.5 117.5l20 17h115l14 -17q-23 -49 -37 -84t-27.5 -69.5t-29 -74.5t-37.5 -101l-148 -402q-37 -98 -72.5 -198.5t-67.5 -192.5t-58.5 -170t-40.5 -129q-8 -23 -14.5 -47.5 t-12.5 -46.5l-14 -13l-127 2l-12 13q27 59 44 100t32.5 78t32 78t38.5 102l49 141q-31 84 -55.5 147.5t-44 118t-38.5 102.5t-40.5 102.5t-46.5 119t-59 150.5q-18 45 -29.5 75.5t-23 58.5t-25 58.5t-33.5 77.5z" />
<glyph unicode="z" horiz-adv-x="854" d="M37 12l272 439l305 497l-149 -2l-367 -4l-12 12l8 82l15 15l170 -2h335l187 4l12 -15l-254 -407l-321 -529h133l430 9l14 -13l-4 -88l-18 -14l-168 4h-301l-281 -2z" />
<glyph unicode="{" horiz-adv-x="724" d="M172 532v56q35 14 65.5 33.5t53.5 76.5q16 39 19 90.5t3 153.5v244q2 88 10.5 159.5t59.5 131.5q23 27 47.5 42t55 24t67.5 14.5t86 9.5v-66q-68 -20 -106.5 -48t-58 -67.5t-25 -95t-5.5 -129.5v-160q0 -84 -2 -142t-6 -98t-13 -68.5t-28 -53.5q-29 -39 -56.5 -53.5 t-59.5 -24.5q33 -10 60.5 -25.5t55.5 -54.5q18 -25 27.5 -53.5t13.5 -68.5t6 -98t2 -142v-160q0 -74 5.5 -129t25 -95t58 -67.5t106.5 -48.5v-65q-49 4 -86 9t-67.5 14t-55 24.5t-47.5 42.5q-51 59 -59.5 130.5t-10.5 159.5v244q0 102 -3 153.5t-19 90.5q-23 57 -53.5 76.5 t-65.5 33.5z" />
<glyph unicode="|" horiz-adv-x="468" d="M174 -512v2048h121v-2048h-121z" />
<glyph unicode="}" horiz-adv-x="724" d="M86 -381q68 20 106.5 48t58 68t25 95t5.5 129v160q0 84 1 142t6 98t14 69t28 53q29 39 56.5 53.5t59.5 24.5q-33 10 -60.5 25.5t-55.5 54.5q-18 25 -27.5 53.5t-14.5 68.5t-6 98.5t-1 141.5v160q0 74 -5.5 129.5t-25 95t-58 67.5t-106.5 48v66q49 -4 86 -9.5t67.5 -14.5 t55 -24.5t47.5 -41.5q51 -59 59.5 -131t10.5 -160v-244q0 -102 3 -153.5t19 -90.5q23 -57 53.5 -76.5t65.5 -33.5v-56q-35 -14 -65.5 -33.5t-53.5 -76.5q-16 -39 -19 -90t-3 -154v-244q-2 -88 -10.5 -159.5t-59.5 -130.5q-23 -27 -47.5 -42.5t-55 -24.5t-67.5 -14t-86 -9v65 z" />
<glyph unicode="~" horiz-adv-x="1492" d="M274 580q12 18 33 46.5t51.5 54.5t72.5 44t95 18q59 0 115.5 -21.5t116.5 -49.5l65 -31q51 -23 78 -32t55 -9q35 0 65 12.5t54.5 32t44 42t35.5 42.5l64 -113q-51 -66 -114 -111.5t-149 -45.5q-45 0 -87 14t-111 49l-60 29q-33 16 -78 33.5t-92 17.5q-31 0 -52 -7 t-41.5 -23.5t-42 -41t-50.5 -61.5z" />
<glyph unicode="&#xa1;" horiz-adv-x="512" d="M115 1360q2 27 2 45v34.5v36t-2 50.5l14 14h42t33.5 1t36 3t48.5 4l16 -16q-2 -20 -3 -39.5t-1 -40.5q0 -20 1 -40.5t3 -41.5l-14 -16h-42.5t-33.5 -1t-35.5 -3t-48.5 -4zM131 8q0 23 1 42.5t3 39.5q2 55 5 134t5 165t4.5 173t3.5 162t2 129t1 77q0 78 -1 130t-3 87 l10 12q25 0 42 1t46 5l12 -14q0 -53 2 -140t4 -192.5t6.5 -220.5t8.5 -224.5t8 -203.5t8 -160l-10 -12h-38h-30.5t-34 -1t-47.5 -3z" />
<glyph unicode="&#xa2;" horiz-adv-x="980" d="M84 520q0 111 31.5 212.5t93 180t153 125.5t209.5 47q16 0 30.5 -1t31.5 -1q6 29 10 47.5t7 34t5 30.5t7 38l14 10h40t42 4l14 -12q-14 -47 -22.5 -80t-22.5 -84q49 -12 86 -30.5t68 -41.5l6 -18q-8 -35 -11.5 -54.5t-5.5 -58.5l-18 -6q-23 25 -41 42.5t-35.5 28.5 t-34 18t-36.5 16l-209 -875q18 -4 37.5 -8t52.5 -4q20 0 54 4t74 16.5t85 37t88 65.5l12 -6q-4 -23 -5 -38.5t-2 -27.5t-2 -25.5t-3 -31.5l-15 -23q-80 -51 -155.5 -65.5t-122.5 -14.5q-37 0 -66.5 4.5t-54.5 8.5q-4 -23 -8 -40.5t-7 -35t-7.5 -36.5t-10.5 -48l-12 -14 q-31 0 -43 -1.5t-41 -3.5l-12 17q8 27 14 48t11 41.5t11.5 44.5t14.5 54q-25 10 -61.5 30.5t-77.5 57.5q-29 27 -57.5 67t-51 92t-37 117.5t-14.5 145.5zM209 508q0 -84 20.5 -147.5t51 -109.5t65.5 -76t64 -46l200 854q-16 2 -26.5 3t-24.5 1q-78 0 -141.5 -36 t-110.5 -100.5t-72.5 -152.5t-25.5 -190z" />
<glyph unicode="&#xa3;" d="M94 666q4 27 5 41t3 43l13 8q51 -2 76.5 -2t62.5 2l-6 43q-8 57 -13.5 104t-5.5 90q0 104 38 183t99.5 132.5t140.5 80t163 26.5q57 0 109 -10t95.5 -24.5t75 -29t45.5 -20.5l11 -20q-2 -18 -3.5 -28.5t-2.5 -20t-2 -21.5t-3 -31l-14 -6q-23 14 -51.5 31.5t-65.5 34 t-82 28t-96 11.5q-72 0 -134.5 -24.5t-107.5 -67.5q-31 -31 -48 -62t-25.5 -62.5t-10.5 -63.5t-2 -60q0 -23 1 -38t2 -37t5.5 -53.5t10.5 -82.5h130t141.5 1t136 2t116.5 5l8 -10q-4 -35 -5 -56.5t-3 -37.5l-14 -11q-43 2 -107.5 3t-134.5 1h-136.5h-115.5q2 -18 6 -58 t4 -103q0 -109 -21.5 -197t-62.5 -195h130q141 2 225 4.5t139 3.5t96 3t97 4l10 -13q-4 -29 -4 -46t-2 -48l-15 -14q-14 0 -26.5 1t-34 1h-58h-104.5h-420q-47 0 -94 -1t-94 -3l-10 16q66 109 94 229.5t28 245.5q0 23 -2 62t-8 110q-29 0 -47 -1t-34.5 -1t-34 -1t-46.5 -3z " />
<glyph unicode="&#xa4;" horiz-adv-x="1366" d="M119 223l151 150q-23 33 -42 64.5t-35.5 69.5t-25.5 84t-9 105q0 63 12 114.5t29.5 90.5t37 67.5t33.5 47.5l-149 149l92 92l149 -149q27 18 58 38.5t68.5 37t87 27t110.5 10.5t111.5 -11.5t89.5 -29t67.5 -37t51.5 -33.5l149 150l94 -95l-151 -149q14 -18 33.5 -47 t36 -68t28.5 -90t12 -119q0 -66 -12 -117t-30.5 -91t-38 -67.5t-31.5 -43.5l151 -154l-94 -92l-149 154q-31 -20 -62 -41t-67.5 -36.5t-84 -24.5t-108.5 -9q-59 0 -105.5 9t-83 24.5t-68.5 35t-63 42.5l-151 -150zM283 694q0 -84 30.5 -157.5t84 -128t128 -86t160.5 -31.5 q82 0 154.5 29.5t126 84t85 128t31.5 163.5q0 92 -32.5 167t-88 127t-127 81t-147.5 29q-80 0 -153.5 -29t-130 -81t-89 -128t-32.5 -168z" />
<glyph unicode="&#xa5;" horiz-adv-x="980" d="M0 1366l10 16q43 2 64.5 4.5t62.5 6.5l19 -13q8 -18 16 -35.5t20.5 -46t33 -72.5t55.5 -114l211 -434l122 235q39 74 75 145.5t65.5 134t52 112t33.5 73.5l18 8q39 -2 57.5 -1t55.5 1l10 -14q-6 -10 -20.5 -36.5t-31 -57.5t-31.5 -57.5t-21 -38.5t-23.5 -43t-36 -66 t-36 -66.5t-23.5 -43.5l-109 -203h129h48.5t39.5 4l15 -14q-4 -31 -6.5 -47.5t-6.5 -38.5l-12 -11h-29.5h-46t-73.5 1t-113 1l-47 -86v-94h121h86q35 0 58.5 1t53.5 3l15 -12q-4 -31 -6.5 -48.5t-6.5 -37.5l-12 -12q-25 2 -47.5 2h-69.5h-53h-38.5t-40 1t-58.5 1 q0 -53 1 -92t2 -77t2 -82t3 -110l-12 -12h-33.5h-26t-26 -1t-31.5 -3l-14 12q2 33 3 55.5t1 57.5v92v160h-101h-79h-54.5t-66.5 -2l-15 16q4 31 6.5 41t6.5 37l14 14h34.5t66.5 -1t89.5 -2t98.5 -1v54.5t-2 31.5l-47 94h-148h-55.5t-48.5 -2l-15 17q4 31 6.5 42t6.5 36 l14 14q23 0 76 -1t110 -1l-102 198q-27 53 -52.5 103.5t-51.5 101.5q-6 10 -21.5 39t-33 60.5t-33 61.5t-21.5 42z" />
<glyph unicode="&#xa6;" horiz-adv-x="468" d="M174 389h123v-780h-123v780zM174 631v780h123v-780h-123z" />
<glyph unicode="&#xa7;" horiz-adv-x="1024" d="M78 670q0 72 28.5 124t69.5 89t85 60.5t75 37.5q-61 41 -104.5 103.5t-43.5 150.5q0 70 27 127t75 96t114.5 60.5t146.5 21.5q78 0 152.5 -18.5t142.5 -55.5l10 -18q-6 -35 -8 -52.5t-4 -58.5l-19 -12q-41 35 -83 55.5t-78.5 30.5t-64.5 12t-42 2q-111 0 -172 -53 t-61 -135q0 -41 13 -69.5t41 -55.5t71 -54.5t102 -62.5l135 -77q49 -29 95 -56.5t82 -62.5t57.5 -78t21.5 -100q0 -59 -24.5 -114.5t-67.5 -96.5q-41 -41 -84 -63.5t-76 -37.5q29 -18 61.5 -39.5t60.5 -53.5t46.5 -75t18.5 -102q0 -74 -29 -137.5t-83 -109.5t-130 -72.5 t-168 -26.5q-66 0 -158 19.5t-198 80.5l-9 25q6 39 7.5 58.5t3.5 55.5l16 7q76 -68 158 -101t186 -33q76 0 127 20.5t82 53.5t44 72t13 76q0 43 -12 72.5t-38.5 54t-68.5 49t-102 57.5l-168 90q-57 33 -107 66t-87 69.5t-57.5 80.5t-20.5 104zM211 688q0 -43 19.5 -78 t54 -64.5t82 -56t102.5 -57.5l123 -65q43 14 82 36.5t68.5 51t47 65.5t17.5 80q0 37 -14.5 66.5t-47 59.5t-84 61.5t-124.5 72.5l-107 60q-29 -10 -60.5 -23.5t-66.5 -42.5q-35 -27 -53.5 -53.5t-27.5 -50t-10 -40t-1 -22.5z" />
<glyph unicode="&#xa8;" horiz-adv-x="598" d="M33 1229q2 25 3 41t1 30.5t-1 28.5t-1 35l16 16q45 0 67.5 1t63.5 5l15 -16q-2 -25 -3 -40t-1 -29.5t1 -29t1 -36.5l-15 -16h-35.5t-29 -1t-28.5 -2.5t-38 -3.5zM401 1229q0 25 1 41t1 30.5t-1 28.5t-1 35l17 16q47 0 68.5 1t62.5 5l14 -16q0 -25 -1 -40t-1 -29.5t1 -29 t1 -36.5l-16 -16h-35.5t-29 -1t-29 -2.5t-37.5 -3.5z" />
<glyph unicode="&#xa9;" horiz-adv-x="1705" d="M125 721q0 154 57.5 288t155.5 232t231 154.5t287 56.5q152 0 285 -56.5t231 -154.5t154.5 -232t56.5 -290q0 -111 -31.5 -213.5t-85.5 -186.5q-43 -68 -106.5 -127t-142 -103t-171 -69.5t-194.5 -25.5q-141 0 -273.5 53t-232.5 149.5t-160.5 229.5t-60.5 295zM190 719 q0 -135 51.5 -255t140.5 -210t211 -142.5t263 -52.5q131 0 250 48.5t210 135.5t145.5 208t56.5 268q0 135 -48.5 256t-136.5 212t-210 145t-267 54q-139 0 -260 -51t-211 -141t-142.5 -212t-52.5 -263zM395 725q0 98 36 184t98.5 150.5t149.5 102.5t191 38q82 0 146.5 -22.5 t111 -54t76 -63.5t45.5 -50l-86 -78q-18 20 -43.5 47t-61.5 50.5t-82 39.5t-104 16q-74 0 -139 -27.5t-114.5 -74.5t-77 -112.5t-27.5 -141.5q0 -84 29.5 -150.5t80 -113.5t115 -72.5t133.5 -25.5q61 0 108.5 17t83.5 42t60.5 50.5t38.5 41.5l86 -74q-18 -23 -50 -57.5 t-89 -67.5q-41 -25 -102.5 -46t-143.5 -21q-90 0 -175 32.5t-150.5 94t-104.5 148.5t-39 198z" />
<glyph unicode="&#xaa;" horiz-adv-x="641" d="M41 961q0 74 30.5 119.5t77 71.5t98.5 38t95 18l109 17v18q0 23 -3.5 46.5t-16.5 42t-41 29.5t-79 11q-55 0 -97 -14.5t-83 -36.5l-18 10q4 37 4 48.5v21.5l8 12q47 25 98 35t105 10q63 0 114.5 -18.5t79.5 -65.5q10 -16 15.5 -30.5t7.5 -35t2 -49v-71.5v-80v-172t8 -166 l-12 -16h-32t-46 -2l-14 12v33l-2 -2q-41 -23 -79 -39.5t-98 -16.5q-98 0 -164.5 58.5t-66.5 163.5zM141 965q0 -53 36 -96.5t110 -43.5q57 0 89 16.5t75 49.5v252l-62 -10q-47 -10 -92 -20.5t-80 -28t-55.5 -46t-20.5 -73.5z" />
<glyph unicode="&#xab;" horiz-adv-x="724" d="M51 541v24q4 8 8 15.5t9 15.5q8 14 25.5 47t41 79t50 101.5t53.5 114.5l18 12h121l8 -16q-4 -8 -16.5 -30.5t-26.5 -47.5t-26.5 -48.5t-18.5 -31.5q-8 -16 -15.5 -30.5t-19.5 -36t-30.5 -57.5t-49.5 -93q27 -55 63 -120.5t69.5 -123t59 -97.5t29.5 -46l-10 -18h-22.5 t-36 -1t-36.5 -1h-24l-20 10q-16 35 -40 82t-58 110q-2 0 -17.5 29t-36.5 63q-23 41 -51 95zM352 541v24l19 31q6 14 23.5 47t41 79t50 101.5t53.5 114.5l20 12h119l10 -14q-53 -96 -104.5 -190.5t-98.5 -186.5q25 -53 60 -116.5t68.5 -121t59 -98.5t32.5 -51l-11 -18h-22.5 t-36 -1t-36.5 -1h-24l-18 10q-25 49 -49.5 97t-50.5 95q-4 6 -20.5 36t-35 62.5t-33.5 60.5z" />
<glyph unicode="&#xac;" horiz-adv-x="1366" d="M0 537v120h1366v-657h-123v537h-1243z" />
<glyph unicode="&#xad;" horiz-adv-x="598" d="M37 532q6 31 8 46.5t4 50.5l14 14q78 -4 156 -5t156 -1q66 0 101.5 1t70.5 5l14 -12q-4 -41 -6 -59.5t-6 -47.5l-12 -10q-23 0 -42.5 1t-51 2t-82 1h-132.5h-51h-38.5t-39 -1t-49.5 -3z" />
<glyph unicode="&#xae;" horiz-adv-x="1705" d="M123 723q0 158 58.5 291t158.5 230t232.5 152.5t279.5 55.5q158 0 292 -58.5t232.5 -158.5t152.5 -233t54 -283q0 -152 -57.5 -284t-155.5 -230.5t-231 -154.5t-289 -56q-141 0 -273.5 53t-232.5 149.5t-160.5 230.5t-60.5 296zM188 723q0 -139 52.5 -261t142.5 -211 t211 -140.5t258 -51.5q141 0 262 51.5t210 141.5t141.5 210t52.5 259q0 137 -49.5 258t-138.5 211t-211 143t-263 53t-263 -52t-212 -142t-141.5 -211t-51.5 -258zM559 270v912h281q80 0 126 -2t87 -19q70 -29 104.5 -85t34.5 -122q0 -96 -59.5 -150t-145.5 -69 q74 -29 103.5 -73t44.5 -127q8 -49 13 -86t12 -66t16.5 -55.5t25.5 -57.5h-153q-16 31 -23.5 61.5t-13.5 63.5q-2 8 -5 28.5t-6.5 43t-6.5 44t-5 30.5q-10 51 -28.5 80.5t-47 46t-67.5 21.5t-88 5h-66v-424h-133zM694 801h154q20 0 56 2t70 15t58.5 42t24.5 84q0 63 -43 100 q-29 27 -71 31t-124 4h-125v-278z" />
<glyph unicode="&#xaf;" horiz-adv-x="598" d="M37 1255q6 31 8 46.5t4 50.5l14 14q78 -4 156 -5t156 -1q66 0 101.5 1t70.5 5l14 -12q-4 -41 -6 -59.5t-6 -47.5l-12 -10q-23 0 -42.5 1t-51 2t-82 1h-132.5h-51h-38.5t-38 -1t-50.5 -3z" />
<glyph unicode="&#xb0;" horiz-adv-x="724" d="M61 1231q0 61 24 116.5t64.5 96.5t96 64.5t116.5 23.5t117 -23.5t96.5 -64.5t64.5 -96.5t24 -116.5t-24 -116.5t-64.5 -96.5t-96 -64.5t-117.5 -23.5q-61 0 -116.5 23.5t-96 64.5t-64.5 96.5t-24 116.5zM184 1231q0 -74 52.5 -126t125.5 -52q74 0 126.5 52t52.5 126 t-52.5 126t-126.5 52t-126 -52t-52 -126z" />
<glyph unicode="&#xb1;" horiz-adv-x="1366" d="M82 0v121h1200v-121h-1200zM82 776v121h543v524h120v-524h537v-121h-537v-524h-120v524h-543z" />
<glyph unicode="&#xb2;" horiz-adv-x="811" d="M55 506q8 8 32 31.5t52.5 51t56 54.5t44.5 43q37 37 73.5 74t71.5 74q92 94 134 158.5t42 133.5q0 35 -11 70t-36 61.5t-62.5 43t-89.5 16.5q-49 0 -89 -12.5t-70.5 -30t-54 -35.5t-37.5 -33l-21 15q2 14 3 22t1 17.5v19.5v27l8 16q37 25 101.5 55.5t167.5 30.5 q76 0 132 -22.5t93 -61.5t54.5 -88t17.5 -100q0 -59 -18.5 -109.5t-54.5 -100.5t-90 -106.5t-128 -130.5l-123 -119h119q49 0 80.5 1t63.5 1t71 1t104 4l15 -15q-4 -23 -5.5 -37t-3.5 -30l-16 -15h-16.5t-34 1t-36.5 1h-26h-391h-32.5t-36 -1t-30.5 -1h-16z" />
<glyph unicode="&#xb3;" horiz-adv-x="811" d="M72 555q4 27 4 39t2 39l22 8q104 -88 238 -88q109 0 175.5 56.5t66.5 152.5q0 86 -62.5 135t-155.5 49q-39 0 -68.5 -6t-57.5 -14l-17 20l105 133q20 25 38.5 50.5t36.5 50.5q4 6 18.5 25.5t30 41t28.5 39.5l13 17h-145h-45t-69.5 -1.5t-69.5 -2.5t-47 -1l-13 19 q2 14 3 25.5t1 33.5l17 15q4 0 9 -1t16.5 -1h31h53.5h306h86t28 2l11 -23q-47 -57 -97.5 -122.5t-99.5 -131.5l-59 -86q47 -4 97 -13t99 -52q35 -33 58.5 -83.5t23.5 -117.5q0 -129 -90 -214t-252 -85q-76 0 -140.5 17.5t-123.5 58.5z" />
<glyph unicode="&#xb4;" horiz-adv-x="598" d="M133 1180q16 37 33.5 76.5t35 78.5t33 74t25.5 64l12 10q31 -2 51.5 -2h43.5h44t44 2l8 -17q-37 -47 -62.5 -80.5t-47 -64.5t-42 -65.5t-51.5 -84.5l-14 -10q-35 4 -51.5 4t-51.5 -2z" />
<glyph unicode="&#xb6;" horiz-adv-x="1366" d="M184 1049q0 66 19.5 129t60.5 116q43 53 91 84t97.5 45.5t96.5 18.5t86 4h455v-90h-70v-1698h-94v1698h-322v-1698h-94v1018q-49 8 -109.5 26.5t-119.5 81.5q-49 53 -73 123t-24 142z" />
<glyph unicode="&#xb7;" horiz-adv-x="425" d="M117 494q2 20 3 39.5t1 39.5t-1 41t-3 41l14 15q25 0 42 1t33.5 2t36 3t48.5 4l16 -14q0 -27 -1 -45.5t-1 -35t1 -36t3 -49.5l-16 -15q-25 0 -42.5 -1t-33.5 -2t-36.5 -2t-47.5 -3z" />
<glyph unicode="&#xb8;" horiz-adv-x="598" d="M170 -362q18 35 32.5 60.5t28 52t29.5 59t39 81.5l16 13h44t61 -2l8 -13q-16 -47 -26.5 -79.5t-18.5 -59t-16.5 -53.5t-18.5 -64l-16 -14q-25 0 -41.5 1t-31.5 1t-32.5 -1t-44.5 -1z" />
<glyph unicode="&#xb9;" horiz-adv-x="811" d="M244 1294q2 23 2 32v32l12 16q37 4 64.5 7t52 7.5t49.5 8.5t53 8l19 -14q-6 -127 -7 -254v-100.5t2.5 -168t4.5 -195t6 -177.5l-15 -13q-33 -2 -44 -2t-44 -2l-14 15q2 37 2 67.5v91.5v73t-1 113.5t-1 134t-1 135.5t-1 116v78q-41 -8 -62.5 -11.5t-58.5 -11.5z" />
<glyph unicode="&#xba;" horiz-adv-x="724" d="M51 1100q0 182 90 270t232 88q78 0 134 -26.5t93 -73.5t55.5 -111.5t18.5 -140.5q0 -23 -2 -54.5t-9.5 -68.5t-24.5 -75t-48 -72q-53 -61 -116.5 -79t-117.5 -18q-61 0 -116.5 19.5t-97.5 62.5t-66.5 111.5t-24.5 167.5zM156 1102q0 -18 3 -64.5t22.5 -93.5t61.5 -83 t119 -36q63 0 103.5 24.5t64 63.5t31.5 89.5t8 101.5q0 37 -7 83t-28.5 87t-61.5 69.5t-105 28.5q-45 0 -76 -10q-41 -12 -66.5 -39t-41 -62.5t-21.5 -76.5t-6 -82z" />
<glyph unicode="&#xbb;" horiz-adv-x="724" d="M20 932l11 16h22.5t36 1t36.5 1h24l20 -10q33 -70 60.5 -120t37.5 -70q0 -2 16.5 -31t37.5 -64q23 -41 51 -92v-24q-4 -8 -9.5 -15.5t-9.5 -17.5q-6 -12 -23.5 -45t-41 -79t-50 -102.5t-53.5 -113.5l-20 -12h-65.5t-53.5 -2l-8 16q4 8 16.5 30.5t26.5 48t26.5 48 t18.5 33.5q8 14 14 26.5t18.5 35t31 58t51.5 97.5q-27 53 -62 116.5t-68.5 120t-59 98.5t-32.5 52zM322 932l10 16h23.5t36 1t35.5 1h24l20 -10q16 -35 40 -81t58 -109q0 -2 16.5 -31t37.5 -64q23 -41 53 -92l-2 -24q-4 -8 -8 -15.5t-9 -17.5q-8 -12 -25.5 -45t-41 -79 t-50 -102.5t-53.5 -113.5l-18 -12h-67.5t-53.5 -2l-8 16q4 8 16.5 30.5t26.5 48t26.5 48t18.5 33.5q8 16 15.5 30.5t19.5 36t30.5 56t49.5 94.5q-27 55 -63 119.5t-69.5 122t-59 98.5t-29.5 47z" />
<glyph unicode="&#xbc;" horiz-adv-x="1878" d="M244 1292q2 23 2 33v33l12 16q37 4 64.5 7t52 6.5t49.5 7.5t53 8l19 -12q-6 -127 -7 -254v-100.5t2.5 -168t4.5 -195t6 -177.5l-15 -15h-44t-44 -2l-14 15q2 37 2 67.5v91.5v73t-1 113.5t-1 133t-1 134t-1 117v76.5q-41 -6 -62.5 -9t-58.5 -11zM600 14q23 47 43.5 91.5 t44 97.5t53 123.5t70.5 173.5l209 504q20 53 41.5 105t44.5 105t34 84t25 74l23 14h41t35 3l14 -15q-35 -76 -60.5 -130t-45 -101t-39 -91t-41.5 -100l-203 -495q-55 -137 -87 -214t-48.5 -120t-24.5 -63.5t-16 -45.5l-19 -14h-44t-38 -4zM1128 276q2 18 2 28.5t3 29.5l8 18 q43 61 100 143.5t112.5 163t100.5 147t64 95.5l16 10h35.5h28t25.5 1t32 1l18 -12v-266v-287h36h25.5t25 1t32.5 1l18 -14q-2 -16 -3 -25.5t-3 -31.5l-14 -17q-43 2 -63.5 2h-53.5q0 -61 1 -98t1 -61.5t1 -43t3 -41.5l-14 -18h-22.5h-16.5t-17.5 -1t-23.5 -1l-14 14 q0 20 1 53t1 69v70v56h-201h-45t-69.5 -1t-69.5 -1h-47zM1245 348h328l4 483z" />
<glyph unicode="&#xbd;" horiz-adv-x="1878" d="M244 1292q2 23 2 33v31l12 18q37 4 64.5 7t52 6.5t49.5 7.5t53 8l19 -12q-6 -129 -7 -254v-101.5t2.5 -169t4.5 -195t6 -175.5l-15 -15h-44t-44 -2l-14 15q2 37 2 67.5v89.5v73t-1 114.5t-1 134t-1 134t-1 117v76.5q-41 -6 -62.5 -9t-58.5 -11zM516 12q23 49 43.5 93.5 t44 98.5t53 123.5t70.5 172.5l209 501q23 53 43 106.5t43 106.5q10 27 18.5 46.5t15.5 37t13 35t14 39.5l21 14h41t37 3l12 -15q-35 -76 -59.5 -130t-45 -101t-40 -92t-41.5 -101l-203 -493q-55 -137 -87 -214t-48.5 -120t-24.5 -63.5t-16 -45.5l-19 -14q-31 0 -44 -1 t-38 -3zM1124 23q8 8 32 31.5t52.5 51t56 54t44.5 43.5l73.5 73.5t71.5 73.5q92 94 134 158.5t42 134.5q0 35 -11 70t-35.5 61.5t-62.5 43t-89 16.5q-49 0 -89 -12.5t-71 -30t-54.5 -36t-37.5 -32.5l-21 14q2 14 3 22.5t1 17.5v19.5v26.5l8 17q37 25 101.5 55.5t167.5 30.5 q76 0 132 -22.5t93 -61.5t54.5 -88t17.5 -101q0 -59 -18.5 -109t-54.5 -100.5t-90 -106.5t-128 -130l-123 -119h119q49 0 80.5 1t62.5 2t70 2t102 3l15 -14q-4 -23 -5.5 -38t-3.5 -32l-16 -14q-10 2 -27.5 2h-81.5h-391h-56.5h-30.5t-16 -1t-11 -1z" />
<glyph unicode="&#xbe;" horiz-adv-x="1878" d="M72 555q4 27 4 39t2 39l22 8q104 -88 238 -88q109 0 175.5 56.5t66.5 152.5q0 86 -62.5 135t-155.5 49q-39 0 -68.5 -6t-57.5 -14l-17 20l105 133q20 25 38.5 50.5t36.5 50.5q4 6 18.5 25.5t30 41t28.5 39.5l13 17h-145h-45t-69.5 -1.5t-69.5 -2.5t-47 -1l-13 19 q2 14 3 25.5t1 33.5l17 15q4 0 9 -1t16.5 -1h31h53.5h306h86t28 2l11 -23q-47 -57 -97.5 -122.5t-99.5 -131.5l-59 -86q47 -4 97 -13t99 -52q35 -33 58.5 -83.5t23.5 -117.5q0 -129 -90 -214t-252 -85q-76 0 -140.5 17.5t-123.5 58.5zM612 14q23 47 43.5 91.5t43 97.5 t52 123.5t70.5 173.5l209 504q23 53 43.5 105t42.5 105q12 27 20.5 46.5t14.5 37l12 35t15 39.5l20 14h42t36 3l12 -15q-35 -76 -59.5 -130t-44 -101t-39 -92t-41.5 -101l-203 -493q-55 -137 -87 -214t-49 -120t-24.5 -63.5t-15.5 -45.5l-20 -14h-43.5t-38.5 -4zM1128 276 q2 18 2 28.5t3 29.5l6 18q45 61 102 143.5t112.5 163t100.5 147t64 95.5l16 10h35.5h28t25.5 1t32 1l18 -12v-266v-287h36h25.5t25 1t32.5 1l18 -14q-2 -16 -3 -25.5t-3 -31.5l-14 -17q-43 2 -63.5 2h-53.5q0 -61 1 -98t1 -61.5t1 -43t3 -41.5l-14 -18h-22.5h-16.5t-17.5 -1 t-23.5 -1l-14 14q0 20 1 53t1 69v70v56h-201h-45t-69.5 -1t-69.5 -1h-47zM1245 348h328l4 483z" />
<glyph unicode="&#xbf;" horiz-adv-x="768" d="M41 358q0 55 13.5 105.5t35 97.5t48 91t52.5 87l39 62q33 49 55.5 90t37 81t19.5 84t3 99l14 19h48.5t46.5 4l16 -15q0 -72 -5 -124t-18.5 -97t-37 -89t-60.5 -99l-37 -56q-20 -31 -43.5 -67.5t-43 -79.5t-32 -89t-12.5 -95q0 -57 20.5 -105.5t56.5 -84.5t85 -55.5 t109 -19.5q51 0 95 12.5t80 29t62.5 34t40.5 27.5l19 -10q-4 -35 -4.5 -52.5t-2.5 -48.5l-12 -22q-55 -27 -127 -53.5t-172 -26.5q-94 0 -167 29.5t-122 80t-74.5 117t-25.5 139.5zM301 1546l16 15h42.5t34 1t36 2t47.5 3l15 -15q0 -20 -1.5 -39.5t-1.5 -39.5 q0 -23 1.5 -42.5t1.5 -39.5l-15 -17q-25 0 -41 -1t-32.5 -2t-36 -2t-50.5 -3l-14 14q0 27 1 44.5t1 35t-1 37t-3 49.5z" />
<glyph unicode="&#xc0;" horiz-adv-x="1150" d="M0 18q27 74 45 126.5t35.5 101.5t36 104.5t43.5 132.5l315 953l12 12l175 4l14 -10l110 -338l152 -455q39 -119 65.5 -200.5t49 -149.5t45 -132.5t53.5 -148.5l-10 -14l-140 -4l-12 14q-18 68 -30.5 114t-24.5 90t-27.5 93t-38.5 121l-16 49h-526l-41 -2l-25 -73 q-23 -70 -36 -116t-25.5 -87t-23.5 -84t-28 -107l-16 -12h-121zM317 592q59 -2 117 -2h117q66 0 129 1t133 1l-250 782zM317 1798l7 19h59.5h40.5t38.5 1t53.5 1l19 -17q2 -4 3 -8t3 -8q0 -2 11 -28.5t27.5 -63.5t34 -77t33.5 -69l-10 -14h-25h-14t-22.5 -1t-22.5 -1h-12 l-17 8q-37 47 -59.5 78t-44 56.5t-44 53t-59.5 70.5z" />
<glyph unicode="&#xc1;" horiz-adv-x="1150" d="M0 18q27 74 45 126.5t35.5 101.5t36 104.5t43.5 132.5l315 953l12 12l175 4l14 -10l110 -338l152 -455q39 -119 65.5 -200.5t49 -149.5t45 -132.5t53.5 -148.5l-10 -14l-140 -4l-12 14q-18 68 -30.5 114t-24.5 90t-27.5 93t-38.5 121l-16 49h-526l-41 -2l-25 -73 q-23 -70 -36 -116t-25.5 -87t-23.5 -84t-28 -107l-16 -12h-121zM317 592q59 -2 117 -2h117q66 0 129 1t133 1l-250 782zM485 1546q37 78 63.5 147.5t37.5 104.5l18 17h57.5h43t43 1t57.5 3l4 -21q-37 -43 -61.5 -72.5t-45 -56.5t-43 -56.5t-53.5 -72.5l-14 -10 q-31 4 -47.5 4t-50.5 -2z" />
<glyph unicode="&#xc2;" horiz-adv-x="1150" d="M0 18q27 74 45 126.5t35.5 101.5t36 104.5t43.5 132.5l315 953l12 12l175 4l14 -10l110 -338l152 -455q39 -119 65.5 -200.5t49 -149.5t45 -132.5t53.5 -148.5l-10 -14l-140 -4l-12 14q-18 68 -30.5 114t-24.5 90t-27.5 93t-38.5 121l-16 49h-526l-41 -2l-25 -73 q-23 -70 -36 -116t-25.5 -87t-23.5 -84t-28 -107l-16 -12h-121zM299 1548q6 6 26.5 39t45 74t50 82t40.5 67l16 9q29 0 55.5 -1t55.5 -1q6 0 21.5 1t32.5 1t33.5 1t22.5 1l17 -9q27 -45 44 -73.5t32.5 -55t35 -56.5t50.5 -79l-11 -12h-32t-19 -2q-43 0 -82 -6l-18 8 q-23 39 -38 63.5t-30.5 47t-32 47t-43.5 61.5q-25 -37 -42 -62.5t-31.5 -48t-28.5 -46t-35 -58.5l-16 -8q-18 2 -30.5 2h-25.5h-29.5t-29.5 -2zM317 592q59 -2 117 -2h117q66 0 129 1t133 1l-250 782z" />
<glyph unicode="&#xc3;" horiz-adv-x="1150" d="M0 18q27 74 45 126.5t35.5 101.5t36 104.5t43.5 132.5l315 953l12 12l175 4l14 -10l110 -338l152 -455q39 -119 65.5 -200.5t49 -149.5t45 -132.5t53.5 -148.5l-10 -14l-140 -4l-12 14q-18 68 -30.5 114t-24.5 90t-27.5 93t-38.5 121l-16 49h-526l-41 -2l-25 -73 q-23 -70 -36 -116t-25.5 -87t-23.5 -84t-28 -107l-16 -12h-121zM272 1577q2 35 2 52.5v45.5l11 15q23 27 63.5 57.5t106.5 30.5q37 0 67.5 -12.5t63.5 -30.5l53 -27q23 -12 45.5 -21.5t50.5 -9.5q57 0 91 31t57 59l16 -8q-2 -12 -2 -24.5v-26.5v-23.5t-2 -23.5l-8 -14 q-27 -29 -66 -58.5t-104 -29.5q-41 0 -73 12t-60 28l-52 29q-23 10 -47 20.5t-53 10.5q-53 0 -87 -32t-56 -58zM317 592q59 -2 117 -2h117q66 0 129 1t133 1l-250 782z" />
<glyph unicode="&#xc4;" horiz-adv-x="1150" d="M0 18q27 74 45 126.5t35.5 101.5t36 104.5t43.5 132.5l315 953l12 12l175 4l14 -10l110 -338l152 -455q39 -119 65.5 -200.5t49 -149.5t45 -132.5t53.5 -148.5l-10 -14l-140 -4l-12 14q-18 68 -30.5 114t-24.5 90t-27.5 93t-38.5 121l-16 49h-526l-41 -2l-25 -73 q-23 -70 -36 -116t-25.5 -87t-23.5 -84t-28 -107l-16 -12h-121zM266 1591q2 25 3 41.5t1 30.5t-1 27.5t-1 35.5l17 17q47 2 68.5 2t62.5 4l14 -16q0 -25 -1 -40.5t-1 -29.5v-28.5v-37.5l-14 -16q-20 0 -36 -1t-29 -1t-28.5 -1t-37.5 -3zM317 592q59 -2 117 -2h117 q66 0 129 1t133 1l-250 782zM707 1591q2 25 3 41.5t1 30.5t-1 27.5t-1 35.5l16 17q47 2 68.5 2t62.5 4l14 -16q0 -25 -1 -40.5t-1 -29.5v-28.5v-37.5l-14 -16q-20 0 -35.5 -1t-29 -1t-29 -1t-37.5 -3z" />
<glyph unicode="&#xc5;" horiz-adv-x="1150" d="M0 18q27 74 45 126.5t35.5 101.5t36 104.5t43.5 132.5l315 953l12 12l175 4l14 -10l110 -338l152 -455q39 -119 65.5 -200.5t49 -149.5t45 -132.5t53.5 -148.5l-10 -14l-140 -4l-12 14q-18 68 -30.5 114t-24.5 90t-27.5 93t-38.5 121l-16 49h-526l-41 -2l-25 -73 q-23 -70 -36 -116t-25.5 -87t-23.5 -84t-28 -107l-16 -12h-121zM317 592q59 -2 117 -2h117q66 0 129 1t133 1l-250 782zM369 1720q0 90 58 143.5t144 53.5q41 0 78 -13.5t64.5 -40t43 -63.5t15.5 -84q-2 -82 -53 -136t-148 -54q-98 0 -150 55t-52 139zM473 1722 q0 -68 29.5 -95.5t70.5 -27.5q29 0 47.5 12.5t28.5 30t14.5 36t4.5 30.5q4 57 -21.5 97t-77.5 40q-35 0 -65.5 -27.5t-30.5 -95.5z" />
<glyph unicode="&#xc6;" horiz-adv-x="1665" d="M0 14l25 58q23 55 37 89t27 65.5t28.5 69.5t40.5 97l100 248l121 297q33 84 55.5 140.5t41 107.5t39 107.5t48.5 140.5l15 12h610l373 4l12 -12l-8 -99l-15 -10q-96 2 -158.5 4t-115.5 3t-112.5 1h-149.5h-117v-530l203 2l432 8l10 -12l-8 -98l-14 -11l-426 4h-195 l10 -591h178l488 14l12 -14l-8 -99l-12 -12l-164 2h-459l-166 -6l-12 10v459l-453 -4l-37 -97l-126 -352l-13 -10h-127zM358 569h410l-8 772h-101z" />
<glyph unicode="&#xc7;" horiz-adv-x="1236" d="M88 713q0 147 44 285.5t133 244t222.5 170t311.5 64.5q76 0 179 -17.5t202 -73.5l10 -16q-8 -31 -10 -49t-6 -59l-15 -11q-78 57 -171 85t-191 28q-160 0 -268.5 -61.5t-175 -156.5t-96.5 -209t-30 -218q0 -129 40 -244t114 -202t180.5 -137t241.5 -50q80 0 145.5 17.5 t116.5 39.5q47 23 74.5 43.5t52.5 42.5l16 -10q-4 -18 -5 -31.5t-3 -25.5t-2 -26.5v-37.5l-10 -20q-8 -4 -16.5 -10.5t-16.5 -10.5q-76 -43 -170 -65.5t-197 -22.5q-184 0 -317 64.5t-218 169t-125 237.5t-40 273zM625 -362q18 35 32.5 61.5t27.5 53t29.5 59t39.5 82.5 l16 10h44t60 -2l9 -13q-16 -47 -26.5 -78.5t-19 -58t-16.5 -54.5t-18 -65l-17 -14q-25 0 -41 1t-31.5 1t-32.5 -1t-44 -1z" />
<glyph unicode="&#xc8;" horiz-adv-x="1067" d="M154 1436l12 12l143 -2h367l289 4l12 -10l-6 -99l-17 -12l-538 6l-117 2v-528h203l430 4l12 -12l-4 -92l-18 -11q-61 2 -108.5 3t-108.5 1h-104.5t-104.5 -2h-195l10 -589h178l492 8l8 -13l-8 -100l-8 -6h-625l-166 -8l-14 14q0 49 1 90t2 78t1 73v77q0 555 -18 1112z M274 1798l7 19h59h40.5t39 1t53.5 1l19 -17q2 -4 3 -8t3 -8q0 -2 11 -28.5t27.5 -63.5t34 -77t33.5 -69l-10 -14h-25h-14t-22.5 -1t-22.5 -1h-12l-17 8q-37 47 -59.5 78t-44 56.5t-44 53t-59.5 70.5z" />
<glyph unicode="&#xc9;" horiz-adv-x="1067" d="M154 1436l12 12l143 -2h367l289 4l12 -10l-6 -99l-17 -12l-538 6l-117 2v-528h203l430 4l12 -12l-4 -92l-18 -11q-61 2 -108.5 3t-108.5 1h-104.5t-104.5 -2h-195l10 -589h178l492 8l8 -13l-8 -100l-8 -6h-625l-166 -8l-14 14q0 49 1 90t2 78t1 73v77q0 555 -18 1112z M442 1546q37 78 63.5 147.5t37.5 104.5l18 17h57.5h43t43 1t57.5 3l4 -21q-37 -43 -61.5 -72.5t-45 -56.5t-43 -56.5t-53.5 -72.5l-14 -10q-31 4 -47.5 4t-50.5 -2z" />
<glyph unicode="&#xca;" horiz-adv-x="1067" d="M154 1436l12 12l143 -2h367l289 4l12 -10l-6 -99l-17 -12l-538 6l-117 2v-528h203l430 4l12 -12l-4 -92l-18 -11q-61 2 -108.5 3t-108.5 1h-104.5t-104.5 -2h-195l10 -589h178l492 8l8 -13l-8 -100l-8 -6h-625l-166 -8l-14 14q0 49 1 90t2 78t1 73v77q0 555 -18 1112z M279 1548q6 6 26.5 39t45 74t50 82t39.5 67l17 9q29 0 55.5 -1t54.5 -1q6 0 21.5 1t33 1t34 1t22.5 1l16 -9q27 -45 44.5 -73.5t32.5 -55t34.5 -56.5t50.5 -79l-10 -12h-32t-19 -2q-43 0 -82 -6l-19 8q-23 39 -38 63.5t-30.5 47t-31.5 47t-43 61.5q-25 -37 -42 -62.5 t-31.5 -48t-29 -46t-34.5 -58.5l-17 -8q-18 2 -30.5 2h-24.5h-29.5t-29.5 -2z" />
<glyph unicode="&#xcb;" horiz-adv-x="1067" d="M154 1436l12 12l143 -2h367l289 4l12 -10l-6 -99l-17 -12l-538 6l-117 2v-528h203l430 4l12 -12l-4 -92l-18 -11q-61 2 -108.5 3t-108.5 1h-104.5t-104.5 -2h-195l10 -589h178l492 8l8 -13l-8 -100l-8 -6h-625l-166 -8l-14 14q0 49 1 90t2 78t1 73v77q0 555 -18 1112z M252 1591q2 25 3 41.5t1 30.5t-1 27.5t-1 35.5l16 17q47 2 68.5 2t62.5 4l15 -16q0 -25 -1 -40.5t-1 -29.5v-28.5v-37.5l-15 -16q-20 0 -35.5 -1t-28.5 -1t-28.5 -1t-38.5 -3zM692 1591q2 25 3 41.5t1 30.5t-1 27.5t-1 35.5l17 17q47 2 68.5 2t62.5 4l14 -16q0 -25 -1 -40.5 t-1 -29.5v-28.5v-37.5l-14 -16q-20 0 -36 -1t-29 -1t-28.5 -1t-37.5 -3z" />
<glyph unicode="&#xcc;" horiz-adv-x="468" d="M-23 1798l7 19h59.5h40.5t38.5 1t53.5 1l19 -17q2 -4 3 -8t3 -8q0 -2 11 -28.5t27.5 -63.5t34 -77t33.5 -69l-10 -14h-25h-14t-22.5 -1t-22.5 -1h-12l-17 8q-37 47 -59.5 78t-44 56.5t-44 53t-59.5 70.5zM152 1436l12 10l127 4l12 -12q0 -121 -1 -240t-1 -240 q0 -133 1 -242.5t3 -217t5 -224t7 -262.5l-12 -12l-127 -2l-12 12q0 43 1 82l2 78t1 80v90q0 100 -1 235.5t-3 283t-5 298t-9 279.5z" />
<glyph unicode="&#xcd;" horiz-adv-x="468" d="M145 1546q37 78 64 147.5t37 104.5l18 17h57.5h43t43 1t57.5 3l4 -21q-37 -43 -61.5 -72.5t-45 -56.5t-43 -56.5t-53.5 -72.5l-14 -10q-31 4 -47.5 4t-50.5 -2zM152 1436l12 10l127 4l12 -12q0 -121 -1 -240t-1 -240q0 -133 1 -242.5t3 -217t5 -224t7 -262.5l-12 -12 l-127 -2l-12 12q0 43 1 82l2 78t1 80v90q0 100 -1 235.5t-3 283t-5 298t-9 279.5z" />
<glyph unicode="&#xce;" horiz-adv-x="468" d="M-41 1548q6 6 26.5 39t45 74t50 82t40.5 67l16 9q29 0 55.5 -1t55.5 -1q6 0 21.5 1t32.5 1t33.5 1t22.5 1l17 -9q27 -45 44 -73.5t32.5 -55t35 -56.5t50.5 -79l-11 -12h-32t-19 -2q-43 0 -82 -6l-18 8q-23 39 -38 63.5t-30.5 47t-32 47t-43.5 61.5q-25 -37 -42 -62.5 t-31.5 -48t-28.5 -46t-35 -58.5l-16 -8q-18 2 -30.5 2h-24.5h-29.5t-30.5 -2zM152 1436l12 10l127 4l12 -12q0 -121 -1 -240t-1 -240q0 -133 1 -242.5t3 -217t5 -224t7 -262.5l-12 -12l-127 -2l-12 12q0 43 1 82l2 78t1 80v90q0 100 -1 235.5t-3 283t-5 298t-9 279.5z" />
<glyph unicode="&#xcf;" horiz-adv-x="468" d="M-68 1591q2 25 3.5 41.5t1.5 30.5t-1.5 27.5t-1.5 35.5l17 17q47 2 68.5 2t62.5 4l14 -16q0 -25 -1 -40.5t-1 -29.5v-28.5v-37.5l-14 -16q-20 0 -35.5 -1t-29 -1t-29 -1t-37.5 -3zM152 1436l12 10l127 4l12 -12q0 -121 -1 -240t-1 -240q0 -133 1 -242.5t3 -217t5 -224 t7 -262.5l-12 -12l-127 -2l-12 12q0 43 1 82l2 78t1 80v90q0 100 -1 235.5t-3 283t-5 298t-9 279.5zM373 1591q2 25 3 41.5t1 30.5t-1 27.5t-1 35.5l16 17q47 2 68.5 2t62.5 4l15 -16q0 -25 -1 -40.5t-1 -29.5v-28.5v-37.5l-15 -16q-20 0 -35.5 -1t-29 -1t-28.5 -1t-38 -3z " />
<glyph unicode="&#xd0;" horiz-adv-x="1409" d="M4 731v82l12 12l154 -2q-2 109 -3 191t-3 150.5t-4 133t-6 138.5l12 12h36.5h56.5h56.5h36.5h90q41 2 79 3t75 1q96 0 183 -10t164 -38t141.5 -74t115.5 -120q53 -74 86 -185.5t33 -262.5q0 -123 -26.5 -238.5t-92.5 -218.5q-74 -115 -168 -177t-194.5 -91t-199.5 -34 t-179 -5l-86 2h-78h-47.5t-32.5 -1t-33 -3l-12 12v688v23h-154zM301 529.5q0 -74.5 2 -136t3 -126t5 -161.5h135q66 0 128.5 2.5t122 10.5t115.5 25.5t110 50.5q133 84 196.5 234.5t63.5 342.5q0 31 -3 81t-16.5 109.5t-41 121t-77.5 114.5q-49 51 -106 80t-118.5 43 t-125 18t-123.5 4q-33 0 -66.5 -1t-49.5 -1l-154 -2v-58v-90v-107.5v-108.5v-92v-62h99h90.5t113 1t166.5 3l12 -12q-2 -29 -2 -42t2 -40l-12 -12q-100 2 -164.5 3t-114 1t-92.5 -1t-98 -1v-191.5z" />
<glyph unicode="&#xd1;" horiz-adv-x="1409" d="M154 1436l12 12l180 4l19 -12q14 -25 24 -40.5t19.5 -30.5t20.5 -35.5t30 -53.5q47 -84 107.5 -185.5t135.5 -230.5l428 -760q-2 160 -2 285t-2 229.5t-3 195.5t-3 186.5t-5 201t-7 236.5l10 10l109 4l12 -10q-2 -80 -3 -152.5t-1 -171.5q0 -129 1 -270t3 -283.5t5 -283 t9 -267.5l-12 -12l-182 -4l-17 10q-12 18 -28.5 45t-39 66t-53 92t-73.5 127l-567 1005l6 -608q0 -135 1 -219t3 -155.5t4 -149.5t6 -197l-12 -14l-109 -2l-12 12q0 117 1 229.5t1 229.5q0 125 -1 236.5t-3 223t-5 234.5t-7 273zM401 1577q2 35 2 52.5v45.5l11 15 q23 27 63.5 57.5t106.5 30.5q37 0 67.5 -12.5t63.5 -30.5l53 -27q23 -12 45.5 -21.5t50.5 -9.5q57 0 91 31t57 59l16 -8q-2 -12 -2 -24.5v-26.5v-23.5t-2 -23.5l-8 -14q-27 -29 -66 -58.5t-104 -29.5q-41 0 -73 12t-60 28l-51 29q-23 10 -47.5 20.5t-53.5 10.5 q-53 0 -87 -32t-56 -58z" />
<glyph unicode="&#xd2;" horiz-adv-x="1492" d="M90 727q0 139 36 274.5t116 241t205.5 170t308.5 64.5q168 0 290.5 -57.5t201.5 -158t117 -238.5t38 -300q0 -172 -44 -311.5t-128 -237.5t-204 -151.5t-273 -53.5q-147 0 -257 40t-188 114q-119 113 -169 269.5t-50 334.5zM227 725q0 -92 21.5 -204.5t78 -211t158 -165 t260.5 -66.5q80 0 142.5 15.5t107.5 39.5q135 72 204 229.5t67 360.5q0 29 -3 84t-15.5 119.5t-36 132t-62.5 123.5q-51 70 -110.5 107.5t-113 55t-97.5 20.5t-64 3q-113 0 -197 -29.5t-141 -78.5q-37 -33 -72 -83.5t-63.5 -118t-46 -151.5t-17.5 -182zM489 1798l7 19h59.5 h40.5t38.5 1t53.5 1l19 -17q2 -4 3 -8t3 -8q0 -2 11 -28.5t27.5 -63.5t34 -77t33.5 -69l-10 -14h-25h-14t-22.5 -1t-22.5 -1h-12l-17 8q-37 47 -59.5 78t-44 56.5t-44 53t-59.5 70.5z" />
<glyph unicode="&#xd3;" horiz-adv-x="1492" d="M90 727q0 139 36 274.5t116 241t205.5 170t308.5 64.5q168 0 290.5 -57.5t201.5 -158t117 -238.5t38 -300q0 -172 -44 -311.5t-128 -237.5t-204 -151.5t-273 -53.5q-147 0 -257 40t-188 114q-119 113 -169 269.5t-50 334.5zM227 725q0 -92 21.5 -204.5t78 -211t158 -165 t260.5 -66.5q80 0 142.5 15.5t107.5 39.5q135 72 204 229.5t67 360.5q0 29 -3 84t-15.5 119.5t-36 132t-62.5 123.5q-51 70 -110.5 107.5t-113 55t-97.5 20.5t-64 3q-113 0 -197 -29.5t-141 -78.5q-37 -33 -72 -83.5t-63.5 -118t-46 -151.5t-17.5 -182zM657 1546 q37 78 64 147.5t37 104.5l18 17h57.5h43t43 1t57.5 3l4 -21q-37 -43 -61.5 -72.5t-45 -56.5t-43 -56.5t-53.5 -72.5l-14 -10q-31 4 -47.5 4t-50.5 -2z" />
<glyph unicode="&#xd4;" horiz-adv-x="1492" d="M90 727q0 139 36 274.5t116 241t205.5 170t308.5 64.5q168 0 290.5 -57.5t201.5 -158t117 -238.5t38 -300q0 -172 -44 -311.5t-128 -237.5t-204 -151.5t-273 -53.5q-147 0 -257 40t-188 114q-119 113 -169 269.5t-50 334.5zM227 725q0 -92 21.5 -204.5t78 -211t158 -165 t260.5 -66.5q80 0 142.5 15.5t107.5 39.5q135 72 204 229.5t67 360.5q0 29 -3 84t-15.5 119.5t-36 132t-62.5 123.5q-51 70 -110.5 107.5t-113 55t-97.5 20.5t-64 3q-113 0 -197 -29.5t-141 -78.5q-37 -33 -72 -83.5t-63.5 -118t-46 -151.5t-17.5 -182zM471 1548 q6 6 26.5 39t45 74t50 82t40.5 67l16 9q29 0 55.5 -1t55.5 -1q6 0 21.5 1t32.5 1t33.5 1t22.5 1l17 -9q27 -45 44 -73.5t32.5 -55t35 -56.5t50.5 -79l-11 -12h-32t-19 -2q-43 0 -82 -6l-18 8q-23 39 -38 63.5t-30.5 47t-32 47t-43.5 61.5q-25 -37 -42 -62.5t-31.5 -48 t-28.5 -46t-35 -58.5l-16 -8q-18 2 -30.5 2h-24.5h-29.5t-30.5 -2z" />
<glyph unicode="&#xd5;" horiz-adv-x="1492" d="M90 727q0 139 36 274.5t116 241t205.5 170t308.5 64.5q168 0 290.5 -57.5t201.5 -158t117 -238.5t38 -300q0 -172 -44 -311.5t-128 -237.5t-204 -151.5t-273 -53.5q-147 0 -257 40t-188 114q-119 113 -169 269.5t-50 334.5zM227 725q0 -92 21.5 -204.5t78 -211t158 -165 t260.5 -66.5q80 0 142.5 15.5t107.5 39.5q135 72 204 229.5t67 360.5q0 29 -3 84t-15.5 119.5t-36 132t-62.5 123.5q-51 70 -110.5 107.5t-113 55t-97.5 20.5t-64 3q-113 0 -197 -29.5t-141 -78.5q-37 -33 -72 -83.5t-63.5 -118t-46 -151.5t-17.5 -182zM444 1577 q2 35 2 52.5v45.5l11 15q23 27 63.5 57.5t106.5 30.5q37 0 67.5 -12.5t63.5 -30.5l53 -27q23 -12 45.5 -21.5t50.5 -9.5q57 0 91 31t57 59l16 -8q-2 -12 -2 -24.5v-26.5v-23.5t-2 -23.5l-8 -14q-27 -29 -66 -58.5t-104 -29.5q-41 0 -73 12t-60 28l-51 29q-23 10 -47.5 20.5 t-53.5 10.5q-53 0 -87 -32t-56 -58z" />
<glyph unicode="&#xd6;" horiz-adv-x="1492" d="M90 727q0 139 36 274.5t116 241t205.5 170t308.5 64.5q168 0 290.5 -57.5t201.5 -158t117 -238.5t38 -300q0 -172 -44 -311.5t-128 -237.5t-204 -151.5t-273 -53.5q-147 0 -257 40t-188 114q-119 113 -169 269.5t-50 334.5zM227 725q0 -92 21.5 -204.5t78 -211t158 -165 t260.5 -66.5q80 0 142.5 15.5t107.5 39.5q135 72 204 229.5t67 360.5q0 29 -3 84t-15.5 119.5t-36 132t-62.5 123.5q-51 70 -110.5 107.5t-113 55t-97.5 20.5t-64 3q-113 0 -197 -29.5t-141 -78.5q-37 -33 -72 -83.5t-63.5 -118t-46 -151.5t-17.5 -182zM451 1591 q2 25 3 41.5t1 30.5t-1 27.5t-1 35.5l16 17q47 2 68.5 2t62.5 4l14 -16q0 -25 -1 -40.5t-1 -29.5v-28.5v-37.5l-14 -16q-20 0 -35.5 -1t-29 -1t-29 -1t-37.5 -3zM891 1591q2 25 3 41.5t1 30.5t-1 27.5t-1 35.5l16 17q47 2 68.5 2t62.5 4l15 -16q0 -25 -1 -40.5t-1 -29.5 v-28.5v-37.5l-15 -16q-20 0 -35.5 -1t-28.5 -1t-28.5 -1t-38.5 -3z" />
<glyph unicode="&#xd7;" horiz-adv-x="1366" d="M172 170l424 426l-424 422l86 86l424 -424l426 424l84 -86l-424 -422l424 -426l-84 -84l-426 424l-424 -424z" />
<glyph unicode="&#xd8;" horiz-adv-x="1492" d="M37 39v22q39 33 65.5 57.5t46 44l35 35l31.5 31.5q-18 33 -39.5 76t-41 100.5t-32 131t-12.5 168.5q0 193 48 337t135 240t211 145.5t276 49.5q70 0 138.5 -10.5t133.5 -39.5q96 -43 144.5 -91t72.5 -79q41 39 77 75t89 95l25 -2l57 -57l2 -20q-10 -10 -37.5 -35 t-58.5 -53.5t-57.5 -54t-38.5 -36.5q35 -68 65.5 -172t30.5 -278q0 -166 -50 -322.5t-169 -271.5q-31 -29 -71 -56.5t-92 -50t-118.5 -36t-146.5 -13.5q-102 0 -176 16.5t-130.5 42t-97.5 58.5t-73 64q-8 -10 -15.5 -19.5t-17.5 -19.5q-6 -6 -24.5 -25.5t-40 -42.5t-40 -43 t-26.5 -29l-21 2zM223 715q0 -78 10.5 -140.5t23.5 -110.5t28.5 -82t27.5 -56l844 837q-16 27 -33.5 50.5t-52.5 52.5q-55 45 -133 75.5t-178 30.5q-31 0 -78 -4t-100.5 -21.5t-108.5 -50t-102 -90.5q-82 -104 -115 -231t-33 -260zM369 244q27 -29 58.5 -58.5t75.5 -54.5 t103.5 -40t141.5 -15q102 0 173.5 24.5t121 60.5t79 74.5t47.5 69.5q31 53 50.5 113.5t30 119t13.5 109.5t3 82q0 49 -4.5 98.5t-12.5 98.5q-10 49 -19 76.5t-24 68.5z" />
<glyph unicode="&#xd9;" horiz-adv-x="1366" d="M164 578l4 612v55.5v52t-1 60.5t-3 76l12 14l131 4l10 -12q-4 -217 -8 -407.5t-4 -379.5q0 -78 1 -138t6 -109.5t16.5 -88t29.5 -71.5q33 -57 77 -90t89 -48.5t87 -19.5t71 -4q27 0 62.5 2t74.5 13.5t80 33t76 57.5q35 35 49 64t18 45q12 35 19.5 68.5t10.5 77.5t4 103.5 t1 145.5v186.5t-1 140.5t-1 108.5t-1 95.5t-3 96t-4 113l12 14l111 2l12 -12v-557l-2 -271q0 -88 -4 -170t-20 -143q-18 -68 -60.5 -127t-106 -104.5t-148.5 -71t-189 -25.5q-63 0 -126 10.5t-116 32.5q-61 25 -115.5 71t-87.5 103q-47 84 -55 185.5t-8 206.5zM424 1798 l6 19h59.5h41t39 1t53.5 1l18 -17q2 -4 3 -8t3 -8q0 -2 11.5 -28.5t27.5 -63.5t33.5 -77t34.5 -69l-11 -14h-24h-14.5t-22.5 -1t-22.5 -1h-12.5l-16 8q-37 47 -59.5 78t-44 56.5t-44 53t-59.5 70.5z" />
<glyph unicode="&#xda;" horiz-adv-x="1366" d="M164 578l4 612v55.5v52t-1 60.5t-3 76l12 14l131 4l10 -12q-4 -217 -8 -407.5t-4 -379.5q0 -78 1 -138t6 -109.5t16.5 -88t29.5 -71.5q33 -57 77 -90t89 -48.5t87 -19.5t71 -4q27 0 62.5 2t74.5 13.5t80 33t76 57.5q35 35 49 64t18 45q12 35 19.5 68.5t10.5 77.5t4 103.5 t1 145.5v186.5t-1 140.5t-1 108.5t-1 95.5t-3 96t-4 113l12 14l111 2l12 -12v-557l-2 -271q0 -88 -4 -170t-20 -143q-18 -68 -60.5 -127t-106 -104.5t-148.5 -71t-189 -25.5q-63 0 -126 10.5t-116 32.5q-61 25 -115.5 71t-87.5 103q-47 84 -55 185.5t-8 206.5zM592 1546 q37 78 63.5 147.5t36.5 104.5l19 17h57.5h42.5t43 1t57 3l4 -21q-37 -43 -61.5 -72.5t-45 -56.5t-43 -56.5t-52.5 -72.5l-15 -10q-31 4 -47 4t-51 -2z" />
<glyph unicode="&#xdb;" horiz-adv-x="1366" d="M164 578l4 612v55.5v52t-1 60.5t-3 76l12 14l131 4l10 -12q-4 -217 -8 -407.5t-4 -379.5q0 -78 1 -138t6 -109.5t16.5 -88t29.5 -71.5q33 -57 77 -90t89 -48.5t87 -19.5t71 -4q27 0 62.5 2t74.5 13.5t80 33t76 57.5q35 35 49 64t18 45q12 35 19.5 68.5t10.5 77.5t4 103.5 t1 145.5v186.5t-1 140.5t-1 108.5t-1 95.5t-3 96t-4 113l12 14l111 2l12 -12v-557l-2 -271q0 -88 -4 -170t-20 -143q-18 -68 -60.5 -127t-106 -104.5t-148.5 -71t-189 -25.5q-63 0 -126 10.5t-116 32.5q-61 25 -115.5 71t-87.5 103q-47 84 -55 185.5t-8 206.5zM406 1548 q6 6 26.5 39t45 74t50 82t39.5 67l17 9q29 0 55.5 -1t54.5 -1q6 0 21.5 1t33 1t34 1t22.5 1l16 -9q27 -45 44.5 -73.5t32.5 -55t34.5 -56.5t50.5 -79l-10 -12h-32t-19 -2q-43 0 -82 -6l-19 8q-23 39 -38 63.5t-30.5 47t-31.5 47t-43 61.5q-25 -37 -42.5 -62.5t-31.5 -48 t-28.5 -46t-34.5 -58.5l-17 -8q-18 2 -30.5 2h-24.5h-29.5t-29.5 -2z" />
<glyph unicode="&#xdc;" horiz-adv-x="1366" d="M164 578l4 612v55.5v52t-1 60.5t-3 76l12 14l131 4l10 -12q-4 -217 -8 -407.5t-4 -379.5q0 -78 1 -138t6 -109.5t16.5 -88t29.5 -71.5q33 -57 77 -90t89 -48.5t87 -19.5t71 -4q27 0 62.5 2t74.5 13.5t80 33t76 57.5q35 35 49 64t18 45q12 35 19.5 68.5t10.5 77.5t4 103.5 t1 145.5v186.5t-1 140.5t-1 108.5t-1 95.5t-3 96t-4 113l12 14l111 2l12 -12v-557l-2 -271q0 -88 -4 -170t-20 -143q-18 -68 -60.5 -127t-106 -104.5t-148.5 -71t-189 -25.5q-63 0 -126 10.5t-116 32.5q-61 25 -115.5 71t-87.5 103q-47 84 -55 185.5t-8 206.5zM393 1591 q2 25 3 41.5t1 30.5t-1 27.5t-1 35.5l17 17q47 2 68.5 2t62.5 4l14 -16q0 -25 -1 -40.5t-1 -29.5v-28.5v-37.5l-14 -16q-20 0 -36 -1t-29 -1t-28.5 -1t-37.5 -3zM834 1591q2 25 3 41.5t1 30.5t-1 27.5t-1 35.5l16 17q47 2 68.5 2t62.5 4l14 -16q0 -25 -1 -40.5t-1 -29.5 v-28.5v-37.5l-14 -16q-20 0 -35.5 -1t-29 -1t-29 -1t-37.5 -3z" />
<glyph unicode="&#xdd;" horiz-adv-x="1024" d="M2 1427l10 17l133 10l19 -12q18 -41 30.5 -71t27 -59.5t30.5 -64.5t41 -86l219 -454l129 247q33 63 57.5 111.5t50 101t55.5 116t73 155.5l16 10h119l12 -16l-233 -428l-220 -410l11 -582l-13 -12l-123 -4l-14 14q6 178 6 359q0 63 -1 113t-3 104l-211 415zM422 1546 q37 78 63.5 147.5t36.5 104.5l19 17h57.5h43t43 1t56.5 3l4 -21q-37 -43 -61.5 -72.5t-45 -56.5t-43 -56.5t-52.5 -72.5l-15 -10q-31 4 -47 4t-51 -2z" />
<glyph unicode="&#xde;" d="M154 1434l12 12q39 -2 60.5 -1l64.5 3l12 -10q0 -18 -1 -35t-1 -40.5v-61v-101.5q35 0 68.5 1t68.5 1l74 2q63 0 131 -3t133 -23q84 -25 139.5 -71t87 -99.5t45 -110.5t13.5 -106q0 -39 -10.5 -94.5t-40 -112t-84 -109.5t-140.5 -86q-90 -35 -196.5 -42t-237.5 -9h-45 v-37q0 -16 1 -56t3 -86t4 -88t2 -59l-12 -12h-57.5t-67.5 -2l-12 10q2 59 3 98t1 72v68v88q0 119 -1 262t-2 291.5t-5 290t-10 256.5zM301 732.5q0 -64.5 1 -128t3 -158.5h45q72 0 146.5 3.5t124.5 11.5q98 18 157.5 59t91 91.5t42 99.5t10.5 84q0 96 -37 152.5t-84 87 t-93 40.5t-65 12q-35 4 -67.5 6.5t-67.5 2.5q-31 0 -64.5 -1t-62.5 -1l-80 -2v-214v-145.5z" />
<glyph unicode="&#xdf;" d="M145 8l7 676l2 250q2 133 3 215t6 133t14 83t28 67q31 57 74 92t89 54t91 26.5t80 7.5q104 0 175.5 -31t115.5 -80t63.5 -108.5t19.5 -116.5q0 -53 -15 -99.5t-38.5 -85t-53.5 -73.5t-58 -68l-39 -37q-18 -18 -38 -40.5t-20 -38.5q0 -12 8.5 -22.5t18.5 -20.5l28.5 -28.5 t38.5 -37.5l91 -82q49 -43 88 -83t67.5 -81t44 -86t15.5 -102q0 -53 -19.5 -107.5t-60.5 -99.5t-105.5 -72.5t-154.5 -27.5q-82 0 -128 12t-87 29l-9 18l5 102l14 7q47 -27 88 -43.5t108 -16.5q68 0 110 19.5t66.5 48t34 63.5t9.5 66q0 72 -38 122t-104 111l-143 131 q-27 25 -44.5 42.5l-33.5 33.5q-29 29 -40 47.5t-11 34.5q0 25 21.5 52.5t60.5 66.5l37 39q29 33 56.5 67.5t50 72.5t35.5 79t13 88q0 43 -13 85t-43 75.5t-76 55t-113 21.5q-72 0 -133.5 -33.5t-90.5 -105.5q-14 -35 -21 -86t-10 -107.5t-4.5 -109.5t-1.5 -92 q0 -244 2.5 -484.5t10.5 -484.5l-13 -10l-118 -4z" />
<glyph unicode="&#xe0;" horiz-adv-x="980" d="M70 309q0 72 26.5 136.5t79.5 111.5q35 31 78 51.5t90 34.5t94 23.5t90 15.5l181 27v26q-2 41 -5.5 76t-13.5 59q-4 8 -16 24.5t-35 32t-59.5 27t-90.5 11.5q-51 0 -90 -5.5t-71.5 -15.5t-63.5 -24.5t-65 -32.5l-17 8l6 96l11 15q61 25 130.5 46t172.5 21 q111 0 174 -27.5t98 -68.5q23 -25 35 -48.5t17 -57t6.5 -82t1.5 -123.5v-127q-2 -104 -2.5 -172t2 -122.5t5.5 -106.5t7 -124l-12 -14l-109 -6l-14 12l-2 72q-139 -102 -291 -103q-78 0 -141.5 24t-109.5 67t-71.5 104t-25.5 139zM199 315q0 -41 14 -81.5t44 -73.5t75 -54.5 t108 -21.5q100 0 159.5 35t109.5 76v411l-111 -16q-68 -12 -116 -22.5t-81.5 -21.5t-59.5 -22.5t-46 -27.5q-6 -4 -21.5 -17.5t-33 -36t-29.5 -54.5t-12 -73zM254 1460l8 19h54.5h40t39 1t50.5 1l15 -13q8 -25 17 -54.5t30 -82.5q14 -39 23.5 -62.5t15.5 -39t10 -24.5t8 -21 l-10 -19h-42t-42 -4l-20 15q-31 47 -51.5 78.5t-41 61.5t-45 62.5t-59.5 81.5z" />
<glyph unicode="&#xe1;" horiz-adv-x="980" d="M70 309q0 72 26.5 136.5t79.5 111.5q35 31 78 51.5t90 34.5t94 23.5t90 15.5l181 27v26q-2 41 -5.5 76t-13.5 59q-4 8 -16 24.5t-35 32t-59.5 27t-90.5 11.5q-51 0 -90 -5.5t-71.5 -15.5t-63.5 -24.5t-65 -32.5l-17 8l6 96l11 15q61 25 130.5 46t172.5 21 q111 0 174 -27.5t98 -68.5q23 -25 35 -48.5t17 -57t6.5 -82t1.5 -123.5v-127q-2 -104 -2.5 -172t2 -122.5t5.5 -106.5t7 -124l-12 -14l-109 -6l-14 12l-2 72q-139 -102 -291 -103q-78 0 -141.5 24t-109.5 67t-71.5 104t-25.5 139zM199 315q0 -41 14 -81.5t44 -73.5t75 -54.5 t108 -21.5q100 0 159.5 35t109.5 76v411l-111 -16q-68 -12 -116 -22.5t-81.5 -21.5t-59.5 -22.5t-46 -27.5q-6 -4 -21.5 -17.5t-33 -36t-29.5 -54.5t-12 -73zM408 1180q16 37 33.5 76.5t35 78.5t32.5 74t26 64l12 10q31 -2 51 -2h43h44.5t43.5 2l8 -17q-37 -47 -62.5 -80.5 t-47 -64.5t-42 -65.5t-50.5 -84.5l-15 -10q-35 4 -51 4t-51 -2z" />
<glyph unicode="&#xe2;" horiz-adv-x="980" d="M70 309q0 72 26.5 136.5t79.5 111.5q35 31 78 51.5t90 34.5t94 23.5t90 15.5l181 27v26q-2 41 -5.5 76t-13.5 59q-4 8 -16 24.5t-35 32t-59.5 27t-90.5 11.5q-51 0 -90 -5.5t-71.5 -15.5t-63.5 -24.5t-65 -32.5l-17 8l6 96l11 15q61 25 130.5 46t172.5 21 q111 0 174 -27.5t98 -68.5q23 -25 35 -48.5t17 -57t6.5 -82t1.5 -123.5v-127q-2 -104 -2.5 -172t2 -122.5t5.5 -106.5t7 -124l-12 -14l-109 -6l-14 12l-2 72q-139 -102 -291 -103q-78 0 -141.5 24t-109.5 67t-71.5 104t-25.5 139zM199 315q0 -41 14 -81.5t44 -73.5t75 -54.5 t108 -21.5q100 0 159.5 35t109.5 76v411l-111 -16q-68 -12 -116 -22.5t-81.5 -21.5t-59.5 -22.5t-46 -27.5q-6 -4 -21.5 -17.5t-33 -36t-29.5 -54.5t-12 -73zM244 1180q4 6 14 24.5t22.5 38t23.5 37.5t15 27q10 18 19.5 33.5t19 33t20.5 40t28 52.5l14 13q35 -2 81 -1t79 1 l16 -11q2 -4 21.5 -44t43 -90t45 -95t27.5 -55l-10 -21h-111l-14 11q-20 43 -44 93t-58 130q-27 -41 -43.5 -69t-30.5 -50.5t-26.5 -46t-30.5 -55.5l-17 -13q-12 0 -23.5 1t-23.5 1t-24.5 -1t-26.5 -1z" />
<glyph unicode="&#xe3;" horiz-adv-x="980" d="M70 309q0 72 26.5 136.5t79.5 111.5q35 31 78 51.5t90 34.5t94 23.5t90 15.5l181 27v26q-2 41 -5.5 76t-13.5 59q-4 8 -16 24.5t-35 32t-59.5 27t-90.5 11.5q-51 0 -90 -5.5t-71.5 -15.5t-63.5 -24.5t-65 -32.5l-17 8l6 96l11 15q61 25 130.5 46t172.5 21 q111 0 174 -27.5t98 -68.5q23 -25 35 -48.5t17 -57t6.5 -82t1.5 -123.5v-127q-2 -104 -2.5 -172t2 -122.5t5.5 -106.5t7 -124l-12 -14l-109 -6l-14 12l-2 72q-139 -102 -291 -103q-78 0 -141.5 24t-109.5 67t-71.5 104t-25.5 139zM188 1202q2 35 3.5 53.5t1.5 47.5l8 14 q25 25 64.5 55.5t105.5 30.5q37 0 67.5 -12.5t65.5 -28.5l51 -29q23 -12 45.5 -21t50.5 -9q57 0 91 30.5t57 59.5l16 -9q-2 -12 -2 -24v-27q-2 -10 -2 -22.5v-24.5l-8 -14q-27 -29 -66 -58.5t-104 -29.5q-41 0 -73 12t-60 29l-51 28q-23 12 -47.5 21.5t-53.5 9.5 q-53 0 -87 -31.5t-56 -56.5zM199 315q0 -41 14 -81.5t44 -73.5t75 -54.5t108 -21.5q100 0 159.5 35t109.5 76v411l-111 -16q-68 -12 -116 -22.5t-81.5 -21.5t-59.5 -22.5t-46 -27.5q-6 -4 -21.5 -17.5t-33 -36t-29.5 -54.5t-12 -73z" />
<glyph unicode="&#xe4;" horiz-adv-x="980" d="M70 309q0 72 26.5 136.5t79.5 111.5q35 31 78 51.5t90 34.5t94 23.5t90 15.5l181 27v26q-2 41 -5.5 76t-13.5 59q-4 8 -16 24.5t-35 32t-59.5 27t-90.5 11.5q-51 0 -90 -5.5t-71.5 -15.5t-63.5 -24.5t-65 -32.5l-17 8l6 96l11 15q61 25 130.5 46t172.5 21 q111 0 174 -27.5t98 -68.5q23 -25 35 -48.5t17 -57t6.5 -82t1.5 -123.5v-127q-2 -104 -2.5 -172t2 -122.5t5.5 -106.5t7 -124l-12 -14l-109 -6l-14 12l-2 72q-139 -102 -291 -103q-78 0 -141.5 24t-109.5 67t-71.5 104t-25.5 139zM199 315q0 -41 14 -81.5t44 -73.5t75 -54.5 t108 -21.5q100 0 159.5 35t109.5 76v411l-111 -16q-68 -12 -116 -22.5t-81.5 -21.5t-59.5 -22.5t-46 -27.5q-6 -4 -21.5 -17.5t-33 -36t-29.5 -54.5t-12 -73zM242 1229q2 25 3 41t1 30.5t-1 28.5t-1 35l16 16q45 0 67.5 1t63.5 5l15 -16q-2 -25 -3.5 -40t-1.5 -29.5t1 -29 t1 -36.5l-14 -16h-35.5t-29 -1t-28.5 -2.5t-38 -3.5zM610 1229q0 25 1 41t1 30.5t-1 28.5t-1 35l17 16q47 0 68.5 1t62.5 5l14 -16q0 -25 -1 -40t-1 -29.5t1 -29t1 -36.5l-16 -16h-35.5t-29 -1t-29 -2.5t-37.5 -3.5z" />
<glyph unicode="&#xe5;" horiz-adv-x="980" d="M70 309q0 72 26.5 136.5t79.5 111.5q35 31 78 51.5t90 34.5t94 23.5t90 15.5l181 27v26q-2 41 -5.5 76t-13.5 59q-4 8 -16 24.5t-35 32t-59.5 27t-90.5 11.5q-51 0 -90 -5.5t-71.5 -15.5t-63.5 -24.5t-65 -32.5l-17 8l6 96l11 15q61 25 130.5 46t172.5 21 q111 0 174 -27.5t98 -68.5q23 -25 35 -48.5t17 -57t6.5 -82t1.5 -123.5v-127q-2 -104 -2.5 -172t2 -122.5t5.5 -106.5t7 -124l-12 -14l-109 -6l-14 12l-2 72q-139 -102 -291 -103q-78 0 -141.5 24t-109.5 67t-71.5 104t-25.5 139zM199 315q0 -41 14 -81.5t44 -73.5t75 -54.5 t108 -21.5q100 0 159.5 35t109.5 76v411l-111 -16q-68 -12 -116 -22.5t-81.5 -21.5t-59.5 -22.5t-46 -27.5q-6 -4 -21.5 -17.5t-33 -36t-29.5 -54.5t-12 -73zM309 1354q0 90 58.5 143t144.5 53q41 0 78 -13t64.5 -40t43 -63.5t15.5 -83.5q-2 -82 -53.5 -136.5t-147.5 -54.5 q-98 0 -150.5 55.5t-52.5 139.5zM414 1352q0 -45 22.5 -82t77.5 -37q31 0 49.5 14.5t28.5 32.5t13 35.5t3 23.5q2 25 -2 48.5t-16 43t-32.5 32t-47.5 12.5q-39 0 -67.5 -31t-28.5 -92z" />
<glyph unicode="&#xe6;" horiz-adv-x="1705" d="M66 305q0 68 27.5 123t60.5 90q78 84 201.5 104.5t306.5 24.5h92v35q0 76 -2 107.5t-11 54.5q-20 57 -74.5 89t-144.5 32q-117 0 -195.5 -33t-131.5 -62l-15 11l8 100l17 20q53 23 137 47.5t190 24.5q92 0 150.5 -21.5t93.5 -52t51.5 -62.5t22.5 -50q14 20 30.5 40.5 t37.5 37.5q35 35 109.5 71.5t182.5 36.5q100 0 185 -37q86 -37 134 -96t71.5 -127t28.5 -134.5t7 -117.5l-14 -14h-750q0 -45 2.5 -90t11.5 -90t29.5 -88t59.5 -84q14 -16 38.5 -36t58.5 -37.5t78 -29.5t97 -12q63 0 114.5 14.5t92.5 36t70.5 44t50.5 40.5l16 -8l-16 -125 l-14 -19q-96 -59 -183.5 -73.5t-144.5 -14.5t-113.5 10.5t-109.5 32.5q-72 33 -107 72t-55 70q-25 -23 -65 -54.5t-92 -60.5t-116.5 -49.5t-142.5 -20.5q-102 0 -173 34t-114 84t-61 107.5t-18 104.5zM195 313q0 -37 15 -76.5t47 -71.5t79 -52.5t110 -20.5q68 0 122.5 16.5 t97.5 39t74.5 49t54.5 45.5q-10 25 -18.5 48t-13.5 55t-7 79t-2 121h-109q-86 -2 -169 -8.5t-148 -34.5q-66 -29 -99.5 -81t-33.5 -108zM877 647h628q-4 41 -12 95.5t-51 113.5q-29 39 -62.5 62.5t-66.5 36t-62.5 15.5t-50.5 3q-76 0 -142.5 -33t-117.5 -106 q-35 -51 -46 -97.5t-17 -89.5z" />
<glyph unicode="&#xe7;" horiz-adv-x="897" d="M82 512q0 125 35 228.5t100.5 177t159.5 114.5t215 41q74 0 136.5 -16.5t125.5 -52.5l10 -17q-4 -20 -6 -33.5t-3 -24.5t-2 -24.5t-3 -34.5l-19 -8q-12 12 -32.5 28.5t-50 32t-69.5 27t-91 11.5q-78 0 -145.5 -28t-120 -83t-82 -139t-29.5 -195q0 -113 30.5 -194.5 t82 -134t117 -77t134.5 -24.5q61 0 108.5 14.5t82.5 33t58.5 39t35.5 32.5l21 -8q-4 -37 -6.5 -66t-6.5 -55l-16 -25q-74 -47 -150.5 -61.5t-132.5 -14.5q-96 0 -184 32t-155.5 97.5t-107.5 167t-40 240.5zM389 -365q18 35 32.5 60.5t28 52.5t30 59.5t40.5 81.5l17 11h43.5 t60.5 -2l6 -13q-16 -47 -26.5 -78.5t-18.5 -58.5t-15 -53.5t-18 -63.5l-16 -14q-25 0 -41 1t-31.5 1t-34 -1t-45.5 -1z" />
<glyph unicode="&#xe8;" horiz-adv-x="1067" d="M80 522q0 121 32.5 222.5t94 174t150.5 113.5t204 41q96 0 183 -31.5t157 -123.5q35 -45 53.5 -93.5t27.5 -96.5t12 -93t3 -84l-12 -12h-776q2 -49 8 -104.5t37 -121.5q33 -72 80 -115.5t95 -67.5t94 -32t81 -8q70 0 126 15.5t98 37t72 44t48 38.5l17 -10l-9 -117 l-10 -20q-33 -18 -66.5 -36.5t-75.5 -32t-93.5 -23t-116.5 -9.5q-125 0 -221.5 42t-161 115t-98 172.5t-33.5 215.5zM217 643h645q-4 45 -11 94t-42 105q-31 49 -67.5 75.5t-70.5 39t-65 14.5t-49 2q-72 0 -136.5 -26.5t-111.5 -80.5q-53 -61 -69.5 -123.5t-22.5 -99.5z M297 1460l8 19h54.5h40t39 1t50.5 1l15 -13q8 -25 17 -54.5t30 -82.5q14 -39 23.5 -62.5t15.5 -39t10 -24.5t8 -21l-10 -19h-42t-42 -4l-20 15q-31 47 -51.5 78.5t-41 61.5t-45 62.5t-59.5 81.5z" />
<glyph unicode="&#xe9;" horiz-adv-x="1067" d="M80 522q0 121 32.5 222.5t94 174t150.5 113.5t204 41q96 0 183 -31.5t157 -123.5q35 -45 53.5 -93.5t27.5 -96.5t12 -93t3 -84l-12 -12h-776q2 -49 8 -104.5t37 -121.5q33 -72 80 -115.5t95 -67.5t94 -32t81 -8q70 0 126 15.5t98 37t72 44t48 38.5l17 -10l-9 -117 l-10 -20q-33 -18 -66.5 -36.5t-75.5 -32t-93.5 -23t-116.5 -9.5q-125 0 -221.5 42t-161 115t-98 172.5t-33.5 215.5zM217 643h645q-4 45 -11 94t-42 105q-31 49 -67.5 75.5t-70.5 39t-65 14.5t-49 2q-72 0 -136.5 -26.5t-111.5 -80.5q-53 -61 -69.5 -123.5t-22.5 -99.5z M451 1180q16 37 33.5 76.5t35 78.5t32.5 74t26 64l12 10q31 -2 51.5 -2h42.5h44.5t43.5 2l8 -17q-37 -47 -62.5 -80.5t-47 -64.5t-42 -65.5t-50.5 -84.5l-15 -10q-35 4 -51 4t-51 -2z" />
<glyph unicode="&#xea;" horiz-adv-x="1067" d="M80 522q0 121 32.5 222.5t94 174t150.5 113.5t204 41q96 0 183 -31.5t157 -123.5q35 -45 53.5 -93.5t27.5 -96.5t12 -93t3 -84l-12 -12h-776q2 -49 8 -104.5t37 -121.5q33 -72 80 -115.5t95 -67.5t94 -32t81 -8q70 0 126 15.5t98 37t72 44t48 38.5l17 -10l-9 -117 l-10 -20q-33 -18 -66.5 -36.5t-75.5 -32t-93.5 -23t-116.5 -9.5q-125 0 -221.5 42t-161 115t-98 172.5t-33.5 215.5zM217 643h645q-4 45 -11 94t-42 105q-31 49 -67.5 75.5t-70.5 39t-65 14.5t-49 2q-72 0 -136.5 -26.5t-111.5 -80.5q-53 -61 -69.5 -123.5t-22.5 -99.5z M319 1180q4 6 14.5 24.5t23 38t23.5 37.5t15 27q10 18 19.5 33.5t18.5 33t20.5 40t27.5 52.5l15 13q35 -2 81 -1t78 1l17 -11q2 -4 21.5 -44t43 -90t45 -95t27.5 -55l-10 -21h-111l-14 11q-20 43 -44 93t-59 130q-27 -41 -43 -69t-30.5 -50.5t-26.5 -46t-31 -55.5l-16 -13 q-12 0 -23.5 1t-23.5 1t-24.5 -1t-26.5 -1z" />
<glyph unicode="&#xeb;" horiz-adv-x="1067" d="M80 522q0 121 32.5 222.5t94 174t150.5 113.5t204 41q96 0 183 -31.5t157 -123.5q35 -45 53.5 -93.5t27.5 -96.5t12 -93t3 -84l-12 -12h-776q2 -49 8 -104.5t37 -121.5q33 -72 80 -115.5t95 -67.5t94 -32t81 -8q70 0 126 15.5t98 37t72 44t48 38.5l17 -10l-9 -117 l-10 -20q-33 -18 -66.5 -36.5t-75.5 -32t-93.5 -23t-116.5 -9.5q-125 0 -221.5 42t-161 115t-98 172.5t-33.5 215.5zM217 643h645q-4 45 -11 94t-42 105q-31 49 -67.5 75.5t-70.5 39t-65 14.5t-49 2q-72 0 -136.5 -26.5t-111.5 -80.5q-53 -61 -69.5 -123.5t-22.5 -99.5z M301 1229q2 25 3 41t1 30.5t-1 28.5t-1 35l16 16q45 0 68 1t64 5l14 -16q-2 -25 -3 -40t-1 -29.5t1 -29t1 -36.5l-14 -16h-36t-29 -1t-28.5 -2.5t-38.5 -3.5zM670 1229q0 25 1 41t1 30.5t-1 28.5t-1 35l16 16q47 0 68.5 1t62.5 5l14 -16q0 -25 -1 -40t-1 -29.5t1 -29 t1 -36.5l-16 -16h-35.5t-29 -1t-28.5 -2.5t-38 -3.5z" />
<glyph unicode="&#xec;" horiz-adv-x="425" d="M-25 1460l9 19h54h39.5t39 1t51.5 1l14 -13q8 -25 17.5 -54.5t29.5 -82.5q14 -39 23.5 -62.5t15.5 -39t10.5 -24.5t8.5 -21l-11 -19h-42t-41 -4l-21 15q-31 47 -51.5 78.5t-41 61.5t-45 62.5t-59.5 81.5zM131 1026l12 12l123 21l13 -12q-4 -72 -5.5 -118t-1.5 -106 q0 -199 5.5 -405.5t15.5 -405.5l-12 -12l-123 -2l-11 12q2 100 2.5 155.5t0.5 102.5q0 57 -1.5 148.5t-2.5 195t-5 212t-10 202.5z" />
<glyph unicode="&#xed;" horiz-adv-x="425" d="M129 1180q16 37 33.5 76.5t35 78.5t33 74t25.5 64l12 10q31 -2 51.5 -2h42.5h44.5t44.5 2l8 -17q-37 -47 -62.5 -80.5t-47 -64.5t-42 -65.5t-51.5 -84.5l-14 -10q-35 4 -51.5 4t-51.5 -2zM131 1026l12 12l123 21l13 -12q-4 -72 -5.5 -118t-1.5 -106q0 -199 5.5 -405.5 t15.5 -405.5l-12 -12l-123 -2l-11 12q2 100 2.5 155.5t0.5 102.5q0 57 -1.5 148.5t-2.5 195t-5 212t-10 202.5z" />
<glyph unicode="&#xee;" horiz-adv-x="425" d="M-35 1180q4 6 14.5 24.5t22.5 38t23.5 37.5t15.5 27q10 18 19.5 33.5t18.5 33t20.5 40t27.5 52.5l14 13q35 -2 81 -1t79 1l16 -11q2 -4 21.5 -44t43.5 -90t45.5 -95t27.5 -55l-11 -21h-110l-15 11q-20 43 -43.5 93t-58.5 130q-27 -41 -43 -69t-30.5 -50.5t-27 -46 t-30.5 -55.5l-16 -13q-12 0 -23.5 1t-23.5 1t-24.5 -1t-27.5 -1zM131 1026l12 12l123 21l13 -12q-4 -72 -5.5 -118t-1.5 -106q0 -199 5.5 -405.5t15.5 -405.5l-12 -12l-123 -2l-11 12q2 100 2.5 155.5t0.5 102.5q0 57 -1.5 148.5t-2.5 195t-5 212t-10 202.5z" />
<glyph unicode="&#xef;" horiz-adv-x="425" d="M-53 1229q2 25 3 41t1 30.5t-1 28.5t-1 35l16 16q45 0 67.5 1t63.5 5l15 -16q-2 -25 -3.5 -40t-1.5 -29.5t1.5 -29t1.5 -36.5l-15 -16h-35.5t-29 -1t-28.5 -2.5t-38 -3.5zM131 1026l12 12l123 21l13 -12q-4 -72 -5.5 -118t-1.5 -106q0 -199 5.5 -405.5t15.5 -405.5 l-12 -12l-123 -2l-11 12q2 100 2.5 155.5t0.5 102.5q0 57 -1.5 148.5t-2.5 195t-5 212t-10 202.5zM315 1229q0 25 1 41t1 30.5t-1 28.5t-1 35l17 16q47 0 68.5 1t62.5 5l14 -16q0 -25 -1 -40t-1 -29.5t1 -29t1 -36.5l-16 -16h-35.5t-29 -1t-29 -2.5t-37.5 -3.5z" />
<glyph unicode="&#xf0;" d="M82 539q0 33 3 78t14.5 95t34 102t61.5 101q70 86 165 127t189 41q86 0 155.5 -27.5t126.5 -88.5q-20 70 -53 152.5t-110 197.5q-78 -23 -132.5 -38t-96.5 -26.5t-72.5 -21.5t-57.5 -19l-22 -10l-23 6q-10 27 -16 38t-23 40l11 14q35 8 78.5 19.5t93 25t99.5 26.5t97 26 q-57 66 -111.5 115t-113.5 83l10 17q14 2 28.5 4t28.5 6t27.5 7t28.5 7l18 -6q98 -76 207 -198q39 12 81 26.5t95 32.5l23 -10q12 -25 18 -37t21 -37l-7 -18q-74 -16 -112.5 -25.5t-54.5 -13.5q123 -172 178 -373t55 -412q0 -43 -3 -96t-16.5 -110.5t-39 -116t-70.5 -109.5 q-66 -74 -158 -113.5t-200 -39.5q-98 0 -183.5 34.5t-150.5 114.5q-43 51 -66.5 108.5t-36 113t-15.5 104.5t-3 84zM219 524q0 -86 18.5 -172t71.5 -153q31 -41 87.5 -77t148.5 -36q78 0 146.5 33t115.5 104q39 57 60.5 142t21.5 202q0 137 -40 218t-93.5 122t-108.5 53.5 t-88 12.5q-88 0 -160 -39q-53 -29 -86.5 -73t-55 -98t-30 -115.5t-8.5 -123.5z" />
<glyph unicode="&#xf1;" d="M127 1026l10 14l125 21l12 -12l-8 -107q33 20 71 43t84 42.5t100 32.5t116 13q14 0 43 -1t62.5 -10t70.5 -28.5t70 -56.5q27 -31 42 -64.5t22 -74.5t9 -90.5t2 -106.5l5 -209q0 -80 1 -132t3 -94t3 -86t5 -108l-12 -12l-123 -4l-11 14q2 72 3.5 121t1.5 111q0 31 -1.5 94 t-2.5 135t-2 139.5t-3 108.5q-2 35 -9 84t-40 88q-27 31 -73 50.5t-101 19.5q-57 0 -108.5 -15.5t-93.5 -37t-75.5 -45t-54.5 -40.5q0 -86 1 -153.5t2 -125t2 -111.5t3.5 -115.5t4.5 -135t6 -170.5l-13 -12l-120 -4l-11 12q2 84 3.5 135.5t1.5 116.5q0 80 -1.5 161t-3.5 161 q0 88 -1 145t-3 104.5t-5 91.5t-9 103zM252 1202q2 35 3 53.5t1 47.5l8 14q25 25 65 55.5t105 30.5q37 0 67.5 -12.5t65.5 -28.5l51 -29q23 -12 45.5 -21t51.5 -9q57 0 91 30.5t56 59.5l17 -9q-2 -12 -2 -24v-27q-2 -10 -2.5 -22.5t-0.5 -24.5l-8 -14q-27 -29 -65.5 -58.5 t-104.5 -29.5q-41 0 -72.5 12t-60.5 29l-51 28q-23 12 -47.5 21.5t-52.5 9.5q-53 0 -87 -31.5t-57 -56.5z" />
<glyph unicode="&#xf2;" d="M82 522q0 86 14.5 170t57.5 158q70 121 175 172t238 51q109 0 185.5 -31.5t128 -82t80 -112t44 -120.5t19.5 -111t4 -81q2 -154 -38 -260.5t-106.5 -173t-152.5 -96.5t-176 -30q-127 0 -217 43t-146.5 118t-83 174.5t-26.5 211.5zM219 524q0 -18 2 -58t11.5 -89 t29 -100.5t56 -94.5t94 -70.5t141.5 -27.5q100 0 166.5 38t104.5 100.5t53.5 144.5t13.5 168q-2 53 -10.5 114.5t-26.5 110.5q-29 78 -72 120t-86 61.5t-82 22.5t-57 3q-109 0 -175.5 -43t-102 -109.5t-48 -144.5t-12.5 -146zM317 1460l9 19h54h39.5t39 1t51.5 1l14 -13 q8 -25 17.5 -54.5t29.5 -82.5q14 -39 23.5 -62.5t15.5 -39t10.5 -24.5t8.5 -21l-11 -19h-42t-41 -4l-21 15q-31 47 -51.5 78.5t-41 61.5t-45 62.5t-59.5 81.5z" />
<glyph unicode="&#xf3;" d="M82 522q0 86 14.5 170t57.5 158q70 121 175 172t238 51q109 0 185.5 -31.5t128 -82t80 -112t44 -120.5t19.5 -111t4 -81q2 -154 -38 -260.5t-106.5 -173t-152.5 -96.5t-176 -30q-127 0 -217 43t-146.5 118t-83 174.5t-26.5 211.5zM219 524q0 -18 2 -58t11.5 -89 t29 -100.5t56 -94.5t94 -70.5t141.5 -27.5q100 0 166.5 38t104.5 100.5t53.5 144.5t13.5 168q-2 53 -10.5 114.5t-26.5 110.5q-29 78 -72 120t-86 61.5t-82 22.5t-57 3q-109 0 -175.5 -43t-102 -109.5t-48 -144.5t-12.5 -146zM471 1180q16 37 33.5 76.5t35 78.5t33 74 t25.5 64l12 10q31 -2 51.5 -2h43.5h44t44 2l8 -17q-37 -47 -62.5 -80.5t-47 -64.5t-42 -65.5t-51.5 -84.5l-14 -10q-35 4 -51.5 4t-51.5 -2z" />
<glyph unicode="&#xf4;" d="M82 522q0 86 14.5 170t57.5 158q70 121 175 172t238 51q109 0 185.5 -31.5t128 -82t80 -112t44 -120.5t19.5 -111t4 -81q2 -154 -38 -260.5t-106.5 -173t-152.5 -96.5t-176 -30q-127 0 -217 43t-146.5 118t-83 174.5t-26.5 211.5zM219 524q0 -18 2 -58t11.5 -89 t29 -100.5t56 -94.5t94 -70.5t141.5 -27.5q100 0 166.5 38t104.5 100.5t53.5 144.5t13.5 168q-2 53 -10.5 114.5t-26.5 110.5q-29 78 -72 120t-86 61.5t-82 22.5t-57 3q-109 0 -175.5 -43t-102 -109.5t-48 -144.5t-12.5 -146zM307 1180q4 6 14.5 24.5t22.5 38t23.5 37.5 t15.5 27q10 18 19.5 33.5t18.5 33t20.5 40t27.5 52.5l14 13q35 -2 81 -1t79 1l16 -11q2 -4 21.5 -44t43.5 -90t45.5 -95t27.5 -55l-11 -21h-110l-14 11q-20 43 -44 93t-59 130q-27 -41 -43 -69t-30.5 -50.5t-27 -46t-30.5 -55.5l-16 -13q-12 0 -23.5 1t-23.5 1t-24.5 -1 t-27.5 -1z" />
<glyph unicode="&#xf5;" d="M82 522q0 86 14.5 170t57.5 158q70 121 175 172t238 51q109 0 185.5 -31.5t128 -82t80 -112t44 -120.5t19.5 -111t4 -81q2 -154 -38 -260.5t-106.5 -173t-152.5 -96.5t-176 -30q-127 0 -217 43t-146.5 118t-83 174.5t-26.5 211.5zM219 524q0 -18 2 -58t11.5 -89 t29 -100.5t56 -94.5t94 -70.5t141.5 -27.5q100 0 166.5 38t104.5 100.5t53.5 144.5t13.5 168q-2 53 -10.5 114.5t-26.5 110.5q-29 78 -72 120t-86 61.5t-82 22.5t-57 3q-109 0 -175.5 -43t-102 -109.5t-48 -144.5t-12.5 -146zM252 1202q2 35 3 53.5t1 47.5l8 14 q25 25 65 55.5t105 30.5q37 0 67.5 -12.5t65.5 -28.5l51 -29q23 -12 45.5 -21t51.5 -9q57 0 91 30.5t56 59.5l17 -9q-2 -12 -2 -24v-27q-2 -10 -2.5 -22.5t-0.5 -24.5l-8 -14q-27 -29 -65.5 -58.5t-104.5 -29.5q-41 0 -72.5 12t-60.5 29l-51 28q-23 12 -47.5 21.5t-52.5 9.5 q-53 0 -87 -31.5t-57 -56.5z" />
<glyph unicode="&#xf6;" d="M82 522q0 86 14.5 170t57.5 158q70 121 175 172t238 51q109 0 185.5 -31.5t128 -82t80 -112t44 -120.5t19.5 -111t4 -81q2 -154 -38 -260.5t-106.5 -173t-152.5 -96.5t-176 -30q-127 0 -217 43t-146.5 118t-83 174.5t-26.5 211.5zM219 524q0 -18 2 -58t11.5 -89 t29 -100.5t56 -94.5t94 -70.5t141.5 -27.5q100 0 166.5 38t104.5 100.5t53.5 144.5t13.5 168q-2 53 -10.5 114.5t-26.5 110.5q-29 78 -72 120t-86 61.5t-82 22.5t-57 3q-109 0 -175.5 -43t-102 -109.5t-48 -144.5t-12.5 -146zM293 1229q2 25 3 41t1 30.5t-1 28.5t-1 35 l16 16q45 0 67.5 1t63.5 5l15 -16q-2 -25 -3 -40t-1 -29.5t1 -29t1 -36.5l-15 -16h-35.5t-29 -1t-28.5 -2.5t-38 -3.5zM662 1229q0 25 1 41t1 30.5t-1 28.5t-1 35l16 16q47 0 68.5 1t62.5 5l14 -16q0 -25 -1 -40t-1 -29.5t1 -29t1 -36.5l-16 -16h-35.5t-29 -1t-29 -2.5 t-37.5 -3.5z" />
<glyph unicode="&#xf7;" horiz-adv-x="1366" d="M0 535v120h1366v-120h-1366zM592 328q0 39 27.5 66.5t70.5 27.5q39 0 65.5 -27.5t24.5 -68.5q-2 -47 -30.5 -70t-65.5 -23q-33 0 -62.5 24t-29.5 71zM592 862q0 39 27.5 66.5t70.5 27.5q39 0 65.5 -27.5t24.5 -68.5q-2 -47 -30.5 -69.5t-65.5 -22.5q-33 0 -62.5 23.5 t-29.5 70.5z" />
<glyph unicode="&#xf8;" d="M-35 63l2 19q31 25 52.5 42t40 32.5t36 31t41.5 35.5q-14 31 -35.5 100.5t-21.5 192.5q0 76 8 134.5t21.5 101.5t29 73.5t29.5 51.5q39 59 89 98t103.5 60.5t107.5 29.5t101 8q82 0 140.5 -17.5t99.5 -43t66.5 -52t42.5 -45.5q14 10 26 19.5t27.5 24t36 35l53.5 53.5h22 l43 -52v-24q-10 -8 -17 -14.5t-17 -16.5q-6 -6 -23.5 -20.5t-38 -31t-38 -31.5t-25.5 -21q25 -70 43 -138.5t18 -171.5q0 -270 -128 -410.5t-361 -140.5q-117 0 -201 38t-156 132q-14 -12 -25.5 -22t-26.5 -24.5t-38.5 -36t-60.5 -56.5h-17zM213 514q0 -59 8 -103t19 -96 l583 514q-16 20 -36.5 45t-51 46.5t-72.5 35t-100 13.5q-102 0 -173 -38t-116 -120q-23 -41 -35 -89t-18 -91t-7 -76t-1 -41zM276 229q18 -29 43 -55.5t58 -48t77 -34.5t103 -13q49 0 105.5 13t101.5 48q39 31 64.5 76t40 96t20.5 105.5t6 105.5q0 70 -9 119t-26 102z" />
<glyph unicode="&#xf9;" d="M135 1036l12 15l123 4l13 -13q-4 -147 -6.5 -291.5t-2.5 -291.5q0 -61 2.5 -108.5t9.5 -82.5t19 -61.5t33 -48.5q29 -33 77 -54.5t107 -21.5q20 0 40 2t40 6q88 18 137 52t97 73q0 154 -1 256t-2.5 187t-4.5 170t-9 206l12 17h37.5h26.5t24.5 2t30.5 4l13 -15 q-2 -96 -3.5 -190t-1.5 -188q0 -100 1.5 -182.5t3.5 -158t5 -150.5t7 -161l-12 -12l-113 -8l-14 12l4 98q-18 -16 -47 -37.5t-71 -42t-98.5 -34t-131.5 -13.5q-14 0 -44 1t-67 10.5t-77 30t-73 57.5q-31 35 -48 72.5t-26.5 76.5t-11.5 78t-2 76v53v176v178v59.5t-1 54.5 t-3 60.5t-4 77.5zM317 1460l9 19h54h39.5t39 1t51.5 1l14 -13q8 -25 17.5 -54.5t29.5 -82.5q14 -39 23.5 -62.5t15.5 -39t10.5 -24.5t8.5 -21l-11 -19h-42t-41 -4l-21 15q-31 47 -51.5 78.5t-41 61.5t-45 62.5t-59.5 81.5z" />
<glyph unicode="&#xfa;" d="M135 1036l12 15l123 4l13 -13q-4 -147 -6.5 -291.5t-2.5 -291.5q0 -61 2.5 -108.5t9.5 -82.5t19 -61.5t33 -48.5q29 -33 77 -54.5t107 -21.5q20 0 40 2t40 6q88 18 137 52t97 73q0 154 -1 256t-2.5 187t-4.5 170t-9 206l12 17h37.5h26.5t24.5 2t30.5 4l13 -15 q-2 -96 -3.5 -190t-1.5 -188q0 -100 1.5 -182.5t3.5 -158t5 -150.5t7 -161l-12 -12l-113 -8l-14 12l4 98q-18 -16 -47 -37.5t-71 -42t-98.5 -34t-131.5 -13.5q-14 0 -44 1t-67 10.5t-77 30t-73 57.5q-31 35 -48 72.5t-26.5 76.5t-11.5 78t-2 76v53v176v178v59.5t-1 54.5 t-3 60.5t-4 77.5zM471 1180q16 37 33.5 76.5t35 78.5t33 74t25.5 64l12 10q31 -2 51.5 -2h43.5h44t44 2l8 -17q-37 -47 -62.5 -80.5t-47 -64.5t-42 -65.5t-51.5 -84.5l-14 -10q-35 4 -51.5 4t-51.5 -2z" />
<glyph unicode="&#xfb;" d="M135 1036l12 15l123 4l13 -13q-4 -147 -6.5 -291.5t-2.5 -291.5q0 -61 2.5 -108.5t9.5 -82.5t19 -61.5t33 -48.5q29 -33 77 -54.5t107 -21.5q20 0 40 2t40 6q88 18 137 52t97 73q0 154 -1 256t-2.5 187t-4.5 170t-9 206l12 17h37.5h26.5t24.5 2t30.5 4l13 -15 q-2 -96 -3.5 -190t-1.5 -188q0 -100 1.5 -182.5t3.5 -158t5 -150.5t7 -161l-12 -12l-113 -8l-14 12l4 98q-18 -16 -47 -37.5t-71 -42t-98.5 -34t-131.5 -13.5q-14 0 -44 1t-67 10.5t-77 30t-73 57.5q-31 35 -48 72.5t-26.5 76.5t-11.5 78t-2 76v53v176v178v59.5t-1 54.5 t-3 60.5t-4 77.5zM307 1180q4 6 14.5 24.5t22.5 38t23.5 37.5t15.5 27q10 18 19.5 33.5t18.5 33t20.5 40t27.5 52.5l14 13q35 -2 81 -1t79 1l16 -11q2 -4 21.5 -44t43.5 -90t45.5 -95t27.5 -55l-11 -21h-110l-14 11q-20 43 -44 93t-59 130q-27 -41 -43 -69t-30.5 -50.5 t-27 -46t-30.5 -55.5l-16 -13q-12 0 -23.5 1t-23.5 1t-24.5 -1t-27.5 -1z" />
<glyph unicode="&#xfc;" d="M135 1036l12 15l123 4l13 -13q-4 -147 -6.5 -291.5t-2.5 -291.5q0 -61 2.5 -108.5t9.5 -82.5t19 -61.5t33 -48.5q29 -33 77 -54.5t107 -21.5q20 0 40 2t40 6q88 18 137 52t97 73q0 154 -1 256t-2.5 187t-4.5 170t-9 206l12 17h37.5h26.5t24.5 2t30.5 4l13 -15 q-2 -96 -3.5 -190t-1.5 -188q0 -100 1.5 -182.5t3.5 -158t5 -150.5t7 -161l-12 -12l-113 -8l-14 12l4 98q-18 -16 -47 -37.5t-71 -42t-98.5 -34t-131.5 -13.5q-14 0 -44 1t-67 10.5t-77 30t-73 57.5q-31 35 -48 72.5t-26.5 76.5t-11.5 78t-2 76v53v176v178v59.5t-1 54.5 t-3 60.5t-4 77.5zM289 1229q2 25 3 41t1 30.5t-1 28.5t-1 35l16 16q45 0 67.5 1t63.5 5l15 -16q-2 -25 -3 -40t-1 -29.5t1 -29t1 -36.5l-15 -16h-35.5t-29 -1t-28.5 -2.5t-38 -3.5zM657 1229q0 25 1 41t1 30.5t-1 28.5t-1 35l17 16q47 0 68.5 1t62.5 5l14 -16q0 -25 -1 -40 t-1 -29.5t1 -29t1 -36.5l-16 -16h-35.5t-29 -1t-29 -2.5t-37.5 -3.5z" />
<glyph unicode="&#xfd;" horiz-adv-x="897" d="M0 1030l12 19l121 10l19 -15l165 -471l144 -393l153 436q25 70 40.5 117t29.5 91t28.5 92.5t35.5 117.5l20 17h115l14 -17q-23 -49 -37 -84t-27.5 -69.5t-29 -74.5t-37.5 -101l-148 -402q-37 -98 -72.5 -198.5t-67.5 -192.5t-58.5 -170t-40.5 -129q-8 -23 -14.5 -47.5 t-12.5 -46.5l-14 -13l-127 2l-12 13q27 59 44 100t32.5 78t32 78t38.5 102l49 141q-31 84 -55.5 147.5t-44 118t-38.5 102.5t-40.5 102.5t-46.5 119t-59 150.5q-18 45 -29.5 75.5t-23 58.5t-25 58.5t-33.5 77.5zM365 1180q16 37 33.5 76.5t35 78.5t32.5 74t26 64l12 10 q31 -2 51 -2h43h44.5t43.5 2l8 -17q-37 -47 -62.5 -80.5t-47 -64.5t-42 -65.5t-50.5 -84.5l-15 -10q-35 4 -51 4t-51 -2z" />
<glyph unicode="&#xfe;" d="M113 1591l12 15q41 4 64.5 8t64.5 14l12 -12q-4 -70 -5 -162t-1 -185t1 -177t1 -140q47 41 123 81t190 40q94 0 177.5 -34.5t144.5 -99.5t97 -157t36 -209q0 -119 -40 -228t-126 -191q-53 -51 -111.5 -82t-121 -48.5t-126 -22.5t-126.5 -5q-31 0 -56.5 1t-56.5 5 q0 -92 1 -150.5t2 -105.5t3 -94t7 -121l-15 -12h-123l-12 10q0 86 1 177t2 179t2 167t1 143q0 31 -1 126t-2 222t-2 268t-3 261t-3 201t-1 91q-2 76 -4 124t-6 103zM262 470q0 -62 1 -133t1 -135.5v-90.5q31 -4 50.5 -5.5t58.5 -1.5q66 0 144.5 10.5t150.5 47.5 q115 59 168 165.5t53 235.5q0 80 -21.5 150.5t-63.5 124t-104.5 84t-144.5 30.5q-61 0 -110.5 -14t-85 -34.5t-59.5 -41.5t-38 -35v-270v-87z" />
<glyph unicode="&#xff;" horiz-adv-x="897" d="M0 1030l12 19l121 10l19 -15l165 -471l144 -393l153 436q25 70 40.5 117t29.5 91t28.5 92.5t35.5 117.5l20 17h115l14 -17q-23 -49 -37 -84t-27.5 -69.5t-29 -74.5t-37.5 -101l-148 -402q-37 -98 -72.5 -198.5t-67.5 -192.5t-58.5 -170t-40.5 -129q-8 -23 -14.5 -47.5 t-12.5 -46.5l-14 -13l-127 2l-12 13q27 59 44 100t32.5 78t32 78t38.5 102l49 141q-31 84 -55.5 147.5t-44 118t-38.5 102.5t-40.5 102.5t-46.5 119t-59 150.5q-18 45 -29.5 75.5t-23 58.5t-25 58.5t-33.5 77.5zM182 1229q2 25 3 41t1 30.5t-1 28.5t-1 35l17 16q45 0 67.5 1 t63.5 5l14 -16q-2 -25 -3 -40t-1 -29.5t1 -29t1 -36.5l-14 -16h-35.5t-29 -1t-29 -2.5t-37.5 -3.5zM551 1229q0 25 1 41t1 30.5t-1 28.5t-1 35l16 16q47 0 68.5 1t62.5 5l15 -16q0 -25 -1 -40t-1 -29.5t1 -29t1 -36.5l-17 -16h-35.5t-29 -1t-28.5 -2.5t-38 -3.5z" />
<glyph unicode="&#x152;" horiz-adv-x="1961" d="M88 727q0 35 5 100.5t25.5 143.5t62.5 158.5t118 148.5q63 57 133 91t146.5 52.5t160.5 23.5t179 5q55 0 111 -1t112 -3h432l287 4l12 -10l-6 -99l-17 -12l-536 6l-119 2v-528h205l430 4l12 -12l-6 -92l-16 -11q-61 2 -108.5 3t-108.5 1h-104.5t-104.5 -2h-197l10 -589 h180q94 0 157 1t114 3t100 3t119 5l8 -12l-6 -109l-14 -8l-254 6h-367q-61 -2 -114.5 -3t-100.5 -1q-47 -2 -89 -2h-83q-78 0 -148.5 5t-135 20.5t-124 43t-114.5 72.5q-88 70 -137.5 156t-74 168t-29.5 153.5t-5 114.5zM225 743q0 -84 14.5 -157.5t38 -137t52 -111.5 t59.5 -79q55 -59 120.5 -90t142.5 -45t165 -16.5t187 -2.5l59 2v256t-1 203t-1 175t-1 171t-3 191.5t-4 236.5l-125 2q-78 -2 -139.5 -4t-116 -10t-101.5 -24.5t-96 -45.5q-74 -43 -122 -104t-76.5 -131t-40 -141.5t-11.5 -137.5z" />
<glyph unicode="&#x153;" horiz-adv-x="1878" d="M80 510q0 180 53 291.5t128 171t159 80t145 20.5q66 0 133.5 -17.5t126.5 -56.5q70 -47 100.5 -96t49.5 -90q29 55 63.5 107.5t108.5 95.5q74 41 139.5 49t89.5 8q47 0 111.5 -13t130.5 -54q41 -27 81 -74t68 -117q33 -80 37 -141.5t2 -118.5l-16 -16h-762 q2 -51 7 -103.5t34 -118.5q47 -111 138 -173t216 -62q74 0 128.5 14.5t95.5 35t68.5 44t47.5 41.5l17 -8l-15 -117l-10 -20q-31 -23 -56.5 -37.5t-70.5 -28.5q-51 -16 -105.5 -23.5t-107.5 -7.5q-113 0 -189.5 31t-127.5 74t-79 86t-42 67q-20 -41 -44 -79.5t-73 -79.5 q-43 -35 -88 -55.5t-85 -29.5t-73.5 -11.5t-54.5 -2.5q-72 0 -159 20.5t-167 96.5q-57 55 -88.5 118.5t-46 124t-16.5 107.5t-2 68zM213 520q0 -92 20.5 -172t59.5 -133q47 -68 118.5 -100.5t157.5 -32.5q94 0 175 42t122 128q18 35 35 103.5t17 166.5q0 76 -16.5 156 t-56.5 143.5t-106.5 104.5t-167.5 41q-66 0 -128 -20.5t-109 -65.5q-63 -61 -92 -158.5t-29 -202.5zM1030 643h647q-4 53 -11 100.5t-46 106.5q-31 45 -70 70.5t-74.5 37t-63.5 13.5t-38 2q-16 0 -46 -2t-68.5 -15.5t-80.5 -42t-79 -82.5q-37 -53 -49.5 -100t-20.5 -88z" />
<glyph unicode="&#x178;" horiz-adv-x="1024" d="M2 1427l10 17l133 10l19 -12q18 -41 30.5 -71t27 -59.5t30.5 -64.5t41 -86l219 -454l129 247q33 63 57.5 111.5t50 101t55.5 116t73 155.5l16 10h119l12 -16l-233 -428l-220 -410l11 -582l-13 -12l-123 -4l-14 14q6 178 6 359q0 63 -1 113t-3 104l-211 415zM209 1591 q2 25 3 41.5t1 30.5t-1 27.5t-1 35.5l16 17q47 2 68.5 2t62.5 4l15 -16q0 -25 -1 -40.5t-1 -29.5v-28.5v-37.5l-15 -16q-20 0 -35.5 -1t-28.5 -1t-28.5 -1t-38.5 -3zM649 1591q2 25 3 41.5t1 30.5t-1 27.5t-1 35.5l17 17q47 2 68.5 2t62.5 4l14 -16q0 -25 -1 -40.5t-1 -29.5 v-28.5v-37.5l-14 -16q-20 0 -36 -1t-29 -1t-28.5 -1t-37.5 -3z" />
<glyph unicode="&#x2c6;" horiz-adv-x="598" d="M53 1180q4 6 14.5 24.5t22.5 38t23.5 37.5t15.5 27q10 18 19.5 33.5t18.5 33t20.5 40t27.5 52.5l14 13q35 -2 81 -1t79 1l17 -11q2 -4 21 -44t43 -90t45.5 -95t27.5 -55l-11 -21h-110l-14 11q-20 43 -44 93t-59 130q-27 -41 -43 -69t-30.5 -50.5t-26.5 -46t-31 -55.5 l-16 -13q-12 0 -23.5 1t-23.5 1t-24.5 -1t-27.5 -1z" />
<glyph unicode="&#x2dc;" horiz-adv-x="598" d="M-14 1202q2 35 3 53.5t1 47.5l8 14q25 25 64.5 55.5t105.5 30.5q37 0 67.5 -12.5t65.5 -28.5l51 -29q23 -12 45.5 -21t51.5 -9q57 0 90.5 30.5t56.5 59.5l16 -9q-2 -12 -2 -24v-27q-2 -10 -2 -22.5v-24.5l-8 -14q-27 -29 -65.5 -58.5t-104.5 -29.5q-41 0 -72.5 12 t-60.5 29l-51 28q-23 12 -47.5 21.5t-53.5 9.5q-53 0 -86.5 -31.5t-56.5 -56.5z" />
<glyph unicode="&#x2000;" horiz-adv-x="958" />
<glyph unicode="&#x2001;" horiz-adv-x="1917" />
<glyph unicode="&#x2002;" horiz-adv-x="958" />
<glyph unicode="&#x2003;" horiz-adv-x="1917" />
<glyph unicode="&#x2004;" horiz-adv-x="639" />
<glyph unicode="&#x2005;" horiz-adv-x="479" />
<glyph unicode="&#x2006;" horiz-adv-x="319" />
<glyph unicode="&#x2007;" horiz-adv-x="319" />
<glyph unicode="&#x2008;" horiz-adv-x="239" />
<glyph unicode="&#x2009;" horiz-adv-x="383" />
<glyph unicode="&#x200a;" horiz-adv-x="106" />
<glyph unicode="&#x2010;" horiz-adv-x="598" d="M37 532q6 31 8 46.5t4 50.5l14 14q78 -4 156 -5t156 -1q66 0 101.5 1t70.5 5l14 -12q-4 -41 -6 -59.5t-6 -47.5l-12 -10q-23 0 -42.5 1t-51 2t-82 1h-132.5h-51h-38.5t-39 -1t-49.5 -3z" />
<glyph unicode="&#x2011;" horiz-adv-x="598" d="M37 532q6 31 8 46.5t4 50.5l14 14q78 -4 156 -5t156 -1q66 0 101.5 1t70.5 5l14 -12q-4 -41 -6 -59.5t-6 -47.5l-12 -10q-23 0 -42.5 1t-51 2t-82 1h-132.5h-51h-38.5t-39 -1t-49.5 -3z" />
<glyph unicode="&#x2012;" horiz-adv-x="598" d="M37 532q6 31 8 46.5t4 50.5l14 14q78 -4 156 -5t156 -1q66 0 101.5 1t70.5 5l14 -12q-4 -41 -6 -59.5t-6 -47.5l-12 -10q-23 0 -42.5 1t-51 2t-82 1h-132.5h-51h-38.5t-39 -1t-49.5 -3z" />
<glyph unicode="&#x2013;" horiz-adv-x="1193" d="M37 530q2 14 4 25.5t4 22t3 21.5t3 28l15 14q35 -2 65.5 -3t79.5 -1h128h212q18 0 66.5 -1t102.5 -1t102 -1t69 -1q102 0 158.5 3t95.5 5l14 -12l-6 -58.5t-6 -46.5l-12 -12q-61 4 -122 5t-132 1h-574h-80.5t-62.5 -1t-55.5 -2t-57.5 -1z" />
<glyph unicode="&#x2014;" horiz-adv-x="1449" d="M37 530q2 14 4 25.5t4 22t3 21.5t3 28l15 14q86 -4 161.5 -5t130.5 -1h157t157 2q23 0 83 -1t128.5 -2t131 -2t87.5 -1q121 0 189.5 3t109.5 7l14 -12l-6 -58.5t-6 -48.5l-12 -10q-164 6 -297 6q-92 0 -181.5 -1t-181.5 -1h-74.5t-116 1t-117.5 1h-79h-94t-75 -1 t-63.5 -2t-60.5 -3z" />
<glyph unicode="&#x2018;" horiz-adv-x="425" d="M51 1071q25 59 50.5 135t49 146.5t41 127t23.5 81.5l14 16h35t47 2l8 -12q-4 -16 -16 -71.5t-26.5 -127.5t-30 -150.5t-23.5 -142.5l-14 -14q-51 -2 -79 -3t-69 -5z" />
<glyph unicode="&#x2019;" horiz-adv-x="425" d="M63 1065q4 16 15.5 71.5t27 128t30 151.5t24.5 143l14 14h43.5t34.5 1t31.5 2t35.5 3l11 -18q-25 -59 -50.5 -134t-48 -146t-40 -128t-23.5 -82l-14 -14q-18 -2 -35 -2t-47 -2z" />
<glyph unicode="&#x201a;" horiz-adv-x="425" d="M51 -322q4 16 15.5 71.5t27 128.5t29.5 152t24 142l15 14h43t34.5 1t32 2t35.5 4l12 -19q-25 -59 -51 -134t-48.5 -145.5t-40 -128t-23.5 -81.5l-15 -15h-34.5t-47.5 -4z" />
<glyph unicode="&#x201c;" horiz-adv-x="724" d="M121 1071q23 53 46 122t44.5 137.5t40 130t31.5 100.5l14 16h34.5t49.5 2l6 -12q-4 -16 -15.5 -71.5t-26.5 -127.5t-29.5 -150.5t-24.5 -142.5l-12 -14q-27 0 -45.5 -1t-35 -2t-31.5 -2t-36 -3zM420 1071q47 123 87 249t75 241l14 16h34.5t47.5 2l8 -12 q-4 -16 -15.5 -71.5t-26.5 -127.5t-29.5 -150.5t-24.5 -142.5l-15 -14q-25 0 -43 -1t-34.5 -2t-31.5 -2t-36 -3z" />
<glyph unicode="&#x201d;" horiz-adv-x="724" d="M63 1065q4 16 15.5 71.5t27 128t30 151.5t24.5 143l14 14h43.5t34.5 1t31.5 2t35.5 3l11 -18q-25 -59 -50.5 -134t-48 -146t-40 -128t-23.5 -82l-14 -14q-18 -2 -35 -2t-47 -2zM362 1065q4 16 15.5 71.5t27 128t30 151.5t24.5 143l12 14q51 0 79 1t68 5l11 -18 q-25 -59 -50.5 -134t-48 -146t-40 -128t-23.5 -82l-14 -14q-18 -2 -35 -2t-49 -2z" />
<glyph unicode="&#x201e;" horiz-adv-x="724" d="M51 -322q4 16 15.5 71.5t27 128.5t29.5 152t24 142l15 14h43t34.5 1t32 2t35.5 4l12 -19q-25 -59 -51 -134t-48.5 -145.5t-40 -128t-23.5 -81.5l-15 -15h-34.5t-47.5 -4zM350 -322q4 16 15.5 71.5t27 128.5t29.5 152t24 142l15 14h43t34.5 1t32 2t35.5 4l10 -19 q-25 -59 -50 -134t-47.5 -145.5t-40 -128t-23.5 -81.5l-15 -15h-34.5t-47.5 -4z" />
<glyph unicode="&#x2022;" horiz-adv-x="681" d="M96 723q0 45 17.5 89t49.5 78t78 55.5t103 21.5q53 0 97 -19.5t76 -52.5t50.5 -78t18.5 -94q0 -41 -13.5 -84t-43 -78t-75.5 -58.5t-108 -23.5q-55 0 -100 19.5t-79 52.5t-52.5 78t-18.5 94z" />
<glyph unicode="&#x2026;" horiz-adv-x="2048" d="M246 84q0 43 30.5 68.5t67.5 25.5t64.5 -25.5t27.5 -68.5q0 -41 -26.5 -68.5t-67.5 -27.5q-43 0 -69.5 28.5t-26.5 67.5zM930 80q0 33 22.5 65.5t73.5 32.5q47 0 69.5 -29.5t24.5 -64.5q0 -33 -23.5 -64.5t-72.5 -31.5q-37 0 -65.5 26.5t-28.5 65.5zM1614 80 q0 35 23.5 66.5t72.5 31.5q37 0 65.5 -25.5t28.5 -68.5q-2 -53 -35.5 -74.5t-60.5 -21.5q-29 0 -61.5 23.5t-32.5 68.5z" />
<glyph unicode="&#x202f;" horiz-adv-x="383" />
<glyph unicode="&#x2039;" horiz-adv-x="425" d="M51 541l2 24q4 8 8.5 15.5t8.5 15.5q8 14 25.5 47t40 79t50 101.5t54.5 114.5l18 12h121l8 -16q-4 -8 -16.5 -30.5t-26.5 -47.5t-26.5 -48.5t-18.5 -31.5q-8 -16 -15.5 -30.5t-19.5 -36t-30.5 -57.5t-49.5 -93q27 -55 63 -120.5t69.5 -123t59 -97.5t30.5 -46l-11 -18 h-23.5t-36 -1t-35.5 -1h-26l-18 10q-16 35 -39.5 82t-60.5 110z" />
<glyph unicode="&#x203a;" horiz-adv-x="425" d="M23 932l10 16h22.5t36 1t36.5 1h24l18 -10q16 -35 39.5 -81t60.5 -109q0 -2 15.5 -31t36.5 -64q23 -41 53 -92l-2 -24q-4 -8 -8.5 -15.5t-8.5 -17.5q-6 -12 -23.5 -45t-41 -79t-50 -102.5t-53.5 -113.5l-20 -12h-65.5t-53.5 -2l-10 16q4 8 16.5 30.5t26.5 48t26.5 48 t18.5 33.5q8 16 16.5 30.5t20.5 36t29.5 56t48.5 94.5q-27 55 -63 119.5t-68.5 122t-58 98.5t-29.5 47z" />
<glyph unicode="&#x205f;" horiz-adv-x="479" />
<glyph unicode="&#x20ac;" horiz-adv-x="1193" d="M53 510q4 14 11.5 34.5t11.5 43.5l14 14h133q-2 20 -2 41v43q0 66 6 127h-49h-55.5t-48.5 -2l-15 16q6 18 11.5 36t9.5 42l14 15h150q18 102 62 193t111.5 158.5t159 106.5t205.5 39q123 0 209 -32.5t127 -57.5l10 -16q-4 -8 -9 -22.5t-10 -30t-9 -31t-6 -23.5l-15 -10 q-18 14 -44.5 33.5t-62.5 37t-82 30t-108 12.5q-88 0 -155.5 -31t-115.5 -84t-80 -124t-46 -150h147h369h48.5t39.5 4l17 -15q-6 -23 -13.5 -44t-11.5 -42l-12 -10h-57.5t-110 1t-137 1h-140.5h-155q-6 -61 -7 -125v-44t3 -44h157h289h48.5t39.5 4l14 -14q-8 -23 -14 -45.5 t-10 -40.5l-12 -10h-45t-81.5 1t-108.5 1h-128h-137q14 -94 45 -170t81 -130.5t121.5 -84t168.5 -29.5q86 0 172 43t155 102l17 -10q-4 -18 -5.5 -31.5t-3.5 -24.5t-2 -25.5v-35.5l-10 -20q-41 -27 -80 -47.5t-80 -33.5t-86 -20.5t-100 -7.5q-119 0 -211 39t-157.5 108.5 t-106.5 166t-59 211.5h-62h-56.5t-49.5 -2z" />
<glyph unicode="&#x2122;" horiz-adv-x="1406" d="M49 1360v86h537v-86h-217v-594h-97v594h-223zM643 766v680h137l178 -559l175 559h137v-680h-94v446l4 138l-35 -119l-148 -465h-86l-147 467l-35 115l6 -136v-446h-92z" />
<glyph unicode="&#x25fc;" horiz-adv-x="1054" d="M0 0v1055h1055v-1055h-1055z" />
<glyph unicode="&#xfb01;" horiz-adv-x="980" d="M0 954q4 31 4 43.5v44.5l12 13q27 -2 44.5 -3l35 -2t39 -1h55.5l-4 137q-2 74 -1 122t12 89q18 68 56 105.5t83 56t88 22.5t68 4q29 0 45 -3t34 -7l11 -16q-4 -25 -5.5 -37.5t-1.5 -38.5l-16 -15q-14 4 -29.5 7.5t-44.5 3.5q-63 0 -98 -19.5t-50 -55.5t-17.5 -85 t-2.5 -107v-163q55 0 116 1t108 1l14 -17q-4 -29 -4 -40t-2 -40l-14 -12q-29 0 -51.5 1t-47 1h-52.5h-67v-135t2.5 -228t4.5 -279.5t8 -289.5l-10 -12h-36.5h-25.5t-24.5 -1t-32.5 -1l-13 12q0 45 1.5 88t1.5 105q0 186 -1.5 371.5t-1.5 371.5q-68 0 -103.5 -1t-72.5 -3z M678 1399q2 45 3 65.5t-1 61.5l16 16q23 2 39.5 3t30.5 2t28.5 3t32.5 4l15 -16q-2 -20 -3 -34.5t-1 -28t1 -27.5t1 -37l-15 -16q-23 -2 -37 -3t-27 -2t-28.5 -3.5t-38.5 -4.5zM686 1028l12 12q20 2 33.5 4.5t26 3.5t27 4t36.5 7l13 -12q-2 -41 -4.5 -94.5t-2.5 -139.5 q0 -49 1 -134t3.5 -174t4.5 -163t4 -100q0 -12 1 -44t2 -69t3 -69.5t2 -47.5l-12 -12q-41 2 -63.5 2t-59.5 -4l-11 12v51q2 49 2.5 98.5t0.5 98.5q0 82 -1.5 183.5t-2.5 205t-5 202.5t-10 179z" />
<glyph unicode="&#xfb02;" horiz-adv-x="980" d="M0 954q4 31 4 43.5v44.5l12 13q27 -2 44.5 -3l35 -2t39 -1h55.5l-4 137q-2 74 -1 122t12 89q18 68 56 105.5t83 56t88 22.5t68 4q29 0 45 -3t34 -7l11 -16q-4 -25 -5.5 -37.5t-1.5 -38.5l-16 -15q-14 4 -29.5 7.5t-44.5 3.5q-63 0 -98 -19.5t-50 -55.5t-17.5 -85 t-2.5 -107v-163q55 0 116 1t108 1l14 -17q-4 -29 -4 -40t-2 -40l-14 -12q-29 0 -51.5 1t-47 1h-52.5h-67v-135t2.5 -228t4.5 -279.5t8 -289.5l-10 -12h-36.5h-25.5t-24.5 -1t-32.5 -1l-13 12q0 45 1.5 88t1.5 105q0 186 -1.5 371.5t-1.5 371.5q-68 0 -103.5 -1t-72.5 -3z M682 1591l12 15q43 4 65.5 7t63.5 11l13 -12q-6 -287 -7 -574q0 -102 1 -246.5t3.5 -293t5.5 -279.5t7 -207l-12 -12q-35 2 -56.5 2t-64.5 -4l-11 12q0 61 -1 101.5t-1 83.5t1 97t1 144v373q0 139 -1 276.5t-5 274.5q-4 92 -7 141t-7 90z" />
</font>
</defs>
</svg>
